{
	"asset":{
		"generator":"Khronos glTF Blender I/O v3.6.27",
		"version":"2.0"
	},
	"scene":0,
	"scenes":[
		{
			"name":"Scene",
			"nodes":[
				0,
				1,
				2,
				3,
				4,
				5,
				6,
				7
			]
		}
	],
	"nodes":[
		{
			"mesh":0,
			"name":"Vert",
			"translation":[
				-0.033257484436035156,
				0,
				0
			]
		},
		{
			"name":"Circle",
			"rotation":[
				0.7071068286895752,
				0,
				0,
				0.7071068286895752
			],
			"scale":[
				1.9442471265792847,
				0.26219114661216736,
				0.26219114661216736
			],
			"translation":[
				-5.246562957763672,
				3.092451333999634,
				4.114727973937988
			]
		},
		{
			"name":"Plane",
			"rotation":[
				0.7071068286895752,
				0,
				0,
				0.7071068286895752
			],
			"scale":[
				2.16943097114563,
				2.16943097114563,
				2.16943097114563
			],
			"translation":[
				-5.193485736846924,
				2.935518741607666,
				4.3693742752075195
			]
		},
		{
			"name":"Cylinder",
			"translation":[
				-5.193485736846924,
				11.068408966064453,
				0
			]
		},
		{
			"mesh":1,
			"name":"Vert.001",
			"scale":[
				0.9153748154640198,
				0.9153748154640198,
				0.9153748154640198
			],
			"translation":[
				-0.033257484436035156,
				0.19987483322620392,
				0
			]
		},
		{
			"name":"Area",
			"rotation":[
				-0.7071068286895752,
				0,
				0,
				0.7071068286895752
			],
			"scale":[
				4.645910739898682,
				4.645910263061523,
				4.645910263061523
			],
			"translation":[
				0,
				25.273265838623047,
				0
			]
		},
		{
			"mesh":2,
			"name":"Cylinder.001",
			"scale":[
				0.5946003794670105,
				0.5946003794670105,
				0.5946003794670105
			],
			"translation":[
				0,
				9.710763931274414,
				0
			]
		},
		{
			"camera":0,
			"name":"Camera",
			"rotation":[
				0.038031913340091705,
				-0.0031134451273828745,
				0.0044747041538357735,
				0.9992616772651672
			],
			"translation":[
				-0.7222633957862854,
				4.325077533721924,
				39.09836196899414
			]
		}
	],
	"cameras":[
		{
			"name":"Camera.001",
			"perspective":{
				"aspectRatio":1.7777777777777777,
				"yfov":0.39959652046304894,
				"zfar":1000,
				"znear":0.10000000149011612
			},
			"type":"perspective"
		}
	],
	"materials":[
		{
			"doubleSided":true,
			"name":"glass.001",
			"pbrMetallicRoughness":{
				"baseColorFactor":[
					0.975879430770874,
					1,
					0.9818993210792542,
					0.8999999761581421
				],
				"metallicFactor":0,
				"roughnessFactor":0.06818182021379471
			}
		},
		{
			"doubleSided":true,
			"name":"glass.002",
			"pbrMetallicRoughness":{
				"baseColorFactor":[
					0.8007188439369202,
					0,
					0.005861902143806219,
					1
				],
				"metallicFactor":0,
				"roughnessFactor":0.44999998807907104
			}
		},
		{
			"doubleSided":true,
			"name":"wood",
			"pbrMetallicRoughness":{
				"baseColorFactor":[
					0.13962966203689575,
					0.06133827567100525,
					0,
					1
				],
				"metallicFactor":0
			}
		}
	],
	"meshes":[
		{
			"name":"Vert",
			"primitives":[
				{
					"attributes":{
						"POSITION":0,
						"NORMAL":1
					},
					"indices":2,
					"material":0
				}
			]
		},
		{
			"name":"Vert.001",
			"primitives":[
				{
					"attributes":{
						"POSITION":3,
						"NORMAL":4
					},
					"indices":5,
					"material":1
				}
			]
		},
		{
			"name":"Cylinder.001",
			"primitives":[
				{
					"attributes":{
						"POSITION":6,
						"NORMAL":7,
						"TEXCOORD_0":8
					},
					"indices":9,
					"material":2
				}
			]
		}
	],
	"accessors":[
		{
			"bufferView":0,
			"componentType":5126,
			"count":83970,
			"max":[
				2.9964659214019775,
				9.941264152526855,
				2.9964659214019775
			],
			"min":[
				-2.9964659214019775,
				-0.006162548903375864,
				-2.9964659214019775
			],
			"type":"VEC3"
		},
		{
			"bufferView":1,
			"componentType":5126,
			"count":83970,
			"type":"VEC3"
		},
		{
			"bufferView":2,
			"componentType":5125,
			"count":503808,
			"type":"SCALAR"
		},
		{
			"bufferView":3,
			"componentType":5126,
			"count":2690,
			"max":[
				3.010281562805176,
				3.8209338188171387,
				3.010281562805176
			],
			"min":[
				-3.010281562805176,
				-0.01398121565580368,
				-3.010281562805176
			],
			"type":"VEC3"
		},
		{
			"bufferView":4,
			"componentType":5126,
			"count":2690,
			"type":"VEC3"
		},
		{
			"bufferView":5,
			"componentType":5123,
			"count":16128,
			"type":"SCALAR"
		},
		{
			"bufferView":6,
			"componentType":5126,
			"count":644,
			"max":[
				1.0931293964385986,
				1.1699321269989014,
				1.1313726902008057
			],
			"min":[
				-1.1902611255645752,
				-0.9999996423721313,
				-1.1520178318023682
			],
			"type":"VEC3"
		},
		{
			"bufferView":7,
			"componentType":5126,
			"count":644,
			"type":"VEC3"
		},
		{
			"bufferView":8,
			"componentType":5126,
			"count":644,
			"type":"VEC2"
		},
		{
			"bufferView":9,
			"componentType":5123,
			"count":1332,
			"type":"SCALAR"
		}
	],
	"bufferViews":[
		{
			"buffer":0,
			"byteLength":1007640,
			"byteOffset":0,
			"target":34962
		},
		{
			"buffer":0,
			"byteLength":1007640,
			"byteOffset":1007640,
			"target":34962
		},
		{
			"buffer":0,
			"byteLength":2015232,
			"byteOffset":2015280,
			"target":34963
		},
		{
			"buffer":0,
			"byteLength":32280,
			"byteOffset":4030512,
			"target":34962
		},
		{
			"buffer":0,
			"byteLength":32280,
			"byteOffset":4062792,
			"target":34962
		},
		{
			"buffer":0,
			"byteLength":32256,
			"byteOffset":4095072,
			"target":34963
		},
		{
			"buffer":0,
			"byteLength":7728,
			"byteOffset":4127328,
			"target":34962
		},
		{
			"buffer":0,
			"byteLength":7728,
			"byteOffset":4135056,
			"target":34962
		},
		{
			"buffer":0,
			"byteLength":5152,
			"byteOffset":4142784,
			"target":34962
		},
		{
			"buffer":0,
			"byteLength":2664,
			"byteOffset":4147936,
			"target":34963
		}
	],
	"buffers":[
		{
			"byteLength":4150600,
			"uri":"bottle-f11b33e909bd0f61ec3e5877ffaab137.bin"
		}
	]
}
