{
	"asset":{
		"generator":"Khronos glTF Blender I/O v3.6.27",
		"version":"2.0"
	},
	"scene":0,
	"scenes":[
		{
			"name":"Scene",
			"nodes":[
				0,
				1,
				2,
				3,
				4,
				5,
				6,
				7,
				8,
				9
			]
		}
	],
	"nodes":[
		{
			"mesh":0,
			"name":"Cylinder",
			"scale":[
				4.910940647125244,
				4.910940647125244,
				4.910940647125244
			],
			"translation":[
				-22.292362213134766,
				-30.674514770507812,
				4.213218688964844
			]
		},
		{
			"mesh":1,
			"name":"Cylinder.001",
			"rotation":[
				0.7071068286895752,
				0,
				0,
				0.7071068286895752
			],
			"scale":[
				5.6678690910339355,
				5.6678690910339355,
				5.6678690910339355
			],
			"translation":[
				-28.67658233642578,
				16.910762786865234,
				-6.367799758911133
			]
		},
		{
			"mesh":2,
			"name":"Cylinder.002",
			"rotation":[
				-0.7071068286895752,
				0.7071068286895752,
				0,
				1.99496057007309e-07
			],
			"scale":[
				5.6678690910339355,
				5.6678690910339355,
				5.6678690910339355
			],
			"translation":[
				-15.132423400878906,
				46.36103057861328,
				4.193061828613281
			]
		},
		{
			"mesh":3,
			"name":"Cylinder.003",
			"rotation":[
				-0.7071068286895752,
				-0.7071068286895752,
				0,
				4.52377150850225e-07
			],
			"scale":[
				5.6678690910339355,
				5.6678690910339355,
				5.6678690910339355
			],
			"translation":[
				-13.168047904968262,
				46.36103057861328,
				4.193061828613281
			]
		},
		{
			"mesh":4,
			"name":"Cylinder.004",
			"rotation":[
				0,
				0,
				-0.7071068286895752,
				0.7071068286895752
			],
			"scale":[
				4.910940647125244,
				4.910940647125244,
				4.910940647125244
			],
			"translation":[
				39.58549499511719,
				23.3458309173584,
				4.213218688964844
			]
		},
		{
			"mesh":5,
			"name":"Cylinder.005",
			"rotation":[
				0.7071068286895752,
				0,
				0,
				0.7071068286895752
			],
			"scale":[
				5.6678690910339355,
				5.6678690910339355,
				5.6678690910339355
			],
			"translation":[
				5.699999809265137,
				-7.643939018249512,
				-6.367799758911133
			]
		},
		{
			"mesh":6,
			"name":"Cylinder.006",
			"rotation":[
				0.49561774730682373,
				0.49561774730682373,
				-0.5043442249298096,
				0.5043442249298096
			],
			"scale":[
				5.6678690910339355,
				5.6678690910339355,
				5.6678690910339355
			],
			"translation":[
				40.07658386230469,
				-7.643939018249512,
				-6.367799758911133
			]
		},
		{
			"mesh":7,
			"name":"Cylinder.007",
			"rotation":[
				-0.6013342142105103,
				0.6013344526290894,
				0.37201744318008423,
				0.3720177710056305
			],
			"scale":[
				5.6678690910339355,
				5.6678690910339355,
				5.6678690910339355
			],
			"translation":[
				30.254703521728516,
				-7.643939018249512,
				-6.367799758911133
			]
		},
		{
			"camera":0,
			"name":"Camera",
			"rotation":[
				-0.017452329397201538,
				0,
				0,
				0.9998477101325989
			],
			"translation":[
				18.663576126098633,
				25.43862533569336,
				183.90512084960938
			]
		},
		{
			"name":"Area",
			"translation":[
				0,
				20,
				200
			]
		}
	],
	"cameras":[
		{
			"name":"Camera.001",
			"perspective":{
				"aspectRatio":1.7777777777777777,
				"yfov":0.39959652046304894,
				"zfar":1000,
				"znear":0.10000000149011612
			},
			"type":"perspective"
		}
	],
	"materials":[
		{
			"doubleSided":true,
			"name":"pipe",
			"pbrMetallicRoughness":{
				"baseColorFactor":[
					0.3409433662891388,
					0.3409433662891388,
					0.3409433662891388,
					1
				],
				"roughnessFactor":0.40454545617103577
			}
		},
		{
			"doubleSided":true,
			"name":"kreplenie",
			"pbrMetallicRoughness":{
				"baseColorFactor":[
					0.14846791326999664,
					0.14846791326999664,
					0.14846791326999664,
					1
				],
				"roughnessFactor":0.4272727072238922
			}
		},
		{
			"doubleSided":true,
			"name":"bolt",
			"pbrMetallicRoughness":{
				"baseColorFactor":[
					0.6751776933670044,
					0.685834527015686,
					0.6316558122634888,
					1
				],
				"roughnessFactor":0.2818181812763214
			}
		}
	],
	"meshes":[
		{
			"name":"Cylinder.001",
			"primitives":[
				{
					"attributes":{
						"POSITION":0,
						"NORMAL":1,
						"TEXCOORD_0":2
					},
					"indices":3,
					"material":0
				}
			]
		},
		{
			"name":"Cylinder.002",
			"primitives":[
				{
					"attributes":{
						"POSITION":4,
						"NORMAL":5,
						"TEXCOORD_0":6
					},
					"indices":7,
					"material":1
				},
				{
					"attributes":{
						"POSITION":8,
						"NORMAL":9,
						"TEXCOORD_0":10
					},
					"indices":11,
					"material":2
				}
			]
		},
		{
			"name":"Cylinder.003",
			"primitives":[
				{
					"attributes":{
						"POSITION":12,
						"NORMAL":13,
						"TEXCOORD_0":14
					},
					"indices":15,
					"material":1
				}
			]
		},
		{
			"name":"Cylinder.004",
			"primitives":[
				{
					"attributes":{
						"POSITION":16,
						"NORMAL":17,
						"TEXCOORD_0":18
					},
					"indices":15,
					"material":1
				}
			]
		},
		{
			"name":"Cylinder.006",
			"primitives":[
				{
					"attributes":{
						"POSITION":19,
						"NORMAL":20,
						"TEXCOORD_0":21
					},
					"indices":22,
					"material":0
				}
			]
		},
		{
			"name":"Cylinder.009",
			"primitives":[
				{
					"attributes":{
						"POSITION":23,
						"NORMAL":24,
						"TEXCOORD_0":25
					},
					"indices":7,
					"material":1
				},
				{
					"attributes":{
						"POSITION":26,
						"NORMAL":27,
						"TEXCOORD_0":28
					},
					"indices":11,
					"material":2
				}
			]
		},
		{
			"name":"Cylinder.010",
			"primitives":[
				{
					"attributes":{
						"POSITION":29,
						"NORMAL":30,
						"TEXCOORD_0":31
					},
					"indices":7,
					"material":1
				},
				{
					"attributes":{
						"POSITION":32,
						"NORMAL":33,
						"TEXCOORD_0":34
					},
					"indices":11,
					"material":2
				}
			]
		},
		{
			"name":"Cylinder.011",
			"primitives":[
				{
					"attributes":{
						"POSITION":35,
						"NORMAL":36,
						"TEXCOORD_0":37
					},
					"indices":7,
					"material":1
				},
				{
					"attributes":{
						"POSITION":38,
						"NORMAL":39,
						"TEXCOORD_0":40
					},
					"indices":11,
					"material":2
				}
			]
		}
	],
	"accessors":[
		{
			"bufferView":0,
			"componentType":5126,
			"count":4539,
			"max":[
				15.664873123168945,
				16.664875030517578,
				1.0000054836273193
			],
			"min":[
				-2.3429315090179443,
				8.673517227172852,
				-1.9931530952453613
			],
			"type":"VEC3"
		},
		{
			"bufferView":1,
			"componentType":5126,
			"count":4539,
			"type":"VEC3"
		},
		{
			"bufferView":2,
			"componentType":5126,
			"count":4539,
			"type":"VEC2"
		},
		{
			"bufferView":3,
			"componentType":5123,
			"count":8766,
			"type":"SCALAR"
		},
		{
			"bufferView":4,
			"componentType":5126,
			"count":419,
			"max":[
				1.3288811445236206,
				0.17544379830360413,
				1.3288811445236206
			],
			"min":[
				-1.3288811445236206,
				-0.17544379830360413,
				-1.3288811445236206
			],
			"type":"VEC3"
		},
		{
			"bufferView":5,
			"componentType":5126,
			"count":419,
			"type":"VEC3"
		},
		{
			"bufferView":6,
			"componentType":5126,
			"count":419,
			"type":"VEC2"
		},
		{
			"bufferView":7,
			"componentType":5123,
			"count":1140,
			"type":"SCALAR"
		},
		{
			"bufferView":8,
			"componentType":5126,
			"count":219187,
			"max":[
				1.2600771188735962,
				0.2698523700237274,
				1.2332780361175537
			],
			"min":[
				-1.260076880455017,
				-0.03559684753417969,
				-1.2512187957763672
			],
			"type":"VEC3"
		},
		{
			"bufferView":9,
			"componentType":5126,
			"count":219187,
			"type":"VEC3"
		},
		{
			"bufferView":10,
			"componentType":5126,
			"count":219187,
			"type":"VEC2"
		},
		{
			"bufferView":11,
			"componentType":5125,
			"count":335856,
			"type":"SCALAR"
		},
		{
			"bufferView":12,
			"componentType":5126,
			"count":219606,
			"max":[
				1.3288811445236206,
				0.2698523700237274,
				1.3288811445236206
			],
			"min":[
				-1.3288811445236206,
				-0.17544379830360413,
				-1.3288811445236206
			],
			"type":"VEC3"
		},
		{
			"bufferView":13,
			"componentType":5126,
			"count":219606,
			"type":"VEC3"
		},
		{
			"bufferView":14,
			"componentType":5126,
			"count":219606,
			"type":"VEC2"
		},
		{
			"bufferView":15,
			"componentType":5125,
			"count":336996,
			"type":"SCALAR"
		},
		{
			"bufferView":16,
			"componentType":5126,
			"count":219606,
			"max":[
				1.3288811445236206,
				0.2698523700237274,
				1.3288811445236206
			],
			"min":[
				-1.3288811445236206,
				-0.17544379830360413,
				-1.3288811445236206
			],
			"type":"VEC3"
		},
		{
			"bufferView":17,
			"componentType":5126,
			"count":219606,
			"type":"VEC3"
		},
		{
			"bufferView":18,
			"componentType":5126,
			"count":219606,
			"type":"VEC2"
		},
		{
			"bufferView":19,
			"componentType":5126,
			"count":192,
			"max":[
				1,
				6.991977691650391,
				1
			],
			"min":[
				-1,
				-6.991977691650391,
				-1
			],
			"type":"VEC3"
		},
		{
			"bufferView":20,
			"componentType":5126,
			"count":192,
			"type":"VEC3"
		},
		{
			"bufferView":21,
			"componentType":5126,
			"count":192,
			"type":"VEC2"
		},
		{
			"bufferView":22,
			"componentType":5123,
			"count":372,
			"type":"SCALAR"
		},
		{
			"bufferView":23,
			"componentType":5126,
			"count":419,
			"max":[
				1.3288811445236206,
				0.17544379830360413,
				1.3288811445236206
			],
			"min":[
				-1.3288811445236206,
				-0.17544379830360413,
				-1.3288811445236206
			],
			"type":"VEC3"
		},
		{
			"bufferView":24,
			"componentType":5126,
			"count":419,
			"type":"VEC3"
		},
		{
			"bufferView":25,
			"componentType":5126,
			"count":419,
			"type":"VEC2"
		},
		{
			"bufferView":26,
			"componentType":5126,
			"count":219187,
			"max":[
				1.2600771188735962,
				0.2698523700237274,
				1.2332780361175537
			],
			"min":[
				-1.260076880455017,
				-0.03559684753417969,
				-1.2512187957763672
			],
			"type":"VEC3"
		},
		{
			"bufferView":27,
			"componentType":5126,
			"count":219187,
			"type":"VEC3"
		},
		{
			"bufferView":28,
			"componentType":5126,
			"count":219187,
			"type":"VEC2"
		},
		{
			"bufferView":29,
			"componentType":5126,
			"count":419,
			"max":[
				1.3288811445236206,
				0.17544379830360413,
				1.3288811445236206
			],
			"min":[
				-1.3288811445236206,
				-0.17544379830360413,
				-1.3288811445236206
			],
			"type":"VEC3"
		},
		{
			"bufferView":30,
			"componentType":5126,
			"count":419,
			"type":"VEC3"
		},
		{
			"bufferView":31,
			"componentType":5126,
			"count":419,
			"type":"VEC2"
		},
		{
			"bufferView":32,
			"componentType":5126,
			"count":219187,
			"max":[
				1.2600771188735962,
				0.2698523700237274,
				1.2332780361175537
			],
			"min":[
				-1.260076880455017,
				-0.03559684753417969,
				-1.2512187957763672
			],
			"type":"VEC3"
		},
		{
			"bufferView":33,
			"componentType":5126,
			"count":219187,
			"type":"VEC3"
		},
		{
			"bufferView":34,
			"componentType":5126,
			"count":219187,
			"type":"VEC2"
		},
		{
			"bufferView":35,
			"componentType":5126,
			"count":419,
			"max":[
				1.3288811445236206,
				0.17544379830360413,
				1.3288811445236206
			],
			"min":[
				-1.3288811445236206,
				-0.17544379830360413,
				-1.3288811445236206
			],
			"type":"VEC3"
		},
		{
			"bufferView":36,
			"componentType":5126,
			"count":419,
			"type":"VEC3"
		},
		{
			"bufferView":37,
			"componentType":5126,
			"count":419,
			"type":"VEC2"
		},
		{
			"bufferView":38,
			"componentType":5126,
			"count":219187,
			"max":[
				1.2600771188735962,
				0.2698523700237274,
				1.2332780361175537
			],
			"min":[
				-1.260076880455017,
				-0.03559684753417969,
				-1.2512187957763672
			],
			"type":"VEC3"
		},
		{
			"bufferView":39,
			"componentType":5126,
			"count":219187,
			"type":"VEC3"
		},
		{
			"bufferView":40,
			"componentType":5126,
			"count":219187,
			"type":"VEC2"
		}
	],
	"bufferViews":[
		{
			"buffer":0,
			"byteLength":54468,
			"byteOffset":0,
			"target":34962
		},
		{
			"buffer":0,
			"byteLength":54468,
			"byteOffset":54468,
			"target":34962
		},
		{
			"buffer":0,
			"byteLength":36312,
			"byteOffset":108936,
			"target":34962
		},
		{
			"buffer":0,
			"byteLength":17532,
			"byteOffset":145248,
			"target":34963
		},
		{
			"buffer":0,
			"byteLength":5028,
			"byteOffset":162780,
			"target":34962
		},
		{
			"buffer":0,
			"byteLength":5028,
			"byteOffset":167808,
			"target":34962
		},
		{
			"buffer":0,
			"byteLength":3352,
			"byteOffset":172836,
			"target":34962
		},
		{
			"buffer":0,
			"byteLength":2280,
			"byteOffset":176188,
			"target":34963
		},
		{
			"buffer":0,
			"byteLength":2630244,
			"byteOffset":178468,
			"target":34962
		},
		{
			"buffer":0,
			"byteLength":2630244,
			"byteOffset":2808712,
			"target":34962
		},
		{
			"buffer":0,
			"byteLength":1753496,
			"byteOffset":5438956,
			"target":34962
		},
		{
			"buffer":0,
			"byteLength":1343424,
			"byteOffset":7192452,
			"target":34963
		},
		{
			"buffer":0,
			"byteLength":2635272,
			"byteOffset":8535876,
			"target":34962
		},
		{
			"buffer":0,
			"byteLength":2635272,
			"byteOffset":11171148,
			"target":34962
		},
		{
			"buffer":0,
			"byteLength":1756848,
			"byteOffset":13806420,
			"target":34962
		},
		{
			"buffer":0,
			"byteLength":1347984,
			"byteOffset":15563268,
			"target":34963
		},
		{
			"buffer":0,
			"byteLength":2635272,
			"byteOffset":16911252,
			"target":34962
		},
		{
			"buffer":0,
			"byteLength":2635272,
			"byteOffset":19546524,
			"target":34962
		},
		{
			"buffer":0,
			"byteLength":1756848,
			"byteOffset":22181796,
			"target":34962
		},
		{
			"buffer":0,
			"byteLength":2304,
			"byteOffset":23938644,
			"target":34962
		},
		{
			"buffer":0,
			"byteLength":2304,
			"byteOffset":23940948,
			"target":34962
		},
		{
			"buffer":0,
			"byteLength":1536,
			"byteOffset":23943252,
			"target":34962
		},
		{
			"buffer":0,
			"byteLength":744,
			"byteOffset":23944788,
			"target":34963
		},
		{
			"buffer":0,
			"byteLength":5028,
			"byteOffset":23945532,
			"target":34962
		},
		{
			"buffer":0,
			"byteLength":5028,
			"byteOffset":23950560,
			"target":34962
		},
		{
			"buffer":0,
			"byteLength":3352,
			"byteOffset":23955588,
			"target":34962
		},
		{
			"buffer":0,
			"byteLength":2630244,
			"byteOffset":23958940,
			"target":34962
		},
		{
			"buffer":0,
			"byteLength":2630244,
			"byteOffset":26589184,
			"target":34962
		},
		{
			"buffer":0,
			"byteLength":1753496,
			"byteOffset":29219428,
			"target":34962
		},
		{
			"buffer":0,
			"byteLength":5028,
			"byteOffset":30972924,
			"target":34962
		},
		{
			"buffer":0,
			"byteLength":5028,
			"byteOffset":30977952,
			"target":34962
		},
		{
			"buffer":0,
			"byteLength":3352,
			"byteOffset":30982980,
			"target":34962
		},
		{
			"buffer":0,
			"byteLength":2630244,
			"byteOffset":30986332,
			"target":34962
		},
		{
			"buffer":0,
			"byteLength":2630244,
			"byteOffset":33616576,
			"target":34962
		},
		{
			"buffer":0,
			"byteLength":1753496,
			"byteOffset":36246820,
			"target":34962
		},
		{
			"buffer":0,
			"byteLength":5028,
			"byteOffset":38000316,
			"target":34962
		},
		{
			"buffer":0,
			"byteLength":5028,
			"byteOffset":38005344,
			"target":34962
		},
		{
			"buffer":0,
			"byteLength":3352,
			"byteOffset":38010372,
			"target":34962
		},
		{
			"buffer":0,
			"byteLength":2630244,
			"byteOffset":38013724,
			"target":34962
		},
		{
			"buffer":0,
			"byteLength":2630244,
			"byteOffset":40643968,
			"target":34962
		},
		{
			"buffer":0,
			"byteLength":1753496,
			"byteOffset":43274212,
			"target":34962
		}
	],
	"buffers":[
		{
			"byteLength":45027708,
			"uri":"untitled-912bd515a16859213004ad76b4f891f7.bin"
		}
	]
}
