<svg width="132" height="364" viewBox="0 0 132 364" fill="none" xmlns="http://www.w3.org/2000/svg">
<g style="mix-blend-mode:darken" filter="url(#filter0_di_43_93)">
<path d="M69.092 53L59.592 43V18L84.092 16L86.592 30.5L88.092 37L83.092 55.5L82.092 57.5H75.092L69.092 53Z" fill="#251414"/>
<path d="M69.092 53L59.592 43V18L84.092 16L86.592 30.5L88.092 37L83.092 55.5L82.092 57.5H75.092L69.092 53Z" stroke="#230000"/>
</g>
<g filter="url(#filter1_dd_43_93)">
<path d="M83.8877 31.0697C82.3906 32.5595 79.0563 28.6392 79.0563 28.6392L75.592 25.0338L80.1803 25.4791L84.5154 27.9703C84.5154 27.9703 84.7631 30.1985 83.8877 31.0697Z" fill="#B20000" shape-rendering="crispEdges"/>
<path d="M83.8877 31.0697C82.3906 32.5595 79.0563 28.6392 79.0563 28.6392L75.592 25.0338L80.1803 25.4791L84.5154 27.9703C84.5154 27.9703 84.7631 30.1985 83.8877 31.0697Z" stroke="url(#paint0_linear_43_93)" shape-rendering="crispEdges"/>
</g>
<path d="M53.7195 1H71.2941L84.7195 14.5L81.7195 34.5L83.2196 54.5L65.2196 69L46.7196 82.5L39.0917 76.5L38.7196 64L38.7196 50L38.7196 45.5L38.7195 40.5L44.0917 17L53.7195 1Z" fill="#251414"/>
<path d="M44.0917 36.5L38.7195 40.5M44.0917 36.5L38.7196 45.5M44.0917 36.5L38.7196 50M44.0917 36.5L83.2196 54.5M44.0917 36.5L84.7195 14.5M44.0917 36.5V17M53.7195 1H71.2941L84.7195 14.5M53.7195 1L44.0917 17M53.7195 1L84.7195 14.5M44.0917 17L38.7195 40.5M44.0917 17L84.7195 14.5M38.7195 40.5L38.7196 45.5M38.7196 45.5L38.7196 50M38.7196 50L38.7196 64L39.0917 76.5L46.7196 82.5L65.2196 69L83.2196 54.5M84.7195 14.5L81.7195 34.5L83.2196 54.5" stroke="#230000"/>
<path d="M120.978 111L114.808 106.5L111.209 97V73.5L102.468 74L96.2974 82L88.0705 100L86.5279 110C89.2702 114.333 94.7549 123.1 94.7549 123.5C94.7549 123.9 108.466 122.667 115.322 122L119.95 113L120.978 111Z" fill="#251414"/>
<path d="M120.978 111L86.5279 110M120.978 111L114.808 106.5M120.978 111L119.95 113M86.5279 110L114.808 106.5M86.5279 110L111.209 97M86.5279 110L88.0705 100M86.5279 110L119.95 113M86.5279 110C89.2702 114.333 94.7549 123.1 94.7549 123.5C94.7549 123.9 108.466 122.667 115.322 122L119.95 113M114.808 106.5L111.209 97M111.209 97L88.0705 100M111.209 97L96.2974 82M111.209 97C111.209 95.8 111.209 80.6667 111.209 73.5L102.468 74M111.209 97L102.468 74M88.0705 100L96.2974 82M96.2974 82L102.468 74" stroke="#230000"/>
<path d="M95.7836 147.5L99.8971 154.5L103.496 169.5L124.064 161L120.979 146L123.035 144L116.865 130L117.894 127.5V123.5L114.808 122.5L94.241 123.5L95.7836 128.5L99.8971 130L97.8403 144L95.7836 147.5Z" fill="#251414"/>
<path d="M120.979 146L99.8971 154.5M120.979 146L95.7836 147.5M120.979 146L97.8403 144M120.979 146L123.035 144M120.979 146L124.064 161L103.496 169.5L99.8971 154.5M99.8971 154.5L95.7836 147.5M95.7836 147.5L97.8403 144M123.035 144H97.8403M123.035 144L116.865 130M97.8403 144L99.8971 130M116.865 130H99.8971M116.865 130L117.894 127.5M99.8971 130L114.808 122.5M99.8971 130L117.894 123.5M99.8971 130L117.894 127.5M99.8971 130L95.7836 128.5M117.894 127.5V123.5M117.894 123.5L114.808 122.5M114.808 122.5L95.7836 128.5M114.808 122.5L94.241 123.5L95.7836 128.5" stroke="#230000"/>
<path d="M125.092 201L126.635 164.5L129.72 160V155.75V151.5L123.035 156.5L102.982 168L104.525 177L112.752 201H125.092Z" fill="#403535"/>
<path d="M125.092 201L126.635 164.5M125.092 201H112.752M125.092 201L123.035 156.5M126.635 164.5L129.72 160M126.635 164.5C126.635 163.7 124.235 158.833 123.035 156.5M129.72 160L123.035 156.5M129.72 160V155.75M123.035 156.5L129.72 151.5V155.75M123.035 156.5L102.982 168L104.525 177L112.752 201M123.035 156.5L112.752 201M123.035 156.5L129.72 155.75" stroke="black"/>
<path d="M124.645 201L130.72 218L128.72 214.5L127.72 213.5L126.72 214L125.72 215.5L124.22 214.5L123.22 215L122.72 216L123.22 218L121.72 217H120.72L120.22 217.5L121.22 220.5L118.72 218.5H117.72V222.5L118.22 225H114.22L109.22 220V216.5L112.305 201H124.645Z" fill="#403535"/>
<path d="M117.72 222.5V218.5H118.72L121.22 220.5L120.22 217.5L120.72 217H121.72L123.22 218L122.72 216L123.22 215L124.22 214.5L125.72 215.5L126.72 214L127.72 213.5L128.72 214.5L130.72 218L124.645 201H112.305L109.22 216.5V220L114.22 225H118.22L117.72 222.5ZM117.72 222.5L114.72 220V216.5" stroke="black"/>
<path d="M126.72 214L127.72 213.5L129.22 215L130.72 218L130.22 220.5L127.72 218L126.22 215L126.72 214Z" fill="#403535" stroke="black"/>
<path d="M123.22 215L122.72 216L124.22 219.5L127.72 225L129.22 224.5L129.72 221.5L126.72 216.5L124.22 214.5L123.22 215Z" fill="#403535" stroke="black"/>
<path d="M122.22 228L124.22 227L121.22 221L118.72 218.5H117.72L117.22 219.5L118.22 223.5L122.22 228Z" fill="#403535" stroke="black"/>
<path d="M124.72 226.5L127.22 225.5L124.72 220L121.72 217H120.72L120.22 217.5L121.72 221.5L124.72 226.5Z" fill="#403535" stroke="black"/>
<path d="M110.22 213L109.22 216.5V220L111.72 223L114.22 225H118.22L116.72 222L114.72 220V216" stroke="black"/>
<path d="M14.219 145L13.8219 154.5L12.4459 177.108L19.8974 186.506L25.299 181.303L26.8182 171.926L25.219 162L30.9265 136.55L31.9266 126.05L12.8672 124.449L13.1347 129.051L10.9267 141.05L14.219 145Z" fill="#251414"/>
<path d="M26.8182 171.926L13.8219 154.5M26.8182 171.926L25.219 162M26.8182 171.926L25.299 181.303L19.8974 186.506L12.4459 177.108L13.8219 154.5M13.8219 154.5L25.219 162M13.8219 154.5L14.219 145M25.219 162L14.219 145M25.219 162L30.9265 136.55M14.219 145L10.9267 141.05M14.219 145L30.9265 136.55M30.9265 136.55L10.9267 141.05M30.9265 136.55L13.1347 129.051M30.9265 136.55L31.9266 126.05L12.8672 124.449L13.1347 129.051M10.9267 141.05L13.1347 129.051" stroke="#230000"/>
<path d="M15.2192 119.5L12.2192 125L12.7192 127H32.7192L31.7192 114.5L26.2197 98L25.7197 86L38.7195 64L13.7197 89L16.7192 112L13.7197 115.5L15.2192 119.5Z" fill="#251414"/>
<path d="M32.7192 127L12.2192 125M32.7192 127L15.2192 119.5M32.7192 127L16.7192 112M32.7192 127L13.7197 115.5M32.7192 127L31.7192 114.5M32.7192 127H12.7192L12.2192 125M12.2192 125L15.2192 119.5M15.2192 119.5L13.7197 115.5M31.7192 114.5L16.7192 112M31.7192 114.5L26.2197 98M16.7192 112L13.7197 115.5M16.7192 112L13.7197 89M16.7192 112L26.2197 98M26.2197 98L13.7197 89M26.2197 98L25.7197 86M13.7197 89L25.7197 86M13.7197 89L38.7195 64L25.7197 86" stroke="#230000"/>
<path d="M35.8062 207.091L24.6992 195.427L16.6324 198.701L14.4291 215.766L21.8814 221.059L27.5282 218.768L33.2433 215.524L35.8062 207.091Z" fill="#403535" stroke="black"/>
<path d="M24.6992 195.146L30.0053 167.58L13.5119 165.494L2.02619 161.839L3.16477 165.073L4.30335 168.307L7.42449 171.199L16.6324 198.42L24.6992 195.146Z" fill="#403535"/>
<path d="M24.6992 195.146L30.0053 167.58L13.5119 165.494M24.6992 195.146L16.6324 198.42M24.6992 195.146C24.1631 193.885 17.0176 174.853 13.5119 165.494M13.5119 165.494L2.02619 161.839L3.16477 165.073M13.5119 165.494L3.16477 165.073M13.5119 165.494L4.30335 168.307M13.5119 165.494L7.42449 171.199M13.5119 165.494L16.6324 198.42M16.6324 198.42L7.42449 171.199M4.30335 168.307L7.42449 171.199M4.30335 168.307L3.16477 165.073" stroke="black"/>
<path d="M96.2979 82L102.468 74L110.72 73L92.2198 62L96.2979 82Z" fill="#251414"/>
<path d="M88.071 109.5L89.7197 97.5C89.7197 97.5 75.9293 74.3072 70.0745 78L88.071 109.5Z" fill="#251414"/>
<path d="M34.58 104.929L27.5667 110.5L34.346 104.777L34.766 104.422L54.2197 88C35.7259 86.1957 35.2629 101.424 34.766 104.422C34.7121 104.748 34.6578 104.929 34.58 104.929Z" fill="#251414"/>
<path d="M28.9787 121.5L30.2198 131.5L89.2197 135.5L95.2197 121L88.071 109.5L70.0745 78L54.2197 88L34.766 104.422L34.346 104.777L27.5667 110.5L28.9787 121.5Z" fill="#251414"/>
<path d="M25.7197 86L26.2197 99.5L46.7197 82L38.7197 76.5V64.5L25.7197 86Z" fill="#251414"/>
<path d="M34.346 104.777L34.766 104.422C35.2629 101.424 35.7259 86.1957 54.2197 88L46.7197 82L26.2197 99.5L34.346 104.777Z" fill="#251414"/>
<path d="M26.2197 99.5L27.5667 110.5L34.346 104.777L26.2197 99.5Z" fill="#251414"/>
<path d="M54.2197 88L70.0745 78C70.0745 77.2 66.838 71.6667 65.2198 69L46.7197 82L54.2197 88Z" fill="#251414"/>
<path d="M70.0745 78C76.5001 66.8701 83.2198 54.5 83.2198 54.5L65.2198 69C66.838 71.6667 70.0745 77.2 70.0745 78Z" fill="#251414"/>
<path d="M83.2198 54.5C83.2198 54.5 76.5001 66.8701 70.0745 78C75.9293 74.3072 89.7197 97.5 89.7197 97.5L96.2979 82L83.2198 54.5Z" fill="#251414"/>
<path d="M96.2979 82L92.2198 62L83.2198 54.5L96.2979 82Z" fill="#251414"/>
<path d="M27.5667 110.5L28.9787 121.5L30.2198 131.5L89.2197 135.5L95.2197 121L88.071 109.5M27.5667 110.5L34.58 104.929M27.5667 110.5L26.2197 99.5M27.5667 110.5L34.346 104.777M34.58 104.929C34.6578 104.929 34.7121 104.748 34.766 104.422M34.58 104.929L34.346 104.777M54.2197 88C54.2197 88 64.2197 81.6928 70.0745 78M54.2197 88L70.0745 78M54.2197 88L46.7197 82M54.2197 88C35.7259 86.1957 35.2629 101.424 34.766 104.422M54.2197 88L34.766 104.422M70.0745 78C76.5001 66.8701 83.2198 54.5 83.2198 54.5M70.0745 78C75.9293 74.3072 89.7197 97.5 89.7197 97.5M70.0745 78L88.071 109.5M70.0745 78C70.0745 77.2 66.838 71.6667 65.2198 69M83.2198 54.5L96.2979 82M83.2198 54.5L65.2198 69M83.2198 54.5L92.2198 62M88.071 109.5L89.7197 97.5M89.7197 97.5L96.2979 82M96.2979 82L102.468 74M96.2979 82L92.2198 62M102.468 74L110.72 73L92.2198 62M102.468 74L92.2198 62M26.2197 99.5L25.7197 86L38.7197 64.5V76.5L46.7197 82M26.2197 99.5L46.7197 82M26.2197 99.5L34.346 104.777M46.7197 82L65.2198 69M34.346 104.777L34.766 104.422" stroke="#230000"/>
<path d="M29.7197 173V164.5L27.2197 154.5L30.2197 131.5L89.2195 135.5L91.2198 154.5L89.4868 158.5C89.4868 158.5 89.2143 164.657 88.7195 167C89.2143 170.319 89.4868 173 89.4868 173H29.7197Z" fill="#251414"/>
<path d="M29.7197 173V164.5M29.7197 173H89.4868C89.4868 173 89.2143 170.319 88.7195 167M29.7197 173C29.7197 173 45.1489 170.551 63.7197 167.942M29.7197 164.5L27.2197 154.5M29.7197 164.5L91.2198 154.5M29.7197 164.5L63.7197 167.942M27.2197 154.5L30.2197 131.5L89.2195 135.5L91.2198 154.5M27.2197 154.5L89.4868 158.5M88.7195 167C89.2143 164.657 89.4868 158.5 89.4868 158.5M88.7195 167C81.3365 168.037 72.1604 166.756 63.7197 167.942M89.4868 158.5L91.2198 154.5M89.4868 158.5L63.7197 167.942" stroke="#230000"/>
<g filter="url(#filter2_d_43_93)">
<path d="M30.2195 72L32.7195 69.5L38.7195 76.5L46.7195 82.5L63.2199 92L73.7199 84L84.2199 79L95.7195 63.5L104.719 69.5L95.2199 79L84.2199 89L78.2199 94.5L71.7199 101L77.7199 131.5L81.2199 137L88.2195 168H82.7195L75.2199 140.5L71.7199 132.5C71.6973 132.447 71.6765 132.379 71.6574 132.298L63.2199 105L54.2199 95.5L43.2195 85L35.7195 79L30.2195 72Z" fill="#100F0F"/>
<path d="M63.2199 92L46.7195 82.5M63.2199 92L73.7199 84M63.2199 92L78.2199 94.5M63.2199 92V105M95.7195 63.5L104.719 69.5L95.2199 79M95.7195 63.5L84.2199 79M95.7195 63.5L95.2199 79M71.7199 101L77.7199 131.5M71.7199 101L78.2199 94.5M71.7199 101L54.2199 95.5M71.7199 101C72.3865 110.551 70.9199 130.622 71.7199 132.5M88.2195 168H82.7195L75.2199 140.5M88.2195 168L81.2199 137M88.2195 168L75.2199 140.5M63.2199 105L54.2199 95.5M63.2199 105L71.7199 132.5M54.2199 95.5L43.2195 85M75.2199 140.5L71.7199 132.5M75.2199 140.5C76.0199 140.5 79.5532 138.167 81.2199 137M81.2199 137L77.7199 131.5M71.7199 132.5L77.7199 131.5M43.2195 85C43.2195 84.2 46.7195 82.5 46.7195 82.5M43.2195 85L35.7195 79L30.2195 72L32.7195 69.5L38.7195 76.5L46.7195 82.5M84.2199 89L78.2199 94.5M84.2199 89L95.2199 79M84.2199 89V79M84.2199 89L73.7199 84M73.7199 84L84.2199 79" stroke="#252323"/>
</g>
<path d="M85.7195 72L90.2195 61L83.2195 55L65.2195 70L66.7195 94L79.7195 80L85.7195 72Z" fill="#3C3C3C"/>
<path d="M29.2195 73L33.9039 82L37.2195 66L29.2195 73Z" fill="#3C3C3C"/>
<path d="M33.9039 82L39.0457 89.5L37.2195 66L33.9039 82Z" fill="#3C3C3C"/>
<path d="M39.0457 89.5L52.7195 93L47.7195 82L37.2195 66L39.0457 89.5Z" fill="#3C3C3C"/>
<path d="M47.7195 82L52.7195 93L66.7195 94L65.2195 70L47.7195 82Z" fill="#3C3C3C"/>
<path d="M33.9039 82L29.2195 73L37.2195 66M33.9039 82L39.0457 89.5M33.9039 82L37.2195 66M39.0457 89.5L52.7195 93M39.0457 89.5L37.2195 66M52.7195 93L47.7195 82M52.7195 93L66.7195 94M47.7195 82L37.2195 66M47.7195 82L65.2195 70M85.7195 72L90.2195 61L83.2195 55M85.7195 72L79.7195 80M85.7195 72L83.2195 55M79.7195 80L66.7195 94M79.7195 80L83.2195 55M66.7195 94L65.2195 70M65.2195 70L83.2195 55" stroke="#251414"/>
<path d="M29.3897 67.1224L31.4464 66.1224L37.167 66L37.2195 66.1224L28.8755 72.7448L28.8755 73.8507L24.2195 78.6224L23.2195 74.7448V72.7448L25.7904 70.1224L29.3897 67.1224Z" fill="#3C3C3C"/>
<path d="M31.4464 66.1224H35.5599L37.167 66M31.4464 66.1224L29.3897 67.1224M31.4464 66.1224L37.167 66M29.3897 67.1224L25.7904 70.1224M29.3897 67.1224L37.167 66M25.7904 70.1224L23.2195 72.7448M25.7904 70.1224L28.8755 72.7448M23.2195 72.7448V74.7448M23.2195 72.7448L28.8755 72.7448M23.2195 74.7448L24.2195 78.6224L28.8755 73.8507M23.2195 74.7448L28.8755 73.8507M28.8755 73.8507L28.8755 72.7448M28.8755 72.7448L37.2195 66.1224L37.167 66" stroke="#251414"/>
<path d="M88.9039 54H84.7904L82.272 55L82.2195 55.1224L90.9606 61L95.2195 63.5L94.5599 58L90.9606 55L88.9039 54Z" fill="#3C3C3C"/>
<path d="M88.9039 54H84.7904L82.272 55M88.9039 54L90.9606 55M88.9039 54L82.272 55M90.9606 55L94.5599 58M90.9606 55L82.272 55M94.5599 58L95.2195 63.5L90.9606 61M94.5599 58L90.9606 61M90.9606 61L82.2195 55.1224L82.272 55" stroke="#251414"/>
<g filter="url(#filter3_d_43_93)">
<path d="M70.158 107.745L57.5612 108.049L53.5684 97.4132L60.6025 88.7831L70.0532 90.0697L73.7699 99.6587L70.158 107.745Z" fill="#251414"/>
<path d="M70.158 107.745L57.5612 108.049L53.5684 97.4132L60.6025 88.7831L70.0532 90.0697L73.7699 99.6587L70.158 107.745Z" stroke="#252323"/>
</g>
<path d="M60.4309 105.412L58.7873 105.188L59.854 91.2043L62.3194 91.54L60.4309 105.412Z" stroke="#252323"/>
<path d="M65.3617 106.083L67.0053 106.307L69.7156 92.5469L67.2502 92.2112L65.3617 106.083Z" stroke="#252323"/>
<path d="M61.6453 96.4943L61.1731 99.9623L63.5711 100.793M61.6453 96.4943L64.0432 97.3253M61.6453 96.4943L63.5711 100.793M66.5761 97.1655L66.1039 100.634L63.5711 100.793M66.5761 97.1655L64.0432 97.3253M66.5761 97.1655L63.5711 100.793M63.5711 100.793L64.0432 97.3253" stroke="#252323"/>
<path d="M99.71 281.834L97.8527 274.616V258.977L95.0668 238.526L96.9241 231.308L95.9955 206.045L91.1001 188.601L56.0645 188.602L55.6002 213.263L58.3861 215.067L60.2433 219.879L62.1006 255.969L66.7437 260.781V281.834L63.9578 284.24L99.71 281.834Z" fill="#251414"/>
<path d="M97.8527 274.616L99.71 281.834L63.9578 284.24L66.7437 281.834M97.8527 274.616V258.977M97.8527 274.616L66.7437 281.834M97.8527 258.977L95.0668 238.526M97.8527 258.977L66.7437 260.781M95.0668 238.526L96.9241 231.308M95.0668 238.526L62.1006 255.969M96.9241 231.308L95.9955 206.045M96.9241 231.308L60.2433 219.879M95.9955 206.045L91.1001 188.601M95.9955 206.045L58.3861 215.067M91.1001 188.601L56.0645 188.602L55.6002 213.263L58.3861 215.067M91.1001 188.601L58.3861 215.067M58.3861 215.067L60.2433 219.879M60.2433 219.879L62.1006 255.969M62.1006 255.969L66.7437 260.781M66.7437 260.781V281.834" stroke="#230000"/>
<path d="M95.0668 287.848L99.71 281.834L63.9578 284.24L66.7437 287.848L71.7128 319.962L75.8917 346.428L77.7489 350.639H86.5709L90.5175 325.376L95.0668 287.848Z" fill="#251414"/>
<path d="M86.5709 350.639H77.7489L75.8917 346.428M86.5709 350.639L75.8917 346.428M86.5709 350.639L90.5175 325.376M95.0668 287.848L99.71 281.834L63.9578 284.24M95.0668 287.848L90.5175 325.376M95.0668 287.848H66.7437M66.7437 281.834L63.9578 284.24M63.9578 284.24L66.7437 287.848M66.7437 287.848L71.7128 319.962M71.7128 319.962L75.8917 346.428M71.7128 319.962L90.5175 325.376M75.8917 346.428L90.5175 325.376" stroke="#230000"/>
<path d="M91.4968 361.966L82.0913 363.032C82.2166 362.606 87.1608 349.697 87.1086 344.364L88.1752 350.23L89.7749 353.429L91.4968 361.966Z" fill="#252020"/>
<path d="M76.6077 363.032L76.6064 363.028C76.4828 362.527 76.5544 349.679 76.6064 344.364L82.0901 345.164L87.1086 344.364C87.1608 349.697 82.2166 362.606 82.0913 363.032H76.6077Z" fill="#252020"/>
<path d="M73.3162 349.697L76.6064 344.364C76.5544 349.679 76.4828 362.527 76.6064 363.028L73.3162 349.697Z" fill="#252020"/>
<path d="M72.2195 352.363L73.3162 349.697L76.6064 363.028L76.6077 363.032C76.169 362.606 73.499 355.029 72.2195 352.363Z" fill="#252020"/>
<path d="M76.6077 363.032L72.2206 361.966L72.2195 352.363C73.499 355.029 76.169 362.606 76.6077 363.032Z" fill="#252020"/>
<path d="M76.6064 344.364L72.2195 330.5L82.0901 345.164L76.6064 344.364Z" fill="#252020"/>
<path d="M72.2195 330.5L91.4124 331.566L82.0901 345.164L72.2195 330.5Z" fill="#252020"/>
<path d="M91.4124 331.566L87.1086 344.364L82.0901 345.164L91.4124 331.566Z" fill="#252020"/>
<path d="M88.1752 350.23L87.1086 344.364L99.4147 349.697H104.214V355.029L91.4968 361.966L89.7749 353.429L88.1752 350.23Z" fill="#252020"/>
<path d="M76.6077 363.032L72.2206 361.966L72.2195 352.363M76.6077 363.032C76.169 362.606 73.499 355.029 72.2195 352.363M76.6077 363.032H82.0913M76.6077 363.032L76.6064 363.028M87.1086 344.364L91.4124 331.566M87.1086 344.364L82.0901 345.164M87.1086 344.364L88.1752 350.23M87.1086 344.364C87.1608 349.697 82.2166 362.606 82.0913 363.032M87.1086 344.364L99.4147 349.697H104.214V355.029L91.4968 361.966M91.4124 331.566L72.2195 330.5M91.4124 331.566L82.0901 345.164M72.2195 330.5L76.6064 344.364M72.2195 330.5L82.0901 345.164M76.6064 344.364L73.3162 349.697M76.6064 344.364L82.0901 345.164M76.6064 344.364C76.5544 349.679 76.4828 362.527 76.6064 363.028M72.2195 352.363L73.3162 349.697M73.3162 349.697L76.6064 363.028M91.4968 361.966L82.0913 363.032M91.4968 361.966L89.7749 353.429M82.0913 363.032C82.53 362.606 88.4954 356.096 89.7749 353.429M82.0913 363.032L88.1752 350.23M89.7749 353.429L88.1752 350.23" stroke="black"/>
<path d="M47.7778 274.991L51.1922 267.449L53.3262 258.9V245.826L55.0334 244.317V224.706L56.7406 214.649L58.4478 210.123L68.2195 188.5H31.2197L27.078 205.094L22.1699 221.186L16.1947 259.403L12.7803 272.477L10.2195 276.5L47.7778 274.991Z" fill="#251414"/>
<path d="M51.1922 267.449L47.7778 274.991L10.2195 276.5L12.7803 272.477M51.1922 267.449L53.3262 258.9M51.1922 267.449C39.0995 269.125 14.4875 272.477 12.7803 272.477M53.3262 258.9V245.826M53.3262 258.9L16.1947 259.403M53.3262 245.826L55.0334 244.317M53.3262 245.826L22.1699 221.186M55.0334 244.317V224.706M55.0334 244.317L27.078 205.094M55.0334 224.706L56.7406 214.649M55.0334 224.706L31.2197 188.5M56.7406 214.649L58.4478 210.123L68.2195 188.5H31.2197M56.7406 214.649L31.2197 188.5M31.2197 188.5L27.078 205.094M22.1699 221.186L16.1947 259.403M22.1699 221.186L27.078 205.094M16.1947 259.403L12.7803 272.477" stroke="#230000"/>
<path d="M19.0999 286.5L13.2195 282L9.71948 276L48.7195 274.5L46.9254 282L39.5999 286.5L34.03 323L33.6195 341.5H22.5353L21.3037 337.5L19.0999 286.5Z" fill="#251414"/>
<path d="M19.0999 286.5L13.2195 282M19.0999 286.5L21.3037 337.5M19.0999 286.5L34.03 323M19.0999 286.5H39.5999M13.2195 282H46.9254M13.2195 282L9.71948 276L48.7195 274.5L46.9254 282M46.9254 282L39.5999 286.5M39.5999 286.5L34.03 323M34.03 323L33.6195 341.5H22.5353L21.3037 337.5M34.03 323L21.3037 337.5" stroke="#230000"/>
<path d="M18.8122 362.484L28.2811 363.5C28.1549 363.094 23.1774 350.792 23.23 345.711L22.1561 351.301L20.5456 354.349L18.8122 362.484Z" fill="#252020"/>
<path d="M33.8017 363.5L33.8029 363.496C33.9274 363.018 33.8554 350.775 33.8029 345.711L28.2823 346.473L23.23 345.711C23.1774 350.792 28.1549 363.094 28.2811 363.5H33.8017Z" fill="#252020"/>
<path d="M37.1154 350.792L33.8029 345.711C33.8554 350.775 33.9274 363.018 33.8029 363.496L37.1154 350.792Z" fill="#252020"/>
<path d="M38.2195 353.333L37.1154 350.792L33.8029 363.496L33.8017 363.5C34.2433 363.094 36.9313 355.874 38.2195 353.333Z" fill="#252020"/>
<path d="M33.8017 363.5L38.2183 362.484L38.2195 353.333C36.9313 355.874 34.2433 363.094 33.8017 363.5Z" fill="#252020"/>
<path d="M33.8029 345.711L38.2195 332.5L28.2823 346.473L33.8029 345.711Z" fill="#252020"/>
<path d="M38.2195 332.5L18.8971 333.516L28.2823 346.473L38.2195 332.5Z" fill="#252020"/>
<path d="M18.8971 333.516L23.23 345.711L28.2823 346.473L18.8971 333.516Z" fill="#252020"/>
<path d="M22.1561 351.301L23.23 345.711L6.05102 351.301H1.21948V356.382L18.8122 362.484L20.5456 354.349L22.1561 351.301Z" fill="#252020"/>
<path d="M33.8017 363.5L38.2183 362.484L38.2195 353.333M33.8017 363.5C34.2433 363.094 36.9313 355.874 38.2195 353.333M33.8017 363.5H28.2811M33.8017 363.5L33.8029 363.496M23.23 345.711L18.8971 333.516M23.23 345.711L28.2823 346.473M23.23 345.711L22.1561 351.301M23.23 345.711C23.1774 350.792 28.1549 363.094 28.2811 363.5M23.23 345.711L6.05102 351.301H1.21948V356.382L18.8122 362.484M18.8971 333.516L38.2195 332.5M18.8971 333.516L28.2823 346.473M38.2195 332.5L33.8029 345.711M38.2195 332.5L28.2823 346.473M33.8029 345.711L37.1154 350.792M33.8029 345.711L28.2823 346.473M33.8029 345.711C33.8553 350.775 33.9274 363.018 33.8029 363.496M38.2195 353.333L37.1154 350.792M37.1154 350.792L33.8029 363.496M18.8122 362.484L28.2811 363.5M18.8122 362.484L20.5456 354.349M28.2811 363.5C27.8394 363.094 21.8338 356.89 20.5456 354.349M28.2811 363.5L22.1561 351.301M20.5456 354.349L22.1561 351.301" stroke="black"/>
<path d="M91.2195 189.5L92.1001 183L88.2195 167.5H64.2195L30.1001 173V180.5L31.6001 188.5L56.7195 214L58.7195 215L95.7195 206L91.2195 189.5Z" fill="#251414"/>
<path d="M91.2195 189.5L92.1001 183M91.2195 189.5L57.1001 188.5M91.2195 189.5L64.2195 167.5M91.2195 189.5L95.7195 206L58.7195 215L56.7195 214M92.1001 183L88.2195 167.5H64.2195M92.1001 183L64.2195 167.5M30.1001 180.5V173L64.2195 167.5M30.1001 180.5L31.6001 188.5M30.1001 180.5L64.2195 167.5M31.6001 188.5H57.1001M31.6001 188.5L64.2195 167.5M31.6001 188.5L56.7195 214M57.1001 188.5L64.2195 167.5M57.1001 188.5L56.7195 214" stroke="#230000"/>
<g filter="url(#filter4_d_43_93)">
<path d="M30.1856 173C29.772 174 29.9449 177.2 29.9449 178L31.2195 176.5L30.1856 173Z" fill="#3C3C3C"/>
<path d="M29.4449 173H30.1856L31.2195 176.5H35.5094L29.4449 173Z" fill="#3C3C3C"/>
<path d="M29.4449 168V173L35.5094 176.5H60.7195L29.4449 168Z" fill="#3C3C3C"/>
<path d="M29.4449 168L60.7195 176.5L63.7195 168H29.4449Z" fill="#3C3C3C"/>
<path d="M89.6331 172.5V172L84.9297 177L88.5992 176L89.6331 172.5Z" fill="#3C3C3C"/>
<path d="M90.8738 176.5C90.8738 175.7 90.0467 173.5 89.6331 172.5L88.5992 176L90.8738 176.5Z" fill="#3C3C3C"/>
<path d="M89.6331 172L89.2196 168L60.7195 176.5L84.9297 177L89.6331 172Z" fill="#3C3C3C"/>
<path d="M63.7195 168L60.7195 176.5L89.2196 168H63.7195Z" fill="#3C3C3C"/>
<path d="M30.1856 173C29.772 174 29.9449 177.2 29.9449 178L31.2195 176.5M30.1856 173H29.4449M30.1856 173L31.2195 176.5M29.4449 173V168M29.4449 173L35.5094 176.5M29.4449 168L60.7195 176.5M29.4449 168H63.7195M35.5094 176.5H31.2195M35.5094 176.5H60.7195M60.7195 176.5L63.7195 168M60.7195 176.5L84.9297 177M60.7195 176.5L89.2196 168M63.7195 168H89.2196M89.6331 172.5C90.0467 173.5 90.8738 175.7 90.8738 176.5L88.5992 176M89.6331 172.5V172M89.6331 172.5L88.5992 176M89.6331 172L89.2196 168M89.6331 172L84.9297 177M84.9297 177L88.5992 176" stroke="#251414"/>
</g>
<defs>
<filter id="filter0_di_43_93" x="55.092" y="12.4645" width="37.5154" height="50.8355" filterUnits="userSpaceOnUse" color-interpolation-filters="sRGB">
<feFlood flood-opacity="0" result="BackgroundImageFix"/>
<feColorMatrix in="SourceAlpha" type="matrix" values="0 0 0 0 0 0 0 0 0 0 0 0 0 0 0 0 0 0 127 0" result="hardAlpha"/>
<feOffset dy="1"/>
<feGaussianBlur stdDeviation="2"/>
<feComposite in2="hardAlpha" operator="out"/>
<feColorMatrix type="matrix" values="0 0 0 0 1 0 0 0 0 1 0 0 0 0 1 0 0 0 1 0"/>
<feBlend mode="normal" in2="BackgroundImageFix" result="effect1_dropShadow_43_93"/>
<feBlend mode="normal" in="SourceGraphic" in2="effect1_dropShadow_43_93" result="shape"/>
<feColorMatrix in="SourceAlpha" type="matrix" values="0 0 0 0 0 0 0 0 0 0 0 0 0 0 0 0 0 0 127 0" result="hardAlpha"/>
<feOffset dx="3" dy="10"/>
<feGaussianBlur stdDeviation="2.65"/>
<feComposite in2="hardAlpha" operator="arithmetic" k2="-1" k3="1"/>
<feColorMatrix type="matrix" values="0 0 0 0 0 0 0 0 0 0 0 0 0 0 0 0 0 0 0.25 0"/>
<feBlend mode="normal" in2="shape" result="effect2_innerShadow_43_93"/>
</filter>
<filter id="filter1_dd_43_93" x="70.2949" y="24.4056" width="18.7529" height="15.5014" filterUnits="userSpaceOnUse" color-interpolation-filters="sRGB">
<feFlood flood-opacity="0" result="BackgroundImageFix"/>
<feColorMatrix in="SourceAlpha" type="matrix" values="0 0 0 0 0 0 0 0 0 0 0 0 0 0 0 0 0 0 127 0" result="hardAlpha"/>
<feOffset dy="4"/>
<feGaussianBlur stdDeviation="2"/>
<feComposite in2="hardAlpha" operator="out"/>
<feColorMatrix type="matrix" values="0 0 0 0 0 0 0 0 0 0 0 0 0 0 0 0 0 0 0.25 0"/>
<feBlend mode="normal" in2="BackgroundImageFix" result="effect1_dropShadow_43_93"/>
<feColorMatrix in="SourceAlpha" type="matrix" values="0 0 0 0 0 0 0 0 0 0 0 0 0 0 0 0 0 0 127 0" result="hardAlpha"/>
<feOffset dy="4"/>
<feGaussianBlur stdDeviation="2"/>
<feComposite in2="hardAlpha" operator="out"/>
<feColorMatrix type="matrix" values="0 0 0 0 0 0 0 0 0 0 0 0 0 0 0 0 0 0 0.25 0"/>
<feBlend mode="normal" in2="effect1_dropShadow_43_93" result="effect2_dropShadow_43_93"/>
<feBlend mode="normal" in="SourceGraphic" in2="effect2_dropShadow_43_93" result="shape"/>
</filter>
<filter id="filter2_d_43_93" x="25.5522" y="62.8202" width="83.9521" height="113.68" filterUnits="userSpaceOnUse" color-interpolation-filters="sRGB">
<feFlood flood-opacity="0" result="BackgroundImageFix"/>
<feColorMatrix in="SourceAlpha" type="matrix" values="0 0 0 0 0 0 0 0 0 0 0 0 0 0 0 0 0 0 127 0" result="hardAlpha"/>
<feOffset dy="4"/>
<feGaussianBlur stdDeviation="2"/>
<feComposite in2="hardAlpha" operator="out"/>
<feColorMatrix type="matrix" values="0 0 0 0 0 0 0 0 0 0 0 0 0 0 0 0 0 0 0.25 0"/>
<feBlend mode="normal" in2="BackgroundImageFix" result="effect1_dropShadow_43_93"/>
<feBlend mode="normal" in="SourceGraphic" in2="effect1_dropShadow_43_93" result="shape"/>
</filter>
<filter id="filter3_d_43_93" x="48.9993" y="88.2499" width="29.3123" height="28.3075" filterUnits="userSpaceOnUse" color-interpolation-filters="sRGB">
<feFlood flood-opacity="0" result="BackgroundImageFix"/>
<feColorMatrix in="SourceAlpha" type="matrix" values="0 0 0 0 0 0 0 0 0 0 0 0 0 0 0 0 0 0 127 0" result="hardAlpha"/>
<feOffset dy="4"/>
<feGaussianBlur stdDeviation="2"/>
<feComposite in2="hardAlpha" operator="out"/>
<feColorMatrix type="matrix" values="0 0 0 0 0 0 0 0 0 0 0 0 0 0 0 0 0 0 0.25 0"/>
<feBlend mode="normal" in2="BackgroundImageFix" result="effect1_dropShadow_43_93"/>
<feBlend mode="normal" in="SourceGraphic" in2="effect1_dropShadow_43_93" result="shape"/>
</filter>
<filter id="filter4_d_43_93" x="24.9448" y="167.5" width="70.429" height="19.8606" filterUnits="userSpaceOnUse" color-interpolation-filters="sRGB">
<feFlood flood-opacity="0" result="BackgroundImageFix"/>
<feColorMatrix in="SourceAlpha" type="matrix" values="0 0 0 0 0 0 0 0 0 0 0 0 0 0 0 0 0 0 127 0" result="hardAlpha"/>
<feOffset dy="4"/>
<feGaussianBlur stdDeviation="2"/>
<feComposite in2="hardAlpha" operator="out"/>
<feColorMatrix type="matrix" values="0 0 0 0 0 0 0 0 0 0 0 0 0 0 0 0 0 0 0.25 0"/>
<feBlend mode="normal" in2="BackgroundImageFix" result="effect1_dropShadow_43_93"/>
<feBlend mode="normal" in="SourceGraphic" in2="effect1_dropShadow_43_93" result="shape"/>
</filter>
<linearGradient id="paint0_linear_43_93" x1="87.0149" y1="23.6341" x2="87.97" y2="31.4284" gradientUnits="userSpaceOnUse">
<stop stop-opacity="0.1"/>
<stop offset="1" stop-color="#FF0000" stop-opacity="0"/>
<stop offset="1" stop-color="#FF0000" stop-opacity="0"/>
</linearGradient>
</defs>
</svg>
