<svg width="87" height="367" viewBox="0 0 87 367" fill="none" xmlns="http://www.w3.org/2000/svg">
<path d="M48.0978 86.5L45.0978 94V118L35.5978 119.5L26.0978 123L25.0978 115L23.5978 100.5L21.0978 85.5V77L23.5978 73.5L32.5978 70L43.0978 73L47.0978 78L48.0978 86.5Z" fill="#251414"/>
<path d="M45.0978 94L48.0978 86.5M45.0978 94V118L35.5978 119.5M45.0978 94L32.5978 96.5M32.5978 96.5L33.5978 106L34.5978 112L35.5978 119.5M32.5978 96.5L48.0978 86.5M32.5978 96.5C32.5978 95.8068 32.5978 90.6302 32.5978 85M32.5978 96.5L21.0978 85.5M48.0978 86.5L47.0978 78M47.0978 78L43.0978 73M47.0978 78L32.5978 85M32.5978 70L43.0978 73M32.5978 70L23.5978 73.5M32.5978 70C32.5978 73.0264 32.5978 80.8844 32.5978 85M43.0978 73L32.5978 85M35.5978 119.5L26.0978 123L25.0978 115L23.5978 100.5L21.0978 85.5M23.5978 73.5L21.0978 77M23.5978 73.5L32.5978 85M21.0978 77V85.5M21.0978 77L32.5978 85" stroke="#230000"/>
<path d="M48.5978 143.5L49.0978 149.5L46.5978 163L38.2416 161.929L29.8854 160.859L28.5978 146.5L29.332 142.5L27.6268 130.5L27.6268 126.901L26.0978 123.5L29.332 121.325L35.5978 119.5L45.2131 118L45.2131 123.019L46.3656 125.5L46.5978 126L48.0978 139L48.0978 141L48.5978 143.5Z" fill="#251414"/>
<path d="M28.5978 146.5L29.332 142.5M28.5978 146.5L29.8854 160.859L38.2416 161.929M28.5978 146.5L36.5978 150.5M49.0978 149.5L48.5978 143.5L48.0978 141M49.0978 149.5L46.5978 163L38.2416 161.929M49.0978 149.5L36.5978 150.5M29.332 142.5L27.6268 130.5L27.6268 126.901M29.332 142.5L36.5978 139M48.0978 139L46.5978 126L46.3656 125.5M48.0978 139L48.0978 141M48.0978 139C47.6978 139 40.4311 139 36.5978 139M27.6268 126.901L26.0978 123.5L29.332 121.325L35.5978 119.5M27.6268 126.901L35.5978 119.5M27.6268 126.901C33.4889 126.434 45.4436 125.5 46.3656 125.5M45.2131 123.019L45.2131 118L35.5978 119.5M45.2131 123.019C44.3208 123.019 38.4311 120.673 35.5978 119.5M45.2131 123.019L46.3656 125.5M35.5978 119.5L36.5978 139M36.5978 139L36.5978 150.5M36.5978 139L48.0978 141M36.5978 150.5L38.2416 161.929" stroke="#230000"/>
<path d="M37.0978 212.5L42.0978 212.5L36.0978 198.542L48.5975 198.542L49.5978 215L48.1467 222.01L41.1679 225.059L37.0978 212.5Z" fill="#403535"/>
<path d="M42.0978 212.5L37.0978 212.5L41.1679 225.059L48.1467 222.01L49.5978 215L48.5975 198.542M42.0978 212.5L36.0978 198.542L48.5975 198.542M42.0978 212.5C42.0978 212.1 45.7642 203.361 48.5975 198.542" stroke="black"/>
<path d="M48.0978 222L41.0978 224.5L40.4728 222L37.0978 212.5L43.8478 212.844L44.4332 215.7L40.3553 216.049" stroke="black"/>
<path d="M43.1412 212.813L44.3726 217.112" stroke="black"/>
<path d="M35.7984 161.186L38.5979 162L46.098 163L45.5979 173L48.598 198.5L36.098 198.5L33.7229 174.775L28.598 161L33.2001 161.28L35.7984 161.186Z" fill="#403535"/>
<path d="M36.098 198.5L36.7469 170.5M36.098 198.5L33.7229 174.775M36.098 198.5L48.598 198.5M36.7469 170.5C36.7469 170.5 38.3786 164.599 38.5979 162M36.7469 170.5L34.0979 165M36.7469 170.5L48.598 198.5M38.5979 162L35.7984 161.186L33.2001 161.28M38.5979 162L46.098 163L45.5979 173L48.598 198.5M34.0979 165L33.2001 161.28M34.0979 165L33.7229 174.775M33.2001 161.28L28.598 161L33.7229 174.775" stroke="black"/>
<path d="M66.5748 281.484L64.648 274.716V260.052L61.7577 240.876L63.6845 234.108L59.759 216L65.5353 200L12.5352 194L18.3775 204.5L24.2196 217L25.6288 223.392L27.5557 257.232L32.3729 261.744V281.484L29.4826 283.74L66.5748 281.484Z" fill="#251414"/>
<path d="M64.648 274.716L66.5748 281.484L29.4826 283.74L32.3729 281.484M64.648 274.716V260.052M64.648 274.716L32.3729 281.484M64.648 260.052L61.7577 240.876M64.648 260.052L32.3729 261.744M61.7577 240.876L63.6845 234.108M61.7577 240.876L27.5557 257.232M63.6845 234.108L59.759 216M63.6845 234.108L25.6288 223.392M59.759 216L65.5353 200M59.759 216L24.2196 217M65.5353 200L12.5352 194L18.3775 204.5L24.2196 217M65.5353 200L24.2196 217M24.2196 217L25.6288 223.392M25.6288 223.392L27.5557 257.232M27.5557 257.232L32.3729 261.744M32.3729 261.744V281.484" stroke="#230000"/>
<path d="M61.7577 287.124L66.5748 281.484L29.4826 283.74L32.3729 287.124L37.5283 317.236L41.8637 342.052L43.7906 346H52.9433L57.0378 322.312L61.7577 287.124Z" fill="#251414"/>
<path d="M52.9433 346H43.7906L41.8637 342.052M52.9433 346L41.8637 342.052M52.9433 346L57.0378 322.312M61.7577 287.124L66.5748 281.484L29.4826 283.74M61.7577 287.124L57.0378 322.312M61.7577 287.124H32.3729M32.3729 281.484L29.4826 283.74M29.4826 283.74L32.3729 287.124M32.3729 287.124L37.5283 317.236M37.5283 317.236L41.8637 342.052M37.5283 317.236L57.0378 322.312M41.8637 342.052L57.0378 322.312" stroke="#230000"/>
<path d="M37.5353 364.5L42.4038 364L86.2195 364.5V359.5L52.1407 350.5L55.5485 337L38.5091 336L42.4038 349L38.509 354L37.5353 356.5V364.5Z" fill="#252020"/>
<path d="M42.4038 364L37.5353 364.5V356.5M42.4038 364L86.2195 364.5M42.4038 364C42.0143 363.6 38.6712 359 37.5353 356.5M42.4038 364L38.509 354M42.4038 364C42.2925 363.6 42.3574 354 42.4038 349M86.2195 364.5V359.5L52.1407 350.5M86.2195 364.5L42.4038 349M52.1407 350.5L55.5485 337M52.1407 350.5L47.2722 349.75M55.5485 337L38.5091 336M55.5485 337L47.2722 349.75M38.5091 336L42.4038 349M38.5091 336L47.2722 349.75M42.4038 349L38.509 354M42.4038 349L47.2722 349.75M37.5353 356.5L38.509 354" stroke="black"/>
<path d="M59.0659 281.736L57.3727 274.891L57.9881 260.24L55.8271 240.956L58.0883 234.277L54.8202 216.016L66.482 200.492L7.28606 192L12.8402 202.743L18.3104 215.483L19.4882 221.93L20.0453 255.824L24.799 260.539L23.9705 280.262L20.9101 282.391L59.0659 281.736Z" fill="#251414"/>
<path d="M57.3727 274.891L59.0659 281.736L20.9101 282.391L23.9705 280.262M57.3727 274.891L57.9881 260.24M57.3727 274.891L23.9705 280.262M57.9881 260.24L55.8271 240.956M57.9881 260.24L24.799 260.539M55.8271 240.956L58.0883 234.277M55.8271 240.956L20.0453 255.824M58.0883 234.277L54.8202 216.016M58.0883 234.277L19.4882 221.93M54.8202 216.016L66.482 200.492M54.8202 216.016L18.3104 215.483M66.482 200.492L7.28606 192L12.8402 202.743L18.3104 215.483M66.482 200.492L18.3104 215.483M18.3104 215.483L19.4882 221.93M19.4882 221.93L20.0453 255.824M20.0453 255.824L24.799 260.539M24.799 260.539L23.9705 280.262" stroke="#230000"/>
<path d="M53.8862 287.163L59.0659 281.736L20.9101 282.391L23.7339 285.897L27.7602 316.205L31.1675 341.186L32.979 345.213L42.3708 345.608L47.5664 322.117L53.8862 287.163Z" fill="#251414"/>
<path d="M42.3708 345.608L32.979 345.213L31.1675 341.186M42.3708 345.608L31.1675 341.186M42.3708 345.608L47.5664 322.117M53.8862 287.163L59.0659 281.736L20.9101 282.391M53.8862 287.163L47.5664 322.117M53.8862 287.163L23.7339 285.897M23.9705 280.262L20.9101 282.391M20.9101 282.391L23.7339 285.897M23.7339 285.897L27.7602 316.205M27.7602 316.205L31.1675 341.186M27.7602 316.205L47.5664 322.117M31.1675 341.186L47.5664 322.117" stroke="#230000"/>
<path d="M26.0869 363.94L31.1036 363.651L76.0429 366.039L76.2527 361.043L41.6613 350.582L45.7248 337.241L28.2822 335.508L31.7331 348.664L27.5267 353.492L26.4226 355.948L26.0869 363.94Z" fill="#252020"/>
<path d="M31.1036 363.651L26.0869 363.94L26.4226 355.948M31.1036 363.651L76.0429 366.039M31.1036 363.651C30.7207 363.234 27.4834 358.494 26.4226 355.948M31.1036 363.651L27.5267 353.492M31.1036 363.651C31.0062 363.246 31.4757 353.658 31.7331 348.664M76.0429 366.039L76.2527 361.043L41.6613 350.582M76.0429 366.039L31.7331 348.664M41.6613 350.582L45.7248 337.241M41.6613 350.582L36.6972 349.623M45.7248 337.241L28.2822 335.508M45.7248 337.241L36.6972 349.623M28.2822 335.508L31.7331 348.664M28.2822 335.508L36.6972 349.623M31.7331 348.664L27.5267 353.492M31.7331 348.664L36.6972 349.623M26.4226 355.948L27.5267 353.492" stroke="black"/>
<path d="M7.4574 193.5L7.45744 190L12.0353 172L50.0353 173.009L68.5353 173.5L67.5353 199L57.0353 215.5L45.0353 217L26.5353 215.5L13.5353 204L7.4574 193.5Z" fill="#251414"/>
<path d="M7.4574 193.5L7.45744 190M7.4574 193.5L13.5353 204M7.4574 193.5L47.0353 191M7.45744 190L12.0353 172M7.45744 190L47.0353 191M12.0353 172L50.0353 173.009M12.0353 172L47.0353 191M67.5353 199L68.5353 173.5M67.5353 199L57.0353 215.5L45.0353 217M67.5353 199L47.0353 191M67.5353 199C59.5353 204.458 45.8353 216.9 45.0353 217M67.5353 199L26.5353 215.5M68.5353 173.5L50.0353 173.009M68.5353 173.5L47.0353 191M45.0353 217L26.5353 215.5M13.5353 204L26.5353 215.5M13.5353 204L47.0353 191M50.0353 173.009L47.0353 191" stroke="#230000"/>
<path d="M37.5353 67L62.3764 75.4419L66.0353 86V108L67.0353 126.5L65.5353 145.5L40.7853 141L16.0353 136.5V116L11.5353 95V73.5L19.5353 53L37.5353 67Z" fill="#251414"/>
<path d="M37.5353 67L62.3764 75.4419M37.5353 67L19.5353 53M37.5353 67L32.0353 72M37.5353 67L42.0353 73.5M62.3764 75.4419L66.0353 86M62.3764 75.4419L46.0353 77M66.0353 86V108M66.0353 86H46.0353M67.0353 126.5L65.5353 145.5M67.0353 126.5L66.0353 108M67.0353 126.5L42.0353 92M65.5353 145.5L42.0353 92M65.5353 145.5L40.7853 141M65.5353 145.5L37.3095 124M16.0353 136.5V116L11.5353 95M16.0353 136.5L40.7853 141M16.0353 136.5L37.3095 124M19.5353 53L11.5353 73.5M19.5353 53L26.5353 73.5M11.5353 95V73.5M11.5353 95L23.5353 86M11.5353 73.5L23.5353 77M66.0353 108L42.0353 92M23.5353 86L26.5353 92L32.0353 95H37.3095M23.5353 86V77M32.0353 72L26.5353 73.5M32.0353 72H37.3095L42.0353 73.5M26.5353 73.5L23.5353 77M42.0353 73.5L46.0353 77M46.0353 77V86M46.0353 86L42.0353 92M42.0353 92L37.3095 95M37.3095 95V124M40.7853 141L37.3095 124" stroke="#230000"/>
<path d="M66.0202 165.211L68.5353 173L49.9237 172.523L11.5353 171.539L14.7127 161.803L15.7187 154.013L16.2217 147.684L15.7187 136L40.6179 140.382L65.5172 144.763L65.0142 154.987L66.0202 165.211Z" fill="#251414"/>
<path d="M11.5353 171.539L14.7127 161.803M11.5353 171.539L49.9237 172.523M11.5353 171.539L26.0766 155.961M68.5353 173L66.0202 165.211M68.5353 173L49.9237 172.523M68.5353 173L40.6179 140.382M66.0202 165.211L65.0142 154.987M66.0202 165.211L40.6179 140.382M65.0142 154.987L65.5172 144.763L40.6179 140.382M65.0142 154.987L40.6179 140.382M14.7127 161.803L15.7187 154.013M14.7127 161.803L26.0766 155.961M16.2217 147.684L15.7187 136L40.6179 140.382M16.2217 147.684L15.7187 154.013M16.2217 147.684L26.0766 155.961M15.7187 154.013L26.0766 155.961M40.6179 140.382L49.9237 172.523M40.6179 140.382L26.0766 155.961" stroke="#230000"/>
<g filter="url(#filter0_d_42_51)">
<path d="M11.5353 87V85.5L16.5353 75.5L19.5353 70L24.0353 67H32.5353L41.0353 69.5L51.5353 75.5L60.5353 82.5L67.5353 90.5V94.5L60.5353 86L52.5353 79.5L42.0353 72.5L33.5353 69.5H25.5353L21.5353 71.5L18.0353 76.5L11.5353 87Z" fill="#100F0F"/>
<path d="M11.5353 92.5V85.5L16.5353 75.5M11.5353 92.5V87L18.0353 76.5M11.5353 92.5V95.5L13.0353 103M33.5353 69.5L32.5353 67M33.5353 69.5H25.5353M33.5353 69.5L42.0353 72.5L52.5353 79.5M32.5353 67H24.0353M32.5353 67L41.0353 69.5L51.5353 75.5M51.5353 75.5L52.5353 79.5M51.5353 75.5L60.5353 82.5M52.5353 79.5L60.5353 86M25.5353 69.5L24.0353 67M25.5353 69.5L21.5353 71.5M60.5353 82.5L67.5353 90.5V94.5L60.5353 86M60.5353 82.5V86M24.0353 67L19.5353 70M16.5353 75.5L19.5353 70M16.5353 75.5L18.0353 76.5M18.0353 76.5L21.5353 71.5M19.5353 70L21.5353 71.5" stroke="#252323"/>
</g>
<g filter="url(#filter1_d_42_51)">
<path d="M12.5353 106L11.0353 95L10.5353 86.5" stroke="#252323"/>
</g>
<path d="M12.0353 103H10.0353L7.53528 89H10.5353L12.0353 103Z" fill="#251414" stroke="#252323"/>
<g style="mix-blend-mode:darken" filter="url(#filter2_di_42_51)">
<path d="M52.0354 58L42.5354 48V23L67.0354 21L69.5354 35.5L71.0354 42L67.0354 48L65.5354 54.5L66.0354 60.5L65.0354 62.5H58.0354L52.0354 58Z" fill="#251414"/>
<path d="M52.0354 58L42.5354 48V23L67.0354 21L69.5354 35.5L71.0354 42L67.0354 48L65.5354 54.5L66.0354 60.5L65.0354 62.5H58.0354L52.0354 58Z" stroke="#230000"/>
</g>
<g filter="url(#filter3_dd_42_51)">
<path d="M64.8311 37.0696C63.334 38.5595 59.9996 34.6392 59.9996 34.6392L56.5354 31.0338L61.1236 31.479L65.4588 33.9703C65.4588 33.9703 65.7064 36.1985 64.8311 37.0696Z" fill="#B20000" shape-rendering="crispEdges"/>
<path d="M64.8311 37.0696C63.334 38.5595 59.9996 34.6392 59.9996 34.6392L56.5354 31.0338L61.1236 31.479L65.4588 33.9703C65.4588 33.9703 65.7064 36.1985 64.8311 37.0696Z" stroke="url(#paint0_linear_42_51)" shape-rendering="crispEdges"/>
</g>
<path d="M70.0354 22.5L47.5354 56.5L62.5354 69.5V76.5L39.5353 65L19.5354 54.5V44L22.5354 40L24.5354 15.5L35.0354 1H48.5354L67.5354 8.5L70.0354 22.5Z" fill="#261515"/>
<path d="M47.5354 56.5L70.0354 22.5M47.5354 56.5L62.5354 69.5V76.5L39.5353 65M47.5354 56.5L19.5354 54.5M47.5354 56.5L19.5354 44M47.5354 56.5L22.5354 40M47.5354 56.5L39.5353 65M70.0354 22.5L24.5354 15.5M70.0354 22.5L35.0354 1M70.0354 22.5L48.5354 1M70.0354 22.5L67.5354 8.5L48.5354 1M48.5354 1H35.0354M35.0354 1L24.5354 15.5M24.5354 15.5L22.5354 40M22.5354 40L19.5354 44M19.5354 44V54.5M19.5354 54.5L39.5353 65" stroke="#230000"/>
<g filter="url(#filter4_d_42_51)">
<path d="M10.5353 86.5L7.53528 87L6.53528 86.5L6.03528 85.5V82L7.03528 74L7.53528 71.5L8.53528 69L10.5353 65L14.0353 59L16.0353 56L18.0353 53.5L23.5353 54.5L29.0353 57L41.0353 61L62.0353 75.5L66.0353 79L67.5353 85L68.0353 94.5V110L69.0353 127.5L67.5353 146L67.0353 157L67.5353 163.5L65.5353 163L65.0353 157.5L65.5353 147L67.0353 128.5L66.0353 109.5V93.5V87.5L53.0353 78.5L38.0353 67.5L29.0353 65.5L23.0353 67L11.5353 74L10.5353 86.5Z" fill="#3C3C3C"/>
<path d="M7.53528 87L10.5353 86.5L11.5353 74M7.53528 87L6.53528 86.5L6.03528 85.5M7.53528 87L11.5353 74M6.03528 85.5V82M6.03528 85.5L11.5353 74M6.03528 82L7.03528 74M6.03528 82L11.5353 74M7.03528 74L7.53528 71.5M7.03528 74H11.5353M7.53528 71.5L8.53528 69M7.53528 71.5L23.0353 67M8.53528 69L10.5353 65M8.53528 69L23.0353 67M18.0353 53.5L29.0353 65.5M18.0353 53.5L16.0353 56L14.0353 59M18.0353 53.5L23.5353 54.5L29.0353 57M41.0353 61L62.0353 75.5M41.0353 61L29.0353 57M41.0353 61L38.0353 67.5M62.0353 75.5L66.0353 79M62.0353 75.5L53.0353 78.5M66.0353 79L67.5353 85M66.0353 79L53.0353 78.5M67.5353 85L68.0353 94.5M67.5353 85L66.0353 87.5M68.0353 94.5V110M68.0353 94.5L66.0353 93.5M66.0353 109.5V93.5M66.0353 109.5L67.0353 128.5M66.0353 109.5L68.0353 110M66.0353 93.5V87.5M66.0353 87.5L53.0353 78.5M38.0353 67.5L29.0353 65.5M38.0353 67.5L53.0353 78.5M29.0353 65.5L23.0353 67M29.0353 65.5L14.0353 59M29.0353 65.5V57M23.0353 67L11.5353 74M23.0353 67L10.5353 65M10.5353 65L14.0353 59M65.0353 157.5L65.5353 163L67.5353 163.5L67.0353 157M65.0353 157.5L65.5353 147M65.0353 157.5L67.0353 157M67.0353 157L67.5353 146M65.5353 147L67.0353 128.5M65.5353 147L67.5353 146M67.0353 128.5L69.0353 127.5M67.5353 146L69.0353 127.5M69.0353 127.5L68.0353 110" stroke="#251414"/>
</g>
<g filter="url(#filter5_d_42_51)">
<g filter="url(#filter6_d_42_51)">
<path d="M11.5353 173.5C11.5353 172.7 12.0586 170.5 12.5353 169.5L13.1932 166L27.5353 167L41.5353 166.5L54.0353 167H67.0353L68.9187 171.5V174.5L59.0353 173H49.0353H33.0353L17.245 173.5H13.1932H11.5353Z" fill="#3C3C3C"/>
<path d="M13.1932 166L12.5353 169.5C12.0586 170.5 11.5353 172.7 11.5353 173.5H13.1932M13.1932 166L27.5353 167M13.1932 166L17.245 173.5M13.1932 166V173.5M17.245 173.5H13.1932M17.245 173.5L33.0353 173M49.0353 173H33.0353M49.0353 173H59.0353M49.0353 173L41.5353 166.5M41.5353 166.5L27.5353 167M41.5353 166.5L54.0353 167M33.0353 173L27.5353 167M54.0353 167H67.0353L68.9187 171.5V174.5L59.0353 173M54.0353 167L59.0353 173" stroke="#251414"/>
</g>
<path d="M69.3353 174H68.5353V166L69.3353 167V174Z" fill="#1F1F1F"/>
<path d="M68.5353 174H69.3353V167M68.5353 174V166L69.3353 167M68.5353 174C68.5353 173.619 69.0019 170.175 69.3353 167" stroke="#251414"/>
</g>
<path d="M48.0354 87L45.0354 94.5V118.5L35.5354 120L26.0354 123.5L25.0354 115.5L23.5354 101L21.0354 86V77.5L23.5354 74L32.5354 70.5L43.0354 73.5L47.0354 78.5L48.0354 87Z" fill="#251414"/>
<path d="M45.0354 94.5L48.0354 87M45.0354 94.5V118.5L35.5354 120M45.0354 94.5L32.5354 97M32.5354 97L33.5354 106.5L34.5354 112.5L35.5354 120M32.5354 97L48.0354 87M32.5354 97C32.5354 96.3068 32.5354 91.1302 32.5354 85.5M32.5354 97L21.0354 86M48.0354 87L47.0354 78.5M47.0354 78.5L43.0354 73.5M47.0354 78.5L32.5354 85.5M32.5354 70.5L43.0354 73.5M32.5354 70.5L23.5354 74M32.5354 70.5C32.5354 73.5264 32.5354 81.3844 32.5354 85.5M43.0354 73.5L32.5354 85.5M35.5354 120L26.0354 123.5L25.0354 115.5L23.5354 101L21.0354 86M23.5354 74L21.0354 77.5M23.5354 74L32.5354 85.5M21.0354 77.5V86M21.0354 77.5L32.5354 85.5" stroke="#230000"/>
<path d="M48.5354 144L49.0354 150L46.5354 163.5L38.1792 162.429L29.823 161.359L28.5354 147L29.2696 143L27.5644 131L27.5644 127.401L26.0354 124L29.2696 121.825L35.5354 120L45.1507 118.5L45.1507 123.519L46.3032 126L46.5354 126.5L48.0354 139.5L48.0354 141.5L48.5354 144Z" fill="#251414"/>
<path d="M28.5354 147L29.2696 143M28.5354 147L29.823 161.359L38.1792 162.429M28.5354 147L36.5354 151M49.0354 150L48.5354 144L48.0354 141.5M49.0354 150L46.5354 163.5L38.1792 162.429M49.0354 150L36.5354 151M29.2696 143L27.5644 131L27.5644 127.401M29.2696 143L36.5354 139.5M48.0354 139.5L46.5354 126.5L46.3032 126M48.0354 139.5L48.0354 141.5M48.0354 139.5C47.6354 139.5 40.3687 139.5 36.5354 139.5M27.5644 127.401L26.0354 124L29.2696 121.825L35.5354 120M27.5644 127.401L35.5354 120M27.5644 127.401C33.4265 126.934 45.3812 126 46.3032 126M45.1507 123.519L45.1507 118.5L35.5354 120M45.1507 123.519C44.2585 123.519 38.3687 121.173 35.5354 120M45.1507 123.519L46.3032 126M35.5354 120L36.5354 139.5M36.5354 139.5L36.5354 151M36.5354 139.5L48.0354 141.5M36.5354 151L38.1792 162.429" stroke="#230000"/>
<path d="M37.0354 213L42.0354 213L36.0354 199.042L48.5351 199.042L49.5354 215.5L48.0844 222.51L41.1055 225.559L37.0354 213Z" fill="#403535"/>
<path d="M42.0354 213L37.0354 213L41.1055 225.559L48.0844 222.51L49.5354 215.5L48.5351 199.042M42.0354 213L36.0354 199.042L48.5351 199.042M42.0354 213C42.0354 212.6 45.7019 203.861 48.5351 199.042" stroke="black"/>
<path d="M48.0354 222.5L41.0354 225L40.4104 222.5L37.0354 213H40.0354H42.0354L44.0354 218L40.5354 216" stroke="black"/>
<path d="M35.5354 158L38.5353 162.5L46.0354 163.5L45.5354 173.5L48.5354 199L36.0354 199L33.6604 175.275L28.5354 161.5L33.1375 161.78L35.5354 158Z" fill="#403535"/>
<path d="M36.0354 199L36.6844 171M36.0354 199L33.6604 175.275M36.0354 199L48.5354 199M36.6844 171C36.6844 171 38.3161 165.1 38.5353 162.5M36.6844 171L34.0354 165.5M36.6844 171L36.0354 164M36.6844 171L48.5354 199M35.5354 158L38.5353 162.5M35.5354 158L36.0354 164M35.5354 158L33.1375 161.78M38.5353 162.5L46.0354 163.5L45.5354 173.5L48.5354 199M38.5353 162.5L36.0354 164M36.0354 164L34.0354 165.5M34.0354 165.5L33.1375 161.78M34.0354 165.5L33.6604 175.275M33.1375 161.78L28.5354 161.5L33.6604 175.275" stroke="black"/>
<defs>
<filter id="filter0_d_42_51" x="7.03528" y="66.5" width="65" height="44.5981" filterUnits="userSpaceOnUse" color-interpolation-filters="sRGB">
<feFlood flood-opacity="0" result="BackgroundImageFix"/>
<feColorMatrix in="SourceAlpha" type="matrix" values="0 0 0 0 0 0 0 0 0 0 0 0 0 0 0 0 0 0 127 0" result="hardAlpha"/>
<feOffset dy="4"/>
<feGaussianBlur stdDeviation="2"/>
<feComposite in2="hardAlpha" operator="out"/>
<feColorMatrix type="matrix" values="0 0 0 0 0 0 0 0 0 0 0 0 0 0 0 0 0 0 0.25 0"/>
<feBlend mode="normal" in2="BackgroundImageFix" result="effect1_dropShadow_42_51"/>
<feBlend mode="normal" in="SourceGraphic" in2="effect1_dropShadow_42_51" result="shape"/>
</filter>
<filter id="filter1_d_42_51" x="6.03613" y="86.4706" width="10.9945" height="27.5969" filterUnits="userSpaceOnUse" color-interpolation-filters="sRGB">
<feFlood flood-opacity="0" result="BackgroundImageFix"/>
<feColorMatrix in="SourceAlpha" type="matrix" values="0 0 0 0 0 0 0 0 0 0 0 0 0 0 0 0 0 0 127 0" result="hardAlpha"/>
<feOffset dy="4"/>
<feGaussianBlur stdDeviation="2"/>
<feComposite in2="hardAlpha" operator="out"/>
<feColorMatrix type="matrix" values="0 0 0 0 0 0 0 0 0 0 0 0 0 0 0 0 0 0 0.25 0"/>
<feBlend mode="normal" in2="BackgroundImageFix" result="effect1_dropShadow_42_51"/>
<feBlend mode="normal" in="SourceGraphic" in2="effect1_dropShadow_42_51" result="shape"/>
</filter>
<filter id="filter2_di_42_51" x="38.0354" y="17.4645" width="37.5358" height="50.8355" filterUnits="userSpaceOnUse" color-interpolation-filters="sRGB">
<feFlood flood-opacity="0" result="BackgroundImageFix"/>
<feColorMatrix in="SourceAlpha" type="matrix" values="0 0 0 0 0 0 0 0 0 0 0 0 0 0 0 0 0 0 127 0" result="hardAlpha"/>
<feOffset dy="1"/>
<feGaussianBlur stdDeviation="2"/>
<feComposite in2="hardAlpha" operator="out"/>
<feColorMatrix type="matrix" values="0 0 0 0 1 0 0 0 0 1 0 0 0 0 1 0 0 0 1 0"/>
<feBlend mode="normal" in2="BackgroundImageFix" result="effect1_dropShadow_42_51"/>
<feBlend mode="normal" in="SourceGraphic" in2="effect1_dropShadow_42_51" result="shape"/>
<feColorMatrix in="SourceAlpha" type="matrix" values="0 0 0 0 0 0 0 0 0 0 0 0 0 0 0 0 0 0 127 0" result="hardAlpha"/>
<feOffset dx="3" dy="10"/>
<feGaussianBlur stdDeviation="2.65"/>
<feComposite in2="hardAlpha" operator="arithmetic" k2="-1" k3="1"/>
<feColorMatrix type="matrix" values="0 0 0 0 0 0 0 0 0 0 0 0 0 0 0 0 0 0 0.25 0"/>
<feBlend mode="normal" in2="shape" result="effect2_innerShadow_42_51"/>
</filter>
<filter id="filter3_dd_42_51" x="51.2384" y="30.4055" width="18.7527" height="15.5014" filterUnits="userSpaceOnUse" color-interpolation-filters="sRGB">
<feFlood flood-opacity="0" result="BackgroundImageFix"/>
<feColorMatrix in="SourceAlpha" type="matrix" values="0 0 0 0 0 0 0 0 0 0 0 0 0 0 0 0 0 0 127 0" result="hardAlpha"/>
<feOffset dy="4"/>
<feGaussianBlur stdDeviation="2"/>
<feComposite in2="hardAlpha" operator="out"/>
<feColorMatrix type="matrix" values="0 0 0 0 0 0 0 0 0 0 0 0 0 0 0 0 0 0 0.25 0"/>
<feBlend mode="normal" in2="BackgroundImageFix" result="effect1_dropShadow_42_51"/>
<feColorMatrix in="SourceAlpha" type="matrix" values="0 0 0 0 0 0 0 0 0 0 0 0 0 0 0 0 0 0 127 0" result="hardAlpha"/>
<feOffset dy="4"/>
<feGaussianBlur stdDeviation="2"/>
<feComposite in2="hardAlpha" operator="out"/>
<feColorMatrix type="matrix" values="0 0 0 0 0 0 0 0 0 0 0 0 0 0 0 0 0 0 0.25 0"/>
<feBlend mode="normal" in2="effect1_dropShadow_42_51" result="effect2_dropShadow_42_51"/>
<feBlend mode="normal" in="SourceGraphic" in2="effect2_dropShadow_42_51" result="shape"/>
</filter>
<filter id="filter4_d_42_51" x="1.53528" y="52.9547" width="72.0011" height="119.199" filterUnits="userSpaceOnUse" color-interpolation-filters="sRGB">
<feFlood flood-opacity="0" result="BackgroundImageFix"/>
<feColorMatrix in="SourceAlpha" type="matrix" values="0 0 0 0 0 0 0 0 0 0 0 0 0 0 0 0 0 0 127 0" result="hardAlpha"/>
<feOffset dy="4"/>
<feGaussianBlur stdDeviation="2"/>
<feComposite in2="hardAlpha" operator="out"/>
<feColorMatrix type="matrix" values="0 0 0 0 0 0 0 0 0 0 0 0 0 0 0 0 0 0 0.25 0"/>
<feBlend mode="normal" in2="BackgroundImageFix" result="effect1_dropShadow_42_51"/>
<feBlend mode="normal" in="SourceGraphic" in2="effect1_dropShadow_42_51" result="shape"/>
</filter>
<filter id="filter5_d_42_51" x="7.03528" y="164.575" width="66.8" height="18.507" filterUnits="userSpaceOnUse" color-interpolation-filters="sRGB">
<feFlood flood-opacity="0" result="BackgroundImageFix"/>
<feColorMatrix in="SourceAlpha" type="matrix" values="0 0 0 0 0 0 0 0 0 0 0 0 0 0 0 0 0 0 127 0" result="hardAlpha"/>
<feOffset dy="4"/>
<feGaussianBlur stdDeviation="2"/>
<feComposite in2="hardAlpha" operator="out"/>
<feColorMatrix type="matrix" values="0 0 0 0 0 0 0 0 0 0 0 0 0 0 0 0 0 0 0.25 0"/>
<feBlend mode="normal" in2="BackgroundImageFix" result="effect1_dropShadow_42_51"/>
<feBlend mode="normal" in="SourceGraphic" in2="effect1_dropShadow_42_51" result="shape"/>
</filter>
<filter id="filter6_d_42_51" x="7.03528" y="165.47" width="66.3834" height="17.6114" filterUnits="userSpaceOnUse" color-interpolation-filters="sRGB">
<feFlood flood-opacity="0" result="BackgroundImageFix"/>
<feColorMatrix in="SourceAlpha" type="matrix" values="0 0 0 0 0 0 0 0 0 0 0 0 0 0 0 0 0 0 127 0" result="hardAlpha"/>
<feOffset dy="4"/>
<feGaussianBlur stdDeviation="2"/>
<feComposite in2="hardAlpha" operator="out"/>
<feColorMatrix type="matrix" values="0 0 0 0 0 0 0 0 0 0 0 0 0 0 0 0 0 0 0.25 0"/>
<feBlend mode="normal" in2="BackgroundImageFix" result="effect1_dropShadow_42_51"/>
<feBlend mode="normal" in="SourceGraphic" in2="effect1_dropShadow_42_51" result="shape"/>
</filter>
<linearGradient id="paint0_linear_42_51" x1="67.9583" y1="29.6341" x2="68.9133" y2="37.4284" gradientUnits="userSpaceOnUse">
<stop stop-opacity="0.1"/>
<stop offset="1" stop-color="#FF0000" stop-opacity="0"/>
<stop offset="1" stop-color="#FF0000" stop-opacity="0"/>
</linearGradient>
</defs>
</svg>
