<svg width="147" height="379" viewBox="0 0 147 379" fill="none" xmlns="http://www.w3.org/2000/svg">
<g filter="url(#filter0_i_20_151)">
<path d="M87.6099 57.6725L70.1099 76.0528L58.6099 69.9261L47.1099 56.6514L48.6099 26.5282L57.6099 19.3803L87.6099 57.6725Z" fill="#251414"/>
</g>
<path d="M87.6099 57.6725L70.1099 76.0528L58.6099 69.9261L47.1099 56.6514L48.6099 26.5282L57.6099 19.3803L87.6099 57.6725Z" stroke="#230000"/>
<g style="mix-blend-mode:overlay" filter="url(#filter1_di_20_151)">
<path d="M70.1099 58.1831L79.6099 47.9718V22.4437L57.6099 19.3803L51.1099 23.9753L50.6099 30.1021L49.1099 34.1866L49.6099 38.7817L49.1099 41.8451L52.6099 46.9507L60.1099 61.2465L64.1099 62.7782L70.1099 58.1831Z" fill="#251414"/>
<path d="M70.1099 58.1831L79.6099 47.9718V22.4437L57.6099 19.3803L51.1099 23.9753L50.6099 30.1021L49.1099 34.1866L49.6099 38.7817L49.1099 41.8451L52.6099 46.9507L60.1099 61.2465L64.1099 62.7782L70.1099 58.1831Z" stroke="#230000"/>
</g>
<g filter="url(#filter2_dd_20_151)">
<path d="M64.8142 39.3841C66.3113 40.9054 69.6456 36.9023 69.6456 36.9023L73.1099 33.2207L68.5216 33.6754L64.1865 36.2193C64.1865 36.2193 63.9388 38.4946 64.8142 39.3841Z" fill="#B20000" shape-rendering="crispEdges"/>
<path d="M56.1099 36.2193C56.1099 36.2193 55.653 37.9827 54.8132 38.6289C52.8593 40.1325 49.7189 34.9052 49.7189 34.9052L51.0156 32.4956L56.1099 36.2193Z" fill="#B20000" shape-rendering="crispEdges"/>
<path d="M64.8142 39.3841C66.3113 40.9054 69.6456 36.9023 69.6456 36.9023L73.1099 33.2207L68.5216 33.6754L64.1865 36.2193C64.1865 36.2193 63.9388 38.4946 64.8142 39.3841Z" stroke="url(#paint0_linear_20_151)" shape-rendering="crispEdges"/>
<path d="M56.1099 36.2193C56.1099 36.2193 55.653 37.9827 54.8132 38.6289C52.8593 40.1325 49.7189 34.9052 49.7189 34.9052L51.0156 32.4956L56.1099 36.2193Z" stroke="url(#paint1_linear_20_151)" shape-rendering="crispEdges"/>
</g>
<path fill-rule="evenodd" clip-rule="evenodd" d="M48.6099 26.5282L55.6099 8.14789L70.1099 1H83.6099L94.1099 15.8063L96.1099 40.8239L100.11 44.9085V55.6303L63.6099 88.3063L53.6099 79.6268L45.6099 60.2253L47.1099 56.1408L59.1099 69.9261L70.1099 76.0528L88.1099 57.6725C87.3099 56.8556 67.4432 31.804 57.6099 19.3803L48.6099 26.5282Z" fill="#251414"/>
<path d="M88.1099 57.6725C87.3099 56.8556 67.4432 31.804 57.6099 19.3803M88.1099 57.6725L70.1099 76.0528M88.1099 57.6725L100.11 55.6303M88.1099 57.6725L100.11 44.9085M88.1099 57.6725L96.1099 40.8239M57.6099 19.3803L48.6099 26.5282M57.6099 19.3803L94.1099 15.8063M57.6099 19.3803L83.6099 1M57.6099 19.3803L70.1099 1M57.6099 19.3803L55.6099 8.14789M48.6099 26.5282L55.6099 8.14789M48.6099 26.5282L47.1099 56.1408M55.6099 8.14789L70.1099 1M70.1099 1H83.6099M83.6099 1L94.1099 15.8063M94.1099 15.8063L96.1099 40.8239M96.1099 40.8239L100.11 44.9085M100.11 44.9085V55.6303M100.11 55.6303L63.6099 88.3063M63.6099 88.3063L53.6099 79.6268M63.6099 88.3063L70.1099 76.0528M53.6099 79.6268L45.6099 60.2254L47.1099 56.1408M53.6099 79.6268L47.1099 56.1408M53.6099 79.6268L59.1099 69.9261M47.1099 56.1408L59.1099 69.9261M59.1099 69.9261L70.1099 76.0528" stroke="#230000"/>
<path d="M121.11 280.772L119.131 273.861V258.888L116.162 239.306L118.141 232.395L117.152 208.207L114.678 190.93L74.6046 191.505L74.1099 215.118L77.0783 216.846L79.0572 221.453L81.0362 256.008L85.9835 260.615V280.772L83.0151 283.076L121.11 280.772Z" fill="#251414"/>
<path d="M119.131 273.861L121.11 280.772L83.0151 283.076L85.9835 280.772M119.131 273.861V258.888M119.131 273.861L85.9835 280.772M119.131 258.888L116.162 239.306M119.131 258.888L85.9835 260.615M116.162 239.306L118.141 232.395M116.162 239.306L81.0362 256.008M118.141 232.395L117.152 208.207M118.141 232.395L79.0572 221.453M117.152 208.207L114.678 190.93M117.152 208.207L77.0783 216.846M114.678 190.93L74.6046 191.505L74.1099 215.118L77.0783 216.846M114.678 190.93L77.0783 216.846M77.0783 216.846L79.0572 221.453M79.0572 221.453L81.0362 256.008M81.0362 256.008L85.9835 260.615M85.9835 260.615V280.772" stroke="#230000"/>
<path d="M116.162 286.532L121.11 280.772L83.0151 283.076L85.9835 286.532L91.2783 317.28L95.7309 342.62L97.7099 346.651H107.11L111.315 322.463L116.162 286.532Z" fill="#251414"/>
<path d="M107.11 346.651H97.7099L95.7309 342.62M107.11 346.651L95.7309 342.62M107.11 346.651L111.315 322.463M116.162 286.532L121.11 280.772L83.0151 283.076M116.162 286.532L111.315 322.463M116.162 286.532H85.9835M85.9835 280.772L83.0151 283.076M83.0151 283.076L85.9835 286.532M85.9835 286.532L91.2783 317.28M91.2783 317.28L95.7309 342.62M91.2783 317.28L111.315 322.463M95.7309 342.62L111.315 322.463" stroke="#230000"/>
<path d="M92.6099 366.053H96.6099L115.11 378.306L123.11 374.222L106.61 351.757L110.11 337.972L92.6099 336.951L96.6099 350.225L93.6099 355.331L92.6099 357.884V366.053Z" fill="#252020"/>
<path d="M96.6099 366.053H92.6099V357.884M96.6099 366.053L115.11 378.306M96.6099 366.053C96.2099 365.644 93.7765 360.437 92.6099 357.884M96.6099 366.053L93.6099 355.331M96.6099 366.053C96.4956 365.644 96.5622 355.331 96.6099 350.225M115.11 378.306L123.11 374.222L106.61 351.757M115.11 378.306L96.6099 350.225M106.61 351.757L110.11 337.972M106.61 351.757L101.61 350.991M110.11 337.972L92.6099 336.951M110.11 337.972L101.61 350.991M92.6099 336.951L96.6099 350.225M92.6099 336.951L101.61 350.991M96.6099 350.225L93.6099 355.331M96.6099 350.225L101.61 350.991M92.6099 357.884L93.6099 355.331" stroke="black"/>
<path d="M62.4783 279.257L66.0572 271.599L68.2941 262.919V249.644L70.0835 248.113V228.201L71.873 217.989L73.6625 213.394L76.1099 191.44H46.6099L40.7809 208.289L35.6362 224.627L29.373 263.43L25.7941 276.704L23.1099 280.789L62.4783 279.257Z" fill="#251414"/>
<path d="M66.0572 271.599L62.4783 279.257L23.1099 280.789L25.7941 276.704M66.0572 271.599L68.2941 262.919M66.0572 271.599C53.3818 273.3 27.5835 276.704 25.7941 276.704M68.2941 262.919V249.644M68.2941 262.919L29.373 263.43M68.2941 249.644L70.0835 248.113M68.2941 249.644L35.6362 224.627M70.0835 248.113V228.201M70.0835 248.113L40.7809 208.289M70.0835 228.201L71.873 217.989M70.0835 228.201L46.6099 191.44M71.873 217.989L73.6625 213.394L76.1099 191.44H46.6099M71.873 217.989L46.6099 191.44M46.6099 191.44L40.7809 208.289M35.6362 224.627L29.373 263.43M35.6362 224.627L40.7809 208.289M29.373 263.43L25.7941 276.704" stroke="#230000"/>
<path d="M53.5309 291.511L62.4783 279.257L65.6099 271.599L25.6099 276.704L23.1099 280.789L35.6362 289.979L39.6625 327.25L40.1099 346.141H52.1888L53.5309 342.056V291.511Z" fill="#251414"/>
<path d="M53.5309 291.511L62.4783 279.257M53.5309 291.511V342.056M53.5309 291.511L39.6625 327.25M53.5309 291.511L35.6362 289.979M62.4783 279.257L23.1099 280.789M62.4783 279.257L65.6099 271.599L25.6099 276.704L23.1099 280.789M23.1099 280.789L35.6362 289.979M35.6362 289.979L39.6625 327.25M39.6625 327.25L40.1099 346.141H52.1888L53.5309 342.056M39.6625 327.25L53.5309 342.056" stroke="#230000"/>
<path d="M28.6099 374.732L51.6099 368.606H54.1099V359.926L52.1099 355.331L55.1099 336.951H37.1099L40.1099 357.884L26.1099 368.606L28.6099 374.732Z" fill="#252020"/>
<path d="M51.6099 368.606L28.6099 374.732M51.6099 368.606H54.1099V359.926M51.6099 368.606L54.1099 359.926M51.6099 368.606C51.6099 368.197 51.9432 359.586 52.1099 355.331M28.6099 374.732L26.1099 368.606L40.1099 357.884M28.6099 374.732L40.1099 357.884M40.1099 357.884L37.1099 336.951M40.1099 357.884L46.1099 356.607M37.1099 336.951H55.1099M37.1099 336.951L46.1099 356.607M55.1099 336.951L52.1099 355.331M55.1099 336.951L46.1099 356.607M52.1099 355.331L54.1099 359.926M52.1099 355.331L46.1099 356.607" stroke="black"/>
<path d="M115.188 191.44L117.11 187.866L111.344 172.549L76.2657 173.06L43.1099 173.57L43.2795 183.271L45.993 191.44L71.6099 217.989L73.6099 212.884L77.1099 214.415L115.188 191.44Z" fill="#251414"/>
<path d="M115.188 191.44L117.11 187.866M115.188 191.44L71.6099 198.077M115.188 191.44L76.2657 173.06M115.188 191.44L77.1099 214.415L73.6099 212.884M117.11 187.866L111.344 172.549L76.2657 173.06M117.11 187.866L76.2657 173.06M43.2795 183.271L43.1099 173.57L76.2657 173.06M43.2795 183.271L45.993 191.44M43.2795 183.271L76.2657 173.06M45.993 191.44L71.6099 198.077M45.993 191.44L76.2657 173.06M45.993 191.44L71.6099 217.989L73.6099 212.884M71.6099 198.077L76.2657 173.06M71.6099 198.077L73.6099 212.884" stroke="#230000"/>
<path d="M32.6099 138.342V148.042L19.6099 170.507L35.1099 180.208L39.6099 174.081V164.38L47.1099 154.68L54.1099 128.13L51.6099 117.408L31.6099 118.94L32.6099 123.535L29.1099 134.768L32.6099 138.342Z" fill="#251414"/>
<path d="M39.6099 164.38L32.6099 148.042M39.6099 164.38L47.1099 154.68L54.1099 128.13M39.6099 164.38V174.081L35.1099 180.208L19.6099 170.507L32.6099 148.042M32.6099 148.042L47.1099 154.169L32.6099 138.342M32.6099 148.042V138.342M32.6099 138.342L29.1099 134.768M32.6099 138.342C33.0099 138.342 47.1099 131.534 54.1099 128.13M54.1099 128.13L29.1099 134.768M54.1099 128.13L32.6099 123.535M54.1099 128.13L51.6099 117.408L31.6099 118.94L32.6099 123.535M29.1099 134.768L32.6099 123.535" stroke="#230000"/>
<path d="M34.6099 110.261L30.6099 116.898L31.1099 118.94L51.6099 117.408L54.1099 105.665L51.6099 92.9014L54.1099 78.0951L51.6099 71.4577L34.6099 79.6268L36.6099 102.602L32.6099 105.665L34.6099 110.261Z" fill="#251414"/>
<path d="M51.6099 117.408L30.6099 116.898M51.6099 117.408L34.6099 110.261M51.6099 117.408L36.6099 102.602M51.6099 117.408L32.6099 105.665M51.6099 117.408L54.1099 105.665M51.6099 117.408L31.1099 118.94L30.6099 116.898M30.6099 116.898L34.6099 110.261M34.6099 110.261L32.6099 105.665M54.1099 105.665L36.6099 102.602M54.1099 105.665L51.6099 92.9014M36.6099 102.602L32.6099 105.665M36.6099 102.602L34.6099 79.6268M36.6099 102.602L51.6099 92.9014M51.6099 92.9014L34.6099 79.6268M51.6099 92.9014L54.1099 78.0951M34.6099 79.6268L54.1099 78.0951M34.6099 79.6268L51.6099 71.4577L54.1099 78.0951" stroke="#230000"/>
<path d="M27.6099 220.032L21.1099 202.162H11.1099L1.10986 220.032L6.60986 229.222H13.6099L21.1099 228.201L27.6099 220.032Z" fill="#403535" stroke="black"/>
<path d="M21.1099 202.162L39.1099 174.081L22.6099 164.38L12.1099 155.19L11.8599 159.275L11.6099 163.359L13.6099 167.954L11.1099 202.162H21.1099Z" fill="#403535"/>
<path d="M21.1099 202.162L39.1099 174.081L22.6099 164.38M21.1099 202.162H11.1099M21.1099 202.162C21.1099 200.528 22.1099 176.293 22.6099 164.38M22.6099 164.38L12.1099 155.19L11.8599 159.275M22.6099 164.38L11.8599 159.275M22.6099 164.38L11.6099 163.359M22.6099 164.38L13.6099 167.954M22.6099 164.38L11.1099 202.162M11.1099 202.162L13.6099 167.954M11.6099 163.359L13.6099 167.954M11.6099 163.359L11.8599 159.275" stroke="black"/>
<path d="M137.61 112.813L131.61 108.218L128.11 98.5176V75.0317H119.61L113.61 83.2007L105.61 101.581L104.11 111.792C106.777 116.217 112.11 125.169 112.11 125.577C112.11 125.986 125.443 124.727 132.11 124.046L136.61 114.856L137.61 112.813Z" fill="#251414"/>
<path d="M137.61 112.813L104.11 111.792M137.61 112.813L131.61 108.218M137.61 112.813L136.61 114.856M104.11 111.792L131.61 108.218M104.11 111.792L128.11 98.5176M104.11 111.792L105.61 101.581M104.11 111.792L136.61 114.856M104.11 111.792C106.777 116.217 112.11 125.169 112.11 125.577C112.11 125.986 125.443 124.727 132.11 124.046L136.61 114.856M131.61 108.218L128.11 98.5176M128.11 98.5176L105.61 101.581M128.11 98.5176L113.61 83.2007M128.11 98.5176C128.11 97.2923 128.11 82.3498 128.11 75.0317H119.61M128.11 98.5176L119.61 75.0317M105.61 101.581L113.61 83.2007M113.61 83.2007L119.61 75.0317" stroke="#230000"/>
<path d="M113.11 150.085L117.11 157.232L120.61 172.549L140.61 163.87L137.61 148.553L139.61 146.511L133.61 132.215L134.61 129.662V125.577L131.61 124.556L111.61 125.577L113.11 130.683L117.11 132.215L115.11 146.511L113.11 150.085Z" fill="#251414"/>
<path d="M137.61 148.553L117.11 157.232M137.61 148.553L113.11 150.085M137.61 148.553L115.11 146.511M137.61 148.553L139.61 146.511M137.61 148.553L140.61 163.87L120.61 172.549L117.11 157.232M117.11 157.232L113.11 150.085M113.11 150.085L115.11 146.511M139.61 146.511H115.11M139.61 146.511L133.61 132.215M115.11 146.511L117.11 132.215M133.61 132.215H117.11M133.61 132.215L134.61 129.662M117.11 132.215L131.61 124.556M117.11 132.215L134.61 125.577M117.11 132.215L134.61 129.662M117.11 132.215L113.11 130.683M134.61 129.662V125.577M134.61 125.577L131.61 124.556M131.61 124.556L113.11 130.683M131.61 124.556L111.61 125.577L113.11 130.683" stroke="#230000"/>
<path d="M139.61 229.222L144.61 224.116V220.542L141.61 204.715H129.61L123.61 222.074L125.11 229.222L132.11 232.285L134.61 229.222H139.61Z" fill="#403535" stroke="black"/>
<path d="M141.61 204.715L143.11 167.444L146.11 162.849V158.509V154.169L139.61 159.275L120.11 171.018L121.61 180.208L129.61 204.715H141.61Z" fill="#403535"/>
<path d="M141.61 204.715L143.11 167.444M141.61 204.715H129.61M141.61 204.715L139.61 159.275M143.11 167.444L146.11 162.849M143.11 167.444C143.11 166.627 140.777 161.657 139.61 159.275M146.11 162.849L139.61 159.275M146.11 162.849V158.509M139.61 159.275L146.11 154.169V158.509M139.61 159.275L120.11 171.018L121.61 180.208L129.61 204.715M139.61 159.275L129.61 204.715M139.61 159.275L146.11 158.509" stroke="black"/>
<path d="M106.377 135.278L112.172 124.556L104.445 112.813L106.377 100.56L114.013 83.4054L114.104 83.2007L119.417 75.5422H128.11L108.792 65.331V61.757L100.11 56.1408L64.6099 86.7746L55.1837 79.1162L53.2519 75.5422L43.1099 88.8169V103.623L48.9053 145.489L106.377 135.278Z" fill="#251414"/>
<path d="M106.377 135.278L112.172 124.556M106.377 135.278L48.9053 145.489L43.1099 103.623M106.377 135.278L43.1099 103.623M112.172 124.556L104.445 112.813M112.172 124.556L43.1099 103.623M104.445 112.813L106.377 100.56M104.445 112.813L64.6099 86.7746M106.377 100.56C105.604 100.56 77.8106 90.689 64.6099 86.7746M106.377 100.56L114.013 83.4054M114.104 83.2007L119.417 75.5422M114.104 83.2007L114.013 83.4054M114.104 83.2007L108.792 65.331M119.417 75.5422H128.11L108.792 65.331M119.417 75.5422L108.792 65.331M108.792 65.331V61.757L100.11 56.1408M100.11 56.1408L64.6099 86.7746M100.11 56.1408C103.813 63.9695 112.541 81.1994 114.013 83.4054M64.6099 86.7746L55.1837 79.1162M64.6099 86.7746L43.1099 103.623M55.1837 79.1162L53.2519 75.5422L43.1099 88.8169M55.1837 79.1162L43.1099 88.8169M43.1099 88.8169V103.623" stroke="#230000"/>
<path d="M110.241 172.549L108.792 163.359L112.172 153.148L106.377 135.278L48.9053 145.489L50.8371 151.106L48.9053 153.148V163.359L43.1099 173.57L110.241 172.549Z" fill="#251414"/>
<path d="M110.241 172.549L108.792 163.359M110.241 172.549L43.1099 173.57L48.9053 163.359M110.241 172.549L48.9053 163.359M110.241 172.549L48.9053 153.148M108.792 163.359L112.172 153.148M108.792 163.359L48.9053 153.148M112.172 153.148L106.377 135.278L48.9053 145.489M112.172 153.148L48.9053 145.489M112.172 153.148L50.8371 151.106M48.9053 145.489L50.8371 151.106M48.9053 163.359V153.148M48.9053 153.148L50.8371 151.106" stroke="#230000"/>
<g filter="url(#filter3_d_20_151)">
<path d="M46.1099 168.5L47.6099 161L50.1099 145L52.6099 134L54.6099 129L57.6099 120.75L41.1099 76.5L48.1099 72.5L57.6099 98L62.6099 112L100.11 60.5L107.11 64L87.1099 89L70.6099 112.5L58.1099 130L55.1099 136L53.6099 144.5L50.3992 161L48.6099 169L46.1099 168.5Z" fill="#100F0F"/>
<path d="M46.1099 168.5L47.6099 161M46.1099 168.5L48.6099 169L50.3992 161M46.1099 168.5L50.3992 161M47.6099 161L50.1099 145M47.6099 161L53.6099 144.5M50.1099 145L52.6099 134M50.1099 145L55.1099 136M52.6099 134L54.6099 129M52.6099 134L58.1099 130M54.6099 129L57.6099 120.75M54.6099 129L70.6099 112.5M62.6099 112L100.11 60.5M62.6099 112L57.6099 120.75M62.6099 112L57.6099 98M62.6099 112L70.6099 112.5M62.6099 112C71.9432 104.5 87.1099 89 87.1099 89M100.11 60.5L107.11 64L87.1099 89M100.11 60.5L87.1099 89M70.6099 112.5L58.1099 130M70.6099 112.5L57.6099 120.75M70.6099 112.5L87.1099 89M58.1099 130L55.1099 136M55.1099 136L53.6099 144.5M53.6099 144.5L50.3992 161M41.1099 76.5L48.1099 72.5L57.6099 98M41.1099 76.5L57.6099 120.75M41.1099 76.5L57.6099 98" stroke="#252323"/>
</g>
<g filter="url(#filter4_d_20_151)">
<path d="M90.1099 88.6667L108.11 61.0235L102.61 58L85.1099 87.3709L82.6099 92.9859L80.1099 105.512V112.854V122.357V130.563V133.155V139.202V144.385V146.977V150H87.1099V146.977V144.385V139.202V133.155V130.563V124.948V115.446V107.239L88.6099 96.0094L90.1099 88.6667Z" fill="#3C3C3C"/>
<path d="M88.6099 96.0094L90.1099 88.6667L108.11 61.0235L102.61 58M88.6099 96.0094L87.1099 107.239M88.6099 96.0094L85.1099 87.3709M87.1099 107.239V115.446M87.1099 107.239L82.6099 92.9859M87.1099 115.446V124.948M87.1099 115.446L80.1099 105.512M87.1099 124.948V130.563M87.1099 124.948L80.1099 112.854M87.1099 130.563V133.155M87.1099 130.563L80.1099 122.357M87.1099 133.155V139.202M87.1099 133.155L80.1099 130.563M87.1099 139.202V144.385M87.1099 139.202L80.1099 133.155M87.1099 144.385V146.977M87.1099 144.385L80.1099 139.202M87.1099 146.977V150M87.1099 146.977L80.1099 144.385M87.1099 150H80.1099V146.977M87.1099 150L80.1099 146.977M80.1099 146.977V144.385M80.1099 144.385V139.202M80.1099 139.202V133.155M80.1099 133.155V130.563M80.1099 130.563V122.357M80.1099 122.357V112.854M80.1099 112.854V105.512M80.1099 105.512L82.6099 92.9859M82.6099 92.9859L85.1099 87.3709M85.1099 87.3709L102.61 58M102.61 58L89.6099 88.6667" stroke="#251414"/>
</g>
<g filter="url(#filter5_d_20_151)">
<path d="M52.4699 76L49.1099 80.7895L50.0699 84.3816L51.9899 99.9474L53.4299 111.921V114.914L54.8699 132.276V135.27V140.658V144.25V156.224V167H61.1099V157.421V148.441V146.046V140.658V136.467V132.276L59.6699 118.507V114.316L56.3099 95.7566L52.4699 76Z" fill="#3C3C3C"/>
<path d="M52.4699 76L49.1099 80.7895L50.0699 84.3816M52.4699 76L56.3099 95.7566M52.4699 76L50.0699 84.3816M50.0699 84.3816L51.9899 99.9474M51.9899 99.9474L53.4299 111.921M51.9899 99.9474L56.3099 95.7566M53.4299 111.921V114.914M53.4299 111.921L59.6699 114.316M53.4299 114.914L54.8699 132.276M53.4299 114.914L59.6699 118.507M54.8699 132.276V135.27M54.8699 132.276H61.1099M54.8699 135.27V140.658M54.8699 135.27L61.1099 136.467M54.8699 140.658V144.25M54.8699 140.658H61.1099M54.8699 144.25V156.224M54.8699 144.25L61.1099 146.046M54.8699 156.224V167M54.8699 156.224L61.1099 148.441M54.8699 167H61.1099V157.421M54.8699 167L61.1099 157.421M61.1099 157.421V148.441M61.1099 148.441V146.046M61.1099 146.046V140.658M61.1099 140.658V136.467M61.1099 136.467V132.276M61.1099 132.276L59.6699 118.507M59.6699 118.507V114.316M59.6699 114.316L56.3099 95.7566" stroke="#251414"/>
</g>
<path d="M89.1099 82.6901L108.61 61.757L100.11 56.1408L64.6099 86.7746L54.6099 79.1162L51.6099 71.4577L45.6099 74.5211L47.6099 82.1796L57.1099 92.3908L67.1099 92.9014L78.1099 87.7958L89.1099 82.6901Z" fill="#3C3C3C"/>
<path d="M89.1099 82.6901L108.61 61.757L100.11 56.1408M89.1099 82.6901L78.1099 87.7958M89.1099 82.6901L100.11 56.1408M78.1099 87.7958L67.1099 92.9014M78.1099 87.7958L100.11 56.1408M67.1099 92.9014L57.1099 92.3908M67.1099 92.9014L64.6099 86.7746M57.1099 92.3908L47.6099 82.1796M57.1099 92.3908L54.6099 79.1162M47.6099 82.1796L45.6099 74.5211L51.6099 71.4577L54.6099 79.1162M47.6099 82.1796L54.6099 79.1162M54.6099 79.1162L64.6099 86.7746M64.6099 86.7746L100.11 56.1408" stroke="#251414"/>
<path d="M106.61 54.9947H102.61L100.161 56.0159L100.11 56.1408L109.11 61.757V64.8204L114.11 67.3732L114.61 63.7993V61.757L112.11 59.0792L108.61 56.0159L106.61 54.9947Z" fill="#3C3C3C"/>
<path d="M106.61 54.9947H102.61L100.161 56.0159M106.61 54.9947L108.61 56.0159M106.61 54.9947L100.161 56.0159M108.61 56.0159L112.11 59.0792M108.61 56.0159L100.161 56.0159M112.11 59.0792L114.61 61.757M112.11 59.0792L109.11 61.757M114.61 61.757V63.7993M114.61 61.757L109.11 61.757M114.61 63.7993L114.11 67.3732L109.11 64.8204M114.61 63.7993L109.11 64.8204M109.11 64.8204V61.757M109.11 61.757L100.11 56.1408L100.161 56.0159" stroke="#251414"/>
<g filter="url(#filter6_d_20_151)">
<path d="M113.11 176.634C113.11 175.817 112.11 173.57 111.61 172.549H110.11L109.61 168.465L72.1099 168.975H45.6099L43.1099 173.57V176.634L71.1099 178.676L104.61 176.634H108.86H113.11Z" fill="#3C3C3C"/>
<path d="M111.61 172.549C112.11 173.57 113.11 175.817 113.11 176.634H108.86M111.61 172.549H110.11M111.61 172.549L108.86 176.634M110.11 172.549L109.61 168.465M110.11 172.549L104.61 176.634M109.61 168.465L71.1099 178.676M109.61 168.465L72.1099 168.975M45.6099 168.975L43.1099 173.57M45.6099 168.975L71.1099 178.676M45.6099 168.975H72.1099M43.1099 173.57V176.634L71.1099 178.676M43.1099 173.57L71.1099 178.676M104.61 176.634H108.86M104.61 176.634L71.1099 178.676M71.1099 178.676L72.1099 168.975" stroke="#251414"/>
<path d="M51.5099 178H53.1099V168H51.1099L51.5099 178Z" fill="#1F1F1F"/>
<path d="M53.1099 178H51.5099L51.1099 168M53.1099 178V168H51.1099M53.1099 178L51.1099 168" stroke="#251414"/>
<path d="M47.5099 178H49.1099V168H47.1099L47.5099 178Z" fill="#1F1F1F"/>
<path d="M47.5099 178H49.1099V168M47.5099 178L47.1099 168H49.1099M47.5099 178L49.1099 168" stroke="#251414"/>
<path d="M55.5099 178H57.1099V168H55.1099L55.5099 178Z" fill="#1F1F1F"/>
<path d="M57.1099 178H55.5099L55.1099 168M57.1099 178V168H55.1099M57.1099 178C57.1099 177.619 55.7765 171.175 55.1099 168" stroke="#251414"/>
<path d="M83.1099 180.409L96.6099 181L98.7396 175.127L101.11 168.591L85.9224 168L84.5161 174.205L83.1099 180.409Z" fill="#291E1E"/>
<path d="M96.6099 181L83.1099 180.409L84.5161 174.205M96.6099 181L101.11 168.591M96.6099 181L90.9849 177.455M101.11 168.591L85.9224 168M101.11 168.591L92.1099 174.5L85.9224 168M85.9224 168L84.5161 174.205M84.5161 174.205L90.9849 177.455M90.9849 177.455L98.8599 175.091" stroke="#251414"/>
<path d="M71.1099 178.676L75.6099 168.975L74.1099 168.975L69.6099 168.975L68.6099 168.975L71.1099 178.676Z" fill="#281E1E"/>
</g>
<defs>
<filter id="filter0_i_20_151" x="46.6005" y="18.6757" width="41.6694" height="62.397" filterUnits="userSpaceOnUse" color-interpolation-filters="sRGB">
<feFlood flood-opacity="0" result="BackgroundImageFix"/>
<feBlend mode="normal" in="SourceGraphic" in2="BackgroundImageFix" result="shape"/>
<feColorMatrix in="SourceAlpha" type="matrix" values="0 0 0 0 0 0 0 0 0 0 0 0 0 0 0 0 0 0 127 0" result="hardAlpha"/>
<feOffset dy="8"/>
<feGaussianBlur stdDeviation="2.2"/>
<feComposite in2="hardAlpha" operator="arithmetic" k2="-1" k3="1"/>
<feColorMatrix type="matrix" values="0 0 0 0 1 0 0 0 0 0 0 0 0 0 0 0 0 0 0.25 0"/>
<feBlend mode="normal" in2="shape" result="effect1_innerShadow_20_151"/>
</filter>
<filter id="filter1_di_20_151" x="44.5841" y="15.8578" width="39.5258" height="52.7873" filterUnits="userSpaceOnUse" color-interpolation-filters="sRGB">
<feFlood flood-opacity="0" result="BackgroundImageFix"/>
<feColorMatrix in="SourceAlpha" type="matrix" values="0 0 0 0 0 0 0 0 0 0 0 0 0 0 0 0 0 0 127 0" result="hardAlpha"/>
<feOffset dy="1"/>
<feGaussianBlur stdDeviation="2"/>
<feComposite in2="hardAlpha" operator="out"/>
<feColorMatrix type="matrix" values="0 0 0 0 1 0 0 0 0 1 0 0 0 0 1 0 0 0 1 0"/>
<feBlend mode="normal" in2="BackgroundImageFix" result="effect1_dropShadow_20_151"/>
<feBlend mode="normal" in="SourceGraphic" in2="effect1_dropShadow_20_151" result="shape"/>
<feColorMatrix in="SourceAlpha" type="matrix" values="0 0 0 0 0 0 0 0 0 0 0 0 0 0 0 0 0 0 127 0" result="hardAlpha"/>
<feOffset dx="3" dy="10"/>
<feGaussianBlur stdDeviation="2.65"/>
<feComposite in2="hardAlpha" operator="arithmetic" k2="-1" k3="1"/>
<feColorMatrix type="matrix" values="0 0 0 0 0 0 0 0 0 0 0 0 0 0 0 0 0 0 0.25 0"/>
<feBlend mode="normal" in2="shape" result="effect2_innerShadow_20_151"/>
</filter>
<filter id="filter2_dd_20_151" x="45.144" y="31.7536" width="33.2468" height="16.4751" filterUnits="userSpaceOnUse" color-interpolation-filters="sRGB">
<feFlood flood-opacity="0" result="BackgroundImageFix"/>
<feColorMatrix in="SourceAlpha" type="matrix" values="0 0 0 0 0 0 0 0 0 0 0 0 0 0 0 0 0 0 127 0" result="hardAlpha"/>
<feOffset dy="4"/>
<feGaussianBlur stdDeviation="2"/>
<feComposite in2="hardAlpha" operator="out"/>
<feColorMatrix type="matrix" values="0 0 0 0 0 0 0 0 0 0 0 0 0 0 0 0 0 0 0.25 0"/>
<feBlend mode="normal" in2="BackgroundImageFix" result="effect1_dropShadow_20_151"/>
<feColorMatrix in="SourceAlpha" type="matrix" values="0 0 0 0 0 0 0 0 0 0 0 0 0 0 0 0 0 0 127 0" result="hardAlpha"/>
<feOffset dy="4"/>
<feGaussianBlur stdDeviation="2"/>
<feComposite in2="hardAlpha" operator="out"/>
<feColorMatrix type="matrix" values="0 0 0 0 0 0 0 0 0 0 0 0 0 0 0 0 0 0 0.25 0"/>
<feBlend mode="normal" in2="effect1_dropShadow_20_151" result="effect2_dropShadow_20_151"/>
<feBlend mode="normal" in="SourceGraphic" in2="effect2_dropShadow_20_151" result="shape"/>
</filter>
<filter id="filter3_d_20_151" x="36.4929" y="59.8635" width="75.3937" height="117.723" filterUnits="userSpaceOnUse" color-interpolation-filters="sRGB">
<feFlood flood-opacity="0" result="BackgroundImageFix"/>
<feColorMatrix in="SourceAlpha" type="matrix" values="0 0 0 0 0 0 0 0 0 0 0 0 0 0 0 0 0 0 127 0" result="hardAlpha"/>
<feOffset dy="4"/>
<feGaussianBlur stdDeviation="2"/>
<feComposite in2="hardAlpha" operator="out"/>
<feColorMatrix type="matrix" values="0 0 0 0 0 0 0 0 0 0 0 0 0 0 0 0 0 0 0.25 0"/>
<feBlend mode="normal" in2="BackgroundImageFix" result="effect1_dropShadow_20_151"/>
<feBlend mode="normal" in="SourceGraphic" in2="effect1_dropShadow_20_151" result="shape"/>
</filter>
<filter id="filter4_d_20_151" x="75.6099" y="57.3292" width="37.213" height="101.171" filterUnits="userSpaceOnUse" color-interpolation-filters="sRGB">
<feFlood flood-opacity="0" result="BackgroundImageFix"/>
<feColorMatrix in="SourceAlpha" type="matrix" values="0 0 0 0 0 0 0 0 0 0 0 0 0 0 0 0 0 0 127 0" result="hardAlpha"/>
<feOffset dy="4"/>
<feGaussianBlur stdDeviation="2"/>
<feComposite in2="hardAlpha" operator="out"/>
<feColorMatrix type="matrix" values="0 0 0 0 0 0 0 0 0 0 0 0 0 0 0 0 0 0 0.25 0"/>
<feBlend mode="normal" in2="BackgroundImageFix" result="effect1_dropShadow_20_151"/>
<feBlend mode="normal" in="SourceGraphic" in2="effect1_dropShadow_20_151" result="shape"/>
</filter>
<filter id="filter5_d_20_151" x="44.5666" y="74.7497" width="21.0433" height="100.75" filterUnits="userSpaceOnUse" color-interpolation-filters="sRGB">
<feFlood flood-opacity="0" result="BackgroundImageFix"/>
<feColorMatrix in="SourceAlpha" type="matrix" values="0 0 0 0 0 0 0 0 0 0 0 0 0 0 0 0 0 0 127 0" result="hardAlpha"/>
<feOffset dy="4"/>
<feGaussianBlur stdDeviation="2"/>
<feComposite in2="hardAlpha" operator="out"/>
<feColorMatrix type="matrix" values="0 0 0 0 0 0 0 0 0 0 0 0 0 0 0 0 0 0 0.25 0"/>
<feBlend mode="normal" in2="BackgroundImageFix" result="effect1_dropShadow_20_151"/>
<feBlend mode="normal" in="SourceGraphic" in2="effect1_dropShadow_20_151" result="shape"/>
</filter>
<filter id="filter6_d_20_151" x="38.6099" y="167.484" width="79" height="22.0313" filterUnits="userSpaceOnUse" color-interpolation-filters="sRGB">
<feFlood flood-opacity="0" result="BackgroundImageFix"/>
<feColorMatrix in="SourceAlpha" type="matrix" values="0 0 0 0 0 0 0 0 0 0 0 0 0 0 0 0 0 0 127 0" result="hardAlpha"/>
<feOffset dy="4"/>
<feGaussianBlur stdDeviation="2"/>
<feComposite in2="hardAlpha" operator="out"/>
<feColorMatrix type="matrix" values="0 0 0 0 0 0 0 0 0 0 0 0 0 0 0 0 0 0 0.25 0"/>
<feBlend mode="normal" in2="BackgroundImageFix" result="effect1_dropShadow_20_151"/>
<feBlend mode="normal" in="SourceGraphic" in2="effect1_dropShadow_20_151" result="shape"/>
</filter>
<linearGradient id="paint0_linear_20_151" x1="61.687" y1="31.7915" x2="60.6918" y2="39.7454" gradientUnits="userSpaceOnUse">
<stop stop-opacity="0.1"/>
<stop offset="1" stop-color="#FF0000" stop-opacity="0"/>
<stop offset="1" stop-color="#FF0000" stop-opacity="0"/>
</linearGradient>
<linearGradient id="paint1_linear_20_151" x1="61.687" y1="31.7915" x2="60.6918" y2="39.7454" gradientUnits="userSpaceOnUse">
<stop stop-opacity="0.1"/>
<stop offset="1" stop-color="#FF0000" stop-opacity="0"/>
<stop offset="1" stop-color="#FF0000" stop-opacity="0"/>
</linearGradient>
</defs>
</svg>
