<svg width="150" height="361" viewBox="0 0 150 361" fill="none" xmlns="http://www.w3.org/2000/svg">
<path fill-rule="evenodd" clip-rule="evenodd" d="M81.6844 1H66.7731L55.9752 15.5L53.9185 40L52.8901 44.5L51.3475 49.5L66.7731 78H87.8546L103.794 49.5L101.738 44.5L100.195 40L95.0532 15.5L81.6844 1Z" fill="#251414"/>
<path d="M77.5 53L55.9752 15.5M77.5 53L66.7731 1M77.5 53L81.6844 1M77.5 53L95.0532 15.5M77.5 53L53.9185 40M77.5 53L52.8901 44.5M77.5 53L51.3475 49.5M77.5 53L66.7731 78M77.5 53C81.638 65.3333 88.3021 77.2 87.8546 78M77.5 53L103.794 49.5M77.5 53L101.738 44.5M77.5 53L100.195 40M81.6844 1H66.7731M81.6844 1L95.0532 15.5M66.7731 1L55.9752 15.5M55.9752 15.5L53.9185 40M53.9185 40L52.8901 44.5M52.8901 44.5L51.3475 49.5M51.3475 49.5L66.7731 78M66.7731 78H87.8546M95.0532 15.5L100.195 40M100.195 40L101.738 44.5M101.738 44.5L103.794 49.5M103.794 49.5L87.8546 78" stroke="#230000"/>
<path d="M28.2092 274.984L30.2443 268.216V253.552L33.2969 234.376L31.2619 227.608L32.2794 203.92L34.8233 187L76.0338 187.564L76.5426 210.688L73.4899 212.38L71.4548 216.892L69.4198 250.732L64.332 255.244V274.984L67.3847 277.24L28.2092 274.984Z" fill="#251414"/>
<path d="M30.2443 268.216L28.2092 274.984L67.3847 277.24L64.332 274.984M30.2443 268.216V253.552M30.2443 268.216L64.332 274.984M30.2443 253.552L33.2969 234.376M30.2443 253.552L64.332 255.244M33.2969 234.376L31.2619 227.608M33.2969 234.376L69.4198 250.732M31.2619 227.608L32.2794 203.92M31.2619 227.608L71.4548 216.892M32.2794 203.92L34.8233 187M32.2794 203.92L73.4899 212.38M34.8233 187L76.0338 187.564L76.5426 210.688L73.4899 212.38M34.8233 187L73.4899 212.38M73.4899 212.38L71.4548 216.892M71.4548 216.892L69.4198 250.732M69.4198 250.732L64.332 255.244M64.332 255.244V274.984" stroke="#230000"/>
<path d="M33.2969 280.624L28.2092 274.984L67.3847 277.24L64.332 280.624L58.8871 310.736L54.3081 335.552L52.2731 339.5H42.6064L38.2818 315.812L33.2969 280.624Z" fill="#251414"/>
<path d="M42.6064 339.5H52.2731L54.3081 335.552M42.6064 339.5L54.3081 335.552M42.6064 339.5L38.2818 315.812M33.2969 280.624L28.2092 274.984L67.3847 277.24M33.2969 280.624L38.2818 315.812M33.2969 280.624H64.332M64.332 274.984L67.3847 277.24M67.3847 277.24L64.332 280.624M64.332 280.624L58.8871 310.736M58.8871 310.736L54.3081 335.552M58.8871 310.736L38.2818 315.812M54.3081 335.552L38.2818 315.812" stroke="#230000"/>
<path d="M38.8855 359.504L47.7047 360.504C47.5871 360.104 42.9512 348 43.0001 343L42 348.5L40.5 351.5L38.8855 359.504Z" fill="#252020"/>
<path d="M52.8464 360.504L52.8476 360.5C52.9635 360.03 52.8964 347.983 52.8476 343L47.7058 343.75L43.0001 343C42.9512 348 47.5871 360.104 47.7047 360.504H52.8464Z" fill="#252020"/>
<path d="M55.9327 348L52.8476 343C52.8964 347.983 52.9635 360.03 52.8476 360.5L55.9327 348Z" fill="#252020"/>
<path d="M56.9611 350.5L55.9327 348L52.8476 360.5L52.8464 360.504C53.2578 360.104 55.7613 353 56.9611 350.5Z" fill="#252020"/>
<path d="M52.8464 360.504L56.96 359.504L56.9611 350.5C55.7613 353 53.2578 360.104 52.8464 360.504Z" fill="#252020"/>
<path d="M52.8476 343L56.9611 330L47.7058 343.75L52.8476 343Z" fill="#252020"/>
<path d="M56.9611 330L38.9646 331L47.7058 343.75L56.9611 330Z" fill="#252020"/>
<path d="M38.9646 331L43.0001 343L47.7058 343.75L38.9646 331Z" fill="#252020"/>
<path d="M42 348.5L43.0001 343L35.5 348H31V353L38.8855 359.504L40.5 351.5L42 348.5Z" fill="#252020"/>
<path d="M52.8464 360.504L56.96 359.504L56.9611 350.5M52.8464 360.504C53.2578 360.104 55.7613 353 56.9611 350.5M52.8464 360.504H47.7047M52.8464 360.504L52.8476 360.5M43.0001 343L38.9646 331M43.0001 343L47.7058 343.75M43.0001 343L42 348.5M43.0001 343C42.9512 348 47.5871 360.104 47.7047 360.504M43.0001 343L35.5 348H31V353L38.8855 359.504M38.9646 331L56.9611 330M38.9646 331L47.7058 343.75M56.9611 330L52.8476 343M56.9611 330L47.7058 343.75M52.8476 343L55.9327 348M52.8476 343L47.7058 343.75M52.8476 343C52.8964 347.983 52.9635 360.03 52.8476 360.5M56.9611 350.5L55.9327 348M55.9327 348L52.8476 360.5M38.8855 359.504L47.7047 360.504M38.8855 359.504L40.5 351.5M47.7047 360.504C47.2933 360.104 41.6998 354 40.5 351.5M47.7047 360.504L42 348.5M40.5 351.5L42 348.5" stroke="black"/>
<path d="M123.848 274.984L121.812 268.216V253.552L118.76 234.376L120.795 227.608L119.777 203.92L117.233 187L76.023 187.564L75.5142 210.688L78.5668 212.38L80.6019 216.892L82.637 250.732L87.7247 255.244V274.984L84.6721 277.24L123.848 274.984Z" fill="#251414"/>
<path d="M121.812 268.216L123.848 274.984L84.6721 277.24L87.7247 274.984M121.812 268.216V253.552M121.812 268.216L87.7247 274.984M121.812 253.552L118.76 234.376M121.812 253.552L87.7247 255.244M118.76 234.376L120.795 227.608M118.76 234.376L82.637 250.732M120.795 227.608L119.777 203.92M120.795 227.608L80.6019 216.892M119.777 203.92L117.233 187M119.777 203.92L78.5668 212.38M117.233 187L76.023 187.564L75.5142 210.688L78.5668 212.38M117.233 187L78.5668 212.38M78.5668 212.38L80.6019 216.892M80.6019 216.892L82.637 250.732M82.637 250.732L87.7247 255.244M87.7247 255.244V274.984" stroke="#230000"/>
<path d="M118.76 280.624L123.848 274.984L84.6721 277.24L87.7247 280.624L93.1697 310.736L97.7486 335.552L99.7837 339.5H109.45L113.775 315.812L118.76 280.624Z" fill="#251414"/>
<path d="M109.45 339.5H99.7837L97.7486 335.552M109.45 339.5L97.7486 335.552M109.45 339.5L113.775 315.812M118.76 280.624L123.848 274.984L84.6721 277.24M118.76 280.624L113.775 315.812M118.76 280.624H87.7247M87.7247 274.984L84.6721 277.24M84.6721 277.24L87.7247 280.624M87.7247 280.624L93.1697 310.736M93.1697 310.736L97.7486 335.552M93.1697 310.736L113.775 315.812M97.7486 335.552L113.775 315.812" stroke="#230000"/>
<path d="M112.615 359.504L103.795 360.504C103.913 360.104 108.549 348 108.5 343L109.5 348.5L111 351.5L112.615 359.504Z" fill="#252020"/>
<path d="M98.6536 360.504L98.6524 360.5C98.5365 360.03 98.6036 347.983 98.6524 343L103.794 343.75L108.5 343C108.549 348 103.913 360.104 103.795 360.504H98.6536Z" fill="#252020"/>
<path d="M95.5673 348L98.6524 343C98.6036 347.983 98.5365 360.03 98.6524 360.5L95.5673 348Z" fill="#252020"/>
<path d="M94.5389 350.5L95.5673 348L98.6524 360.5L98.6536 360.504C98.2422 360.104 95.7387 353 94.5389 350.5Z" fill="#252020"/>
<path d="M98.6536 360.504L94.54 359.504L94.5389 350.5C95.7387 353 98.2422 360.104 98.6536 360.504Z" fill="#252020"/>
<path d="M98.6524 343L94.5389 330L103.794 343.75L98.6524 343Z" fill="#252020"/>
<path d="M94.5389 330L112.535 331L103.794 343.75L94.5389 330Z" fill="#252020"/>
<path d="M112.535 331L108.5 343L103.794 343.75L112.535 331Z" fill="#252020"/>
<path d="M109.5 348.5L108.5 343L116 348H120.5V353L112.615 359.504L111 351.5L109.5 348.5Z" fill="#252020"/>
<path d="M98.6536 360.504L94.54 359.504L94.5389 350.5M98.6536 360.504C98.2422 360.104 95.7387 353 94.5389 350.5M98.6536 360.504H103.795M98.6536 360.504L98.6524 360.5M108.5 343L112.535 331M108.5 343L103.794 343.75M108.5 343L109.5 348.5M108.5 343C108.549 348 103.913 360.104 103.795 360.504M108.5 343L116 348H120.5V353L112.615 359.504M112.535 331L94.5389 330M112.535 331L103.794 343.75M94.5389 330L98.6524 343M94.5389 330L103.794 343.75M98.6524 343L95.5673 348M98.6524 343L103.794 343.75M98.6524 343C98.6036 347.983 98.5365 360.03 98.6524 360.5M94.5389 350.5L95.5673 348M95.5673 348L98.6524 360.5M112.615 359.504L103.795 360.504M112.615 359.504L111 351.5M103.795 360.504C104.207 360.104 109.8 354 111 351.5M103.795 360.504L109.5 348.5M111 351.5L109.5 348.5" stroke="black"/>
<path d="M34.8936 187.5L33.3511 184L39.5213 169H76.0284L112.535 169.5L119.22 184L117.163 187L76.0284 211L34.8936 187.5Z" fill="#251414"/>
<path d="M34.8936 187.5L33.3511 184M34.8936 187.5L76.0284 169M34.8936 187.5L76.0284 211M34.8936 187.5L117.163 187M33.3511 184L39.5213 169H76.0284M33.3511 184L76.0284 169M76.0284 169L112.535 169.5L119.22 184M76.0284 169L119.22 184M76.0284 169L117.163 187M76.0284 169V211M76.0284 211L117.163 187M117.163 187L119.22 184" stroke="#230000"/>
<path d="M138.759 111L132.589 106.5L128.989 97V74H120.248L114.078 82L105.851 100L104.309 110C107.051 114.333 112.535 123.1 112.535 123.5C112.535 123.9 126.247 122.667 133.103 122L137.731 113L138.759 111Z" fill="#251414"/>
<path d="M138.759 111L104.309 110M138.759 111L132.589 106.5M138.759 111L137.731 113M104.309 110L132.589 106.5M104.309 110L128.989 97M104.309 110L105.851 100M104.309 110L137.731 113M104.309 110C107.051 114.333 112.535 123.1 112.535 123.5C112.535 123.9 126.247 122.667 133.103 122L137.731 113M132.589 106.5L128.989 97M128.989 97L105.851 100M128.989 97L114.078 82M128.989 97C128.989 95.8 128.989 81.1667 128.989 74H120.248M128.989 97L120.248 74M105.851 100L114.078 82M114.078 82L120.248 74" stroke="#230000"/>
<path d="M113.564 147.5L117.677 154.5L121.277 169.5L141.844 161L138.759 146L140.816 144L134.645 130L135.674 127.5V123.5L132.589 122.5L112.021 123.5L113.564 128.5L117.677 130L115.621 144L113.564 147.5Z" fill="#251414"/>
<path d="M138.759 146L117.677 154.5M138.759 146L113.564 147.5M138.759 146L115.621 144M138.759 146L140.816 144M138.759 146L141.844 161L121.277 169.5L117.677 154.5M117.677 154.5L113.564 147.5M113.564 147.5L115.621 144M140.816 144H115.621M140.816 144L134.645 130M115.621 144L117.677 130M134.645 130H117.677M134.645 130L135.674 127.5M117.677 130L132.589 122.5M117.677 130L135.674 123.5M117.677 130L135.674 127.5M117.677 130L113.564 128.5M135.674 127.5V123.5M135.674 123.5L132.589 122.5M132.589 122.5L113.564 128.5M132.589 122.5L112.021 123.5L113.564 128.5" stroke="#230000"/>
<path d="M142.872 201L144.415 164.5L147.5 160V155.75V151.5L140.816 156.5L120.762 168L122.305 177L130.532 201H142.872Z" fill="#403535"/>
<path d="M142.872 201L144.415 164.5M142.872 201H130.532M142.872 201L140.816 156.5M144.415 164.5L147.5 160M144.415 164.5C144.415 163.7 142.015 158.833 140.816 156.5M147.5 160L140.816 156.5M147.5 160V155.75M140.816 156.5L147.5 151.5V155.75M140.816 156.5L120.762 168L122.305 177L130.532 201M140.816 156.5L130.532 201M140.816 156.5L147.5 155.75" stroke="black"/>
<path d="M142.426 201L148.5 218L146.5 214.5L145.5 213.5L144.5 214L143.5 215.5L142 214.5L141 215L140.5 216L141 218L139.5 217H138.5L138 217.5L139 220.5L136.5 218.5H135.5V222.5L136 225H132L127 220V216.5L130.085 201H142.426Z" fill="#403535"/>
<path d="M135.5 222.5V218.5H136.5L139 220.5L138 217.5L138.5 217H139.5L141 218L140.5 216L141 215L142 214.5L143.5 215.5L144.5 214L145.5 213.5L146.5 214.5L148.5 218L142.426 201H130.085L127 216.5V220L132 225H136L135.5 222.5ZM135.5 222.5L132.5 220V216.5" stroke="black"/>
<path d="M144.5 214L145.5 213.5L147 215L148.5 218L148 220.5L145.5 218L144 215L144.5 214Z" fill="#403535" stroke="black"/>
<path d="M141 215L140.5 216L142 219.5L145.5 225L147 224.5L147.5 221.5L144.5 216.5L142 214.5L141 215Z" fill="#403535" stroke="black"/>
<path d="M140 228L142 227L139 221L136.5 218.5H135.5L135 219.5L136 223.5L140 228Z" fill="#403535" stroke="black"/>
<path d="M142.5 226.5L145 225.5L142.5 220L139.5 217H138.5L138 217.5L139.5 221.5L142.5 226.5Z" fill="#403535" stroke="black"/>
<path d="M128 213L127 216.5V220L129.5 223L132 225H136L134.5 222L132.5 220V216" stroke="black"/>
<path d="M11.2411 110.5L17.4113 106L21.0106 96.5V73.5H29.7517L35.922 81.5L44.1489 99.5L45.6915 109.5C42.9491 113.833 37.4645 122.6 37.4645 123C37.4645 123.4 23.7529 122.167 16.8971 121.5L12.2695 112.5L11.2411 110.5Z" fill="#251414"/>
<path d="M11.2411 110.5L45.6915 109.5M11.2411 110.5L17.4113 106M11.2411 110.5L12.2695 112.5M45.6915 109.5L17.4113 106M45.6915 109.5L21.0106 96.5M45.6915 109.5L44.1489 99.5M45.6915 109.5L12.2695 112.5M45.6915 109.5C42.9491 113.833 37.4645 122.6 37.4645 123C37.4645 123.4 23.7529 122.167 16.8971 121.5L12.2695 112.5M17.4113 106L21.0106 96.5M21.0106 96.5L44.1489 99.5M21.0106 96.5L35.922 81.5M21.0106 96.5C21.0106 95.3 21.0106 80.6667 21.0106 73.5H29.7517M21.0106 96.5L29.7517 73.5M44.1489 99.5L35.922 81.5M35.922 81.5L29.7517 73.5" stroke="#230000"/>
<path d="M36.4361 147L32.3227 154L28.7234 169L8.156 160.5L11.2411 145.5L9.18437 143.5L15.3546 129.5L14.3262 127V123L17.4113 122L37.9787 123L36.4361 128L32.3227 129.5L34.3794 143.5L36.4361 147Z" fill="#251414"/>
<path d="M11.2411 145.5L32.3227 154M11.2411 145.5L36.4361 147M11.2411 145.5L34.3794 143.5M11.2411 145.5L9.18437 143.5M11.2411 145.5L8.156 160.5L28.7234 169L32.3227 154M32.3227 154L36.4361 147M36.4361 147L34.3794 143.5M9.18437 143.5H34.3794M9.18437 143.5L15.3546 129.5M34.3794 143.5L32.3227 129.5M15.3546 129.5H32.3227M15.3546 129.5L14.3262 127M32.3227 129.5L17.4113 122M32.3227 129.5L14.3262 123M32.3227 129.5L14.3262 127M32.3227 129.5L36.4361 128M14.3262 127V123M14.3262 123L17.4113 122M17.4113 122L36.4361 128M17.4113 122L37.9787 123L36.4361 128" stroke="#230000"/>
<path d="M7.12763 200.5L5.58508 164L2.49997 159.5V155.25V151L9.18437 156L29.2376 167.5L27.695 176.5L19.4681 200.5H7.12763Z" fill="#403535"/>
<path d="M7.12763 200.5L5.58508 164M7.12763 200.5H19.4681M7.12763 200.5L9.18437 156M5.58508 164L2.49997 159.5M5.58508 164C5.58508 163.2 7.9846 158.333 9.18437 156M2.49997 159.5L9.18437 156M2.49997 159.5V155.25M9.18437 156L2.49997 151V155.25M9.18437 156L29.2376 167.5L27.695 176.5L19.4681 200.5M9.18437 156L19.4681 200.5M9.18437 156L2.49997 155.25" stroke="black"/>
<path d="M7.07439 201L1 218L3 214.5L4 213.5L5 214L6 215.5L7.5 214.5L8.5 215L9 216L8.5 218L10 217H11L11.5 217.5L10.5 220.5L13 218.5H14V222.5L13.5 225H17.5L22.4999 220V216.5L19.4148 201H7.07439Z" fill="#403535"/>
<path d="M14 222.5V218.5H13L10.5 220.5L11.5 217.5L11 217H10L8.5 218L9 216L8.5 215L7.5 214.5L6 215.5L5 214L4 213.5L3 214.5L1 218L7.07439 201H19.4148L22.4999 216.5V220L17.5 225H13.5L14 222.5ZM14 222.5L17 220V216.5" stroke="black"/>
<path d="M5 214L3.99997 213.5L2.5 215L1 218L1.5 220.5L3.99997 218L5.5 215L5 214Z" fill="#403535" stroke="black"/>
<path d="M8.5 215L9 216L7.5 219.5L4 225L2.5 224.5L2 221.5L5 216.5L7.5 214.5L8.5 215Z" fill="#403535" stroke="black"/>
<path d="M9.5 228L7.5 227L10.5 221L13 218.5H14L14.5 219.5L13.5 223.5L9.5 228Z" fill="#403535" stroke="black"/>
<path d="M7 226.5L4.5 225.5L7 220L10 217H11L11.5 217.5L10 221.5L7 226.5Z" fill="#403535" stroke="black"/>
<path d="M21.5 213L22.5 216.5V220L20 223L17.5 225H13.5L15 222L17 220V216" stroke="black"/>
<path d="M35.4136 81.5L29.9504 74H21.0106L40.8768 64L35.4136 81.5Z" fill="#251414"/>
<path d="M114.078 82L120.248 74H128.989L115.106 64L114.078 82Z" fill="#251414"/>
<path d="M104.308 110L105.851 100C105.851 100 100.709 78 87.8546 78L104.308 110Z" fill="#251414"/>
<path d="M103.794 49C103.794 49 94.2802 66.8701 87.8546 78C100.709 78 105.851 100 105.851 100L114.078 82L115.106 64V59.5L103.794 49Z" fill="#251414"/>
<path d="M66.773 78L51.3475 50C47.5398 57.6667 37.0217 79.5401 35.5073 81.7005L43.3601 98.5C44.1548 98.5 53.1978 81.8333 66.773 78Z" fill="#251414"/>
<path d="M40.8768 60.5V64L35.4136 81.5L35.5073 81.7005C37.0217 79.5401 47.5398 57.6667 51.3475 50L40.8768 60.5Z" fill="#251414"/>
<path d="M43.3601 98.5L45.3467 110.5L66.773 78C53.1978 81.8333 44.1548 98.5 43.3601 98.5Z" fill="#251414"/>
<path d="M46.7588 121.5L44.7722 132.5H109.594L107.608 121.5L104.308 110L87.8546 78H66.773L45.3467 110.5L46.7588 121.5Z" fill="#251414"/>
<path d="M45.3467 110.5L46.7588 121.5L44.7722 132.5H109.594L107.608 121.5L104.308 110M45.3467 110.5L43.3601 98.5M45.3467 110.5L66.773 78M43.3601 98.5C44.1548 98.5 53.1978 81.8333 66.773 78M43.3601 98.5L35.5073 81.7005M35.4136 81.5L29.9504 74M35.4136 81.5L35.5073 81.7005M35.4136 81.5L40.8768 64M29.9504 74H21.0106L40.8768 64M29.9504 74L40.8768 64M40.8768 64V60.5L51.3475 50M51.3475 50L66.773 78M51.3475 50C47.5398 57.6667 37.0217 79.5401 35.5073 81.7005M66.773 78C66.773 78 80.6257 78 87.8546 78M66.773 78H87.8546M87.8546 78C94.2802 66.8701 103.794 49 103.794 49M87.8546 78C100.709 78 105.851 100 105.851 100M87.8546 78L104.308 110M103.794 49L115.106 59.5V64M103.794 49L114.078 82M104.308 110L105.851 100M105.851 100L114.078 82M114.078 82L120.248 74M114.078 82L115.106 64M120.248 74H128.989L115.106 64M120.248 74L115.106 64" stroke="#230000"/>
<path d="M39.3868 169L42.6063 160L39.3868 150L42.6063 132.5H110.905L114.382 150L110.905 160L112.395 169H39.3868Z" fill="#251414"/>
<path d="M39.3868 169L42.6063 160M39.3868 169H112.395M39.3868 169L110.905 160M42.6063 160L39.3868 150M42.6063 160L112.395 169M39.3868 150L42.6063 132.5M39.3868 150C40.3618 150 77.5 150 77.5 150M42.6063 132.5H110.905M42.6063 132.5L77.5 150M112.395 169L110.905 160M110.905 160L114.382 150M114.382 150L110.905 132.5M114.382 150H77.5M110.905 132.5C102.009 134.755 77.5 150 77.5 150" stroke="#230000"/>
<g filter="url(#filter0_d_25_319)">
<path d="M41 62L48.5 57L66 77.5L81 92L91.5 84L102 79L114 62L122.5 69.5L113 79L102 89L96 94.5L89.5 101L98.5 131L102 136.5L111.5 167L106.5 168.5L96 140L92.5 132L81 105L72 95.5L63 85L41 62Z" fill="#100F0F"/>
<path d="M81 92L66 77.5M81 92L91.5 84M81 92L96 94.5M81 92V105M114 62L122.5 69.5L113 79M114 62L102 79M114 62L113 79M89.5 101L98.5 131M89.5 101L96 94.5M89.5 101L72 95.5M89.5 101C90.1667 110.551 91.7 130.122 92.5 132M111.5 167L106.5 168.5L96 140M111.5 167L102 136.5M111.5 167L96 140M81 105L72 95.5M81 105L92.5 132M72 95.5L63 85M96 140L92.5 132M96 140C96.8 140 100.333 137.667 102 136.5M102 136.5L98.5 131M92.5 132L98.5 131M63 85L41 62L48.5 57L66 77.5M63 85C63 84.2 65 79.6667 66 77.5M102 89L96 94.5M102 89L113 79M102 89V79M102 89L91.5 84M91.5 84L102 79" stroke="#252323"/>
</g>
<path d="M106.879 72L113.564 60.5L105.851 55L87.8545 78.5L85.7978 87.5L101.737 79.5L106.879 72Z" fill="#3C3C3C"/>
<path d="M41.0637 60.5L47.7481 72L49.2907 55L41.0637 60.5Z" fill="#3C3C3C"/>
<path d="M47.7481 72L52.89 79.5L49.2907 55L47.7481 72Z" fill="#3C3C3C"/>
<path d="M52.89 79.5L68.8297 87.5L66.7729 78.5L49.2907 55L52.89 79.5Z" fill="#3C3C3C"/>
<path d="M66.7729 78.5L68.8297 87.5H85.7978L87.8545 78.5H66.7729Z" fill="#3C3C3C"/>
<path d="M47.7481 72L41.0637 60.5L49.2907 55M47.7481 72L52.89 79.5M47.7481 72L49.2907 55M52.89 79.5L68.8297 87.5M52.89 79.5L49.2907 55M68.8297 87.5L66.7729 78.5M68.8297 87.5H85.7978M66.7729 78.5L49.2907 55M66.7729 78.5H87.8545M106.879 72L113.564 60.5L105.851 55M106.879 72L101.737 79.5M106.879 72L105.851 55M101.737 79.5L85.7978 87.5M101.737 79.5L105.851 55M85.7978 87.5L87.8545 78.5M87.8545 78.5L105.851 55" stroke="#251414"/>
<path d="M43.1205 53.8776H47.234L49.7525 54.8776L49.8049 55L40.5496 60.5V63.5L35.4077 66L34.8936 62.5V60.5L37.4645 57.8776L41.0638 54.8776L43.1205 53.8776Z" fill="#3C3C3C"/>
<path d="M43.1205 53.8776H47.234L49.7525 54.8776M43.1205 53.8776L41.0638 54.8776M43.1205 53.8776L49.7525 54.8776M41.0638 54.8776L37.4645 57.8776M41.0638 54.8776L49.7525 54.8776M37.4645 57.8776L34.8936 60.5M37.4645 57.8776L40.5496 60.5M34.8936 60.5V62.5M34.8936 60.5L40.5496 60.5M34.8936 62.5L35.4077 66L40.5496 63.5M34.8936 62.5L40.5496 63.5M40.5496 63.5V60.5M40.5496 60.5L49.8049 55L49.7525 54.8776" stroke="#251414"/>
<path d="M112.021 54H107.908L105.389 55L105.337 55.1224L114.592 60.6224V63.6224L119.734 67L120.248 62.6224V60.6224L117.677 58L114.078 55L112.021 54Z" fill="#3C3C3C"/>
<path d="M112.021 54H107.908L105.389 55M112.021 54L114.078 55M112.021 54L105.389 55M114.078 55L117.677 58M114.078 55L105.389 55M117.677 58L120.248 60.6224M117.677 58L114.592 60.6224M120.248 60.6224V62.6224M120.248 60.6224L114.592 60.6224M120.248 62.6224L119.734 67L114.592 63.6224M120.248 62.6224L114.592 63.6224M114.592 63.6224V60.6224M114.592 60.6224L105.337 55.1224L105.389 55" stroke="#251414"/>
<g filter="url(#filter1_d_25_319)">
<path d="M39.5213 169.5C39.0071 170.5 37.9788 172.7 37.9788 173.5L40.8068 173L39.5213 169.5Z" fill="#3C3C3C"/>
<path d="M39.5213 169V169.5L40.8068 173H45.1773L39.5213 169Z" fill="#3C3C3C"/>
<path d="M40.8068 165L39.5213 169L45.1773 173H76.0284L40.8068 165Z" fill="#3C3C3C"/>
<path d="M40.8068 165L76.0284 173V165H40.8068Z" fill="#3C3C3C"/>
<path d="M112.278 170V169.5L106.622 173.5H110.993L112.278 170Z" fill="#3C3C3C"/>
<path d="M113.821 174C113.821 173.2 112.793 171 112.278 170L110.993 173.5L113.821 174Z" fill="#3C3C3C"/>
<path d="M112.278 169.5L111.764 165.5L76.0284 173L106.622 173.5L112.278 169.5Z" fill="#3C3C3C"/>
<path d="M76.0284 165V173L111.764 165.5L76.0284 165Z" fill="#3C3C3C"/>
<path d="M39.5213 169.5C39.0071 170.5 37.9788 172.7 37.9788 173.5L40.8068 173M39.5213 169.5V169M39.5213 169.5L40.8068 173M39.5213 169L40.8068 165M39.5213 169L45.1773 173M40.8068 165L76.0284 173M40.8068 165H76.0284M45.1773 173H40.8068M45.1773 173H76.0284M76.0284 173V165M76.0284 173L106.622 173.5M76.0284 173L111.764 165.5M76.0284 165L111.764 165.5M112.278 170C112.793 171 113.821 173.2 113.821 174L110.993 173.5M112.278 170V169.5M112.278 170L110.993 173.5M112.278 169.5L111.764 165.5M112.278 169.5L106.622 173.5M106.622 173.5H110.993" stroke="#251414"/>
</g>
<g filter="url(#filter2_d_25_319)">
<path d="M92 104L77 106L70.5 96L77.5 86.5H89L95 95.5L92 104Z" fill="#251414"/>
<path d="M92 104L77 106L70.5 96L77.5 86.5H89L95 95.5L92 104Z" stroke="#252323"/>
</g>
<path d="M80 103H78L77 89H80V103Z" stroke="#252323"/>
<path d="M86 103H88L89 89H86V103Z" stroke="#252323"/>
<path d="M80 94V97.5L83 98M80 94L83 94.5M80 94L83 98M86 94V97.5L83 98M86 94L83 94.5M86 94L83 98M83 98V94.5" stroke="#252323"/>
<defs>
<filter id="filter0_d_25_319" x="36.2265" y="56.3377" width="91.0034" height="120.776" filterUnits="userSpaceOnUse" color-interpolation-filters="sRGB">
<feFlood flood-opacity="0" result="BackgroundImageFix"/>
<feColorMatrix in="SourceAlpha" type="matrix" values="0 0 0 0 0 0 0 0 0 0 0 0 0 0 0 0 0 0 127 0" result="hardAlpha"/>
<feOffset dy="4"/>
<feGaussianBlur stdDeviation="2"/>
<feComposite in2="hardAlpha" operator="out"/>
<feColorMatrix type="matrix" values="0 0 0 0 0 0 0 0 0 0 0 0 0 0 0 0 0 0 0.25 0"/>
<feBlend mode="normal" in2="BackgroundImageFix" result="effect1_dropShadow_25_319"/>
<feBlend mode="normal" in="SourceGraphic" in2="effect1_dropShadow_25_319" result="shape"/>
</filter>
<filter id="filter1_d_25_319" x="33.4788" y="164.5" width="84.8422" height="18.0962" filterUnits="userSpaceOnUse" color-interpolation-filters="sRGB">
<feFlood flood-opacity="0" result="BackgroundImageFix"/>
<feColorMatrix in="SourceAlpha" type="matrix" values="0 0 0 0 0 0 0 0 0 0 0 0 0 0 0 0 0 0 127 0" result="hardAlpha"/>
<feOffset dy="4"/>
<feGaussianBlur stdDeviation="2"/>
<feComposite in2="hardAlpha" operator="out"/>
<feColorMatrix type="matrix" values="0 0 0 0 0 0 0 0 0 0 0 0 0 0 0 0 0 0 0.25 0"/>
<feBlend mode="normal" in2="BackgroundImageFix" result="effect1_dropShadow_25_319"/>
<feBlend mode="normal" in="SourceGraphic" in2="effect1_dropShadow_25_319" result="shape"/>
</filter>
<filter id="filter2_d_25_319" x="65.8921" y="86" width="33.6626" height="28.5374" filterUnits="userSpaceOnUse" color-interpolation-filters="sRGB">
<feFlood flood-opacity="0" result="BackgroundImageFix"/>
<feColorMatrix in="SourceAlpha" type="matrix" values="0 0 0 0 0 0 0 0 0 0 0 0 0 0 0 0 0 0 127 0" result="hardAlpha"/>
<feOffset dy="4"/>
<feGaussianBlur stdDeviation="2"/>
<feComposite in2="hardAlpha" operator="out"/>
<feColorMatrix type="matrix" values="0 0 0 0 0 0 0 0 0 0 0 0 0 0 0 0 0 0 0.25 0"/>
<feBlend mode="normal" in2="BackgroundImageFix" result="effect1_dropShadow_25_319"/>
<feBlend mode="normal" in="SourceGraphic" in2="effect1_dropShadow_25_319" result="shape"/>
</filter>
</defs>
</svg>
