<svg width="149" height="361" viewBox="0 0 149 361" fill="none" xmlns="http://www.w3.org/2000/svg">
<path fill-rule="evenodd" clip-rule="evenodd" d="M81.4043 1H66.4929L55.695 15.5L53.6383 40L52.6099 44.5L51.0674 49.5L66.4929 78H87.5745L103.514 49.5L101.457 44.5L99.9149 40L94.7731 15.5L81.4043 1Z" fill="#251414"/>
<path d="M77.2199 53L55.695 15.5M77.2199 53L66.4929 1M77.2199 53L81.4043 1M77.2199 53L94.7731 15.5M77.2199 53L53.6383 40M77.2199 53L52.6099 44.5M77.2199 53L51.0674 49.5M77.2199 53L66.4929 78M77.2199 53C81.3578 65.3333 88.0219 77.2 87.5745 78M77.2199 53L103.514 49.5M77.2199 53L101.457 44.5M77.2199 53L99.9149 40M81.4043 1H66.4929M81.4043 1L94.7731 15.5M66.4929 1L55.695 15.5M55.695 15.5L53.6383 40M53.6383 40L52.6099 44.5M52.6099 44.5L51.0674 49.5M51.0674 49.5L66.4929 78M66.4929 78H87.5745M94.7731 15.5L99.9149 40M99.9149 40L101.457 44.5M101.457 44.5L103.514 49.5M103.514 49.5L87.5745 78" stroke="#230000"/>
<path d="M27.929 274.984L29.964 268.216V253.552L33.0167 234.376L30.9816 227.608L31.9991 203.92L34.543 187L75.7535 187.564L76.2623 210.688L73.2097 212.38L71.1746 216.892L69.1395 250.732L64.0518 255.244V274.984L67.1044 277.24L27.929 274.984Z" fill="#251414"/>
<path d="M29.964 268.216L27.929 274.984L67.1044 277.24L64.0518 274.984M29.964 268.216V253.552M29.964 268.216L64.0518 274.984M29.964 253.552L33.0167 234.376M29.964 253.552L64.0518 255.244M33.0167 234.376L30.9816 227.608M33.0167 234.376L69.1395 250.732M30.9816 227.608L31.9991 203.92M30.9816 227.608L71.1746 216.892M31.9991 203.92L34.543 187M31.9991 203.92L73.2097 212.38M34.543 187L75.7535 187.564L76.2623 210.688L73.2097 212.38M34.543 187L73.2097 212.38M73.2097 212.38L71.1746 216.892M71.1746 216.892L69.1395 250.732M69.1395 250.732L64.0518 255.244M64.0518 255.244V274.984" stroke="#230000"/>
<path d="M33.0167 280.624L27.929 274.984L67.1044 277.24L64.0518 280.624L58.6068 310.736L54.0279 335.552L51.9928 339.5H42.3261L38.0016 315.812L33.0167 280.624Z" fill="#251414"/>
<path d="M42.3261 339.5H51.9928L54.0279 335.552M42.3261 339.5L54.0279 335.552M42.3261 339.5L38.0016 315.812M33.0167 280.624L27.929 274.984L67.1044 277.24M33.0167 280.624L38.0016 315.812M33.0167 280.624H64.0518M64.0518 274.984L67.1044 277.24M67.1044 277.24L64.0518 280.624M64.0518 280.624L58.6068 310.736M58.6068 310.736L54.0279 335.552M58.6068 310.736L38.0016 315.812M54.0279 335.552L38.0016 315.812" stroke="#230000"/>
<path d="M38.6052 359.504L47.4244 360.504C47.3069 360.104 42.6709 348 42.7199 343L41.7197 348.5L40.2197 351.5L38.6052 359.504Z" fill="#252020"/>
<path d="M52.5662 360.504L52.5673 360.5C52.6832 360.03 52.6161 347.983 52.5673 343L47.4255 343.75L42.7199 343C42.6709 348 47.3069 360.104 47.4244 360.504H52.5662Z" fill="#252020"/>
<path d="M55.6524 348L52.5673 343C52.6161 347.983 52.6832 360.03 52.5673 360.5L55.6524 348Z" fill="#252020"/>
<path d="M56.6808 350.5L55.6524 348L52.5673 360.5L52.5662 360.504C52.9775 360.104 55.481 353 56.6808 350.5Z" fill="#252020"/>
<path d="M52.5662 360.504L56.6797 359.504L56.6808 350.5C55.481 353 52.9775 360.104 52.5662 360.504Z" fill="#252020"/>
<path d="M52.5673 343L56.6808 330L47.4255 343.75L52.5673 343Z" fill="#252020"/>
<path d="M56.6808 330L38.6843 331L47.4255 343.75L56.6808 330Z" fill="#252020"/>
<path d="M38.6843 331L42.7199 343L47.4255 343.75L38.6843 331Z" fill="#252020"/>
<path d="M41.7197 348.5L42.7199 343L35.2197 348H30.7197V353L38.6052 359.504L40.2197 351.5L41.7197 348.5Z" fill="#252020"/>
<path d="M52.5662 360.504L56.6797 359.504L56.6808 350.5M52.5662 360.504C52.9775 360.104 55.481 353 56.6808 350.5M52.5662 360.504H47.4244M52.5662 360.504L52.5673 360.5M42.7199 343L38.6843 331M42.7199 343L47.4255 343.75M42.7199 343L41.7197 348.5M42.7199 343C42.6709 348 47.3069 360.104 47.4244 360.504M42.7199 343L35.2197 348H30.7197V353L38.6052 359.504M38.6843 331L56.6808 330M38.6843 331L47.4255 343.75M56.6808 330L52.5673 343M56.6808 330L47.4255 343.75M52.5673 343L55.6524 348M52.5673 343L47.4255 343.75M52.5673 343C52.6161 347.983 52.6832 360.03 52.5673 360.5M56.6808 350.5L55.6524 348M55.6524 348L52.5673 360.5M38.6052 359.504L47.4244 360.504M38.6052 359.504L40.2197 351.5M47.4244 360.504C47.013 360.104 41.4195 354 40.2197 351.5M47.4244 360.504L41.7197 348.5M40.2197 351.5L41.7197 348.5" stroke="black"/>
<path d="M123.567 274.984L121.532 268.216V253.552L118.479 234.376L120.515 227.608L119.497 203.92L116.953 187L75.7426 187.564L75.2338 210.688L78.2864 212.38L80.3215 216.892L82.3566 250.732L87.4443 255.244V274.984L84.3917 277.24L123.567 274.984Z" fill="#251414"/>
<path d="M121.532 268.216L123.567 274.984L84.3917 277.24L87.4443 274.984M121.532 268.216V253.552M121.532 268.216L87.4443 274.984M121.532 253.552L118.479 234.376M121.532 253.552L87.4443 255.244M118.479 234.376L120.515 227.608M118.479 234.376L82.3566 250.732M120.515 227.608L119.497 203.92M120.515 227.608L80.3215 216.892M119.497 203.92L116.953 187M119.497 203.92L78.2864 212.38M116.953 187L75.7426 187.564L75.2338 210.688L78.2864 212.38M116.953 187L78.2864 212.38M78.2864 212.38L80.3215 216.892M80.3215 216.892L82.3566 250.732M82.3566 250.732L87.4443 255.244M87.4443 255.244V274.984" stroke="#230000"/>
<path d="M118.479 280.624L123.567 274.984L84.3917 277.24L87.4443 280.624L92.8893 310.736L97.4682 335.552L99.5033 339.5H109.17L113.495 315.812L118.479 280.624Z" fill="#251414"/>
<path d="M109.17 339.5H99.5033L97.4682 335.552M109.17 339.5L97.4682 335.552M109.17 339.5L113.495 315.812M118.479 280.624L123.567 274.984L84.3917 277.24M118.479 280.624L113.495 315.812M118.479 280.624H87.4443M87.4443 274.984L84.3917 277.24M84.3917 277.24L87.4443 280.624M87.4443 280.624L92.8893 310.736M92.8893 310.736L97.4682 335.552M92.8893 310.736L113.495 315.812M97.4682 335.552L113.495 315.812" stroke="#230000"/>
<path d="M112.334 359.504L103.515 360.504C103.633 360.104 108.269 348 108.22 343L109.22 348.5L110.72 351.5L112.334 359.504Z" fill="#252020"/>
<path d="M98.3733 360.504L98.3721 360.5C98.2562 360.03 98.3233 347.983 98.3721 343L103.514 343.75L108.22 343C108.269 348 103.633 360.104 103.515 360.504H98.3733Z" fill="#252020"/>
<path d="M95.287 348L98.3721 343C98.3233 347.983 98.2562 360.03 98.3721 360.5L95.287 348Z" fill="#252020"/>
<path d="M94.2586 350.5L95.287 348L98.3721 360.5L98.3733 360.504C97.962 360.104 95.4584 353 94.2586 350.5Z" fill="#252020"/>
<path d="M98.3733 360.504L94.2598 359.504L94.2586 350.5C95.4584 353 97.962 360.104 98.3733 360.504Z" fill="#252020"/>
<path d="M98.3721 343L94.2586 330L103.514 343.75L98.3721 343Z" fill="#252020"/>
<path d="M94.2586 330L112.255 331L103.514 343.75L94.2586 330Z" fill="#252020"/>
<path d="M112.255 331L108.22 343L103.514 343.75L112.255 331Z" fill="#252020"/>
<path d="M109.22 348.5L108.22 343L115.72 348H120.22V353L112.334 359.504L110.72 351.5L109.22 348.5Z" fill="#252020"/>
<path d="M98.3733 360.504L94.2598 359.504L94.2586 350.5M98.3733 360.504C97.962 360.104 95.4584 353 94.2586 350.5M98.3733 360.504H103.515M98.3733 360.504L98.3721 360.5M108.22 343L112.255 331M108.22 343L103.514 343.75M108.22 343L109.22 348.5M108.22 343C108.269 348 103.633 360.104 103.515 360.504M108.22 343L115.72 348H120.22V353L112.334 359.504M112.255 331L94.2586 330M112.255 331L103.514 343.75M94.2586 330L98.3721 343M94.2586 330L103.514 343.75M98.3721 343L95.287 348M98.3721 343L103.514 343.75M98.3721 343C98.3233 347.983 98.2562 360.03 98.3721 360.5M94.2586 350.5L95.287 348M95.287 348L98.3721 360.5M112.334 359.504L103.515 360.504M112.334 359.504L110.72 351.5M103.515 360.504C103.926 360.104 109.52 354 110.72 351.5M103.515 360.504L109.22 348.5M110.72 351.5L109.22 348.5" stroke="black"/>
<path d="M34.6134 187.5L33.0708 184L39.241 169H75.7481L112.255 169.5L118.94 184L116.883 187L75.7481 211L34.6134 187.5Z" fill="#251414"/>
<path d="M34.6134 187.5L33.0708 184M34.6134 187.5L75.7481 169M34.6134 187.5L75.7481 211M34.6134 187.5L116.883 187M33.0708 184L39.241 169H75.7481M33.0708 184L75.7481 169M75.7481 169L112.255 169.5L118.94 184M75.7481 169L118.94 184M75.7481 169L116.883 187M75.7481 169V211M75.7481 211L116.883 187M116.883 187L118.94 184" stroke="#230000"/>
<path d="M138.479 111L132.308 106.5L128.709 97V74H119.968L113.798 82L105.571 100L104.028 110C106.77 114.333 112.255 123.1 112.255 123.5C112.255 123.9 125.967 122.667 132.822 122L137.45 113L138.479 111Z" fill="#251414"/>
<path d="M138.479 111L104.028 110M138.479 111L132.308 106.5M138.479 111L137.45 113M104.028 110L132.308 106.5M104.028 110L128.709 97M104.028 110L105.571 100M104.028 110L137.45 113M104.028 110C106.77 114.333 112.255 123.1 112.255 123.5C112.255 123.9 125.967 122.667 132.822 122L137.45 113M132.308 106.5L128.709 97M128.709 97L105.571 100M128.709 97L113.798 82M128.709 97C128.709 95.8 128.709 81.1667 128.709 74H119.968M128.709 97L119.968 74M105.571 100L113.798 82M113.798 82L119.968 74" stroke="#230000"/>
<path d="M113.284 147.5L117.397 154.5L120.996 169.5L141.564 161L138.479 146L140.535 144L134.365 130L135.394 127.5V123.5L132.308 122.5L111.741 123.5L113.284 128.5L117.397 130L115.34 144L113.284 147.5Z" fill="#251414"/>
<path d="M138.479 146L117.397 154.5M138.479 146L113.284 147.5M138.479 146L115.34 144M138.479 146L140.535 144M138.479 146L141.564 161L120.996 169.5L117.397 154.5M117.397 154.5L113.284 147.5M113.284 147.5L115.34 144M140.535 144H115.34M140.535 144L134.365 130M115.34 144L117.397 130M134.365 130H117.397M134.365 130L135.394 127.5M117.397 130L132.308 122.5M117.397 130L135.394 123.5M117.397 130L135.394 127.5M117.397 130L113.284 128.5M135.394 127.5V123.5M135.394 123.5L132.308 122.5M132.308 122.5L113.284 128.5M132.308 122.5L111.741 123.5L113.284 128.5" stroke="#230000"/>
<path d="M142.592 201L144.135 164.5L147.22 160V155.75V151.5L140.535 156.5L120.482 168L122.025 177L130.252 201H142.592Z" fill="#403535"/>
<path d="M142.592 201L144.135 164.5M142.592 201H130.252M142.592 201L140.535 156.5M144.135 164.5L147.22 160M144.135 164.5C144.135 163.7 141.735 158.833 140.535 156.5M147.22 160L140.535 156.5M147.22 160V155.75M140.535 156.5L147.22 151.5V155.75M140.535 156.5L120.482 168L122.025 177L130.252 201M140.535 156.5L130.252 201M140.535 156.5L147.22 155.75" stroke="black"/>
<path d="M142.145 201L148.22 218L146.22 214.5L145.22 213.5L144.22 214L143.22 215.5L141.72 214.5L140.72 215L140.22 216L140.72 218L139.22 217H138.22L137.72 217.5L138.72 220.5L136.22 218.5H135.22V222.5L135.72 225H131.72L126.72 220V216.5L129.805 201H142.145Z" fill="#403535"/>
<path d="M135.22 222.5V218.5H136.22L138.72 220.5L137.72 217.5L138.22 217H139.22L140.72 218L140.22 216L140.72 215L141.72 214.5L143.22 215.5L144.22 214L145.22 213.5L146.22 214.5L148.22 218L142.145 201H129.805L126.72 216.5V220L131.72 225H135.72L135.22 222.5ZM135.22 222.5L132.22 220V216.5" stroke="black"/>
<path d="M144.22 214L145.22 213.5L146.72 215L148.22 218L147.72 220.5L145.22 218L143.72 215L144.22 214Z" fill="#403535" stroke="black"/>
<path d="M140.72 215L140.22 216L141.72 219.5L145.22 225L146.72 224.5L147.22 221.5L144.22 216.5L141.72 214.5L140.72 215Z" fill="#403535" stroke="black"/>
<path d="M139.72 228L141.72 227L138.72 221L136.22 218.5H135.22L134.72 219.5L135.72 223.5L139.72 228Z" fill="#403535" stroke="black"/>
<path d="M142.22 226.5L144.72 225.5L142.22 220L139.22 217H138.22L137.72 217.5L139.22 221.5L142.22 226.5Z" fill="#403535" stroke="black"/>
<path d="M127.72 213L126.72 216.5V220L129.22 223L131.72 225H135.72L134.22 222L132.22 220V216" stroke="black"/>
<path d="M10.9609 110.5L17.1312 106L20.7304 96.5V73.5H29.4716L35.6418 81.5L43.8687 99.5L45.4113 109.5C42.669 113.833 37.1843 122.6 37.1843 123C37.1843 123.4 23.4728 122.167 16.617 121.5L11.9893 112.5L10.9609 110.5Z" fill="#251414"/>
<path d="M10.9609 110.5L45.4113 109.5M10.9609 110.5L17.1312 106M10.9609 110.5L11.9893 112.5M45.4113 109.5L17.1312 106M45.4113 109.5L20.7304 96.5M45.4113 109.5L43.8687 99.5M45.4113 109.5L11.9893 112.5M45.4113 109.5C42.669 113.833 37.1843 122.6 37.1843 123C37.1843 123.4 23.4728 122.167 16.617 121.5L11.9893 112.5M17.1312 106L20.7304 96.5M20.7304 96.5L43.8687 99.5M20.7304 96.5L35.6418 81.5M20.7304 96.5C20.7304 95.3 20.7304 80.6667 20.7304 73.5H29.4716M20.7304 96.5L29.4716 73.5M43.8687 99.5L35.6418 81.5M35.6418 81.5L29.4716 73.5" stroke="#230000"/>
<path d="M36.1559 147L32.0424 154L28.4431 169L7.87573 160.5L10.9608 145.5L8.9041 143.5L15.0743 129.5L14.0459 127V123L17.1311 122L37.6984 123L36.1559 128L32.0424 129.5L34.0991 143.5L36.1559 147Z" fill="#251414"/>
<path d="M10.9608 145.5L32.0424 154M10.9608 145.5L36.1559 147M10.9608 145.5L34.0991 143.5M10.9608 145.5L8.9041 143.5M10.9608 145.5L7.87573 160.5L28.4431 169L32.0424 154M32.0424 154L36.1559 147M36.1559 147L34.0991 143.5M8.9041 143.5H34.0991M8.9041 143.5L15.0743 129.5M34.0991 143.5L32.0424 129.5M15.0743 129.5H32.0424M15.0743 129.5L14.0459 127M32.0424 129.5L17.1311 122M32.0424 129.5L14.0459 123M32.0424 129.5L14.0459 127M32.0424 129.5L36.1559 128M14.0459 127V123M14.0459 123L17.1311 122M17.1311 122L36.1559 128M17.1311 122L37.6984 123L36.1559 128" stroke="#230000"/>
<path d="M6.84739 200.5L5.30483 164L2.21973 159.5V155.25V151L8.90412 156L28.9573 167.5L27.4148 176.5L19.1878 200.5H6.84739Z" fill="#403535"/>
<path d="M6.84739 200.5L5.30483 164M6.84739 200.5H19.1878M6.84739 200.5L8.90412 156M5.30483 164L2.21973 159.5M5.30483 164C5.30483 163.2 7.70436 158.333 8.90412 156M2.21973 159.5L8.90412 156M2.21973 159.5V155.25M8.90412 156L2.21973 151V155.25M8.90412 156L28.9573 167.5L27.4148 176.5L19.1878 200.5M8.90412 156L19.1878 200.5M8.90412 156L2.21973 155.25" stroke="black"/>
<path d="M6.79411 201L0.719727 218L2.71973 214.5L3.71973 213.5L4.71973 214L5.71973 215.5L7.21973 214.5L8.21973 215L8.71973 216L8.21973 218L9.71973 217H10.7197L11.2197 217.5L10.2197 220.5L12.7197 218.5H13.7197V222.5L13.2197 225H17.2197L22.2196 220V216.5L19.1345 201H6.79411Z" fill="#403535"/>
<path d="M13.7197 222.5V218.5H12.7197L10.2197 220.5L11.2197 217.5L10.7197 217H9.71973L8.21973 218L8.71973 216L8.21973 215L7.21973 214.5L5.71973 215.5L4.71973 214L3.71973 213.5L2.71973 214.5L0.719727 218L6.79411 201H19.1345L22.2196 216.5V220L17.2197 225H13.2197L13.7197 222.5ZM13.7197 222.5L16.7197 220V216.5" stroke="black"/>
<path d="M4.71973 214L3.7197 213.5L2.21973 215L0.719727 218L1.21973 220.5L3.7197 218L5.21973 215L4.71973 214Z" fill="#403535" stroke="black"/>
<path d="M8.21973 215L8.71973 216L7.21973 219.5L3.71973 225L2.21973 224.5L1.71973 221.5L4.71973 216.5L7.21973 214.5L8.21973 215Z" fill="#403535" stroke="black"/>
<path d="M9.21973 228L7.21973 227L10.2197 221L12.7197 218.5H13.7197L14.2197 219.5L13.2197 223.5L9.21973 228Z" fill="#403535" stroke="black"/>
<path d="M6.71973 226.5L4.21973 225.5L6.71973 220L9.71973 217H10.7197L11.2197 217.5L9.71973 221.5L6.71973 226.5Z" fill="#403535" stroke="black"/>
<path d="M21.2197 213L22.2197 216.5V220L19.7197 223L17.2197 225H13.2197L14.7197 222L16.7197 220V216" stroke="black"/>
<path d="M35.1335 81.5L29.6703 74H20.7305L40.5967 64L35.1335 81.5Z" fill="#251414"/>
<path d="M113.798 82L119.968 74H128.709L114.826 64L113.798 82Z" fill="#251414"/>
<path d="M104.028 110L105.571 100C105.571 100 100.429 78 87.5744 78L104.028 110Z" fill="#251414"/>
<path d="M103.514 49C103.514 49 94.0001 66.8701 87.5744 78C100.429 78 105.571 100 105.571 100L113.798 82L114.826 64V59.5L103.514 49Z" fill="#251414"/>
<path d="M66.4929 78L51.0673 50C47.2597 57.6667 36.7415 79.5401 35.2272 81.7005L43.08 98.5C43.8746 98.5 52.9176 81.8333 66.4929 78Z" fill="#251414"/>
<path d="M40.5967 60.5V64L35.1335 81.5L35.2272 81.7005C36.7415 79.5401 47.2597 57.6667 51.0673 50L40.5967 60.5Z" fill="#251414"/>
<path d="M43.08 98.5L45.0666 110.5L66.4929 78C52.9176 81.8333 43.8746 98.5 43.08 98.5Z" fill="#251414"/>
<path d="M46.4786 121.5L44.492 132.5H109.314L107.328 121.5L104.028 110L87.5744 78H66.4929L45.0666 110.5L46.4786 121.5Z" fill="#251414"/>
<path d="M45.0666 110.5L46.4786 121.5L44.492 132.5H109.314L107.328 121.5L104.028 110M45.0666 110.5L43.08 98.5M45.0666 110.5L66.4929 78M43.08 98.5C43.8746 98.5 52.9176 81.8333 66.4929 78M43.08 98.5L35.2272 81.7005M35.1335 81.5L29.6703 74M35.1335 81.5L35.2272 81.7005M35.1335 81.5L40.5967 64M29.6703 74H20.7305L40.5967 64M29.6703 74L40.5967 64M40.5967 64V60.5L51.0673 50M51.0673 50L66.4929 78M51.0673 50C47.2597 57.6667 36.7415 79.5401 35.2272 81.7005M66.4929 78C66.4929 78 80.3456 78 87.5744 78M66.4929 78H87.5744M87.5744 78C94.0001 66.8701 103.514 49 103.514 49M87.5744 78C100.429 78 105.571 100 105.571 100M87.5744 78L104.028 110M103.514 49L114.826 59.5V64M103.514 49L113.798 82M104.028 110L105.571 100M105.571 100L113.798 82M113.798 82L119.968 74M113.798 82L114.826 64M119.968 74H128.709L114.826 64M119.968 74L114.826 64" stroke="#230000"/>
<path d="M39.1067 169L42.3262 160L39.1067 150L42.3262 132.5H110.625L114.102 150L110.625 160L112.115 169H39.1067Z" fill="#251414"/>
<path d="M39.1067 169L42.3262 160M39.1067 169H112.115M39.1067 169L110.625 160M42.3262 160L39.1067 150M42.3262 160L112.115 169M39.1067 150L42.3262 132.5M39.1067 150C40.0816 150 77.2198 150 77.2198 150M42.3262 132.5H110.625M42.3262 132.5L77.2198 150M112.115 169L110.625 160M110.625 160L114.102 150M114.102 150L110.625 132.5M114.102 150H77.2198M110.625 132.5C101.729 134.755 77.2198 150 77.2198 150" stroke="#230000"/>
<g filter="url(#filter0_d_22_211)">
<path d="M40.7197 62L48.2197 57L65.7197 77.5L80.7197 92L91.2197 84L101.72 79L113.72 62L122.22 69.5L112.72 79L101.72 89L95.7197 94.5L89.2197 101L98.2197 131L101.72 136.5L111.22 167L106.22 168.5L95.7197 140L92.2197 132L80.7197 105L71.7197 95.5L62.7197 85L40.7197 62Z" fill="#100F0F"/>
<path d="M80.7197 92L65.7197 77.5M80.7197 92L91.2197 84M80.7197 92L95.7197 94.5M80.7197 92V105M113.72 62L122.22 69.5L112.72 79M113.72 62L101.72 79M113.72 62L112.72 79M89.2197 101L98.2197 131M89.2197 101L95.7197 94.5M89.2197 101L71.7197 95.5M89.2197 101C89.8864 110.551 91.4197 130.122 92.2197 132M111.22 167L106.22 168.5L95.7197 140M111.22 167L101.72 136.5M111.22 167L95.7197 140M80.7197 105L71.7197 95.5M80.7197 105L92.2197 132M71.7197 95.5L62.7197 85M95.7197 140L92.2197 132M95.7197 140C96.5197 140 100.053 137.667 101.72 136.5M101.72 136.5L98.2197 131M92.2197 132L98.2197 131M62.7197 85L40.7197 62L48.2197 57L65.7197 77.5M62.7197 85C62.7197 84.2 64.7197 79.6667 65.7197 77.5M101.72 89L95.7197 94.5M101.72 89L112.72 79M101.72 89V79M101.72 89L91.2197 84M91.2197 84L101.72 79" stroke="#252323"/>
</g>
<path d="M106.599 72L113.283 60.5L105.571 55L87.3013 74L85.5175 87.5L101.457 79.5L106.599 72Z" fill="#3C3C3C"/>
<path d="M40.7834 60.5L47.4678 72L49.0104 55L40.7834 60.5Z" fill="#3C3C3C"/>
<path d="M47.4678 72L52.6097 79.5L49.0104 55L47.4678 72Z" fill="#3C3C3C"/>
<path d="M52.6097 79.5L68.5494 87.5L66.2197 74L49.0104 55L52.6097 79.5Z" fill="#3C3C3C"/>
<path d="M66.2197 74L68.5494 87.5H85.5175L87.3013 74H66.2197Z" fill="#3C3C3C"/>
<path d="M47.4678 72L40.7834 60.5L49.0104 55M47.4678 72L52.6097 79.5M47.4678 72L49.0104 55M52.6097 79.5L68.5494 87.5M52.6097 79.5L49.0104 55M68.5494 87.5L66.2197 74M68.5494 87.5H85.5175M66.2197 74L49.0104 55M66.2197 74H87.3013M106.599 72L113.283 60.5L105.571 55M106.599 72L101.457 79.5M106.599 72L105.571 55M101.457 79.5L85.5175 87.5M101.457 79.5L105.571 55M85.5175 87.5L87.3013 74M87.3013 74L105.571 55" stroke="#251414"/>
<path d="M42.8402 53.8776H46.9537L49.4722 54.8776L49.5246 55L40.2693 60.5V63.5L35.1275 66L34.6133 62.5V60.5L37.1842 57.8776L40.7835 54.8776L42.8402 53.8776Z" fill="#3C3C3C"/>
<path d="M42.8402 53.8776H46.9537L49.4722 54.8776M42.8402 53.8776L40.7835 54.8776M42.8402 53.8776L49.4722 54.8776M40.7835 54.8776L37.1842 57.8776M40.7835 54.8776L49.4722 54.8776M37.1842 57.8776L34.6133 60.5M37.1842 57.8776L40.2693 60.5M34.6133 60.5V62.5M34.6133 60.5L40.2693 60.5M34.6133 62.5L35.1275 66L40.2693 63.5M34.6133 62.5L40.2693 63.5M40.2693 63.5V60.5M40.2693 60.5L49.5246 55L49.4722 54.8776" stroke="#251414"/>
<path d="M111.741 54H107.627L105.109 55L105.056 55.1224L114.312 60.6224V63.6224L119.454 67L119.968 62.6224V60.6224L117.397 58L113.798 55L111.741 54Z" fill="#3C3C3C"/>
<path d="M111.741 54H107.627L105.109 55M111.741 54L113.798 55M111.741 54L105.109 55M113.798 55L117.397 58M113.798 55L105.109 55M117.397 58L119.968 60.6224M117.397 58L114.312 60.6224M119.968 60.6224V62.6224M119.968 60.6224L114.312 60.6224M119.968 62.6224L119.454 67L114.312 63.6224M119.968 62.6224L114.312 63.6224M114.312 63.6224V60.6224M114.312 60.6224L105.056 55.1224L105.109 55" stroke="#251414"/>
<g filter="url(#filter1_d_22_211)">
<path d="M39.2413 169.5C38.7271 170.5 37.6987 172.7 37.6987 173.5L40.5267 173L39.2413 169.5Z" fill="#3C3C3C"/>
<path d="M39.2413 169V169.5L40.5267 173H44.8973L39.2413 169Z" fill="#3C3C3C"/>
<path d="M40.5267 165L39.2413 169L44.8973 173H75.7484L40.5267 165Z" fill="#3C3C3C"/>
<path d="M40.5267 165L75.7484 173V165H40.5267Z" fill="#3C3C3C"/>
<path d="M111.998 170V169.5L106.342 173.5H110.713L111.998 170Z" fill="#3C3C3C"/>
<path d="M113.541 174C113.541 173.2 112.513 171 111.998 170L110.713 173.5L113.541 174Z" fill="#3C3C3C"/>
<path d="M111.998 169.5L111.484 165.5L75.7484 173L106.342 173.5L111.998 169.5Z" fill="#3C3C3C"/>
<path d="M75.7484 165V173L111.484 165.5L75.7484 165Z" fill="#3C3C3C"/>
<path d="M39.2413 169.5C38.7271 170.5 37.6987 172.7 37.6987 173.5L40.5267 173M39.2413 169.5V169M39.2413 169.5L40.5267 173M39.2413 169L40.5267 165M39.2413 169L44.8973 173M40.5267 165L75.7484 173M40.5267 165H75.7484M44.8973 173H40.5267M44.8973 173H75.7484M75.7484 173V165M75.7484 173L106.342 173.5M75.7484 173L111.484 165.5M75.7484 165L111.484 165.5M111.998 170C112.513 171 113.541 173.2 113.541 174L110.713 173.5M111.998 170V169.5M111.998 170L110.713 173.5M111.998 169.5L111.484 165.5M111.998 169.5L106.342 173.5M106.342 173.5H110.713" stroke="#251414"/>
</g>
<g filter="url(#filter2_d_22_211)">
<path d="M91.7197 104L76.7197 106L70.2197 96L77.2197 86.5H88.7197L94.7197 95.5L91.7197 104Z" fill="#251414"/>
<path d="M91.7197 104L76.7197 106L70.2197 96L77.2197 86.5H88.7197L94.7197 95.5L91.7197 104Z" stroke="#252323"/>
</g>
<path d="M79.7197 103H77.7197L76.7197 89H79.7197V103Z" stroke="#252323"/>
<path d="M85.7197 103H87.7197L88.7197 89H85.7197V103Z" stroke="#252323"/>
<path d="M79.7197 94V97.5L82.7197 98M79.7197 94L82.7197 94.5M79.7197 94L82.7197 98M85.7197 94V97.5L82.7197 98M85.7197 94L82.7197 94.5M85.7197 94L82.7197 98M82.7197 98V94.5" stroke="#252323"/>
<defs>
<filter id="filter0_d_22_211" x="35.9463" y="56.3377" width="91.0034" height="120.776" filterUnits="userSpaceOnUse" color-interpolation-filters="sRGB">
<feFlood flood-opacity="0" result="BackgroundImageFix"/>
<feColorMatrix in="SourceAlpha" type="matrix" values="0 0 0 0 0 0 0 0 0 0 0 0 0 0 0 0 0 0 127 0" result="hardAlpha"/>
<feOffset dy="4"/>
<feGaussianBlur stdDeviation="2"/>
<feComposite in2="hardAlpha" operator="out"/>
<feColorMatrix type="matrix" values="0 0 0 0 0 0 0 0 0 0 0 0 0 0 0 0 0 0 0.25 0"/>
<feBlend mode="normal" in2="BackgroundImageFix" result="effect1_dropShadow_22_211"/>
<feBlend mode="normal" in="SourceGraphic" in2="effect1_dropShadow_22_211" result="shape"/>
</filter>
<filter id="filter1_d_22_211" x="33.1987" y="164.5" width="84.8423" height="18.0962" filterUnits="userSpaceOnUse" color-interpolation-filters="sRGB">
<feFlood flood-opacity="0" result="BackgroundImageFix"/>
<feColorMatrix in="SourceAlpha" type="matrix" values="0 0 0 0 0 0 0 0 0 0 0 0 0 0 0 0 0 0 127 0" result="hardAlpha"/>
<feOffset dy="4"/>
<feGaussianBlur stdDeviation="2"/>
<feComposite in2="hardAlpha" operator="out"/>
<feColorMatrix type="matrix" values="0 0 0 0 0 0 0 0 0 0 0 0 0 0 0 0 0 0 0.25 0"/>
<feBlend mode="normal" in2="BackgroundImageFix" result="effect1_dropShadow_22_211"/>
<feBlend mode="normal" in="SourceGraphic" in2="effect1_dropShadow_22_211" result="shape"/>
</filter>
<filter id="filter2_d_22_211" x="65.6118" y="86" width="33.6626" height="28.5374" filterUnits="userSpaceOnUse" color-interpolation-filters="sRGB">
<feFlood flood-opacity="0" result="BackgroundImageFix"/>
<feColorMatrix in="SourceAlpha" type="matrix" values="0 0 0 0 0 0 0 0 0 0 0 0 0 0 0 0 0 0 127 0" result="hardAlpha"/>
<feOffset dy="4"/>
<feGaussianBlur stdDeviation="2"/>
<feComposite in2="hardAlpha" operator="out"/>
<feColorMatrix type="matrix" values="0 0 0 0 0 0 0 0 0 0 0 0 0 0 0 0 0 0 0.25 0"/>
<feBlend mode="normal" in2="BackgroundImageFix" result="effect1_dropShadow_22_211"/>
<feBlend mode="normal" in="SourceGraphic" in2="effect1_dropShadow_22_211" result="shape"/>
</filter>
</defs>
</svg>
