<svg width="132" height="364" viewBox="0 0 132 364" fill="none" xmlns="http://www.w3.org/2000/svg">
<g style="mix-blend-mode:darken" filter="url(#filter0_di_59_2)">
<path d="M63.1278 53L72.6278 43V18L48.1278 16L45.6278 30.5L44.1278 37L49.1278 55.5L50.1278 57.5H57.1278L63.1278 53Z" fill="#251414"/>
<path d="M63.1278 53L72.6278 43V18L48.1278 16L45.6278 30.5L44.1278 37L49.1278 55.5L50.1278 57.5H57.1278L63.1278 53Z" stroke="#230000"/>
</g>
<g filter="url(#filter1_dd_59_2)">
<path d="M48.3321 31.0697C49.8292 32.5595 53.1636 28.6392 53.1636 28.6392L56.6278 25.0338L52.0396 25.4791L47.7044 27.9703C47.7044 27.9703 47.4567 30.1985 48.3321 31.0697Z" fill="#B20000" shape-rendering="crispEdges"/>
<path d="M48.3321 31.0697C49.8292 32.5595 53.1636 28.6392 53.1636 28.6392L56.6278 25.0338L52.0396 25.4791L47.7044 27.9703C47.7044 27.9703 47.4567 30.1985 48.3321 31.0697Z" stroke="url(#paint0_linear_59_2)" shape-rendering="crispEdges"/>
</g>
<path d="M78.5004 1H60.9258L47.5004 14.5L50.5004 34.5L49.0002 54.5L67.0002 69L85.5002 82.5L93.1282 76.5L93.5002 64L93.5003 50L93.5002 45.5L93.5004 40.5L88.1282 17L78.5004 1Z" fill="#251414"/>
<path d="M88.1282 36.5L93.5004 40.5M88.1282 36.5L93.5002 45.5M88.1282 36.5L93.5003 50M88.1282 36.5L49.0002 54.5M88.1282 36.5L47.5004 14.5M88.1282 36.5V17M78.5004 1H60.9258L47.5004 14.5M78.5004 1L88.1282 17M78.5004 1L47.5004 14.5M88.1282 17L93.5004 40.5M88.1282 17L47.5004 14.5M93.5004 40.5L93.5002 45.5M93.5002 45.5L93.5003 50M93.5003 50L93.5002 64L93.1282 76.5L85.5002 82.5L67.0002 69L49.0002 54.5M47.5004 14.5L50.5004 34.5L49.0002 54.5" stroke="#230000"/>
<path d="M11.2411 111L17.4113 106.5L21.0106 97V73.5L29.7517 74L35.9219 82L44.1489 100L45.6914 110C42.9491 114.333 37.4645 123.1 37.4645 123.5C37.4645 123.9 23.7529 122.667 16.8971 122L12.2695 113L11.2411 111Z" fill="#251414"/>
<path d="M11.2411 111L45.6914 110M11.2411 111L17.4113 106.5M11.2411 111L12.2695 113M45.6914 110L17.4113 106.5M45.6914 110L21.0106 97M45.6914 110L44.1489 100M45.6914 110L12.2695 113M45.6914 110C42.9491 114.333 37.4645 123.1 37.4645 123.5C37.4645 123.9 23.7529 122.667 16.8971 122L12.2695 113M17.4113 106.5L21.0106 97M21.0106 97L44.1489 100M21.0106 97L35.9219 82M21.0106 97C21.0106 95.8 21.0106 80.6667 21.0106 73.5L29.7517 74M21.0106 97L29.7517 74M44.1489 100L35.9219 82M35.9219 82L29.7517 74" stroke="#230000"/>
<path d="M36.4361 147.5L32.3227 154.5L28.7234 169.5L8.15599 161L11.2411 146L9.18436 144L15.3546 130L14.3262 127.5V123.5L17.4113 122.5L37.9787 123.5L36.4361 128.5L32.3227 130L34.3794 144L36.4361 147.5Z" fill="#251414"/>
<path d="M11.2411 146L32.3227 154.5M11.2411 146L36.4361 147.5M11.2411 146L34.3794 144M11.2411 146L9.18436 144M11.2411 146L8.15599 161L28.7234 169.5L32.3227 154.5M32.3227 154.5L36.4361 147.5M36.4361 147.5L34.3794 144M9.18436 144H34.3794M9.18436 144L15.3546 130M34.3794 144L32.3227 130M15.3546 130H32.3227M15.3546 130L14.3262 127.5M32.3227 130L17.4113 122.5M32.3227 130L14.3262 123.5M32.3227 130L14.3262 127.5M32.3227 130L36.4361 128.5M14.3262 127.5V123.5M14.3262 123.5L17.4113 122.5M17.4113 122.5L36.4361 128.5M17.4113 122.5L37.9787 123.5L36.4361 128.5" stroke="#230000"/>
<path d="M7.12764 201L5.58509 164.5L2.49998 160V155.75V151.5L9.18438 156.5L29.2376 168L27.695 177L19.4681 201H7.12764Z" fill="#403535"/>
<path d="M7.12764 201L5.58509 164.5M7.12764 201H19.4681M7.12764 201L9.18438 156.5M5.58509 164.5L2.49998 160M5.58509 164.5C5.58509 163.7 7.98462 158.833 9.18438 156.5M2.49998 160L9.18438 156.5M2.49998 160V155.75M9.18438 156.5L2.49998 151.5V155.75M9.18438 156.5L29.2376 168L27.695 177L19.4681 201M9.18438 156.5L19.4681 201M9.18438 156.5L2.49998 155.75" stroke="black"/>
<path d="M7.57437 201L1.49998 218L3.49998 214.5L4.49998 213.5L5.49998 214L6.49998 215.5L7.99998 214.5L8.99998 215L9.49998 216L8.99998 218L10.5 217H11.5L12 217.5L11 220.5L13.5 218.5H14.5V222.5L14 225H18L22.9999 220V216.5L19.9148 201H7.57437Z" fill="#403535"/>
<path d="M14.5 222.5V218.5H13.5L11 220.5L12 217.5L11.5 217H10.5L8.99998 218L9.49998 216L8.99998 215L7.99998 214.5L6.49998 215.5L5.49998 214L4.49998 213.5L3.49998 214.5L1.49998 218L7.57437 201H19.9148L22.9999 216.5V220L18 225H14L14.5 222.5ZM14.5 222.5L17.5 220V216.5" stroke="black"/>
<path d="M5.49998 214L4.49996 213.5L2.99998 215L1.49998 218L1.99998 220.5L4.49996 218L5.99998 215L5.49998 214Z" fill="#403535" stroke="black"/>
<path d="M8.99998 215L9.49998 216L7.99998 219.5L4.49998 225L2.99998 224.5L2.49998 221.5L5.49998 216.5L7.99998 214.5L8.99998 215Z" fill="#403535" stroke="black"/>
<path d="M9.99998 228L7.99998 227L11 221L13.5 218.5H14.5L15 219.5L14 223.5L9.99998 228Z" fill="#403535" stroke="black"/>
<path d="M7.49998 226.5L4.99998 225.5L7.49998 220L10.5 217H11.5L12 217.5L10.5 221.5L7.49998 226.5Z" fill="#403535" stroke="black"/>
<path d="M22 213L23 216.5V220L20.5 223L18 225H14L15.5 222L17.5 220V216" stroke="black"/>
<path d="M118 145L118.397 154.5L119.774 177.108L112.322 186.506L106.92 181.303L105.401 171.926L107 162L101.293 136.55L100.293 126.05L119.352 124.449L119.085 129.051L121.293 141.05L118 145Z" fill="#251414"/>
<path d="M105.401 171.926L118.397 154.5M105.401 171.926L107 162M105.401 171.926L106.92 181.303L112.322 186.506L119.774 177.108L118.397 154.5M118.397 154.5L107 162M118.397 154.5L118 145M107 162L118 145M107 162L101.293 136.55M118 145L121.293 141.05M118 145L101.293 136.55M101.293 136.55L121.293 141.05M101.293 136.55L119.085 129.051M101.293 136.55L100.293 126.05L119.352 124.449L119.085 129.051M121.293 141.05L119.085 129.051" stroke="#230000"/>
<path d="M117 119.5L120 125L119.5 127H99.5005L100.5 114.5L106 98L106.5 86L93.5002 64L118.5 89L115.5 112L118.5 115.5L117 119.5Z" fill="#251414"/>
<path d="M99.5005 127L120 125M99.5005 127L117 119.5M99.5005 127L115.5 112M99.5005 127L118.5 115.5M99.5005 127L100.5 114.5M99.5005 127H119.5L120 125M120 125L117 119.5M117 119.5L118.5 115.5M100.5 114.5L115.5 112M100.5 114.5L106 98M115.5 112L118.5 115.5M115.5 112L118.5 89M115.5 112L106 98M106 98L118.5 89M106 98L106.5 86M118.5 89L106.5 86M118.5 89L93.5002 64L106.5 86" stroke="#230000"/>
<path d="M96.4135 207.091L107.521 195.427L115.587 198.701L117.791 215.766L110.338 221.059L104.692 218.768L98.9765 215.524L96.4135 207.091Z" fill="#403535" stroke="black"/>
<path d="M107.521 195.146L102.214 167.58L118.708 165.494L130.194 161.839L129.055 165.073L127.916 168.307L124.795 171.199L115.587 198.42L107.521 195.146Z" fill="#403535"/>
<path d="M107.521 195.146L102.214 167.58L118.708 165.494M107.521 195.146L115.587 198.42M107.521 195.146C108.057 193.885 115.202 174.853 118.708 165.494M118.708 165.494L130.194 161.839L129.055 165.073M118.708 165.494L129.055 165.073M118.708 165.494L127.916 168.307M118.708 165.494L124.795 171.199M118.708 165.494L115.587 198.42M115.587 198.42L124.795 171.199M127.916 168.307L124.795 171.199M127.916 168.307L129.055 165.073" stroke="black"/>
<path d="M35.9218 82L29.7516 74L21.4999 73L39.9999 62L35.9218 82Z" fill="#251414"/>
<path d="M44.1487 109.5L42.5 97.5C42.5 97.5 56.2904 74.3072 62.1452 78L44.1487 109.5Z" fill="#251414"/>
<path d="M97.6397 104.929L104.653 110.5L97.8737 104.777L97.4537 104.422L78 88C96.4938 86.1957 96.9568 101.424 97.4537 104.422C97.5076 104.748 97.5619 104.929 97.6397 104.929Z" fill="#251414"/>
<path d="M103.241 121.5L102 131.5L43 135.5L37 121L44.1487 109.5L62.1452 78L78 88L97.4537 104.422L97.8737 104.777L104.653 110.5L103.241 121.5Z" fill="#251414"/>
<path d="M106.5 86L106 99.5L85.5 82L93.5 76.5V64.5L106.5 86Z" fill="#251414"/>
<path d="M97.8737 104.777L97.4537 104.422C96.9568 101.424 96.4938 86.1957 78 88L85.5 82L106 99.5L97.8737 104.777Z" fill="#251414"/>
<path d="M106 99.5L104.653 110.5L97.8737 104.777L106 99.5Z" fill="#251414"/>
<path d="M78 88L62.1452 78C62.1452 77.2 65.3817 71.6667 66.9999 69L85.5 82L78 88Z" fill="#251414"/>
<path d="M62.1452 78C55.7195 66.8701 48.9999 54.5 48.9999 54.5L66.9999 69C65.3817 71.6667 62.1452 77.2 62.1452 78Z" fill="#251414"/>
<path d="M48.9999 54.5C48.9999 54.5 55.7195 66.8701 62.1452 78C56.2904 74.3072 42.5 97.5 42.5 97.5L35.9218 82L48.9999 54.5Z" fill="#251414"/>
<path d="M35.9218 82L39.9999 62L48.9999 54.5L35.9218 82Z" fill="#251414"/>
<path d="M104.653 110.5L103.241 121.5L102 131.5L43 135.5L37 121L44.1487 109.5M104.653 110.5L97.6397 104.929M104.653 110.5L106 99.5M104.653 110.5L97.8737 104.777M97.6397 104.929C97.5619 104.929 97.5076 104.748 97.4537 104.422M97.6397 104.929L97.8737 104.777M78 88C78 88 68 81.6928 62.1452 78M78 88L62.1452 78M78 88L85.5 82M78 88C96.4938 86.1957 96.9568 101.424 97.4537 104.422M78 88L97.4537 104.422M62.1452 78C55.7195 66.8701 48.9999 54.5 48.9999 54.5M62.1452 78C56.2904 74.3072 42.5 97.5 42.5 97.5M62.1452 78L44.1487 109.5M62.1452 78C62.1452 77.2 65.3817 71.6667 66.9999 69M48.9999 54.5L35.9218 82M48.9999 54.5L66.9999 69M48.9999 54.5L39.9999 62M44.1487 109.5L42.5 97.5M42.5 97.5L35.9218 82M35.9218 82L29.7516 74M35.9218 82L39.9999 62M29.7516 74L21.4999 73L39.9999 62M29.7516 74L39.9999 62M106 99.5L106.5 86L93.5 64.5V76.5L85.5 82M106 99.5L85.5 82M106 99.5L97.8737 104.777M85.5 82L66.9999 69M97.8737 104.777L97.4537 104.422" stroke="#230000"/>
<path d="M102.5 173V164.5L105 154.5L102 131.5L43.0003 135.5L41 154.5L42.7329 158.5C42.7329 158.5 43.0055 164.657 43.5003 167C43.0055 170.319 42.7329 173 42.7329 173H102.5Z" fill="#251414"/>
<path d="M102.5 173V164.5M102.5 173H42.7329C42.7329 173 43.0055 170.319 43.5003 167M102.5 173C102.5 173 87.0708 170.551 68.5 167.942M102.5 164.5L105 154.5M102.5 164.5L41 154.5M102.5 164.5L68.5 167.942M105 154.5L102 131.5L43.0003 135.5L41 154.5M105 154.5L42.7329 158.5M43.5003 167C43.0055 164.657 42.7329 158.5 42.7329 158.5M43.5003 167C50.8833 168.037 60.0594 166.756 68.5 167.942M42.7329 158.5L41 154.5M42.7329 158.5L68.5 167.942" stroke="#230000"/>
<g filter="url(#filter2_d_59_2)">
<path d="M102 72L99.5002 69.5L93.5002 76.5L85.5002 82.5L68.9998 92L58.4998 84L47.9998 79L36.5002 63.5L27.5002 69.5L36.9998 79L47.9998 89L53.9998 94.5L60.4998 101L54.4998 131.5L50.9998 137L44.0002 168H49.5002L56.9998 140.5L60.4998 132.5C60.5224 132.447 60.5432 132.379 60.5623 132.298L68.9998 105L77.9998 95.5L89.0002 85L96.5002 79L102 72Z" fill="#100F0F"/>
<path d="M68.9998 92L85.5002 82.5M68.9998 92L58.4998 84M68.9998 92L53.9998 94.5M68.9998 92V105M36.5002 63.5L27.5002 69.5L36.9998 79M36.5002 63.5L47.9998 79M36.5002 63.5L36.9998 79M60.4998 101L54.4998 131.5M60.4998 101L53.9998 94.5M60.4998 101L77.9998 95.5M60.4998 101C59.8331 110.551 61.2998 130.622 60.4998 132.5M44.0002 168H49.5002L56.9998 140.5M44.0002 168L50.9998 137M44.0002 168L56.9998 140.5M68.9998 105L77.9998 95.5M68.9998 105L60.4998 132.5M77.9998 95.5L89.0002 85M56.9998 140.5L60.4998 132.5M56.9998 140.5C56.1998 140.5 52.6665 138.167 50.9998 137M50.9998 137L54.4998 131.5M60.4998 132.5L54.4998 131.5M89.0002 85C89.0002 84.2 85.5002 82.5 85.5002 82.5M89.0002 85L96.5002 79L102 72L99.5002 69.5L93.5002 76.5L85.5002 82.5M47.9998 89L53.9998 94.5M47.9998 89L36.9998 79M47.9998 89V79M47.9998 89L58.4998 84M58.4998 84L47.9998 79" stroke="#252323"/>
</g>
<path d="M46.5003 72L42.0003 61L49.0003 55L67.0003 70L65.5003 94L52.5003 80L46.5003 72Z" fill="#3C3C3C"/>
<path d="M103 73L98.3159 82L95.0003 66L103 73Z" fill="#3C3C3C"/>
<path d="M98.3159 82L93.174 89.5L95.0003 66L98.3159 82Z" fill="#3C3C3C"/>
<path d="M93.174 89.5L79.5003 93L84.5003 82L95.0003 66L93.174 89.5Z" fill="#3C3C3C"/>
<path d="M84.5003 82L79.5003 93L65.5003 94L67.0003 70L84.5003 82Z" fill="#3C3C3C"/>
<path d="M98.3159 82L103 73L95.0003 66M98.3159 82L93.174 89.5M98.3159 82L95.0003 66M93.174 89.5L79.5003 93M93.174 89.5L95.0003 66M79.5003 93L84.5003 82M79.5003 93L65.5003 94M84.5003 82L95.0003 66M84.5003 82L67.0003 70M46.5003 72L42.0003 61L49.0003 55M46.5003 72L52.5003 80M46.5003 72L49.0003 55M52.5003 80L65.5003 94M52.5003 80L49.0003 55M65.5003 94L67.0003 70M67.0003 70L49.0003 55" stroke="#251414"/>
<path d="M102.83 67.1224L100.773 66.1224L95.0527 66L95.0003 66.1224L103.344 72.7448L103.344 73.8507L108 78.6224L109 74.7448V72.7448L106.429 70.1224L102.83 67.1224Z" fill="#3C3C3C"/>
<path d="M100.773 66.1224H96.6599L95.0527 66M100.773 66.1224L102.83 67.1224M100.773 66.1224L95.0527 66M102.83 67.1224L106.429 70.1224M102.83 67.1224L95.0527 66M106.429 70.1224L109 72.7448M106.429 70.1224L103.344 72.7448M109 72.7448V74.7448M109 72.7448L103.344 72.7448M109 74.7448L108 78.6224L103.344 73.8507M109 74.7448L103.344 73.8507M103.344 73.8507L103.344 72.7448M103.344 72.7448L95.0003 66.1224L95.0527 66" stroke="#251414"/>
<path d="M43.3159 54H47.4294L49.9478 55L50.0003 55.1224L41.2591 61L37.0003 63.5L37.6599 58L41.2591 55L43.3159 54Z" fill="#3C3C3C"/>
<path d="M43.3159 54H47.4294L49.9478 55M43.3159 54L41.2591 55M43.3159 54L49.9478 55M41.2591 55L37.6599 58M41.2591 55L49.9478 55M37.6599 58L37.0003 63.5L41.2591 61M37.6599 58L41.2591 61M41.2591 61L50.0003 55.1224L49.9478 55" stroke="#251414"/>
<g filter="url(#filter3_d_59_2)">
<path d="M62.0617 107.745L74.6585 108.049L78.6513 97.4132L71.6172 88.7831L62.1665 90.0697L58.4497 99.6587L62.0617 107.745Z" fill="#251414"/>
<path d="M62.0617 107.745L74.6585 108.049L78.6513 97.4132L71.6172 88.7831L62.1665 90.0697L58.4497 99.6587L62.0617 107.745Z" stroke="#252323"/>
</g>
<path d="M71.7884 105.412L73.432 105.188L72.3653 91.2043L69.8999 91.54L71.7884 105.412Z" stroke="#252323"/>
<path d="M66.8576 106.083L65.214 106.307L62.5037 92.5469L64.9691 92.2112L66.8576 106.083Z" stroke="#252323"/>
<path d="M70.5744 96.4943L71.0465 99.9623L68.6486 100.793M70.5744 96.4943L68.1764 97.3253M70.5744 96.4943L68.6486 100.793M65.6436 97.1655L66.1157 100.634L68.6486 100.793M65.6436 97.1655L68.1764 97.3253M65.6436 97.1655L68.6486 100.793M68.6486 100.793L68.1764 97.3253" stroke="#252323"/>
<path d="M32.5099 281.834L34.3671 274.616V258.977L37.153 238.526L35.2957 231.308L36.2244 206.045L41.1197 188.601L76.1553 188.602L76.6196 213.263L73.8337 215.067L71.9765 219.879L70.1192 255.969L65.4761 260.781V281.834L68.262 284.24L32.5099 281.834Z" fill="#251414"/>
<path d="M34.3671 274.616L32.5099 281.834L68.262 284.24L65.4761 281.834M34.3671 274.616V258.977M34.3671 274.616L65.4761 281.834M34.3671 258.977L37.153 238.526M34.3671 258.977L65.4761 260.781M37.153 238.526L35.2957 231.308M37.153 238.526L70.1192 255.969M35.2957 231.308L36.2244 206.045M35.2957 231.308L71.9765 219.879M36.2244 206.045L41.1197 188.601M36.2244 206.045L73.8337 215.067M41.1197 188.601L76.1553 188.602L76.6196 213.263L73.8337 215.067M41.1197 188.601L73.8337 215.067M73.8337 215.067L71.9765 219.879M71.9765 219.879L70.1192 255.969M70.1192 255.969L65.4761 260.781M65.4761 260.781V281.834" stroke="#230000"/>
<path d="M37.153 287.848L32.5099 281.834L68.262 284.24L65.4761 287.848L60.507 319.962L56.3281 346.428L54.4709 350.639H45.6489L41.7023 325.376L37.153 287.848Z" fill="#251414"/>
<path d="M45.6489 350.639H54.4709L56.3281 346.428M45.6489 350.639L56.3281 346.428M45.6489 350.639L41.7023 325.376M37.153 287.848L32.5099 281.834L68.262 284.24M37.153 287.848L41.7023 325.376M37.153 287.848H65.4761M65.4761 281.834L68.262 284.24M68.262 284.24L65.4761 287.848M65.4761 287.848L60.507 319.962M60.507 319.962L56.3281 346.428M60.507 319.962L41.7023 325.376M56.3281 346.428L41.7023 325.376" stroke="#230000"/>
<path d="M40.723 361.966L50.1285 363.032C50.0031 362.606 45.059 349.697 45.1112 344.364L44.0445 350.23L42.4448 353.429L40.723 361.966Z" fill="#252020"/>
<path d="M55.6121 363.032L55.6133 363.028C55.7369 362.527 55.6654 349.679 55.6133 344.364L50.1296 345.164L45.1112 344.364C45.059 349.697 50.0031 362.606 50.1285 363.032H55.6121Z" fill="#252020"/>
<path d="M58.9036 349.697L55.6133 344.364C55.6654 349.679 55.7369 362.527 55.6133 363.028L58.9036 349.697Z" fill="#252020"/>
<path d="M60.0003 352.363L58.9036 349.697L55.6133 363.028L55.6121 363.032C56.0508 362.606 58.7208 355.029 60.0003 352.363Z" fill="#252020"/>
<path d="M55.6121 363.032L59.9991 361.966L60.0003 352.363C58.7208 355.029 56.0508 362.606 55.6121 363.032Z" fill="#252020"/>
<path d="M55.6133 344.364L60.0003 330.5L50.1296 345.164L55.6133 344.364Z" fill="#252020"/>
<path d="M60.0003 330.5L40.8074 331.566L50.1296 345.164L60.0003 330.5Z" fill="#252020"/>
<path d="M40.8074 331.566L45.1112 344.364L50.1296 345.164L40.8074 331.566Z" fill="#252020"/>
<path d="M44.0445 350.23L45.1112 344.364L32.8051 349.697H28.0059V355.029L40.723 361.966L42.4448 353.429L44.0445 350.23Z" fill="#252020"/>
<path d="M55.6121 363.032L59.9991 361.966L60.0003 352.363M55.6121 363.032C56.0508 362.606 58.7208 355.029 60.0003 352.363M55.6121 363.032H50.1285M55.6121 363.032L55.6133 363.028M45.1112 344.364L40.8074 331.566M45.1112 344.364L50.1296 345.164M45.1112 344.364L44.0445 350.23M45.1112 344.364C45.059 349.697 50.0031 362.606 50.1285 363.032M45.1112 344.364L32.8051 349.697H28.0059V355.029L40.723 361.966M40.8074 331.566L60.0003 330.5M40.8074 331.566L50.1296 345.164M60.0003 330.5L55.6133 344.364M60.0003 330.5L50.1296 345.164M55.6133 344.364L58.9036 349.697M55.6133 344.364L50.1296 345.164M55.6133 344.364C55.6654 349.679 55.7369 362.527 55.6133 363.028M60.0003 352.363L58.9036 349.697M58.9036 349.697L55.6133 363.028M40.723 361.966L50.1285 363.032M40.723 361.966L42.4448 353.429M50.1285 363.032C49.6898 362.606 43.7243 356.096 42.4448 353.429M50.1285 363.032L44.0445 350.23M42.4448 353.429L44.0445 350.23" stroke="black"/>
<path d="M84.442 274.991L81.0276 267.449L78.8936 258.9V245.826L77.1864 244.317V224.706L75.4792 214.649L73.772 210.123L64.0003 188.5H101L105.142 205.094L110.05 221.186L116.025 259.403L119.44 272.477L122 276.5L84.442 274.991Z" fill="#251414"/>
<path d="M81.0276 267.449L84.442 274.991L122 276.5L119.44 272.477M81.0276 267.449L78.8936 258.9M81.0276 267.449C93.1202 269.125 117.732 272.477 119.44 272.477M78.8936 258.9V245.826M78.8936 258.9L116.025 259.403M78.8936 245.826L77.1864 244.317M78.8936 245.826L110.05 221.186M77.1864 244.317V224.706M77.1864 244.317L105.142 205.094M77.1864 224.706L75.4792 214.649M77.1864 224.706L101 188.5M75.4792 214.649L73.772 210.123L64.0003 188.5H101M75.4792 214.649L101 188.5M101 188.5L105.142 205.094M110.05 221.186L116.025 259.403M110.05 221.186L105.142 205.094M116.025 259.403L119.44 272.477" stroke="#230000"/>
<path d="M113.12 286.5L119 282L122.5 276L83.5003 274.5L85.2944 282L92.6199 286.5L98.1898 323L98.6003 341.5H109.685L110.916 337.5L113.12 286.5Z" fill="#251414"/>
<path d="M113.12 286.5L119 282M113.12 286.5L110.916 337.5M113.12 286.5L98.1898 323M113.12 286.5H92.6199M119 282H85.2944M119 282L122.5 276L83.5003 274.5L85.2944 282M85.2944 282L92.6199 286.5M92.6199 286.5L98.1898 323M98.1898 323L98.6003 341.5H109.685L110.916 337.5M98.1898 323L110.916 337.5" stroke="#230000"/>
<path d="M113.408 362.484L103.939 363.5C104.065 363.094 109.042 350.792 108.99 345.711L110.064 351.301L111.674 354.349L113.408 362.484Z" fill="#252020"/>
<path d="M98.4181 363.5L98.4168 363.496C98.2924 363.018 98.3644 350.775 98.4168 345.711L103.938 346.473L108.99 345.711C109.042 350.792 104.065 363.094 103.939 363.5H98.4181Z" fill="#252020"/>
<path d="M95.1044 350.792L98.4168 345.711C98.3644 350.775 98.2924 363.018 98.4168 363.496L95.1044 350.792Z" fill="#252020"/>
<path d="M94.0003 353.333L95.1044 350.792L98.4168 363.496L98.4181 363.5C97.9764 363.094 95.2885 355.874 94.0003 353.333Z" fill="#252020"/>
<path d="M98.4181 363.5L94.0015 362.484L94.0003 353.333C95.2885 355.874 97.9764 363.094 98.4181 363.5Z" fill="#252020"/>
<path d="M98.4168 345.711L94.0003 332.5L103.938 346.473L98.4168 345.711Z" fill="#252020"/>
<path d="M94.0003 332.5L113.323 333.516L103.938 346.473L94.0003 332.5Z" fill="#252020"/>
<path d="M113.323 333.516L108.99 345.711L103.938 346.473L113.323 333.516Z" fill="#252020"/>
<path d="M110.064 351.301L108.99 345.711L126.169 351.301H131V356.382L113.408 362.484L111.674 354.349L110.064 351.301Z" fill="#252020"/>
<path d="M98.4181 363.5L94.0015 362.484L94.0003 353.333M98.4181 363.5C97.9764 363.094 95.2885 355.874 94.0003 353.333M98.4181 363.5H103.939M98.4181 363.5L98.4168 363.496M108.99 345.711L113.323 333.516M108.99 345.711L103.938 346.473M108.99 345.711L110.064 351.301M108.99 345.711C109.042 350.792 104.065 363.094 103.939 363.5M108.99 345.711L126.169 351.301H131V356.382L113.408 362.484M113.323 333.516L94.0003 332.5M113.323 333.516L103.938 346.473M94.0003 332.5L98.4168 345.711M94.0003 332.5L103.938 346.473M98.4168 345.711L95.1044 350.792M98.4168 345.711L103.938 346.473M98.4168 345.711C98.3644 350.775 98.2924 363.018 98.4168 363.496M94.0003 353.333L95.1044 350.792M95.1044 350.792L98.4168 363.496M113.408 362.484L103.939 363.5M113.408 362.484L111.674 354.349M103.939 363.5C104.38 363.094 110.386 356.89 111.674 354.349M103.939 363.5L110.064 351.301M111.674 354.349L110.064 351.301" stroke="black"/>
<path d="M41.0003 189.5L40.1197 183L44.0003 167.5H68.0003L102.12 173V180.5L100.62 188.5L75.5003 214L73.5003 215L36.5003 206L41.0003 189.5Z" fill="#251414"/>
<path d="M41.0003 189.5L40.1197 183M41.0003 189.5L75.1197 188.5M41.0003 189.5L68.0003 167.5M41.0003 189.5L36.5003 206L73.5003 215L75.5003 214M40.1197 183L44.0003 167.5H68.0003M40.1197 183L68.0003 167.5M102.12 180.5V173L68.0003 167.5M102.12 180.5L100.62 188.5M102.12 180.5L68.0003 167.5M100.62 188.5H75.1197M100.62 188.5L68.0003 167.5M100.62 188.5L75.5003 214M75.1197 188.5L68.0003 167.5M75.1197 188.5L75.5003 214" stroke="#230000"/>
<g filter="url(#filter4_d_59_2)">
<path d="M102.034 173C102.448 174 102.275 177.2 102.275 178L101 176.5L102.034 173Z" fill="#3C3C3C"/>
<path d="M102.775 173H102.034L101 176.5H96.7105L102.775 173Z" fill="#3C3C3C"/>
<path d="M102.775 168V173L96.7105 176.5H71.5004L102.775 168Z" fill="#3C3C3C"/>
<path d="M102.775 168L71.5004 176.5L68.5004 168H102.775Z" fill="#3C3C3C"/>
<path d="M42.5867 172.5V172L47.2901 177L43.6206 176L42.5867 172.5Z" fill="#3C3C3C"/>
<path d="M41.346 176.5C41.346 175.7 42.1732 173.5 42.5867 172.5L43.6206 176L41.346 176.5Z" fill="#3C3C3C"/>
<path d="M42.5867 172L43.0003 168L71.5004 176.5L47.2901 177L42.5867 172Z" fill="#3C3C3C"/>
<path d="M68.5004 168L71.5004 176.5L43.0003 168H68.5004Z" fill="#3C3C3C"/>
<path d="M102.034 173C102.448 174 102.275 177.2 102.275 178L101 176.5M102.034 173H102.775M102.034 173L101 176.5M102.775 173V168M102.775 173L96.7105 176.5M102.775 168L71.5004 176.5M102.775 168H68.5004M96.7105 176.5H101M96.7105 176.5H71.5004M71.5004 176.5L68.5004 168M71.5004 176.5L47.2901 177M71.5004 176.5L43.0003 168M68.5004 168H43.0003M42.5867 172.5C42.1732 173.5 41.346 175.7 41.346 176.5L43.6206 176M42.5867 172.5V172M42.5867 172.5L43.6206 176M42.5867 172L43.0003 168M42.5867 172L47.2901 177M47.2901 177L43.6206 176" stroke="#251414"/>
</g>
<defs>
<filter id="filter0_di_59_2" x="39.6124" y="12.4645" width="37.5154" height="50.8355" filterUnits="userSpaceOnUse" color-interpolation-filters="sRGB">
<feFlood flood-opacity="0" result="BackgroundImageFix"/>
<feColorMatrix in="SourceAlpha" type="matrix" values="0 0 0 0 0 0 0 0 0 0 0 0 0 0 0 0 0 0 127 0" result="hardAlpha"/>
<feOffset dy="1"/>
<feGaussianBlur stdDeviation="2"/>
<feComposite in2="hardAlpha" operator="out"/>
<feColorMatrix type="matrix" values="0 0 0 0 1 0 0 0 0 1 0 0 0 0 1 0 0 0 1 0"/>
<feBlend mode="normal" in2="BackgroundImageFix" result="effect1_dropShadow_59_2"/>
<feBlend mode="normal" in="SourceGraphic" in2="effect1_dropShadow_59_2" result="shape"/>
<feColorMatrix in="SourceAlpha" type="matrix" values="0 0 0 0 0 0 0 0 0 0 0 0 0 0 0 0 0 0 127 0" result="hardAlpha"/>
<feOffset dx="3" dy="10"/>
<feGaussianBlur stdDeviation="2.65"/>
<feComposite in2="hardAlpha" operator="arithmetic" k2="-1" k3="1"/>
<feColorMatrix type="matrix" values="0 0 0 0 0 0 0 0 0 0 0 0 0 0 0 0 0 0 0.25 0"/>
<feBlend mode="normal" in2="shape" result="effect2_innerShadow_59_2"/>
</filter>
<filter id="filter1_dd_59_2" x="43.1721" y="24.4056" width="18.7527" height="15.5014" filterUnits="userSpaceOnUse" color-interpolation-filters="sRGB">
<feFlood flood-opacity="0" result="BackgroundImageFix"/>
<feColorMatrix in="SourceAlpha" type="matrix" values="0 0 0 0 0 0 0 0 0 0 0 0 0 0 0 0 0 0 127 0" result="hardAlpha"/>
<feOffset dy="4"/>
<feGaussianBlur stdDeviation="2"/>
<feComposite in2="hardAlpha" operator="out"/>
<feColorMatrix type="matrix" values="0 0 0 0 0 0 0 0 0 0 0 0 0 0 0 0 0 0 0.25 0"/>
<feBlend mode="normal" in2="BackgroundImageFix" result="effect1_dropShadow_59_2"/>
<feColorMatrix in="SourceAlpha" type="matrix" values="0 0 0 0 0 0 0 0 0 0 0 0 0 0 0 0 0 0 127 0" result="hardAlpha"/>
<feOffset dy="4"/>
<feGaussianBlur stdDeviation="2"/>
<feComposite in2="hardAlpha" operator="out"/>
<feColorMatrix type="matrix" values="0 0 0 0 0 0 0 0 0 0 0 0 0 0 0 0 0 0 0.25 0"/>
<feBlend mode="normal" in2="effect1_dropShadow_59_2" result="effect2_dropShadow_59_2"/>
<feBlend mode="normal" in="SourceGraphic" in2="effect2_dropShadow_59_2" result="shape"/>
</filter>
<filter id="filter2_d_59_2" x="22.7154" y="62.8202" width="83.952" height="113.68" filterUnits="userSpaceOnUse" color-interpolation-filters="sRGB">
<feFlood flood-opacity="0" result="BackgroundImageFix"/>
<feColorMatrix in="SourceAlpha" type="matrix" values="0 0 0 0 0 0 0 0 0 0 0 0 0 0 0 0 0 0 127 0" result="hardAlpha"/>
<feOffset dy="4"/>
<feGaussianBlur stdDeviation="2"/>
<feComposite in2="hardAlpha" operator="out"/>
<feColorMatrix type="matrix" values="0 0 0 0 0 0 0 0 0 0 0 0 0 0 0 0 0 0 0.25 0"/>
<feBlend mode="normal" in2="BackgroundImageFix" result="effect1_dropShadow_59_2"/>
<feBlend mode="normal" in="SourceGraphic" in2="effect1_dropShadow_59_2" result="shape"/>
</filter>
<filter id="filter3_d_59_2" x="53.9082" y="88.2499" width="29.3121" height="28.3075" filterUnits="userSpaceOnUse" color-interpolation-filters="sRGB">
<feFlood flood-opacity="0" result="BackgroundImageFix"/>
<feColorMatrix in="SourceAlpha" type="matrix" values="0 0 0 0 0 0 0 0 0 0 0 0 0 0 0 0 0 0 127 0" result="hardAlpha"/>
<feOffset dy="4"/>
<feGaussianBlur stdDeviation="2"/>
<feComposite in2="hardAlpha" operator="out"/>
<feColorMatrix type="matrix" values="0 0 0 0 0 0 0 0 0 0 0 0 0 0 0 0 0 0 0.25 0"/>
<feBlend mode="normal" in2="BackgroundImageFix" result="effect1_dropShadow_59_2"/>
<feBlend mode="normal" in="SourceGraphic" in2="effect1_dropShadow_59_2" result="shape"/>
</filter>
<filter id="filter4_d_59_2" x="36.846" y="167.5" width="70.4289" height="19.8606" filterUnits="userSpaceOnUse" color-interpolation-filters="sRGB">
<feFlood flood-opacity="0" result="BackgroundImageFix"/>
<feColorMatrix in="SourceAlpha" type="matrix" values="0 0 0 0 0 0 0 0 0 0 0 0 0 0 0 0 0 0 127 0" result="hardAlpha"/>
<feOffset dy="4"/>
<feGaussianBlur stdDeviation="2"/>
<feComposite in2="hardAlpha" operator="out"/>
<feColorMatrix type="matrix" values="0 0 0 0 0 0 0 0 0 0 0 0 0 0 0 0 0 0 0.25 0"/>
<feBlend mode="normal" in2="BackgroundImageFix" result="effect1_dropShadow_59_2"/>
<feBlend mode="normal" in="SourceGraphic" in2="effect1_dropShadow_59_2" result="shape"/>
</filter>
<linearGradient id="paint0_linear_59_2" x1="45.2049" y1="23.6341" x2="44.2498" y2="31.4284" gradientUnits="userSpaceOnUse">
<stop stop-opacity="0.1"/>
<stop offset="1" stop-color="#FF0000" stop-opacity="0"/>
<stop offset="1" stop-color="#FF0000" stop-opacity="0"/>
</linearGradient>
</defs>
</svg>
