<svg width="147" height="372" viewBox="0 0 147 372" fill="none" xmlns="http://www.w3.org/2000/svg">
<g filter="url(#filter0_i_6_24)">
<path d="M59.6099 56.5L77.1099 74.5L88.6099 68.5L100.11 55.5L98.6099 26L89.6099 19L59.6099 56.5Z" fill="#251414"/>
</g>
<path d="M59.6099 56.5L77.1099 74.5L88.6099 68.5L100.11 55.5L98.6099 26L89.6099 19L59.6099 56.5Z" stroke="#230000"/>
<g style="mix-blend-mode:overlay" filter="url(#filter1_di_6_24)">
<path d="M77.1099 57L67.6099 47V22L89.6099 19L96.1099 23.5L96.6099 29.5L98.1099 33.5L97.6099 38L98.1099 41L94.6099 46L87.1099 60L83.1099 61.5L77.1099 57Z" fill="#251414"/>
<path d="M77.1099 57L67.6099 47V22L89.6099 19L96.1099 23.5L96.6099 29.5L98.1099 33.5L97.6099 38L98.1099 41L94.6099 46L87.1099 60L83.1099 61.5L77.1099 57Z" stroke="#230000"/>
</g>
<g filter="url(#filter2_dd_6_24)">
<path d="M82.4055 38.5899C80.9084 40.0798 77.5741 36.1595 77.5741 36.1595L74.1099 32.5541L78.6981 32.9993L83.0333 35.4906C83.0333 35.4906 83.2809 37.7188 82.4055 38.5899Z" fill="#B20000" shape-rendering="crispEdges"/>
<path d="M91.1099 35.4906C91.1099 35.4906 91.5667 37.2176 92.4065 37.8504C94.3604 39.3229 97.5008 34.2037 97.5008 34.2037L96.2042 31.8439L91.1099 35.4906Z" fill="#B20000" shape-rendering="crispEdges"/>
<path d="M82.4055 38.5899C80.9084 40.0798 77.5741 36.1595 77.5741 36.1595L74.1099 32.5541L78.6981 32.9993L83.0333 35.4906C83.0333 35.4906 83.2809 37.7188 82.4055 38.5899Z" stroke="url(#paint0_linear_6_24)" shape-rendering="crispEdges"/>
<path d="M91.1099 35.4906C91.1099 35.4906 91.5667 37.2176 92.4065 37.8504C94.3604 39.3229 97.5008 34.2037 97.5008 34.2037L96.2042 31.8439L91.1099 35.4906Z" stroke="url(#paint1_linear_6_24)" shape-rendering="crispEdges"/>
</g>
<path fill-rule="evenodd" clip-rule="evenodd" d="M98.6099 26L91.6099 8L77.1099 1H63.6099L53.1099 15.5L51.1099 40L47.1099 44V54.5L83.6099 86.5L93.6099 78L101.61 59L100.11 55L88.1099 68.5L77.1099 74.5L59.1099 56.5C59.9099 55.7 79.7765 31.1667 89.6099 19L98.6099 26Z" fill="#251414"/>
<path d="M59.1099 56.5C59.9099 55.7 79.7765 31.1667 89.6099 19M59.1099 56.5L77.1099 74.5M59.1099 56.5L47.1099 54.5M59.1099 56.5L47.1099 44M59.1099 56.5L51.1099 40M89.6099 19L98.6099 26M89.6099 19L53.1099 15.5M89.6099 19L63.6099 1M89.6099 19L77.1099 1M89.6099 19L91.6099 8M98.6099 26L91.6099 8M98.6099 26L100.11 55M91.6099 8L77.1099 1M77.1099 1H63.6099M63.6099 1L53.1099 15.5M53.1099 15.5L51.1099 40M51.1099 40L47.1099 44M47.1099 44V54.5M47.1099 54.5L83.6099 86.5M83.6099 86.5L93.6099 78M83.6099 86.5L77.1099 74.5M93.6099 78L101.61 59L100.11 55M93.6099 78L100.11 55M93.6099 78L88.1099 68.5M100.11 55L88.1099 68.5M88.1099 68.5L77.1099 74.5" stroke="#230000"/>
<path d="M26.1099 274.984L28.0888 268.216V253.552L31.0572 234.376L29.0783 227.608L30.0678 203.92L32.5414 187L72.6151 187.564L73.1099 210.688L70.1414 212.38L68.1625 216.892L66.1835 250.732L61.2362 255.244V274.984L64.2046 277.24L26.1099 274.984Z" fill="#251414"/>
<path d="M28.0888 268.216L26.1099 274.984L64.2046 277.24L61.2362 274.984M28.0888 268.216V253.552M28.0888 268.216L61.2362 274.984M28.0888 253.552L31.0572 234.376M28.0888 253.552L61.2362 255.244M31.0572 234.376L29.0783 227.608M31.0572 234.376L66.1835 250.732M29.0783 227.608L30.0678 203.92M29.0783 227.608L68.1625 216.892M30.0678 203.92L32.5414 187M30.0678 203.92L70.1414 212.38M32.5414 187L72.6151 187.564L73.1099 210.688L70.1414 212.38M32.5414 187L70.1414 212.38M70.1414 212.38L68.1625 216.892M68.1625 216.892L66.1835 250.732M66.1835 250.732L61.2362 255.244M61.2362 255.244V274.984" stroke="#230000"/>
<path d="M31.0572 280.624L26.1099 274.984L64.2046 277.24L61.2362 280.624L55.9414 310.736L51.4888 335.552L49.5099 339.5H40.1099L35.9046 315.812L31.0572 280.624Z" fill="#251414"/>
<path d="M40.1099 339.5H49.5099L51.4888 335.552M40.1099 339.5L51.4888 335.552M40.1099 339.5L35.9046 315.812M31.0572 280.624L26.1099 274.984L64.2046 277.24M31.0572 280.624L35.9046 315.812M31.0572 280.624H61.2362M61.2362 274.984L64.2046 277.24M64.2046 277.24L61.2362 280.624M61.2362 280.624L55.9414 310.736M55.9414 310.736L51.4888 335.552M55.9414 310.736L35.9046 315.812M51.4888 335.552L35.9046 315.812" stroke="#230000"/>
<path d="M54.6099 358.5H50.6099L32.1099 370.5L24.1099 366.5L40.6099 344.5L37.1099 331L54.6099 330L50.6099 343L53.6099 348L54.6099 350.5V358.5Z" fill="#252020"/>
<path d="M50.6099 358.5H54.6099V350.5M50.6099 358.5L32.1099 370.5M50.6099 358.5C51.0099 358.1 53.4432 353 54.6099 350.5M50.6099 358.5L53.6099 348M50.6099 358.5C50.7241 358.1 50.6575 348 50.6099 343M32.1099 370.5L24.1099 366.5L40.6099 344.5M32.1099 370.5L50.6099 343M40.6099 344.5L37.1099 331M40.6099 344.5L45.6099 343.75M37.1099 331L54.6099 330M37.1099 331L45.6099 343.75M54.6099 330L50.6099 343M54.6099 330L45.6099 343.75M50.6099 343L53.6099 348M50.6099 343L45.6099 343.75M54.6099 350.5L53.6099 348" stroke="black"/>
<path d="M84.7414 273.5L81.1625 266L78.9257 257.5V244.5L77.1362 243V223.5L75.3467 213.5L73.5572 209L71.1099 187.5H100.61L106.439 204L111.584 220L117.847 258L121.426 271L124.11 275L84.7414 273.5Z" fill="#251414"/>
<path d="M81.1625 266L84.7414 273.5L124.11 275L121.426 271M81.1625 266L78.9257 257.5M81.1625 266C93.8379 267.667 119.636 271 121.426 271M78.9257 257.5V244.5M78.9257 257.5L117.847 258M78.9257 244.5L77.1362 243M78.9257 244.5L111.584 220M77.1362 243V223.5M77.1362 243L106.439 204M77.1362 223.5L75.3467 213.5M77.1362 223.5L100.61 187.5M75.3467 213.5L73.5572 209L71.1099 187.5H100.61M75.3467 213.5L100.61 187.5M100.61 187.5L106.439 204M111.584 220L117.847 258M111.584 220L106.439 204M117.847 258L121.426 271" stroke="#230000"/>
<path d="M93.6888 285.5L84.7414 273.5L81.6099 266L121.61 271L124.11 275L111.584 284L107.557 320.5L107.11 339H95.0309L93.6888 335V285.5Z" fill="#251414"/>
<path d="M93.6888 285.5L84.7414 273.5M93.6888 285.5V335M93.6888 285.5L107.557 320.5M93.6888 285.5L111.584 284M84.7414 273.5L124.11 275M84.7414 273.5L81.6099 266L121.61 271L124.11 275M124.11 275L111.584 284M111.584 284L107.557 320.5M107.557 320.5L107.11 339H95.0309L93.6888 335M107.557 320.5L93.6888 335" stroke="#230000"/>
<path d="M118.61 367L95.6099 361H93.1099V352.5L95.1099 348L92.1099 330H110.11L107.11 350.5L121.11 361L118.61 367Z" fill="#252020"/>
<path d="M95.6099 361L118.61 367M95.6099 361H93.1099V352.5M95.6099 361L93.1099 352.5M95.6099 361C95.6099 360.6 95.2765 352.167 95.1099 348M118.61 367L121.11 361L107.11 350.5M118.61 367L107.11 350.5M107.11 350.5L110.11 330M107.11 350.5L101.11 349.25M110.11 330H92.1099M110.11 330L101.11 349.25M92.1099 330L95.1099 348M92.1099 330L101.11 349.25M95.1099 348L93.1099 352.5M95.1099 348L101.11 349.25" stroke="black"/>
<path d="M32.0319 187.5L30.1099 184L35.8761 169L70.954 169.5L104.11 170L103.94 179.5L101.227 187.5L75.6099 213.5L73.6099 208.5L70.1099 210L32.0319 187.5Z" fill="#251414"/>
<path d="M32.0319 187.5L30.1099 184M32.0319 187.5L75.6099 194M32.0319 187.5L70.954 169.5M32.0319 187.5L70.1099 210L73.6099 208.5M30.1099 184L35.8761 169L70.954 169.5M30.1099 184L70.954 169.5M103.94 179.5L104.11 170L70.954 169.5M103.94 179.5L101.227 187.5M103.94 179.5L70.954 169.5M101.227 187.5L75.6099 194M101.227 187.5L70.954 169.5M101.227 187.5L75.6099 213.5L73.6099 208.5M75.6099 194L70.954 169.5M75.6099 194L73.6099 208.5" stroke="#230000"/>
<path d="M114.61 135.5V145L127.61 167L112.11 176.5L107.61 170.5V161L100.11 151.5L93.1099 125.5L95.6099 115L115.61 116.5L114.61 121L118.11 132L114.61 135.5Z" fill="#251414"/>
<path d="M107.61 161L114.61 145M107.61 161L100.11 151.5L93.1099 125.5M107.61 161V170.5L112.11 176.5L127.61 167L114.61 145M114.61 145L100.11 151L114.61 135.5M114.61 145V135.5M114.61 135.5L118.11 132M114.61 135.5C114.21 135.5 100.11 128.833 93.1099 125.5M93.1099 125.5L118.11 132M93.1099 125.5L114.61 121M93.1099 125.5L95.6099 115L115.61 116.5L114.61 121M118.11 132L114.61 121" stroke="#230000"/>
<path d="M112.61 108L116.61 114.5L116.11 116.5L95.6099 115L93.1099 103.5L95.6099 91L93.1099 76.5L95.6099 70L112.61 78L110.61 100.5L114.61 103.5L112.61 108Z" fill="#251414"/>
<path d="M95.6099 115L116.61 114.5M95.6099 115L112.61 108M95.6099 115L110.61 100.5M95.6099 115L114.61 103.5M95.6099 115L93.1099 103.5M95.6099 115L116.11 116.5L116.61 114.5M116.61 114.5L112.61 108M112.61 108L114.61 103.5M93.1099 103.5L110.61 100.5M93.1099 103.5L95.6099 91M110.61 100.5L114.61 103.5M110.61 100.5L112.61 78M110.61 100.5L95.6099 91M95.6099 91L112.61 78M95.6099 91L93.1099 76.5M112.61 78L93.1099 76.5M112.61 78L95.6099 70L93.1099 76.5" stroke="#230000"/>
<path d="M119.61 215.5L126.11 198H136.11L146.11 215.5L140.61 224.5H133.61L126.11 223.5L119.61 215.5Z" fill="#403535" stroke="black"/>
<path d="M126.11 198L108.11 170.5L124.61 161L135.11 152L135.36 156L135.61 160L133.61 164.5L136.11 198H126.11Z" fill="#403535"/>
<path d="M126.11 198L108.11 170.5L124.61 161M126.11 198H136.11M126.11 198C126.11 196.4 125.11 172.667 124.61 161M124.61 161L135.11 152L135.36 156M124.61 161L135.36 156M124.61 161L135.61 160M124.61 161L133.61 164.5M124.61 161L136.11 198M136.11 198L133.61 164.5M135.61 160L133.61 164.5M135.61 160L135.36 156" stroke="black"/>
<path d="M9.60986 110.5L15.6099 106L19.1099 96.5V73.5H27.6099L33.6099 81.5L41.6099 99.5L43.1099 109.5C40.4432 113.833 35.1099 122.6 35.1099 123C35.1099 123.4 21.7765 122.167 15.1099 121.5L10.6099 112.5L9.60986 110.5Z" fill="#251414"/>
<path d="M9.60986 110.5L43.1099 109.5M9.60986 110.5L15.6099 106M9.60986 110.5L10.6099 112.5M43.1099 109.5L15.6099 106M43.1099 109.5L19.1099 96.5M43.1099 109.5L41.6099 99.5M43.1099 109.5L10.6099 112.5M43.1099 109.5C40.4432 113.833 35.1099 122.6 35.1099 123C35.1099 123.4 21.7765 122.167 15.1099 121.5L10.6099 112.5M15.6099 106L19.1099 96.5M19.1099 96.5L41.6099 99.5M19.1099 96.5L33.6099 81.5M19.1099 96.5C19.1099 95.3 19.1099 80.6667 19.1099 73.5H27.6099M19.1099 96.5L27.6099 73.5M41.6099 99.5L33.6099 81.5M33.6099 81.5L27.6099 73.5" stroke="#230000"/>
<path d="M34.1099 147L30.1099 154L26.6099 169L6.60986 160.5L9.60986 145.5L7.60986 143.5L13.6099 129.5L12.6099 127V123L15.6099 122L35.6099 123L34.1099 128L30.1099 129.5L32.1099 143.5L34.1099 147Z" fill="#251414"/>
<path d="M9.60986 145.5L30.1099 154M9.60986 145.5L34.1099 147M9.60986 145.5L32.1099 143.5M9.60986 145.5L7.60986 143.5M9.60986 145.5L6.60986 160.5L26.6099 169L30.1099 154M30.1099 154L34.1099 147M34.1099 147L32.1099 143.5M7.60986 143.5H32.1099M7.60986 143.5L13.6099 129.5M32.1099 143.5L30.1099 129.5M13.6099 129.5H30.1099M13.6099 129.5L12.6099 127M30.1099 129.5L15.6099 122M30.1099 129.5L12.6099 123M30.1099 129.5L12.6099 127M30.1099 129.5L34.1099 128M12.6099 127V123M12.6099 123L15.6099 122M15.6099 122L34.1099 128M15.6099 122L35.6099 123L34.1099 128" stroke="#230000"/>
<path d="M7.60986 224.5L2.60986 219.5V216L5.60986 200.5H17.6099L23.6099 217.5L22.1099 224.5L15.1099 227.5L12.6099 224.5H7.60986Z" fill="#403535" stroke="black"/>
<path d="M5.60986 200.5L4.10986 164L1.10986 159.5V155.25V151L7.60986 156L27.1099 167.5L25.6099 176.5L17.6099 200.5H5.60986Z" fill="#403535"/>
<path d="M5.60986 200.5L4.10986 164M5.60986 200.5H17.6099M5.60986 200.5L7.60986 156M4.10986 164L1.10986 159.5M4.10986 164C4.10986 163.2 6.4432 158.333 7.60986 156M1.10986 159.5L7.60986 156M1.10986 159.5V155.25M7.60986 156L1.10986 151V155.25M7.60986 156L27.1099 167.5L25.6099 176.5L17.6099 200.5M7.60986 156L17.6099 200.5M7.60986 156L1.10986 155.25" stroke="black"/>
<path d="M40.8428 132.5L35.0474 122L42.7746 110.5L40.8428 98.5L33.2067 81.7005L33.1155 81.5L27.803 74H19.1099L38.428 64V60.5L47.1099 55L82.6099 85L92.036 77.5L93.9678 74L104.11 87V101.5L98.3144 142.5L40.8428 132.5Z" fill="#251414"/>
<path d="M40.8428 132.5L35.0474 122M40.8428 132.5L98.3144 142.5L104.11 101.5M40.8428 132.5L104.11 101.5M35.0474 122L42.7746 110.5M35.0474 122L104.11 101.5M42.7746 110.5L40.8428 98.5M42.7746 110.5L82.6099 85M40.8428 98.5C41.6155 98.5 69.4091 88.8333 82.6099 85M40.8428 98.5L33.2067 81.7005M33.1155 81.5L27.803 74M33.1155 81.5L33.2067 81.7005M33.1155 81.5L38.428 64M27.803 74H19.1099L38.428 64M27.803 74L38.428 64M38.428 64V60.5L47.1099 55M47.1099 55L82.6099 85M47.1099 55C43.4072 62.6667 34.6792 79.5401 33.2067 81.7005M82.6099 85L92.036 77.5M82.6099 85L104.11 101.5M92.036 77.5L93.9678 74L104.11 87M92.036 77.5L104.11 87M104.11 87V101.5" stroke="#230000"/>
<path d="M36.9792 169L38.428 160L35.0474 150L40.8428 132.5L98.3144 142.5L96.3826 148L98.3144 150V160L104.11 170L36.9792 169Z" fill="#251414"/>
<path d="M36.9792 169L38.428 160M36.9792 169L104.11 170L98.3144 160M36.9792 169L98.3144 160M36.9792 169L98.3144 150M38.428 160L35.0474 150M38.428 160L98.3144 150M35.0474 150L40.8428 132.5L98.3144 142.5M35.0474 150L98.3144 142.5M35.0474 150L96.3826 148M98.3144 142.5L96.3826 148M98.3144 160V150M98.3144 150L96.3826 148" stroke="#230000"/>
<g filter="url(#filter3_d_6_24)">
<path d="M38.1099 165L43.6099 157.5L51.6099 145L58.6099 133L61.6099 129.5L61.8507 129.079L66.6099 120.75L44.1099 85.5L30.1099 69L37.1099 65L52.6099 89L71.6099 112L88.1099 81L92.1099 82L79.6099 112.5L68.1099 130L62.6099 135L55.6099 144.5L48.1099 158.5L43.1099 166L38.1099 165Z" fill="#100F0F"/>
<path d="M38.1099 165L43.6099 157.5M38.1099 165L43.1099 166L48.1099 158.5M38.1099 165L48.1099 158.5M43.6099 157.5L51.6099 145M43.6099 157.5L55.6099 144.5M51.6099 145L58.6099 133M51.6099 145L62.6099 135M58.6099 133L61.6099 129.5L66.6099 120.75M58.6099 133L68.1099 130M71.6099 112L88.1099 81L92.1099 82L79.6099 112.5M71.6099 112L66.6099 120.75M71.6099 112L52.6099 89M71.6099 112L79.6099 112.5M79.6099 112.5L68.1099 130M79.6099 112.5L61.3992 129.5M79.6099 112.5L66.6099 120.75M68.1099 130L62.6099 135M62.6099 135L55.6099 144.5M55.6099 144.5L48.1099 158.5M37.1099 65L30.1099 69L44.1099 85.5M37.1099 65L52.6099 89M37.1099 65L44.1099 85.5M66.6099 120.75L44.1099 85.5M44.1099 85.5L52.6099 89" stroke="#252323"/>
</g>
<g filter="url(#filter4_d_6_24)">
<path d="M56.6099 92.5L38.6099 60.5L44.1099 57L61.6099 91L64.1099 97.5L66.6099 112V120.5V131.5V141V144V151V157V160V163.5H59.6099V160V157V151V144V141V134.5V123.5V114L58.1099 101L56.6099 92.5Z" fill="#3C3C3C"/>
<path d="M58.1099 101L56.6099 92.5L38.6099 60.5L44.1099 57M58.1099 101L59.6099 114M58.1099 101L61.6099 91M59.6099 114V123.5M59.6099 114L64.1099 97.5M59.6099 123.5V134.5M59.6099 123.5L66.6099 112M59.6099 134.5V141M59.6099 134.5L66.6099 120.5M59.6099 141V144M59.6099 141L66.6099 131.5M59.6099 144V151M59.6099 144L66.6099 141M59.6099 151V157M59.6099 151L66.6099 144M59.6099 157V160M59.6099 157L66.6099 151M59.6099 160V163.5M59.6099 160L66.6099 157M59.6099 163.5H66.6099V160M59.6099 163.5L66.6099 160M66.6099 160V157M66.6099 157V151M66.6099 151V144M66.6099 144V141M66.6099 141V131.5M66.6099 131.5V120.5M66.6099 120.5V112M66.6099 112L64.1099 97.5M64.1099 97.5L61.6099 91M61.6099 91L44.1099 57M44.1099 57L57.1099 92.5" stroke="#251414"/>
</g>
<g filter="url(#filter5_d_6_24)">
<path d="M94.6099 74.5L98.1099 78.5L97.1099 81.5L95.1099 94.5L93.6099 104.5V107L92.1099 121.5V124V128.5V131.5V141.5V150.5H85.6099V142.5V135V133V128.5V125V121.5L87.1099 110V106.5L90.6099 91L94.6099 74.5Z" fill="#3C3C3C"/>
<path d="M94.6099 74.5L98.1099 78.5L97.1099 81.5M94.6099 74.5L90.6099 91M94.6099 74.5L97.1099 81.5M97.1099 81.5L95.1099 94.5M95.1099 94.5L93.6099 104.5M95.1099 94.5L90.6099 91M93.6099 104.5V107M93.6099 104.5L87.1099 106.5M93.6099 107L92.1099 121.5M93.6099 107L87.1099 110M92.1099 121.5V124M92.1099 121.5H85.6099M92.1099 124V128.5M92.1099 124L85.6099 125M92.1099 128.5V131.5M92.1099 128.5H85.6099M92.1099 131.5V141.5M92.1099 131.5L85.6099 133M92.1099 141.5V150.5M92.1099 141.5L85.6099 135M92.1099 150.5H85.6099V142.5M92.1099 150.5L85.6099 142.5M85.6099 142.5V135M85.6099 135V133M85.6099 133V128.5M85.6099 128.5V125M85.6099 125V121.5M85.6099 121.5L87.1099 110M87.1099 110V106.5M87.1099 106.5L90.6099 91" stroke="#251414"/>
</g>
<path d="M58.1099 81L38.6099 60.5L47.1099 55L82.6099 85L92.6099 77.5L95.6099 70L101.61 73L99.6099 80.5L90.1099 90.5L80.1099 91L69.1099 86L58.1099 81Z" fill="#3C3C3C"/>
<path d="M58.1099 81L38.6099 60.5L47.1099 55M58.1099 81L69.1099 86M58.1099 81L47.1099 55M69.1099 86L80.1099 91M69.1099 86L47.1099 55M80.1099 91L90.1099 90.5M80.1099 91L82.6099 85M90.1099 90.5L99.6099 80.5M90.1099 90.5L92.6099 77.5M99.6099 80.5L101.61 73L95.6099 70L92.6099 77.5M99.6099 80.5L92.6099 77.5M92.6099 77.5L82.6099 85M82.6099 85L47.1099 55" stroke="#251414"/>
<path d="M40.6099 53.8776H44.6099L47.0589 54.8776L47.1099 55L38.1099 60.5V63.5L33.1099 66L32.6099 62.5V60.5L35.1099 57.8776L38.6099 54.8776L40.6099 53.8776Z" fill="#3C3C3C"/>
<path d="M40.6099 53.8776H44.6099L47.0589 54.8776M40.6099 53.8776L38.6099 54.8776M40.6099 53.8776L47.0589 54.8776M38.6099 54.8776L35.1099 57.8776M38.6099 54.8776L47.0589 54.8776M35.1099 57.8776L32.6099 60.5M35.1099 57.8776L38.1099 60.5M32.6099 60.5V62.5M32.6099 60.5L38.1099 60.5M32.6099 62.5L33.1099 66L38.1099 63.5M32.6099 62.5L38.1099 63.5M38.1099 63.5V60.5M38.1099 60.5L47.1099 55L47.0589 54.8776" stroke="#251414"/>
<g filter="url(#filter6_d_6_24)">
<path d="M34.1099 173C34.1099 172.2 35.1099 170 35.6099 169H37.1099L37.6099 165L75.1099 165.5H101.61L104.11 170V173L76.1099 175L42.6099 173H38.3599H34.1099Z" fill="#3C3C3C"/>
<path d="M35.6099 169C35.1099 170 34.1099 172.2 34.1099 173H38.3599M35.6099 169H37.1099M35.6099 169L38.3599 173M37.1099 169L37.6099 165M37.1099 169L42.6099 173M37.6099 165L76.1099 175M37.6099 165L75.1099 165.5M101.61 165.5L104.11 170M101.61 165.5L76.1099 175M101.61 165.5H75.1099M104.11 170V173L76.1099 175M104.11 170L76.1099 175M42.6099 173H38.3599M42.6099 173L76.1099 175M76.1099 175L75.1099 165.5" stroke="#251414"/>
<path d="M49.1099 174.5H47.1099V164H49.6099L49.1099 174.5Z" fill="#1F1F1F"/>
<path d="M47.1099 174.5H49.1099L49.6099 164M47.1099 174.5V164H49.6099M47.1099 174.5L49.6099 164" stroke="#251414"/>
<path d="M53.1099 174.5H51.1099V164H53.6099L53.1099 174.5Z" fill="#1F1F1F"/>
<path d="M53.1099 174.5H51.1099V164M53.1099 174.5L53.6099 164H51.1099M53.1099 174.5L51.1099 164" stroke="#251414"/>
<path d="M45.1099 174.5H43.1099V164H45.6099L45.1099 174.5Z" fill="#1F1F1F"/>
<path d="M43.1099 174.5H45.1099L45.6099 164M43.1099 174.5V164H45.6099M43.1099 174.5C43.1099 174.1 44.7765 167.333 45.6099 164" stroke="#251414"/>
<path d="M97.1099 175L85.1099 175.5L83.2167 170.531L81.1099 165L94.6099 164.5L95.8599 169.75L97.1099 175Z" fill="#291E1E"/>
<path d="M85.1099 175.5L97.1099 175L95.8599 169.75M85.1099 175.5L81.1099 165M85.1099 175.5L90.1099 172.5M81.1099 165L94.6099 164.5M81.1099 165L89.1099 170L94.6099 164.5M94.6099 164.5L95.8599 169.75M95.8599 169.75L90.1099 172.5M90.1099 172.5L83.1099 170.5" stroke="#251414"/>
<path d="M76.1099 175L71.6099 165.5L73.1099 165.5L77.6099 165.5L78.6099 165.5L76.1099 175Z" fill="#281E1E"/>
</g>
<defs>
<filter id="filter0_i_6_24" x="58.9438" y="18.3025" width="41.6758" height="61.213" filterUnits="userSpaceOnUse" color-interpolation-filters="sRGB">
<feFlood flood-opacity="0" result="BackgroundImageFix"/>
<feBlend mode="normal" in="SourceGraphic" in2="BackgroundImageFix" result="shape"/>
<feColorMatrix in="SourceAlpha" type="matrix" values="0 0 0 0 0 0 0 0 0 0 0 0 0 0 0 0 0 0 127 0" result="hardAlpha"/>
<feOffset dy="8"/>
<feGaussianBlur stdDeviation="2.2"/>
<feComposite in2="hardAlpha" operator="arithmetic" k2="-1" k3="1"/>
<feColorMatrix type="matrix" values="0 0 0 0 1 0 0 0 0 0 0 0 0 0 0 0 0 0 0.25 0"/>
<feBlend mode="normal" in2="shape" result="effect1_innerShadow_6_24"/>
</filter>
<filter id="filter1_di_6_24" x="63.1099" y="15.4783" width="39.5267" height="51.886" filterUnits="userSpaceOnUse" color-interpolation-filters="sRGB">
<feFlood flood-opacity="0" result="BackgroundImageFix"/>
<feColorMatrix in="SourceAlpha" type="matrix" values="0 0 0 0 0 0 0 0 0 0 0 0 0 0 0 0 0 0 127 0" result="hardAlpha"/>
<feOffset dy="1"/>
<feGaussianBlur stdDeviation="2"/>
<feComposite in2="hardAlpha" operator="out"/>
<feColorMatrix type="matrix" values="0 0 0 0 1 0 0 0 0 1 0 0 0 0 1 0 0 0 1 0"/>
<feBlend mode="normal" in2="BackgroundImageFix" result="effect1_dropShadow_6_24"/>
<feBlend mode="normal" in="SourceGraphic" in2="effect1_dropShadow_6_24" result="shape"/>
<feColorMatrix in="SourceAlpha" type="matrix" values="0 0 0 0 0 0 0 0 0 0 0 0 0 0 0 0 0 0 127 0" result="hardAlpha"/>
<feOffset dx="3" dy="10"/>
<feGaussianBlur stdDeviation="2.65"/>
<feComposite in2="hardAlpha" operator="arithmetic" k2="-1" k3="1"/>
<feColorMatrix type="matrix" values="0 0 0 0 0 0 0 0 0 0 0 0 0 0 0 0 0 0 0.25 0"/>
<feBlend mode="normal" in2="shape" result="effect2_innerShadow_6_24"/>
</filter>
<filter id="filter2_dd_6_24" x="68.8129" y="31.1095" width="33.266" height="16.3177" filterUnits="userSpaceOnUse" color-interpolation-filters="sRGB">
<feFlood flood-opacity="0" result="BackgroundImageFix"/>
<feColorMatrix in="SourceAlpha" type="matrix" values="0 0 0 0 0 0 0 0 0 0 0 0 0 0 0 0 0 0 127 0" result="hardAlpha"/>
<feOffset dy="4"/>
<feGaussianBlur stdDeviation="2"/>
<feComposite in2="hardAlpha" operator="out"/>
<feColorMatrix type="matrix" values="0 0 0 0 0 0 0 0 0 0 0 0 0 0 0 0 0 0 0.25 0"/>
<feBlend mode="normal" in2="BackgroundImageFix" result="effect1_dropShadow_6_24"/>
<feColorMatrix in="SourceAlpha" type="matrix" values="0 0 0 0 0 0 0 0 0 0 0 0 0 0 0 0 0 0 127 0" result="hardAlpha"/>
<feOffset dy="4"/>
<feGaussianBlur stdDeviation="2"/>
<feComposite in2="hardAlpha" operator="out"/>
<feColorMatrix type="matrix" values="0 0 0 0 0 0 0 0 0 0 0 0 0 0 0 0 0 0 0.25 0"/>
<feBlend mode="normal" in2="effect1_dropShadow_6_24" result="effect2_dropShadow_6_24"/>
<feBlend mode="normal" in="SourceGraphic" in2="effect2_dropShadow_6_24" result="shape"/>
</filter>
<filter id="filter3_d_6_24" x="25.3392" y="64.3309" width="71.4524" height="110.225" filterUnits="userSpaceOnUse" color-interpolation-filters="sRGB">
<feFlood flood-opacity="0" result="BackgroundImageFix"/>
<feColorMatrix in="SourceAlpha" type="matrix" values="0 0 0 0 0 0 0 0 0 0 0 0 0 0 0 0 0 0 127 0" result="hardAlpha"/>
<feOffset dy="4"/>
<feGaussianBlur stdDeviation="2"/>
<feComposite in2="hardAlpha" operator="out"/>
<feColorMatrix type="matrix" values="0 0 0 0 0 0 0 0 0 0 0 0 0 0 0 0 0 0 0.25 0"/>
<feBlend mode="normal" in2="BackgroundImageFix" result="effect1_dropShadow_6_24"/>
<feBlend mode="normal" in="SourceGraphic" in2="effect1_dropShadow_6_24" result="shape"/>
</filter>
<filter id="filter4_d_6_24" x="33.9419" y="56.284" width="37.168" height="115.716" filterUnits="userSpaceOnUse" color-interpolation-filters="sRGB">
<feFlood flood-opacity="0" result="BackgroundImageFix"/>
<feColorMatrix in="SourceAlpha" type="matrix" values="0 0 0 0 0 0 0 0 0 0 0 0 0 0 0 0 0 0 127 0" result="hardAlpha"/>
<feOffset dy="4"/>
<feGaussianBlur stdDeviation="2"/>
<feComposite in2="hardAlpha" operator="out"/>
<feColorMatrix type="matrix" values="0 0 0 0 0 0 0 0 0 0 0 0 0 0 0 0 0 0 0.25 0"/>
<feBlend mode="normal" in2="BackgroundImageFix" result="effect1_dropShadow_6_24"/>
<feBlend mode="normal" in="SourceGraphic" in2="effect1_dropShadow_6_24" result="shape"/>
</filter>
<filter id="filter5_d_6_24" x="81.1099" y="73.445" width="21.5649" height="85.555" filterUnits="userSpaceOnUse" color-interpolation-filters="sRGB">
<feFlood flood-opacity="0" result="BackgroundImageFix"/>
<feColorMatrix in="SourceAlpha" type="matrix" values="0 0 0 0 0 0 0 0 0 0 0 0 0 0 0 0 0 0 127 0" result="hardAlpha"/>
<feOffset dy="4"/>
<feGaussianBlur stdDeviation="2"/>
<feComposite in2="hardAlpha" operator="out"/>
<feColorMatrix type="matrix" values="0 0 0 0 0 0 0 0 0 0 0 0 0 0 0 0 0 0 0.25 0"/>
<feBlend mode="normal" in2="BackgroundImageFix" result="effect1_dropShadow_6_24"/>
<feBlend mode="normal" in="SourceGraphic" in2="effect1_dropShadow_6_24" result="shape"/>
</filter>
<filter id="filter6_d_6_24" x="29.6099" y="163.5" width="79" height="20.5146" filterUnits="userSpaceOnUse" color-interpolation-filters="sRGB">
<feFlood flood-opacity="0" result="BackgroundImageFix"/>
<feColorMatrix in="SourceAlpha" type="matrix" values="0 0 0 0 0 0 0 0 0 0 0 0 0 0 0 0 0 0 127 0" result="hardAlpha"/>
<feOffset dy="4"/>
<feGaussianBlur stdDeviation="2"/>
<feComposite in2="hardAlpha" operator="out"/>
<feColorMatrix type="matrix" values="0 0 0 0 0 0 0 0 0 0 0 0 0 0 0 0 0 0 0.25 0"/>
<feBlend mode="normal" in2="BackgroundImageFix" result="effect1_dropShadow_6_24"/>
<feBlend mode="normal" in="SourceGraphic" in2="effect1_dropShadow_6_24" result="shape"/>
</filter>
<linearGradient id="paint0_linear_6_24" x1="85.5328" y1="31.1544" x2="86.4878" y2="38.9487" gradientUnits="userSpaceOnUse">
<stop stop-opacity="0.1"/>
<stop offset="1" stop-color="#FF0000" stop-opacity="0"/>
<stop offset="1" stop-color="#FF0000" stop-opacity="0"/>
</linearGradient>
<linearGradient id="paint1_linear_6_24" x1="85.5328" y1="31.1544" x2="86.4878" y2="38.9487" gradientUnits="userSpaceOnUse">
<stop stop-opacity="0.1"/>
<stop offset="1" stop-color="#FF0000" stop-opacity="0"/>
<stop offset="1" stop-color="#FF0000" stop-opacity="0"/>
</linearGradient>
</defs>
</svg>
