<svg width="147" height="372" viewBox="0 0 147 372" fill="none" xmlns="http://www.w3.org/2000/svg">
<g filter="url(#filter0_i_20_111)">
<path d="M57.6702 34.5L61.2695 57.5L67.9539 69.5H82.8652L90.578 56.5L93.6631 35L75.1524 19.5L57.6702 34.5Z" fill="#251414"/>
</g>
<path d="M57.6702 34.5L61.2695 57.5L67.9539 69.5H82.8652L90.578 56.5L93.6631 35L75.1524 19.5L57.6702 34.5Z" stroke="#230000"/>
<g style="mix-blend-mode:overlay" filter="url(#filter1_di_20_111)">
<path d="M88.5213 52L80.8085 63H71.039L63.3262 52L59.7269 47L60.2411 44L59.7269 39.5L61.2695 35.5L61.7837 29.5L68.4681 25L74.6383 19.5L83.3794 25L90.0638 29.5L90.578 35.5L92.1205 39.5L91.6064 44L92.1205 47L88.5213 52Z" fill="#251414"/>
<path d="M88.5213 52L80.8085 63H71.039L63.3262 52L59.7269 47L60.2411 44L59.7269 39.5L61.2695 35.5L61.7837 29.5L68.4681 25L74.6383 19.5L83.3794 25L90.0638 29.5L90.578 35.5L92.1205 39.5L91.6064 44L92.1205 47L88.5213 52Z" stroke="#230000"/>
</g>
<g filter="url(#filter2_dd_20_111)">
<path d="M70.2239 39.721C68.6844 41.2109 65.2554 37.2906 65.2554 37.2906L62.812 34L66.4113 34.1304L70.8695 36.6217C70.8695 36.6217 71.1241 38.8499 70.2239 39.721Z" fill="#B20000" shape-rendering="crispEdges"/>
<path d="M81.454 39.721C82.9936 41.2109 86.4225 37.2906 86.4225 37.2906L88.5212 34.1304L85.2666 34.1304L80.8085 36.6217C80.8085 36.6217 80.5538 38.8499 81.454 39.721Z" fill="#B20000" shape-rendering="crispEdges"/>
<path d="M70.2239 39.721C68.6844 41.2109 65.2554 37.2906 65.2554 37.2906L62.812 34L66.4113 34.1304L70.8695 36.6217C70.8695 36.6217 71.1241 38.8499 70.2239 39.721Z" stroke="url(#paint0_linear_20_111)" shape-rendering="crispEdges"/>
<path d="M81.454 39.721C82.9936 41.2109 86.4225 37.2906 86.4225 37.2906L88.5212 34.1304L85.2666 34.1304L80.8085 36.6217C80.8085 36.6217 80.5538 38.8499 81.454 39.721Z" stroke="url(#paint1_linear_20_111)" shape-rendering="crispEdges"/>
</g>
<path fill-rule="evenodd" clip-rule="evenodd" d="M80.2943 1H65.3829L54.5851 15.5L52.5283 40L51.5 44.5L49.9574 49.5L65.3829 78H86.4645L102.404 49.5L100.347 44.5L98.8049 40L93.6631 15.5L80.2943 1ZM75.1524 19.5L93.6631 35L90.578 56.5L83.3794 69.5H67.4397L60.7553 56.5C61.2409 56.0278 57.6702 35 57.6702 35C57.6702 35 71.0093 24.4848 75.1524 19.5Z" fill="#251414"/>
<path d="M60.7553 56.5L67.4397 69.5M60.7553 56.5L49.9574 49.5M60.7553 56.5L51.5 44.5M60.7553 56.5L52.5283 40M60.7553 56.5C61.2409 56.0278 57.6702 35 57.6702 35C57.6702 35 71.0093 24.4848 75.1524 19.5M75.1524 19.5L93.6631 35L90.578 56.5M75.1524 19.5L54.5851 15.5M75.1524 19.5L65.3829 1M75.1524 19.5L80.2943 1M75.1524 19.5L93.6631 15.5M80.2943 1H65.3829M80.2943 1L93.6631 15.5M65.3829 1L54.5851 15.5M54.5851 15.5L52.5283 40M52.5283 40L51.5 44.5M51.5 44.5L49.9574 49.5M49.9574 49.5L65.3829 78M65.3829 78L67.4397 69.5M65.3829 78H86.4645M83.3794 69.5H67.4397M83.3794 69.5L90.578 56.5M83.3794 69.5L86.4645 78M90.578 56.5L102.404 49.5M90.578 56.5L100.347 44.5M90.578 56.5L98.8049 40M93.6631 15.5L98.8049 40M98.8049 40L100.347 44.5M100.347 44.5L102.404 49.5M102.404 49.5L86.4645 78" stroke="#230000"/>
<path d="M26.8191 274.984L28.8542 268.216V253.552L31.9068 234.376L29.8717 227.608L30.8893 203.92L33.4331 187L74.6437 187.564L75.1524 210.688L72.0998 212.38L70.0647 216.892L68.0296 250.732L62.9419 255.244V274.984L65.9945 277.24L26.8191 274.984Z" fill="#251414"/>
<path d="M28.8542 268.216L26.8191 274.984L65.9945 277.24L62.9419 274.984M28.8542 268.216V253.552M28.8542 268.216L62.9419 274.984M28.8542 253.552L31.9068 234.376M28.8542 253.552L62.9419 255.244M31.9068 234.376L29.8717 227.608M31.9068 234.376L68.0296 250.732M29.8717 227.608L30.8893 203.92M29.8717 227.608L70.0647 216.892M30.8893 203.92L33.4331 187M30.8893 203.92L72.0998 212.38M33.4331 187L74.6437 187.564L75.1524 210.688L72.0998 212.38M33.4331 187L72.0998 212.38M72.0998 212.38L70.0647 216.892M70.0647 216.892L68.0296 250.732M68.0296 250.732L62.9419 255.244M62.9419 255.244V274.984" stroke="#230000"/>
<path d="M31.9068 280.624L26.8191 274.984L65.9945 277.24L62.9419 280.624L57.497 310.736L52.918 335.552L50.8829 339.5H41.2163L36.8917 315.812L31.9068 280.624Z" fill="#251414"/>
<path d="M41.2163 339.5H50.8829L52.918 335.552M41.2163 339.5L52.918 335.552M41.2163 339.5L36.8917 315.812M31.9068 280.624L26.8191 274.984L65.9945 277.24M31.9068 280.624L36.8917 315.812M31.9068 280.624H62.9419M62.9419 274.984L65.9945 277.24M65.9945 277.24L62.9419 280.624M62.9419 280.624L57.497 310.736M57.497 310.736L52.918 335.552M57.497 310.736L36.8917 315.812M52.918 335.552L36.8917 315.812" stroke="#230000"/>
<path d="M56.1276 358.5H52.0141L32.9893 370.5L24.7623 366.5L41.7304 344.5L38.1311 331L56.1276 330L52.0141 343L55.0992 348L56.1276 350.5V358.5Z" fill="#252020"/>
<path d="M52.0141 358.5H56.1276V350.5M52.0141 358.5L32.9893 370.5M52.0141 358.5C52.4255 358.1 54.9278 353 56.1276 350.5M52.0141 358.5L55.0992 348M52.0141 358.5C52.1316 358.1 52.0631 348 52.0141 343M32.9893 370.5L24.7623 366.5L41.7304 344.5M32.9893 370.5L52.0141 343M41.7304 344.5L38.1311 331M41.7304 344.5L46.8723 343.75M38.1311 331L56.1276 330M38.1311 331L46.8723 343.75M56.1276 330L52.0141 343M56.1276 330L46.8723 343.75M52.0141 343L55.0992 348M52.0141 343L46.8723 343.75M56.1276 350.5L55.0992 348" stroke="black"/>
<path d="M122.457 274.984L120.422 268.216V253.552L117.37 234.376L119.405 227.608L118.387 203.92L115.843 187L74.6328 187.564L74.1241 210.688L77.1767 212.38L79.2118 216.892L81.2469 250.732L86.3346 255.244V274.984L83.282 277.24L122.457 274.984Z" fill="#251414"/>
<path d="M120.422 268.216L122.457 274.984L83.282 277.24L86.3346 274.984M120.422 268.216V253.552M120.422 268.216L86.3346 274.984M120.422 253.552L117.37 234.376M120.422 253.552L86.3346 255.244M117.37 234.376L119.405 227.608M117.37 234.376L81.2469 250.732M119.405 227.608L118.387 203.92M119.405 227.608L79.2118 216.892M118.387 203.92L115.843 187M118.387 203.92L77.1767 212.38M115.843 187L74.6328 187.564L74.1241 210.688L77.1767 212.38M115.843 187L77.1767 212.38M77.1767 212.38L79.2118 216.892M79.2118 216.892L81.2469 250.732M81.2469 250.732L86.3346 255.244M86.3346 255.244V274.984" stroke="#230000"/>
<path d="M117.37 280.624L122.457 274.984L83.282 277.24L86.3346 280.624L91.7795 310.736L96.3585 335.552L98.3936 339.5H108.06L112.385 315.812L117.37 280.624Z" fill="#251414"/>
<path d="M108.06 339.5H98.3936L96.3585 335.552M108.06 339.5L96.3585 335.552M108.06 339.5L112.385 315.812M117.37 280.624L122.457 274.984L83.282 277.24M117.37 280.624L112.385 315.812M117.37 280.624H86.3346M86.3346 274.984L83.282 277.24M83.282 277.24L86.3346 280.624M86.3346 280.624L91.7795 310.736M91.7795 310.736L96.3585 335.552M91.7795 310.736L112.385 315.812M96.3585 335.552L112.385 315.812" stroke="#230000"/>
<path d="M93.1489 358.5H97.2624L116.287 370.5L124.514 366.5L107.546 344.5L111.145 331L93.1489 330L97.2624 343L94.1773 348L93.1489 350.5V358.5Z" fill="#252020"/>
<path d="M97.2624 358.5H93.1489V350.5M97.2624 358.5L116.287 370.5M97.2624 358.5C96.851 358.1 94.3487 353 93.1489 350.5M97.2624 358.5L94.1773 348M97.2624 358.5C97.1449 358.1 97.2134 348 97.2624 343M116.287 370.5L124.514 366.5L107.546 344.5M116.287 370.5L97.2624 343M107.546 344.5L111.145 331M107.546 344.5L102.404 343.75M111.145 331L93.1489 330M111.145 331L102.404 343.75M93.1489 330L97.2624 343M93.1489 330L102.404 343.75M97.2624 343L94.1773 348M97.2624 343L102.404 343.75M93.1489 350.5L94.1773 348" stroke="black"/>
<path d="M33.5035 187.5L31.9609 184L38.1312 169H74.6382L111.145 169.5L117.83 184L115.773 187L74.6382 211L33.5035 187.5Z" fill="#251414"/>
<path d="M33.5035 187.5L31.9609 184M33.5035 187.5L74.6382 169M33.5035 187.5L74.6382 211M33.5035 187.5L115.773 187M31.9609 184L38.1312 169H74.6382M31.9609 184L74.6382 169M74.6382 169L111.145 169.5L117.83 184M74.6382 169L117.83 184M74.6382 169L115.773 187M74.6382 169V211M74.6382 211L115.773 187M115.773 187L117.83 184" stroke="#230000"/>
<path d="M137.369 111L131.199 106.5L127.599 97V74H118.858L112.688 82L104.461 100L102.918 110C105.661 114.333 111.145 123.1 111.145 123.5C111.145 123.9 124.857 122.667 131.713 122L136.34 113L137.369 111Z" fill="#251414"/>
<path d="M137.369 111L102.918 110M137.369 111L131.199 106.5M137.369 111L136.34 113M102.918 110L131.199 106.5M102.918 110L127.599 97M102.918 110L104.461 100M102.918 110L136.34 113M102.918 110C105.661 114.333 111.145 123.1 111.145 123.5C111.145 123.9 124.857 122.667 131.713 122L136.34 113M131.199 106.5L127.599 97M127.599 97L104.461 100M127.599 97L112.688 82M127.599 97C127.599 95.8 127.599 81.1667 127.599 74H118.858M127.599 97L118.858 74M104.461 100L112.688 82M112.688 82L118.858 74" stroke="#230000"/>
<path d="M112.174 147.5L116.287 154.5L119.886 169.5L140.454 161L137.369 146L139.425 144L133.255 130L134.284 127.5V123.5L131.199 122.5L110.631 123.5L112.174 128.5L116.287 130L114.23 144L112.174 147.5Z" fill="#251414"/>
<path d="M137.369 146L116.287 154.5M137.369 146L112.174 147.5M137.369 146L114.23 144M137.369 146L139.425 144M137.369 146L140.454 161L119.886 169.5L116.287 154.5M116.287 154.5L112.174 147.5M112.174 147.5L114.23 144M139.425 144H114.23M139.425 144L133.255 130M114.23 144L116.287 130M133.255 130H116.287M133.255 130L134.284 127.5M116.287 130L131.199 122.5M116.287 130L134.284 123.5M116.287 130L134.284 127.5M116.287 130L112.174 128.5M134.284 127.5V123.5M134.284 123.5L131.199 122.5M131.199 122.5L112.174 128.5M131.199 122.5L110.631 123.5L112.174 128.5" stroke="#230000"/>
<path d="M139.425 225L144.567 220V216.5L141.482 201H129.142L122.972 218L124.514 225L131.713 228L134.284 225H139.425Z" fill="#403535" stroke="black"/>
<path d="M141.482 201L143.025 164.5L146.11 160V155.75V151.5L139.425 156.5L119.372 168L120.915 177L129.142 201H141.482Z" fill="#403535"/>
<path d="M141.482 201L143.025 164.5M141.482 201H129.142M141.482 201L139.425 156.5M143.025 164.5L146.11 160M143.025 164.5C143.025 163.7 140.625 158.833 139.425 156.5M146.11 160L139.425 156.5M146.11 160V155.75M139.425 156.5L146.11 151.5V155.75M139.425 156.5L119.372 168L120.915 177L129.142 201M139.425 156.5L129.142 201M139.425 156.5L146.11 155.75" stroke="black"/>
<path d="M9.85095 110.5L16.0212 106L19.6205 96.5V73.5H28.3616L34.5318 81.5L42.7588 99.5L44.3013 109.5C41.559 113.833 36.0744 122.6 36.0744 123C36.0744 123.4 22.3628 122.167 15.507 121.5L10.8793 112.5L9.85095 110.5Z" fill="#251414"/>
<path d="M9.85095 110.5L44.3013 109.5M9.85095 110.5L16.0212 106M9.85095 110.5L10.8793 112.5M44.3013 109.5L16.0212 106M44.3013 109.5L19.6205 96.5M44.3013 109.5L42.7588 99.5M44.3013 109.5L10.8793 112.5M44.3013 109.5C41.559 113.833 36.0744 122.6 36.0744 123C36.0744 123.4 22.3628 122.167 15.507 121.5L10.8793 112.5M16.0212 106L19.6205 96.5M19.6205 96.5L42.7588 99.5M19.6205 96.5L34.5318 81.5M19.6205 96.5C19.6205 95.3 19.6205 80.6667 19.6205 73.5H28.3616M19.6205 96.5L28.3616 73.5M42.7588 99.5L34.5318 81.5M34.5318 81.5L28.3616 73.5" stroke="#230000"/>
<path d="M35.046 147L30.9325 154L27.3332 169L6.76587 160.5L9.85098 145.5L7.79424 143.5L13.9645 129.5L12.9361 127V123L16.0212 122L36.5886 123L35.046 128L30.9325 129.5L32.9893 143.5L35.046 147Z" fill="#251414"/>
<path d="M9.85098 145.5L30.9325 154M9.85098 145.5L35.046 147M9.85098 145.5L32.9893 143.5M9.85098 145.5L7.79424 143.5M9.85098 145.5L6.76587 160.5L27.3332 169L30.9325 154M30.9325 154L35.046 147M35.046 147L32.9893 143.5M7.79424 143.5H32.9893M7.79424 143.5L13.9645 129.5M32.9893 143.5L30.9325 129.5M13.9645 129.5H30.9325M13.9645 129.5L12.9361 127M30.9325 129.5L16.0212 122M30.9325 129.5L12.9361 123M30.9325 129.5L12.9361 127M30.9325 129.5L35.046 128M12.9361 127V123M12.9361 123L16.0212 122M16.0212 122L35.046 128M16.0212 122L36.5886 123L35.046 128" stroke="#230000"/>
<path d="M7.79431 224.5L2.65247 219.5V216L5.73757 200.5H18.078L24.2482 217.5L22.7057 224.5L15.5071 227.5L12.9362 224.5H7.79431Z" fill="#403535" stroke="black"/>
<path d="M5.73752 200.5L4.19497 164L1.10986 159.5V155.25V151L7.79426 156L27.8475 167.5L26.3049 176.5L18.0779 200.5H5.73752Z" fill="#403535"/>
<path d="M5.73752 200.5L4.19497 164M5.73752 200.5H18.0779M5.73752 200.5L7.79426 156M4.19497 164L1.10986 159.5M4.19497 164C4.19497 163.2 6.5945 158.333 7.79426 156M1.10986 159.5L7.79426 156M1.10986 159.5V155.25M7.79426 156L1.10986 151V155.25M7.79426 156L27.8475 167.5L26.3049 176.5L18.0779 200.5M7.79426 156L18.0779 200.5M7.79426 156L1.10986 155.25" stroke="black"/>
<path d="M34.0235 81.5L28.5603 74H19.6205L39.4867 64L34.0235 81.5Z" fill="#251414"/>
<path d="M112.688 82L118.858 74H127.599L113.716 64L112.688 82Z" fill="#251414"/>
<path d="M45.3686 121.5L43.382 132.5H108.204L106.218 121.5L74.6382 115.791L45.3686 121.5Z" fill="#251414"/>
<path d="M65.3829 78L43.9566 110.5L74.6382 115.791L102.918 110L86.4645 78H65.3829Z" fill="#251414"/>
<path d="M43.9566 110.5L45.3686 121.5L74.6382 115.791L43.9566 110.5Z" fill="#251414"/>
<path d="M106.218 121.5L102.918 110L74.6382 115.791L106.218 121.5Z" fill="#251414"/>
<path d="M102.918 110L104.461 100C104.461 100 99.3191 78 86.4645 78L102.918 110Z" fill="#251414"/>
<path d="M102.404 49C102.404 49 92.8901 66.8701 86.4645 78C99.3191 78 104.461 100 104.461 100L112.688 82L113.716 64V59.5L102.404 49Z" fill="#251414"/>
<path d="M65.3829 78L49.9574 50C46.1497 57.6667 35.6315 79.5401 34.1172 81.7005L41.97 98.5C42.7646 98.5 51.8076 81.8333 65.3829 78Z" fill="#251414"/>
<path d="M39.4867 60.5V64L34.0235 81.5L34.1172 81.7005C35.6315 79.5401 46.1497 57.6667 49.9574 50L39.4867 60.5Z" fill="#251414"/>
<path d="M41.97 98.5L43.9566 110.5L65.3829 78C51.8076 81.8333 42.7646 98.5 41.97 98.5Z" fill="#251414"/>
<path d="M45.3686 121.5L43.382 132.5H108.204L106.218 121.5M45.3686 121.5L43.9566 110.5M45.3686 121.5L74.6382 115.791M43.9566 110.5L41.97 98.5M43.9566 110.5L65.3829 78M43.9566 110.5L74.6382 115.791M41.97 98.5C42.7646 98.5 51.8076 81.8333 65.3829 78M41.97 98.5L34.1172 81.7005M34.0235 81.5L28.5603 74M34.0235 81.5L34.1172 81.7005M34.0235 81.5L39.4867 64M28.5603 74H19.6205L39.4867 64M28.5603 74L39.4867 64M39.4867 64V60.5L49.9574 50M49.9574 50L65.3829 78M49.9574 50C46.1497 57.6667 35.6315 79.5401 34.1172 81.7005M65.3829 78C65.3829 78 79.2356 78 86.4645 78M65.3829 78H86.4645M86.4645 78C92.8901 66.8701 102.404 49 102.404 49M86.4645 78C99.3191 78 104.461 100 104.461 100M86.4645 78L102.918 110M102.404 49L113.716 59.5V64M102.404 49L112.688 82M106.218 121.5L102.918 110M106.218 121.5L74.6382 115.791M102.918 110L104.461 100M102.918 110L74.6382 115.791M104.461 100L112.688 82M112.688 82L118.858 74M112.688 82L113.716 64M118.858 74H127.599L113.716 64M118.858 74L113.716 64" stroke="#230000"/>
<path d="M37.9967 169L41.2162 160L37.9967 150L41.2162 132.5H109.515L112.992 150L109.515 160L111.005 169H37.9967Z" fill="#251414"/>
<path d="M37.9967 169L41.2162 160M37.9967 169H111.005M37.9967 169L109.515 160M41.2162 160L37.9967 150M41.2162 160L111.005 169M37.9967 150L41.2162 132.5M37.9967 150C39.586 150 86.5034 138.333 109.515 132.5M41.2162 132.5L112.992 150M41.2162 132.5H109.515M111.005 169L109.515 160M109.515 160L112.992 150M112.992 150L109.515 132.5" stroke="#230000"/>
<g filter="url(#filter3_d_20_111)">
<path d="M39.6099 164.5L41.6099 160L49.6099 147.5L56.6099 135.5L59.6099 132L59.8507 131.579L64.6099 123.25L42.1099 88L27.6099 70L34.6099 66.5L50.6099 91.5L69.6099 114.5L85.1099 87L90.1099 84.5L77.6099 115L66.1099 132.5L60.6099 137.5L53.6099 147L46.1099 161L44.1099 165.5L39.6099 164.5Z" fill="#100F0F"/>
<path d="M39.6099 164.5L41.6099 160M39.6099 164.5L44.1099 165.5L46.1099 161M39.6099 164.5L46.1099 161M41.6099 160L49.6099 147.5M41.6099 160L53.6099 147M49.6099 147.5L56.6099 135.5M49.6099 147.5L60.6099 137.5M56.6099 135.5L59.6099 132L64.6099 123.25M56.6099 135.5L66.1099 132.5M69.6099 114.5L85.1099 87L90.1099 84.5L77.6099 115M69.6099 114.5L64.6099 123.25M69.6099 114.5L50.6099 91.5M69.6099 114.5L77.6099 115M77.6099 115L66.1099 132.5M77.6099 115L59.3992 132M77.6099 115L64.6099 123.25M66.1099 132.5L60.6099 137.5M60.6099 137.5L53.6099 147M53.6099 147L46.1099 161M34.6099 66.5L27.6099 70L42.1099 88M34.6099 66.5L50.6099 91.5M34.6099 66.5L42.1099 88M64.6099 123.25L42.1099 88M42.1099 88L50.6099 91.5" stroke="#252323"/>
</g>
<g filter="url(#filter4_d_20_111)">
<path d="M58.1842 92.5L39.6736 60.5L45.3296 57L63.3261 91L65.897 97.5L68.4679 112V120.5V131.5V141V144V151V157V160V163.5H61.2693V160V157V151V144V141V134.5V123.5V114L59.7268 101L58.1842 92.5Z" fill="#3C3C3C"/>
<path d="M59.7268 101L58.1842 92.5L39.6736 60.5L45.3296 57M59.7268 101L61.2693 114M59.7268 101L63.3261 91M61.2693 114V123.5M61.2693 114L65.897 97.5M61.2693 123.5V134.5M61.2693 123.5L68.4679 112M61.2693 134.5V141M61.2693 134.5L68.4679 120.5M61.2693 141V144M61.2693 141L68.4679 131.5M61.2693 144V151M61.2693 144L68.4679 141M61.2693 151V157M61.2693 151L68.4679 144M61.2693 157V160M61.2693 157L68.4679 151M61.2693 160V163.5M61.2693 160L68.4679 157M61.2693 163.5H68.4679V160M61.2693 163.5L68.4679 160M68.4679 160V157M68.4679 157V151M68.4679 151V144M68.4679 144V141M68.4679 141V131.5M68.4679 131.5V120.5M68.4679 120.5V112M68.4679 112L65.897 97.5M65.897 97.5L63.3261 91M63.3261 91L45.3296 57M45.3296 57L58.6984 92.5" stroke="#251414"/>
</g>
<g filter="url(#filter5_d_20_111)">
<path d="M94.6914 87.6667L113.202 59.5915L107.546 57L89.5495 86.3709L86.9786 91.9859L84.4077 104.512V111.854V121.357V129.563V132.155V138.202V143.385V145.977V149H91.6063V145.977V143.385V138.202V132.155V129.563V123.948V114.446V106.239L93.1488 95.0094L94.6914 87.6667Z" fill="#3C3C3C"/>
<path d="M93.1488 95.0094L94.6914 87.6667L113.202 59.5915L107.546 57M93.1488 95.0094L91.6063 106.239M93.1488 95.0094L89.5495 86.3709M91.6063 106.239V114.446M91.6063 106.239L86.9786 91.9859M91.6063 114.446V123.948M91.6063 114.446L84.4077 104.512M91.6063 123.948V129.563M91.6063 123.948L84.4077 111.854M91.6063 129.563V132.155M91.6063 129.563L84.4077 121.357M91.6063 132.155V138.202M91.6063 132.155L84.4077 129.563M91.6063 138.202V143.385M91.6063 138.202L84.4077 132.155M91.6063 143.385V145.977M91.6063 143.385L84.4077 138.202M91.6063 145.977V149M91.6063 145.977L84.4077 143.385M91.6063 149H84.4077V145.977M91.6063 149L84.4077 145.977M84.4077 145.977V143.385M84.4077 143.385V138.202M84.4077 138.202V132.155M84.4077 132.155V129.563M84.4077 129.563V121.357M84.4077 121.357V111.854M84.4077 111.854V104.512M84.4077 104.512L86.9786 91.9859M86.9786 91.9859L89.5495 86.3709M89.5495 86.3709L107.546 57M107.546 57L94.1772 87.6667" stroke="#251414"/>
</g>
<path d="M105.489 72L112.174 60.5L104.461 55L86.4644 78.5L84.4076 87.5L100.347 79.5L105.489 72Z" fill="#3C3C3C"/>
<path d="M39.6736 60.5L46.358 72L47.9005 55L39.6736 60.5Z" fill="#3C3C3C"/>
<path d="M46.358 72L51.4998 79.5L47.9005 55L46.358 72Z" fill="#3C3C3C"/>
<path d="M51.4998 79.5L67.4395 87.5L65.3828 78.5L47.9005 55L51.4998 79.5Z" fill="#3C3C3C"/>
<path d="M65.3828 78.5L67.4395 87.5H84.4076L86.4644 78.5H65.3828Z" fill="#3C3C3C"/>
<path d="M46.358 72L39.6736 60.5L47.9005 55M46.358 72L51.4998 79.5M46.358 72L47.9005 55M51.4998 79.5L67.4395 87.5M51.4998 79.5L47.9005 55M67.4395 87.5L65.3828 78.5M67.4395 87.5H84.4076M65.3828 78.5L47.9005 55M65.3828 78.5H86.4644M105.489 72L112.174 60.5L104.461 55M105.489 72L100.347 79.5M105.489 72L104.461 55M100.347 79.5L84.4076 87.5M100.347 79.5L104.461 55M84.4076 87.5L86.4644 78.5M86.4644 78.5L104.461 55" stroke="#251414"/>
<path d="M41.7304 53.8776H45.8438L48.3623 54.8776L48.4148 55L39.1594 60.5L39.1099 64L34.1099 66.5L33.5034 62.5V60.5L36.0743 57.8776L39.6736 54.8776L41.7304 53.8776Z" fill="#3C3C3C"/>
<path d="M41.7304 53.8776H45.8438L48.3623 54.8776M41.7304 53.8776L39.6736 54.8776M41.7304 53.8776L48.3623 54.8776M39.6736 54.8776L36.0743 57.8776M39.6736 54.8776L48.3623 54.8776M36.0743 57.8776L33.5034 60.5M36.0743 57.8776L39.1594 60.5M33.5034 60.5V62.5M33.5034 60.5L39.1594 60.5M33.5034 62.5L34.1099 66.5L39.1099 64M33.5034 62.5L39.1099 64M39.1099 64L39.1594 60.5M39.1594 60.5L48.4148 55L48.3623 54.8776" stroke="#251414"/>
<path d="M110.631 54H106.518L103.999 55L103.947 55.1224L113.202 60.6224V63.6224L118.344 67L118.858 62.6224V60.6224L116.287 58L112.688 55L110.631 54Z" fill="#3C3C3C"/>
<path d="M110.631 54H106.518L103.999 55M110.631 54L112.688 55M110.631 54L103.999 55M112.688 55L116.287 58M112.688 55L103.999 55M116.287 58L118.858 60.6224M116.287 58L113.202 60.6224M118.858 60.6224V62.6224M118.858 60.6224L113.202 60.6224M118.858 62.6224L118.344 67L113.202 63.6224M118.858 62.6224L113.202 63.6224M113.202 63.6224V60.6224M113.202 60.6224L103.947 55.1224L103.999 55" stroke="#251414"/>
<g filter="url(#filter6_d_20_111)">
<path d="M38.1312 169.5C37.617 170.5 36.5886 172.7 36.5886 173.5L39.4166 173L38.1312 169.5Z" fill="#3C3C3C"/>
<path d="M38.1312 169V169.5L39.4166 173H43.7872L38.1312 169Z" fill="#3C3C3C"/>
<path d="M39.4166 165L38.1312 169L43.7872 173H74.6383L39.4166 165Z" fill="#3C3C3C"/>
<path d="M39.4166 165L74.6383 173V165H39.4166Z" fill="#3C3C3C"/>
<path d="M110.888 170V169.5L105.232 173.5H109.603L110.888 170Z" fill="#3C3C3C"/>
<path d="M112.431 174C112.431 173.2 111.402 171 110.888 170L109.603 173.5L112.431 174Z" fill="#3C3C3C"/>
<path d="M110.888 169.5L110.374 165.5L74.6383 173L105.232 173.5L110.888 169.5Z" fill="#3C3C3C"/>
<path d="M74.6383 165V173L110.374 165.5L74.6383 165Z" fill="#3C3C3C"/>
<path d="M38.1312 169.5C37.617 170.5 36.5886 172.7 36.5886 173.5L39.4166 173M38.1312 169.5V169M38.1312 169.5L39.4166 173M38.1312 169L39.4166 165M38.1312 169L43.7872 173M39.4166 165L74.6383 173M39.4166 165H74.6383M43.7872 173H39.4166M43.7872 173H74.6383M74.6383 173V165M74.6383 173L105.232 173.5M74.6383 173L110.374 165.5M74.6383 165L110.374 165.5M110.888 170C111.402 171 112.431 173.2 112.431 174L109.603 173.5M110.888 170V169.5M110.888 170L109.603 173.5M110.888 169.5L110.374 165.5M110.888 169.5L105.232 173.5M105.232 173.5H109.603" stroke="#251414"/>
<path d="M50.4717 174.5H48.4149V164H50.9858L50.4717 174.5Z" fill="#1F1F1F"/>
<path d="M48.4149 174.5H50.4717L50.9858 164M48.4149 174.5V164H50.9858M48.4149 174.5L50.9858 164" stroke="#251414"/>
<path d="M54.5851 174.5H52.5283V164H55.0992L54.5851 174.5Z" fill="#1F1F1F"/>
<path d="M54.5851 174.5H52.5283V164M54.5851 174.5L55.0992 164H52.5283M54.5851 174.5L52.5283 164" stroke="#251414"/>
<path d="M46.3581 174.5H44.3014V164H46.8723L46.3581 174.5Z" fill="#1F1F1F"/>
<path d="M44.3014 174.5H46.3581L46.8723 164M44.3014 174.5V164H46.8723M44.3014 174.5C44.3014 174.1 46.0153 167.333 46.8723 164" stroke="#251414"/>
<path d="M101.376 175L85.9503 175.5L86.2074 170L86.9787 165L101.376 164.5V169.5V175Z" fill="#291E1E"/>
<path d="M85.9503 175.5L101.376 175V169.5M85.9503 175.5L94.1773 172.5M85.9503 175.5L86.2074 170M86.9787 165L101.376 164.5M86.9787 165L94.1773 169.5L101.376 164.5M86.9787 165L86.2074 170M101.376 164.5V169.5M101.376 169.5L94.1773 172.5M94.1773 172.5L86.2074 170" stroke="#251414"/>
<path d="M74.6382 173L70.2668 165.343L71.8111 165.348L77.2092 165.371L78.5027 165.371L74.6382 173Z" fill="#281E1E"/>
</g>
<defs>
<filter id="filter0_i_20_111" x="57.1331" y="18.8446" width="37.0645" height="55.5554" filterUnits="userSpaceOnUse" color-interpolation-filters="sRGB">
<feFlood flood-opacity="0" result="BackgroundImageFix"/>
<feBlend mode="normal" in="SourceGraphic" in2="BackgroundImageFix" result="shape"/>
<feColorMatrix in="SourceAlpha" type="matrix" values="0 0 0 0 0 0 0 0 0 0 0 0 0 0 0 0 0 0 127 0" result="hardAlpha"/>
<feOffset dy="8"/>
<feGaussianBlur stdDeviation="2.2"/>
<feComposite in2="hardAlpha" operator="arithmetic" k2="-1" k3="1"/>
<feColorMatrix type="matrix" values="0 0 0 0 1 0 0 0 0 0 0 0 0 0 0 0 0 0 0.25 0"/>
<feBlend mode="normal" in2="shape" result="effect1_innerShadow_20_111"/>
</filter>
<filter id="filter1_di_20_111" x="55.1987" y="15.8765" width="41.4501" height="52.9235" filterUnits="userSpaceOnUse" color-interpolation-filters="sRGB">
<feFlood flood-opacity="0" result="BackgroundImageFix"/>
<feColorMatrix in="SourceAlpha" type="matrix" values="0 0 0 0 0 0 0 0 0 0 0 0 0 0 0 0 0 0 127 0" result="hardAlpha"/>
<feOffset dy="1"/>
<feGaussianBlur stdDeviation="2"/>
<feComposite in2="hardAlpha" operator="out"/>
<feColorMatrix type="matrix" values="0 0 0 0 1 0 0 0 0 1 0 0 0 0 1 0 0 0 1 0"/>
<feBlend mode="normal" in2="BackgroundImageFix" result="effect1_dropShadow_20_111"/>
<feBlend mode="normal" in="SourceGraphic" in2="effect1_dropShadow_20_111" result="shape"/>
<feColorMatrix in="SourceAlpha" type="matrix" values="0 0 0 0 0 0 0 0 0 0 0 0 0 0 0 0 0 0 127 0" result="hardAlpha"/>
<feOffset dx="3" dy="10"/>
<feGaussianBlur stdDeviation="2.65"/>
<feComposite in2="hardAlpha" operator="arithmetic" k2="-1" k3="1"/>
<feColorMatrix type="matrix" values="0 0 0 0 0 0 0 0 0 0 0 0 0 0 0 0 0 0 0.25 0"/>
<feBlend mode="normal" in2="shape" result="effect2_innerShadow_20_111"/>
</filter>
<filter id="filter2_dd_20_111" x="57.7925" y="33.4633" width="35.6627" height="15.0947" filterUnits="userSpaceOnUse" color-interpolation-filters="sRGB">
<feFlood flood-opacity="0" result="BackgroundImageFix"/>
<feColorMatrix in="SourceAlpha" type="matrix" values="0 0 0 0 0 0 0 0 0 0 0 0 0 0 0 0 0 0 127 0" result="hardAlpha"/>
<feOffset dy="4"/>
<feGaussianBlur stdDeviation="2"/>
<feComposite in2="hardAlpha" operator="out"/>
<feColorMatrix type="matrix" values="0 0 0 0 0 0 0 0 0 0 0 0 0 0 0 0 0 0 0.25 0"/>
<feBlend mode="normal" in2="BackgroundImageFix" result="effect1_dropShadow_20_111"/>
<feColorMatrix in="SourceAlpha" type="matrix" values="0 0 0 0 0 0 0 0 0 0 0 0 0 0 0 0 0 0 127 0" result="hardAlpha"/>
<feOffset dy="4"/>
<feGaussianBlur stdDeviation="2"/>
<feComposite in2="hardAlpha" operator="out"/>
<feColorMatrix type="matrix" values="0 0 0 0 0 0 0 0 0 0 0 0 0 0 0 0 0 0 0.25 0"/>
<feBlend mode="normal" in2="effect1_dropShadow_20_111" result="effect2_dropShadow_20_111"/>
<feBlend mode="normal" in="SourceGraphic" in2="effect2_dropShadow_20_111" result="shape"/>
</filter>
<filter id="filter3_d_20_111" x="22.8312" y="65.8516" width="72.2465" height="108.225" filterUnits="userSpaceOnUse" color-interpolation-filters="sRGB">
<feFlood flood-opacity="0" result="BackgroundImageFix"/>
<feColorMatrix in="SourceAlpha" type="matrix" values="0 0 0 0 0 0 0 0 0 0 0 0 0 0 0 0 0 0 127 0" result="hardAlpha"/>
<feOffset dy="4"/>
<feGaussianBlur stdDeviation="2"/>
<feComposite in2="hardAlpha" operator="out"/>
<feColorMatrix type="matrix" values="0 0 0 0 0 0 0 0 0 0 0 0 0 0 0 0 0 0 0.25 0"/>
<feBlend mode="normal" in2="BackgroundImageFix" result="effect1_dropShadow_20_111"/>
<feBlend mode="normal" in="SourceGraphic" in2="effect1_dropShadow_20_111" result="shape"/>
</filter>
<filter id="filter4_d_20_111" x="34.9978" y="56.2934" width="37.9701" height="115.707" filterUnits="userSpaceOnUse" color-interpolation-filters="sRGB">
<feFlood flood-opacity="0" result="BackgroundImageFix"/>
<feColorMatrix in="SourceAlpha" type="matrix" values="0 0 0 0 0 0 0 0 0 0 0 0 0 0 0 0 0 0 127 0" result="hardAlpha"/>
<feOffset dy="4"/>
<feGaussianBlur stdDeviation="2"/>
<feComposite in2="hardAlpha" operator="out"/>
<feColorMatrix type="matrix" values="0 0 0 0 0 0 0 0 0 0 0 0 0 0 0 0 0 0 0.25 0"/>
<feBlend mode="normal" in2="BackgroundImageFix" result="effect1_dropShadow_20_111"/>
<feBlend mode="normal" in="SourceGraphic" in2="effect1_dropShadow_20_111" result="shape"/>
</filter>
<filter id="filter5_d_20_111" x="79.9077" y="56.3608" width="38.0327" height="101.139" filterUnits="userSpaceOnUse" color-interpolation-filters="sRGB">
<feFlood flood-opacity="0" result="BackgroundImageFix"/>
<feColorMatrix in="SourceAlpha" type="matrix" values="0 0 0 0 0 0 0 0 0 0 0 0 0 0 0 0 0 0 127 0" result="hardAlpha"/>
<feOffset dy="4"/>
<feGaussianBlur stdDeviation="2"/>
<feComposite in2="hardAlpha" operator="out"/>
<feColorMatrix type="matrix" values="0 0 0 0 0 0 0 0 0 0 0 0 0 0 0 0 0 0 0.25 0"/>
<feBlend mode="normal" in2="BackgroundImageFix" result="effect1_dropShadow_20_111"/>
<feBlend mode="normal" in="SourceGraphic" in2="effect1_dropShadow_20_111" result="shape"/>
</filter>
<filter id="filter6_d_20_111" x="32.0886" y="163.5" width="84.8422" height="20.5173" filterUnits="userSpaceOnUse" color-interpolation-filters="sRGB">
<feFlood flood-opacity="0" result="BackgroundImageFix"/>
<feColorMatrix in="SourceAlpha" type="matrix" values="0 0 0 0 0 0 0 0 0 0 0 0 0 0 0 0 0 0 127 0" result="hardAlpha"/>
<feOffset dy="4"/>
<feGaussianBlur stdDeviation="2"/>
<feComposite in2="hardAlpha" operator="out"/>
<feColorMatrix type="matrix" values="0 0 0 0 0 0 0 0 0 0 0 0 0 0 0 0 0 0 0.25 0"/>
<feBlend mode="normal" in2="BackgroundImageFix" result="effect1_dropShadow_20_111"/>
<feBlend mode="normal" in="SourceGraphic" in2="effect1_dropShadow_20_111" result="shape"/>
</filter>
<linearGradient id="paint0_linear_20_111" x1="75.5873" y1="33.3997" x2="76.5168" y2="41.2003" gradientUnits="userSpaceOnUse">
<stop stop-opacity="0.1"/>
<stop offset="1" stop-color="#FF0000" stop-opacity="0"/>
<stop offset="1" stop-color="#FF0000" stop-opacity="0"/>
</linearGradient>
<linearGradient id="paint1_linear_20_111" x1="75.5873" y1="33.3997" x2="76.5168" y2="41.2003" gradientUnits="userSpaceOnUse">
<stop stop-opacity="0.1"/>
<stop offset="1" stop-color="#FF0000" stop-opacity="0"/>
<stop offset="1" stop-color="#FF0000" stop-opacity="0"/>
</linearGradient>
</defs>
</svg>
