<svg width="88" height="367" viewBox="0 0 88 367" fill="none" xmlns="http://www.w3.org/2000/svg">
<path d="M39.122 86.5L42.122 94V118L51.622 119.5L61.122 123L62.122 115L63.622 100.5L66.122 85.5V77L63.622 73.5L54.622 70L44.122 73L40.122 78L39.122 86.5Z" fill="#251414"/>
<path d="M42.122 94L39.122 86.5M42.122 94V118L51.622 119.5M42.122 94L54.622 96.5M54.622 96.5L53.622 106L52.622 112L51.622 119.5M54.622 96.5L39.122 86.5M54.622 96.5C54.622 95.8068 54.622 90.6302 54.622 85M54.622 96.5L66.122 85.5M39.122 86.5L40.122 78M40.122 78L44.122 73M40.122 78L54.622 85M54.622 70L44.122 73M54.622 70L63.622 73.5M54.622 70C54.622 73.0264 54.622 80.8844 54.622 85M44.122 73L54.622 85M51.622 119.5L61.122 123L62.122 115L63.622 100.5L66.122 85.5M63.622 73.5L66.122 77M63.622 73.5L54.622 85M66.122 77V85.5M66.122 77L54.622 85" stroke="#230000"/>
<path d="M38.622 143.5L38.122 149.5L40.622 163L48.9782 161.929L57.3344 160.859L58.622 146.5L57.8878 142.5L59.593 130.5L59.593 126.901L61.122 123.5L57.8878 121.325L51.622 119.5L42.0067 118L42.0067 123.019L40.8542 125.5L40.622 126L39.122 139L39.122 141L38.622 143.5Z" fill="#251414"/>
<path d="M58.622 146.5L57.8878 142.5M58.622 146.5L57.3344 160.859L48.9782 161.929M58.622 146.5L50.622 150.5M38.122 149.5L38.622 143.5L39.122 141M38.122 149.5L40.622 163L48.9782 161.929M38.122 149.5L50.622 150.5M57.8878 142.5L59.593 130.5L59.593 126.901M57.8878 142.5L50.622 139M39.122 139L40.622 126L40.8542 125.5M39.122 139L39.122 141M39.122 139C39.522 139 46.7887 139 50.622 139M59.593 126.901L61.122 123.5L57.8878 121.325L51.622 119.5M59.593 126.901L51.622 119.5M59.593 126.901C53.7309 126.434 41.7762 125.5 40.8542 125.5M42.0067 123.019L42.0067 118L51.622 119.5M42.0067 123.019C42.899 123.019 48.7887 120.673 51.622 119.5M42.0067 123.019L40.8542 125.5M51.622 119.5L50.622 139M50.622 139L50.622 150.5M50.622 139L39.122 141M50.622 150.5L48.9782 161.929" stroke="#230000"/>
<path d="M50.122 212.5L45.122 212.5L51.122 198.542L38.6223 198.542L37.622 215L39.073 222.01L46.0519 225.059L50.122 212.5Z" fill="#403535"/>
<path d="M45.122 212.5L50.122 212.5L46.0519 225.059L39.073 222.01L37.622 215L38.6223 198.542M45.122 212.5L51.122 198.542L38.6223 198.542M45.122 212.5C45.122 212.1 41.4556 203.361 38.6223 198.542" stroke="black"/>
<path d="M39.122 222L46.122 224.5L46.747 222L50.122 212.5L43.372 212.844L42.7866 215.7L46.8645 216.049" stroke="black"/>
<path d="M44.0786 212.813L42.8472 217.112" stroke="black"/>
<path d="M51.4214 161.186L48.622 162L41.1219 163L41.6219 173L38.6219 198.5L51.1218 198.5L53.4969 174.775L58.6219 161L54.0198 161.28L51.4214 161.186Z" fill="#403535"/>
<path d="M51.1218 198.5L50.4729 170.5M51.1218 198.5L53.4969 174.775M51.1218 198.5L38.6219 198.5M50.4729 170.5C50.4729 170.5 48.8412 164.599 48.622 162M50.4729 170.5L53.1219 165M50.4729 170.5L38.6219 198.5M48.622 162L51.4214 161.186L54.0198 161.28M48.622 162L41.1219 163L41.6219 173L38.6219 198.5M53.1219 165L54.0198 161.28M53.1219 165L53.4969 174.775M54.0198 161.28L58.6219 161L53.4969 174.775" stroke="black"/>
<path d="M20.6449 281.484L22.5718 274.716V260.052L25.4621 240.876L23.5352 234.108L27.4607 216L21.6844 200L74.6845 194L68.8423 204.5L63.0002 217L61.5909 223.392L59.664 257.232L54.8468 261.744V281.484L57.7371 283.74L20.6449 281.484Z" fill="#251414"/>
<path d="M22.5718 274.716L20.6449 281.484L57.7371 283.74L54.8468 281.484M22.5718 274.716V260.052M22.5718 274.716L54.8468 281.484M22.5718 260.052L25.4621 240.876M22.5718 260.052L54.8468 261.744M25.4621 240.876L23.5352 234.108M25.4621 240.876L59.664 257.232M23.5352 234.108L27.4607 216M23.5352 234.108L61.5909 223.392M27.4607 216L21.6844 200M27.4607 216L63.0002 217M21.6844 200L74.6845 194L68.8423 204.5L63.0002 217M21.6844 200L63.0002 217M63.0002 217L61.5909 223.392M61.5909 223.392L59.664 257.232M59.664 257.232L54.8468 261.744M54.8468 261.744V281.484" stroke="#230000"/>
<path d="M25.4621 287.124L20.6449 281.484L57.7371 283.74L54.8468 287.124L49.6914 317.236L45.356 342.052L43.4291 346H34.2765L30.1819 322.312L25.4621 287.124Z" fill="#251414"/>
<path d="M34.2765 346H43.4291L45.356 342.052M34.2765 346L45.356 342.052M34.2765 346L30.1819 322.312M25.4621 287.124L20.6449 281.484L57.7371 283.74M25.4621 287.124L30.1819 322.312M25.4621 287.124H54.8468M54.8468 281.484L57.7371 283.74M57.7371 283.74L54.8468 287.124M54.8468 287.124L49.6914 317.236M49.6914 317.236L45.356 342.052M49.6914 317.236L30.1819 322.312M45.356 342.052L30.1819 322.312" stroke="#230000"/>
<path d="M49.6845 364.5L44.816 364L1.00031 364.5V359.5L35.0791 350.5L31.6712 337L48.7107 336L44.816 349L48.7108 354L49.6845 356.5V364.5Z" fill="#252020"/>
<path d="M44.816 364L49.6845 364.5V356.5M44.816 364L1.00031 364.5M44.816 364C45.2055 363.6 48.5486 359 49.6845 356.5M44.816 364L48.7108 354M44.816 364C44.9273 363.6 44.8623 354 44.816 349M1.00031 364.5V359.5L35.0791 350.5M1.00031 364.5L44.816 349M35.0791 350.5L31.6712 337M35.0791 350.5L39.9476 349.75M31.6712 337L48.7107 336M31.6712 337L39.9476 349.75M48.7107 336L44.816 349M48.7107 336L39.9476 349.75M44.816 349L48.7108 354M44.816 349L39.9476 349.75M49.6845 356.5L48.7108 354" stroke="black"/>
<path d="M28.1538 281.736L29.847 274.891L29.2316 260.24L31.3927 240.956L29.1314 234.277L32.3995 216.016L20.7378 200.492L79.9337 192L74.3795 202.743L68.9093 215.483L67.7315 221.93L67.1744 255.824L62.4208 260.539L63.2492 280.262L66.3097 282.391L28.1538 281.736Z" fill="#251414"/>
<path d="M29.847 274.891L28.1538 281.736L66.3097 282.391L63.2492 280.262M29.847 274.891L29.2316 260.24M29.847 274.891L63.2492 280.262M29.2316 260.24L31.3927 240.956M29.2316 260.24L62.4208 260.539M31.3927 240.956L29.1314 234.277M31.3927 240.956L67.1744 255.824M29.1314 234.277L32.3995 216.016M29.1314 234.277L67.7315 221.93M32.3995 216.016L20.7378 200.492M32.3995 216.016L68.9093 215.483M20.7378 200.492L79.9337 192L74.3795 202.743L68.9093 215.483M20.7378 200.492L68.9093 215.483M68.9093 215.483L67.7315 221.93M67.7315 221.93L67.1744 255.824M67.1744 255.824L62.4208 260.539M62.4208 260.539L63.2492 280.262" stroke="#230000"/>
<path d="M33.3335 287.163L28.1538 281.736L66.3097 282.391L63.4859 285.897L59.4595 316.205L56.0522 341.186L54.2407 345.213L44.849 345.608L39.6533 322.117L33.3335 287.163Z" fill="#251414"/>
<path d="M44.849 345.608L54.2407 345.213L56.0522 341.186M44.849 345.608L56.0522 341.186M44.849 345.608L39.6533 322.117M33.3335 287.163L28.1538 281.736L66.3097 282.391M33.3335 287.163L39.6533 322.117M33.3335 287.163L63.4859 285.897M63.2492 280.262L66.3097 282.391M66.3097 282.391L63.4859 285.897M63.4859 285.897L59.4595 316.205M59.4595 316.205L56.0522 341.186M59.4595 316.205L39.6533 322.117M56.0522 341.186L39.6533 322.117" stroke="#230000"/>
<path d="M61.1328 363.94L56.1161 363.651L11.1769 366.039L10.967 361.043L45.5584 350.582L41.4949 337.241L58.9375 335.508L55.4866 348.664L59.6931 353.492L60.7971 355.948L61.1328 363.94Z" fill="#252020"/>
<path d="M56.1161 363.651L61.1328 363.94L60.7971 355.948M56.1161 363.651L11.1769 366.039M56.1161 363.651C56.499 363.234 59.7364 358.494 60.7971 355.948M56.1161 363.651L59.6931 353.492M56.1161 363.651C56.2135 363.246 55.744 353.658 55.4866 348.664M11.1769 366.039L10.967 361.043L45.5584 350.582M11.1769 366.039L55.4866 348.664M45.5584 350.582L41.4949 337.241M45.5584 350.582L50.5225 349.623M41.4949 337.241L58.9375 335.508M41.4949 337.241L50.5225 349.623M58.9375 335.508L55.4866 348.664M58.9375 335.508L50.5225 349.623M55.4866 348.664L59.6931 353.492M55.4866 348.664L50.5225 349.623M60.7971 355.948L59.6931 353.492" stroke="black"/>
<path d="M79.7624 193.5L79.7624 190L75.1845 172L37.1845 173.009L18.6845 173.5L19.6845 199L30.1845 215.5L42.1845 217L60.6845 215.5L73.6845 204L79.7624 193.5Z" fill="#251414"/>
<path d="M79.7624 193.5L79.7624 190M79.7624 193.5L73.6845 204M79.7624 193.5L40.1845 191M79.7624 190L75.1845 172M79.7624 190L40.1845 191M75.1845 172L37.1845 173.009M75.1845 172L40.1845 191M19.6845 199L18.6845 173.5M19.6845 199L30.1845 215.5L42.1845 217M19.6845 199L40.1845 191M19.6845 199C27.6845 204.458 41.3845 216.9 42.1845 217M19.6845 199L60.6845 215.5M18.6845 173.5L37.1845 173.009M18.6845 173.5L40.1845 191M42.1845 217L60.6845 215.5M73.6845 204L60.6845 215.5M73.6845 204L40.1845 191M37.1845 173.009L40.1845 191" stroke="#230000"/>
<path d="M49.6845 67L24.8433 75.4419L21.1845 86V108L20.1845 126.5L21.6845 145.5L46.4345 141L71.1845 136.5V116L75.6845 95V73.5L67.6845 53L49.6845 67Z" fill="#251414"/>
<path d="M49.6845 67L24.8433 75.4419M49.6845 67L67.6845 53M49.6845 67L55.1845 72M49.6845 67L45.1845 73.5M24.8433 75.4419L21.1845 86M24.8433 75.4419L41.1845 77M21.1845 86V108M21.1845 86H41.1845M20.1845 126.5L21.6845 145.5M20.1845 126.5L21.1845 108M20.1845 126.5L45.1845 92M21.6845 145.5L45.1845 92M21.6845 145.5L46.4345 141M21.6845 145.5L49.9103 124M71.1845 136.5V116L75.6845 95M71.1845 136.5L46.4345 141M71.1845 136.5L49.9103 124M67.6845 53L75.6845 73.5M67.6845 53L60.6845 73.5M75.6845 95V73.5M75.6845 95L63.6845 86M75.6845 73.5L63.6845 77M21.1845 108L45.1845 92M63.6845 86L60.6845 92L55.1845 95H49.9103M63.6845 86V77M55.1845 72L60.6845 73.5M55.1845 72H49.9103L45.1845 73.5M60.6845 73.5L63.6845 77M45.1845 73.5L41.1845 77M41.1845 77V86M41.1845 86L45.1845 92M45.1845 92L49.9103 95M49.9103 95V124M46.4345 141L49.9103 124" stroke="#230000"/>
<path d="M21.1996 165.211L18.6845 173L37.2961 172.523L75.6845 171.539L72.5071 161.803L71.5011 154.013L70.9981 147.684L71.5011 136L46.6019 140.382L21.7026 144.763L22.2056 154.987L21.1996 165.211Z" fill="#251414"/>
<path d="M75.6845 171.539L72.5071 161.803M75.6845 171.539L37.296 172.523M75.6845 171.539L61.1432 155.961M18.6845 173L21.1996 165.211M18.6845 173L37.296 172.523M18.6845 173L46.6019 140.382M21.1996 165.211L22.2056 154.987M21.1996 165.211L46.6019 140.382M22.2056 154.987L21.7026 144.763L46.6019 140.382M22.2056 154.987L46.6019 140.382M72.5071 161.803L71.5011 154.013M72.5071 161.803L61.1432 155.961M70.9981 147.684L71.5011 136L46.6019 140.382M70.9981 147.684L71.5011 154.013M70.9981 147.684L61.1432 155.961M71.5011 154.013L61.1432 155.961M46.6019 140.382L37.296 172.523M46.6019 140.382L61.1432 155.961" stroke="#230000"/>
<g filter="url(#filter0_d_42_9)">
<path d="M75.6845 87V85.5L70.6845 75.5L67.6845 70L63.1845 67H54.6845L46.1845 69.5L35.6845 75.5L26.6845 82.5L19.6845 90.5V94.5L26.6845 86L34.6845 79.5L45.1845 72.5L53.6845 69.5H61.6845L65.6845 71.5L69.1845 76.5L75.6845 87Z" fill="#100F0F"/>
<path d="M75.6845 92.5V85.5L70.6845 75.5M75.6845 92.5V87L69.1845 76.5M75.6845 92.5V95.5L74.1845 103M53.6845 69.5L54.6845 67M53.6845 69.5H61.6845M53.6845 69.5L45.1845 72.5L34.6845 79.5M54.6845 67H63.1845M54.6845 67L46.1845 69.5L35.6845 75.5M35.6845 75.5L34.6845 79.5M35.6845 75.5L26.6845 82.5M34.6845 79.5L26.6845 86M61.6845 69.5L63.1845 67M61.6845 69.5L65.6845 71.5M26.6845 82.5L19.6845 90.5V94.5L26.6845 86M26.6845 82.5V86M63.1845 67L67.6845 70M70.6845 75.5L67.6845 70M70.6845 75.5L69.1845 76.5M69.1845 76.5L65.6845 71.5M67.6845 70L65.6845 71.5" stroke="#252323"/>
</g>
<g filter="url(#filter1_d_42_9)">
<path d="M74.6845 106L76.1845 95L76.6845 86.5" stroke="#252323"/>
</g>
<path d="M75.1845 103H77.1845L79.6845 89H76.6845L75.1845 103Z" fill="#251414" stroke="#252323"/>
<g style="mix-blend-mode:darken" filter="url(#filter2_di_42_9)">
<path d="M35.1844 58L44.6844 48V23L20.1844 21L17.6844 35.5L16.1844 42L20.1844 48L21.6844 54.5L21.1844 60.5L22.1844 62.5H29.1844L35.1844 58Z" fill="#251414"/>
<path d="M35.1844 58L44.6844 48V23L20.1844 21L17.6844 35.5L16.1844 42L20.1844 48L21.6844 54.5L21.1844 60.5L22.1844 62.5H29.1844L35.1844 58Z" stroke="#230000"/>
</g>
<g filter="url(#filter3_dd_42_9)">
<path d="M22.3887 37.0696C23.8858 38.5595 27.2202 34.6392 27.2202 34.6392L30.6844 31.0338L26.0962 31.479L21.761 33.9703C21.761 33.9703 21.5133 36.1985 22.3887 37.0696Z" fill="#B20000" shape-rendering="crispEdges"/>
<path d="M22.3887 37.0696C23.8858 38.5595 27.2202 34.6392 27.2202 34.6392L30.6844 31.0338L26.0962 31.479L21.761 33.9703C21.761 33.9703 21.5133 36.1985 22.3887 37.0696Z" stroke="url(#paint0_linear_42_9)" shape-rendering="crispEdges"/>
</g>
<path d="M17.1844 22.5L39.6844 56.5L24.6844 69.5V76.5L47.6845 65L67.6844 54.5V44L64.6844 40L62.6844 15.5L52.1844 1H38.6844L19.6844 8.5L17.1844 22.5Z" fill="#261515"/>
<path d="M39.6844 56.5L17.1844 22.5M39.6844 56.5L24.6844 69.5V76.5L47.6845 65M39.6844 56.5L67.6844 54.5M39.6844 56.5L67.6844 44M39.6844 56.5L64.6844 40M39.6844 56.5L47.6845 65M17.1844 22.5L62.6844 15.5M17.1844 22.5L52.1844 1M17.1844 22.5L38.6844 1M17.1844 22.5L19.6844 8.5L38.6844 1M38.6844 1H52.1844M52.1844 1L62.6844 15.5M62.6844 15.5L64.6844 40M64.6844 40L67.6844 44M67.6844 44V54.5M67.6844 54.5L47.6845 65" stroke="#230000"/>
<g filter="url(#filter4_d_42_9)">
<path d="M76.6845 86.5L79.6845 87L80.6845 86.5L81.1845 85.5V82L80.1845 74L79.6845 71.5L78.6845 69L76.6845 65L73.1845 59L71.1845 56L69.1845 53.5L63.6845 54.5L58.1845 57L46.1845 61L25.1845 75.5L21.1845 79L19.6845 85L19.1845 94.5V110L18.1845 127.5L19.6845 146L20.1845 157L19.6845 163.5L21.6845 163L22.1845 157.5L21.6845 147L20.1845 128.5L21.1845 109.5V93.5V87.5L34.1845 78.5L49.1845 67.5L58.1845 65.5L64.1845 67L75.6845 74L76.6845 86.5Z" fill="#3C3C3C"/>
<path d="M79.6845 87L76.6845 86.5L75.6845 74M79.6845 87L80.6845 86.5L81.1845 85.5M79.6845 87L75.6845 74M81.1845 85.5V82M81.1845 85.5L75.6845 74M81.1845 82L80.1845 74M81.1845 82L75.6845 74M80.1845 74L79.6845 71.5M80.1845 74H75.6845M79.6845 71.5L78.6845 69M79.6845 71.5L64.1845 67M78.6845 69L76.6845 65M78.6845 69L64.1845 67M69.1845 53.5L58.1845 65.5M69.1845 53.5L71.1845 56L73.1845 59M69.1845 53.5L63.6845 54.5L58.1845 57M46.1845 61L25.1845 75.5M46.1845 61L58.1845 57M46.1845 61L49.1845 67.5M25.1845 75.5L21.1845 79M25.1845 75.5L34.1845 78.5M21.1845 79L19.6845 85M21.1845 79L34.1845 78.5M19.6845 85L19.1845 94.5M19.6845 85L21.1845 87.5M19.1845 94.5V110M19.1845 94.5L21.1845 93.5M21.1845 109.5V93.5M21.1845 109.5L20.1845 128.5M21.1845 109.5L19.1845 110M21.1845 93.5V87.5M21.1845 87.5L34.1845 78.5M49.1845 67.5L58.1845 65.5M49.1845 67.5L34.1845 78.5M58.1845 65.5L64.1845 67M58.1845 65.5L73.1845 59M58.1845 65.5V57M64.1845 67L75.6845 74M64.1845 67L76.6845 65M76.6845 65L73.1845 59M22.1845 157.5L21.6845 163L19.6845 163.5L20.1845 157M22.1845 157.5L21.6845 147M22.1845 157.5L20.1845 157M20.1845 157L19.6845 146M21.6845 147L20.1845 128.5M21.6845 147L19.6845 146M20.1845 128.5L18.1845 127.5M19.6845 146L18.1845 127.5M18.1845 127.5L19.1845 110" stroke="#251414"/>
</g>
<g filter="url(#filter5_d_42_9)">
<g filter="url(#filter6_d_42_9)">
<path d="M75.6845 173.5C75.6845 172.7 75.1612 170.5 74.6845 169.5L74.0265 166L59.6845 167L45.6845 166.5L33.1845 167H20.1845L18.3011 171.5V174.5L28.1845 173H38.1845H54.1845L69.9748 173.5H74.0265H75.6845Z" fill="#3C3C3C"/>
<path d="M74.0265 166L74.6845 169.5C75.1612 170.5 75.6845 172.7 75.6845 173.5H74.0265M74.0265 166L59.6845 167M74.0265 166L69.9748 173.5M74.0265 166V173.5M69.9748 173.5H74.0265M69.9748 173.5L54.1845 173M38.1845 173H54.1845M38.1845 173H28.1845M38.1845 173L45.6845 166.5M45.6845 166.5L59.6845 167M45.6845 166.5L33.1845 167M54.1845 173L59.6845 167M33.1845 167H20.1845L18.3011 171.5V174.5L28.1845 173M33.1845 167L28.1845 173" stroke="#251414"/>
</g>
<path d="M17.8845 174H18.6845V166L17.8845 167V174Z" fill="#1F1F1F"/>
<path d="M18.6845 174H17.8845V167M18.6845 174V166L17.8845 167M18.6845 174C18.6845 173.619 18.2178 170.175 17.8845 167" stroke="#251414"/>
</g>
<path d="M39.1844 87L42.1844 94.5V118.5L51.6844 120L61.1844 123.5L62.1844 115.5L63.6844 101L66.1844 86V77.5L63.6844 74L54.6844 70.5L44.1844 73.5L40.1844 78.5L39.1844 87Z" fill="#251414"/>
<path d="M42.1844 94.5L39.1844 87M42.1844 94.5V118.5L51.6844 120M42.1844 94.5L54.6844 97M54.6844 97L53.6844 106.5L52.6844 112.5L51.6844 120M54.6844 97L39.1844 87M54.6844 97C54.6844 96.3068 54.6844 91.1302 54.6844 85.5M54.6844 97L66.1844 86M39.1844 87L40.1844 78.5M40.1844 78.5L44.1844 73.5M40.1844 78.5L54.6844 85.5M54.6844 70.5L44.1844 73.5M54.6844 70.5L63.6844 74M54.6844 70.5C54.6844 73.5264 54.6844 81.3844 54.6844 85.5M44.1844 73.5L54.6844 85.5M51.6844 120L61.1844 123.5L62.1844 115.5L63.6844 101L66.1844 86M63.6844 74L66.1844 77.5M63.6844 74L54.6844 85.5M66.1844 77.5V86M66.1844 77.5L54.6844 85.5" stroke="#230000"/>
<path d="M38.6844 144L38.1844 150L40.6843 163.5L49.0406 162.429L57.3968 161.359L58.6843 147L57.9501 143L59.6554 131L59.6554 127.401L61.1843 124L57.9501 121.825L51.6844 120L42.0691 118.5L42.0691 123.519L40.9166 126L40.6843 126.5L39.1843 139.5L39.1843 141.5L38.6844 144Z" fill="#251414"/>
<path d="M58.6843 147L57.9501 143M58.6843 147L57.3968 161.359L49.0406 162.429M58.6843 147L50.6844 151M38.1844 150L38.6844 144L39.1843 141.5M38.1844 150L40.6843 163.5L49.0406 162.429M38.1844 150L50.6844 151M57.9501 143L59.6554 131L59.6554 127.401M57.9501 143L50.6844 139.5M39.1843 139.5L40.6843 126.5L40.9166 126M39.1843 139.5L39.1843 141.5M39.1843 139.5C39.5844 139.5 46.8511 139.5 50.6844 139.5M59.6554 127.401L61.1843 124L57.9501 121.825L51.6844 120M59.6554 127.401L51.6844 120M59.6554 127.401C53.7933 126.934 41.8386 126 40.9166 126M42.0691 123.519L42.0691 118.5L51.6844 120M42.0691 123.519C42.9613 123.519 48.8511 121.173 51.6844 120M42.0691 123.519L40.9166 126M51.6844 120L50.6844 139.5M50.6844 139.5L50.6844 151M50.6844 139.5L39.1843 141.5M50.6844 151L49.0406 162.429" stroke="#230000"/>
<path d="M50.1844 213L45.1844 213L51.1844 199.042L38.6847 199.042L37.6844 215.5L39.1354 222.51L46.1143 225.559L50.1844 213Z" fill="#403535"/>
<path d="M45.1844 213L50.1844 213L46.1143 225.559L39.1354 222.51L37.6844 215.5L38.6847 199.042M45.1844 213L51.1844 199.042L38.6847 199.042M45.1844 213C45.1844 212.6 41.5179 203.861 38.6847 199.042" stroke="black"/>
<path d="M39.1844 222.5L46.1844 225L46.8094 222.5L50.1844 213H47.1844H45.1844L43.1844 218L46.6844 216" stroke="black"/>
<path d="M51.6844 158L48.6844 162.5L41.1843 163.5L41.6844 173.5L38.6843 199L51.1843 199L53.5594 175.275L58.6843 161.5L54.0822 161.78L51.6844 158Z" fill="#403535"/>
<path d="M51.1843 199L50.5354 171M51.1843 199L53.5594 175.275M51.1843 199L38.6843 199M50.5354 171C50.5354 171 48.9036 165.1 48.6844 162.5M50.5354 171L53.1844 165.5M50.5354 171L51.1844 164M50.5354 171L38.6843 199M51.6844 158L48.6844 162.5M51.6844 158L51.1844 164M51.6844 158L54.0822 161.78M48.6844 162.5L41.1843 163.5L41.6844 173.5L38.6843 199M48.6844 162.5L51.1844 164M51.1844 164L53.1844 165.5M53.1844 165.5L54.0822 161.78M53.1844 165.5L53.5594 175.275M54.0822 161.78L58.6843 161.5L53.5594 175.275" stroke="black"/>
<defs>
<filter id="filter0_d_42_9" x="15.1845" y="66.5" width="65" height="44.5981" filterUnits="userSpaceOnUse" color-interpolation-filters="sRGB">
<feFlood flood-opacity="0" result="BackgroundImageFix"/>
<feColorMatrix in="SourceAlpha" type="matrix" values="0 0 0 0 0 0 0 0 0 0 0 0 0 0 0 0 0 0 127 0" result="hardAlpha"/>
<feOffset dy="4"/>
<feGaussianBlur stdDeviation="2"/>
<feComposite in2="hardAlpha" operator="out"/>
<feColorMatrix type="matrix" values="0 0 0 0 0 0 0 0 0 0 0 0 0 0 0 0 0 0 0.25 0"/>
<feBlend mode="normal" in2="BackgroundImageFix" result="effect1_dropShadow_42_9"/>
<feBlend mode="normal" in="SourceGraphic" in2="effect1_dropShadow_42_9" result="shape"/>
</filter>
<filter id="filter1_d_42_9" x="70.1891" y="86.4706" width="10.9946" height="27.5969" filterUnits="userSpaceOnUse" color-interpolation-filters="sRGB">
<feFlood flood-opacity="0" result="BackgroundImageFix"/>
<feColorMatrix in="SourceAlpha" type="matrix" values="0 0 0 0 0 0 0 0 0 0 0 0 0 0 0 0 0 0 127 0" result="hardAlpha"/>
<feOffset dy="4"/>
<feGaussianBlur stdDeviation="2"/>
<feComposite in2="hardAlpha" operator="out"/>
<feColorMatrix type="matrix" values="0 0 0 0 0 0 0 0 0 0 0 0 0 0 0 0 0 0 0.25 0"/>
<feBlend mode="normal" in2="BackgroundImageFix" result="effect1_dropShadow_42_9"/>
<feBlend mode="normal" in="SourceGraphic" in2="effect1_dropShadow_42_9" result="shape"/>
</filter>
<filter id="filter2_di_42_9" x="11.6487" y="17.4645" width="37.5357" height="50.8355" filterUnits="userSpaceOnUse" color-interpolation-filters="sRGB">
<feFlood flood-opacity="0" result="BackgroundImageFix"/>
<feColorMatrix in="SourceAlpha" type="matrix" values="0 0 0 0 0 0 0 0 0 0 0 0 0 0 0 0 0 0 127 0" result="hardAlpha"/>
<feOffset dy="1"/>
<feGaussianBlur stdDeviation="2"/>
<feComposite in2="hardAlpha" operator="out"/>
<feColorMatrix type="matrix" values="0 0 0 0 1 0 0 0 0 1 0 0 0 0 1 0 0 0 1 0"/>
<feBlend mode="normal" in2="BackgroundImageFix" result="effect1_dropShadow_42_9"/>
<feBlend mode="normal" in="SourceGraphic" in2="effect1_dropShadow_42_9" result="shape"/>
<feColorMatrix in="SourceAlpha" type="matrix" values="0 0 0 0 0 0 0 0 0 0 0 0 0 0 0 0 0 0 127 0" result="hardAlpha"/>
<feOffset dx="3" dy="10"/>
<feGaussianBlur stdDeviation="2.65"/>
<feComposite in2="hardAlpha" operator="arithmetic" k2="-1" k3="1"/>
<feColorMatrix type="matrix" values="0 0 0 0 0 0 0 0 0 0 0 0 0 0 0 0 0 0 0.25 0"/>
<feBlend mode="normal" in2="shape" result="effect2_innerShadow_42_9"/>
</filter>
<filter id="filter3_dd_42_9" x="17.2286" y="30.4055" width="18.7527" height="15.5014" filterUnits="userSpaceOnUse" color-interpolation-filters="sRGB">
<feFlood flood-opacity="0" result="BackgroundImageFix"/>
<feColorMatrix in="SourceAlpha" type="matrix" values="0 0 0 0 0 0 0 0 0 0 0 0 0 0 0 0 0 0 127 0" result="hardAlpha"/>
<feOffset dy="4"/>
<feGaussianBlur stdDeviation="2"/>
<feComposite in2="hardAlpha" operator="out"/>
<feColorMatrix type="matrix" values="0 0 0 0 0 0 0 0 0 0 0 0 0 0 0 0 0 0 0.25 0"/>
<feBlend mode="normal" in2="BackgroundImageFix" result="effect1_dropShadow_42_9"/>
<feColorMatrix in="SourceAlpha" type="matrix" values="0 0 0 0 0 0 0 0 0 0 0 0 0 0 0 0 0 0 127 0" result="hardAlpha"/>
<feOffset dy="4"/>
<feGaussianBlur stdDeviation="2"/>
<feComposite in2="hardAlpha" operator="out"/>
<feColorMatrix type="matrix" values="0 0 0 0 0 0 0 0 0 0 0 0 0 0 0 0 0 0 0.25 0"/>
<feBlend mode="normal" in2="effect1_dropShadow_42_9" result="effect2_dropShadow_42_9"/>
<feBlend mode="normal" in="SourceGraphic" in2="effect2_dropShadow_42_9" result="shape"/>
</filter>
<filter id="filter4_d_42_9" x="13.6833" y="52.9547" width="72.0012" height="119.199" filterUnits="userSpaceOnUse" color-interpolation-filters="sRGB">
<feFlood flood-opacity="0" result="BackgroundImageFix"/>
<feColorMatrix in="SourceAlpha" type="matrix" values="0 0 0 0 0 0 0 0 0 0 0 0 0 0 0 0 0 0 127 0" result="hardAlpha"/>
<feOffset dy="4"/>
<feGaussianBlur stdDeviation="2"/>
<feComposite in2="hardAlpha" operator="out"/>
<feColorMatrix type="matrix" values="0 0 0 0 0 0 0 0 0 0 0 0 0 0 0 0 0 0 0.25 0"/>
<feBlend mode="normal" in2="BackgroundImageFix" result="effect1_dropShadow_42_9"/>
<feBlend mode="normal" in="SourceGraphic" in2="effect1_dropShadow_42_9" result="shape"/>
</filter>
<filter id="filter5_d_42_9" x="13.3845" y="164.575" width="66.8" height="18.507" filterUnits="userSpaceOnUse" color-interpolation-filters="sRGB">
<feFlood flood-opacity="0" result="BackgroundImageFix"/>
<feColorMatrix in="SourceAlpha" type="matrix" values="0 0 0 0 0 0 0 0 0 0 0 0 0 0 0 0 0 0 127 0" result="hardAlpha"/>
<feOffset dy="4"/>
<feGaussianBlur stdDeviation="2"/>
<feComposite in2="hardAlpha" operator="out"/>
<feColorMatrix type="matrix" values="0 0 0 0 0 0 0 0 0 0 0 0 0 0 0 0 0 0 0.25 0"/>
<feBlend mode="normal" in2="BackgroundImageFix" result="effect1_dropShadow_42_9"/>
<feBlend mode="normal" in="SourceGraphic" in2="effect1_dropShadow_42_9" result="shape"/>
</filter>
<filter id="filter6_d_42_9" x="13.8011" y="165.47" width="66.3834" height="17.6114" filterUnits="userSpaceOnUse" color-interpolation-filters="sRGB">
<feFlood flood-opacity="0" result="BackgroundImageFix"/>
<feColorMatrix in="SourceAlpha" type="matrix" values="0 0 0 0 0 0 0 0 0 0 0 0 0 0 0 0 0 0 127 0" result="hardAlpha"/>
<feOffset dy="4"/>
<feGaussianBlur stdDeviation="2"/>
<feComposite in2="hardAlpha" operator="out"/>
<feColorMatrix type="matrix" values="0 0 0 0 0 0 0 0 0 0 0 0 0 0 0 0 0 0 0.25 0"/>
<feBlend mode="normal" in2="BackgroundImageFix" result="effect1_dropShadow_42_9"/>
<feBlend mode="normal" in="SourceGraphic" in2="effect1_dropShadow_42_9" result="shape"/>
</filter>
<linearGradient id="paint0_linear_42_9" x1="19.2615" y1="29.6341" x2="18.3064" y2="37.4284" gradientUnits="userSpaceOnUse">
<stop stop-opacity="0.1"/>
<stop offset="1" stop-color="#FF0000" stop-opacity="0"/>
<stop offset="1" stop-color="#FF0000" stop-opacity="0"/>
</linearGradient>
</defs>
</svg>
