<svg width="252" height="360" viewBox="0 0 252 360" fill="none" xmlns="http://www.w3.org/2000/svg">
<path d="M108.66 254.917L106.981 248.083L107.514 233.429L105.323 214.16L107.495 207.467L104.23 189.228L110.585 173.449L61.4668 170L63.2943 176.231L68.6779 188.935L69.8538 195.374L70.5487 229.262L75.1986 233.946L74.4807 253.673L71.5102 255.822L108.66 254.917Z" fill="#251414"/>
<path d="M106.981 248.083L108.66 254.917L71.5102 255.822L74.4807 253.673M106.981 248.083L107.514 233.429M106.981 248.083L74.4807 253.673M107.514 233.429L105.323 214.16M107.514 233.429L75.1986 233.946M105.323 214.16L107.495 207.467M105.323 214.16L70.5487 229.262M107.495 207.467L104.23 189.228M107.495 207.467L69.8538 195.374M104.23 189.228L110.585 173.449M104.23 189.228L68.6779 188.935M110.585 173.449L61.4668 170L63.2943 176.231L68.6779 188.935M110.585 173.449L68.6779 188.935M68.6779 188.935L69.8538 195.374M69.8538 195.374L70.5487 229.262M70.5487 229.262L75.1986 233.946M75.1986 233.946L74.4807 253.673" stroke="#230000"/>
<path d="M88.8361 268.183L95.791 266.078L104.45 259.953L107.435 254.377L102.017 245.737L88.922 233.347L79.7135 233.798L79.6778 237.05L77.649 241.011L51.7673 257.242L30.4707 270.699L27.5536 273.983L31.0381 282.447L54.5011 277.215L88.8361 268.183Z" fill="#251414"/>
<path d="M31.0381 282.447L27.5536 273.983L30.4707 270.699M31.0381 282.447L30.4707 270.699M31.0381 282.447L54.5011 277.215M88.8361 268.183L95.791 266.078M88.8361 268.183L54.5011 277.215M88.8361 268.183L77.649 241.011M95.791 266.078L79.6778 237.05M95.791 266.078L104.45 259.953M79.6778 237.05L77.649 241.011M79.6778 237.05L79.7135 233.798L88.922 233.347M79.6778 237.05C88.5079 245.29 104.45 259.953 104.45 259.953M79.6778 237.05C88.7704 242.518 107.435 254.377 107.435 254.377M79.6778 237.05L102.017 245.737M79.6778 237.05L88.922 233.347M77.649 241.011L51.7673 257.242M51.7673 257.242L30.4707 270.699M51.7673 257.242L54.5011 277.215M30.4707 270.699L54.5011 277.215M104.45 259.953L107.435 254.377M107.435 254.377L102.017 245.737M102.017 245.737L88.922 233.347" stroke="#230000"/>
<path d="M12.0001 273.604L14.3159 277.916L30.5346 318.622L35.1581 316.719L30.5062 281.78L44.287 279.791L38.7246 263.654L28.1863 272.205L22.0801 270.507L19.3976 270.558L12.0001 273.604Z" fill="#252020"/>
<path d="M14.3159 277.916L12.0001 273.604L19.3976 270.558M14.3159 277.916L30.5346 318.622M14.3159 277.916C14.5375 277.403 17.5184 272.561 19.3976 270.558M14.3159 277.916L22.0801 270.507M14.3159 277.916C14.6434 277.66 23.5452 274.066 28.1863 272.205M30.5346 318.622L35.1581 316.719L30.5062 281.78M30.5346 318.622L28.1863 272.205M30.5062 281.78L44.287 279.791M30.5062 281.78L29.3463 276.992M44.287 279.791L38.7246 263.654M44.287 279.791L29.3463 276.992M38.7246 263.654L28.1863 272.205M38.7246 263.654L29.3463 276.992M28.1863 272.205L22.0801 270.507M28.1863 272.205L29.3463 276.992M19.3976 270.558L22.0801 270.507" stroke="black"/>
<path d="M143.426 97.3438L135.405 96.3811L112.219 102.575L98.1938 116.5L94.1938 106.5L92.1938 97.3438L93.1938 91.5001L95.1938 88.3678C97.3605 87.415 101.852 85.5094 102.484 85.5094L109.955 82.4786L123.577 77.2871L137.423 71.0004L145.635 68.8066L149.662 70.3186L155.366 78.1104L155.178 89.0289L151.38 94.1839L143.426 97.3438Z" fill="#251414"/>
<path d="M135.405 96.3811L143.426 97.3438M135.405 96.3811L112.219 102.575M135.405 96.3811L129.764 84.9498M129.764 84.9498L120.844 88.3678L115.305 90.8824L108.318 93.7842M129.764 84.9498L143.426 97.3438M129.764 84.9498C130.434 84.7709 135.435 83.4349 140.874 81.9817M129.764 84.9498L137.423 71.0004M143.426 97.3438L151.38 94.1839M151.38 94.1839L155.178 89.0289M151.38 94.1839L140.874 81.9817M155.366 78.1104L155.178 89.0289M155.366 78.1104L149.662 70.3186M155.366 78.1104C152.442 78.8915 144.851 80.9196 140.874 81.9817M155.178 89.0289L140.874 81.9817M108.318 93.7842L112.219 102.575M108.318 93.7842L102.484 85.5094M112.219 102.575L98.1938 116.5L94.1938 106.5M149.662 70.3186L145.635 68.8066M149.662 70.3186L140.874 81.9817M145.635 68.8066L137.423 71.0004M145.635 68.8066L140.874 81.9817M137.423 71.0004L123.577 77.2871L109.955 82.4786L102.484 85.5094M102.484 85.5094C101.852 85.5094 97.3605 87.415 95.1938 88.3678L93.1938 91.5001M102.484 85.5094C100.054 91.8396 94.9938 104.9 94.1938 106.5M102.484 85.5094L92.1938 97.3438M102.484 85.5094L93.1938 91.5001M93.1938 91.5001L92.1938 97.3438M92.1938 97.3438L94.1938 106.5" stroke="#230000"/>
<path d="M127.518 123.443L130.817 128.48L135.052 141.54L127.195 144.581L119.339 147.622L111.364 135.611L110.104 131.745L102.886 122.008L101.171 118.843L98.2061 116.582L100.013 113.129L104.652 108.539L112.39 102.638L114.782 107.05L116.978 108.682L117.42 109.011L124.934 119.725L125.887 121.484L127.518 123.443Z" fill="#251414"/>
<path d="M111.364 135.611L110.104 131.745M111.364 135.611L119.339 147.622L127.195 144.581M111.364 135.611L120.304 135.316M130.817 128.48L127.518 123.443L125.887 121.484M130.817 128.48L135.052 141.54L127.195 144.581M130.817 128.48L120.304 135.316M110.104 131.745L102.886 122.008L101.171 118.843M110.104 131.745L114.823 125.206M124.934 119.725L117.42 109.011L116.978 108.682M124.934 119.725L125.887 121.484M124.934 119.725C124.582 119.916 118.194 123.379 114.823 125.206M101.171 118.843L98.2061 116.582L100.013 113.129L104.652 108.539M101.171 118.843L104.652 108.539M101.171 118.843C106.102 115.639 116.167 109.122 116.978 108.682M114.782 107.05L112.39 102.638L104.652 108.539M114.782 107.05C113.998 107.475 107.702 108.22 104.652 108.539M114.782 107.05L116.978 108.682M104.652 108.539L114.823 125.206M114.823 125.206L120.304 135.316M114.823 125.206L125.887 121.484M120.304 135.316L127.195 144.581" stroke="#230000"/>
<path d="M150.028 188.132L154.569 185.872L142.698 176.133L154.049 170.483L162.53 184.713L164.437 191.622L159.503 197.496L150.028 188.132Z" fill="#403535"/>
<path d="M154.569 185.872L150.028 188.132L159.503 197.496L164.437 191.622L162.53 184.713L154.049 170.483M154.569 185.872L142.698 176.133L154.049 170.483M154.569 185.872C154.385 185.515 153.693 176.063 154.049 170.483" stroke="black"/>
<path d="M164.388 191.635L159.182 197.028L157.464 195.081L150.028 188.132L156.316 185.388L158.161 187.671L154.619 189.825" stroke="black"/>
<path d="M155.66 185.68L158.756 188.958" stroke="black"/>
<path d="M125.48 143.552L128.396 143.012L135.667 140.514L139.814 149.661L154.271 171.052L142.92 176.701L129.847 156.611L118.855 146.64L123.163 144.81L125.48 143.552Z" fill="#403535"/>
<path d="M142.92 176.701L130.626 151.431M142.92 176.701L129.847 156.611M142.92 176.701L154.271 171.052M130.626 151.431C130.626 151.431 129.393 145.43 128.396 143.012M130.626 151.431L125.69 147.722M130.626 151.431L154.271 171.052M128.396 143.012L125.48 143.552L123.163 144.81M128.396 143.012L135.667 140.514L139.814 149.661L154.271 171.052M125.69 147.722L123.163 144.81M125.69 147.722L129.847 156.611M123.163 144.81L118.855 146.64L129.847 156.611" stroke="black"/>
<path d="M118.986 254.193L116.514 247.605L115.32 232.99L110.877 214.113L112.246 207.21L106.859 189.482L111.313 173.065L63.0001 171L64.6783 181.391L71.5191 193.374L73.4443 199.629L78.121 233.2L83.2897 237.305L84.8975 256.979L82.2006 259.463L118.986 254.193Z" fill="#251414"/>
<path d="M116.514 247.605L118.986 254.193L82.2006 259.463L84.8975 256.979M116.514 247.605L115.32 232.99M116.514 247.605L84.8975 256.979M115.32 232.99L110.877 214.113M115.32 232.99L83.2897 237.305M110.877 214.113L112.246 207.21M110.877 214.113L78.121 233.2M112.246 207.21L106.859 189.482M112.246 207.21L73.4443 199.629M106.859 189.482L111.313 173.065M106.859 189.482L71.5191 193.374M111.313 173.065L63.0001 171L64.6783 181.391L71.5191 193.374M111.313 173.065L71.5191 193.374M71.5191 193.374L73.4443 199.629M73.4443 199.629L78.121 233.2M78.121 233.2L83.2897 237.305M83.2897 237.305L84.8975 256.979" stroke="#230000"/>
<path d="M119.279 269.75L119.982 262.518L117.617 252.178L113.598 247.295L103.546 249.014L87.102 256.402L84.0113 265.088L87.0047 266.36L89.8943 269.744L95.0437 299.857L99.3742 324.674L101.3 328.623L110.453 328.625L114.552 304.937L119.279 269.75Z" fill="#251414"/>
<path d="M110.453 328.625L101.3 328.623L99.3742 324.674M110.453 328.625L99.3742 324.674M110.453 328.625L114.552 304.937M119.279 269.75L119.982 262.518M119.279 269.75L114.552 304.937M119.279 269.75L89.8943 269.744M119.982 262.518L87.0047 266.36M119.982 262.518L117.617 252.178M87.0047 266.36L89.8943 269.744M87.0047 266.36L84.0113 265.088L87.102 256.402M87.0047 266.36C97.9867 261.334 117.617 252.178 117.617 252.178M87.0047 266.36C95.5239 260.035 113.598 247.295 113.598 247.295M87.0047 266.36L103.546 249.014M87.0047 266.36L87.102 256.402M89.8943 269.744L95.0437 299.857M95.0437 299.857L99.3742 324.674M95.0437 299.857L114.552 304.937M99.3742 324.674L114.552 304.937M117.617 252.178L113.598 247.295M113.598 247.295L103.546 249.014M103.546 249.014L87.102 256.402" stroke="#230000"/>
<path d="M99.1433 349.372L103.96 348.507L147.689 345.708L147.313 340.722L112.654 334.312L115.036 320.594L97.9696 320.879L102.832 333.549L99.3241 338.828L98.5413 341.394L99.1433 349.372Z" fill="#252020"/>
<path d="M103.96 348.507L99.1433 349.372L98.5413 341.394M103.96 348.507L147.689 345.708M103.96 348.507C103.542 348.137 99.8622 343.802 98.5413 341.394M103.96 348.507L99.3241 338.828M103.96 348.507C103.819 348.116 103.162 338.539 102.832 333.549M147.689 345.708L147.313 340.722L112.654 334.312M147.689 345.708L102.832 333.549M112.654 334.312L115.036 320.594M112.654 334.312L107.743 333.931M115.036 320.594L97.9696 320.879M115.036 320.594L107.743 333.931M97.9696 320.879L102.832 333.549M97.9696 320.879L107.743 333.931M102.832 333.549L99.3241 338.828M102.832 333.549L107.743 333.931M98.5413 341.394L99.3241 338.828" stroke="black"/>
<path d="M61.1345 163.518L62.913 160.503L76.002 147.326L108.218 167.504L123.903 177.327L110.084 198.782L92.6568 207.658L81.5592 202.852L66.3875 192.16L61.0341 175.65L61.1345 163.518Z" fill="#251414"/>
<path d="M61.1345 163.518L62.913 160.503M61.1345 163.518L61.0341 175.65M61.1345 163.518L96.4928 181.475M62.913 160.503L76.002 147.326M62.913 160.503L96.4928 181.475M76.002 147.326L108.218 167.504M76.002 147.326L96.4928 181.475M110.084 198.782L123.903 177.327M110.084 198.782L92.6568 207.658L81.5592 202.852M110.084 198.782L96.4928 181.475M110.084 198.782C100.42 199.418 82.299 203.172 81.5592 202.852M110.084 198.782L66.3875 192.16M123.903 177.327L108.218 167.504M123.903 177.327L96.4928 181.475M81.5592 202.852L66.3875 192.16M61.0341 175.65L66.3875 192.16M61.0341 175.65L96.4928 181.475M108.218 167.504L96.4928 181.475" stroke="#230000"/>
<path d="M154.744 66.0631L172.113 85.7264L170.046 96.7076L159.121 115.803L150.802 132.358L140.065 148.104L120.817 131.908L101.569 115.711L111.749 97.9178L118.271 77.4554L128.948 58.7937L146.072 44.9727L154.744 66.0631Z" fill="#251414"/>
<path d="M154.744 66.0631L172.113 85.7264M154.744 66.0631L146.072 44.9727M154.744 66.0631L147.487 67.6718M154.744 66.0631L155.422 73.9397M172.113 85.7264L170.046 96.7076M172.113 85.7264L157.156 78.964M170.046 96.7076L159.121 115.803M170.046 96.7076L152.686 86.7758M150.802 132.358L140.065 148.104M150.802 132.358L159.121 115.803M150.802 132.358L146.235 89.9974M140.065 148.104L146.235 89.9974M140.065 148.104L120.817 131.908M140.065 148.104L126.242 115.426M101.569 115.711L111.749 97.9178L118.271 77.4554M101.569 115.711L120.817 131.908M101.569 115.711L126.242 115.426M146.072 44.9727L128.948 58.7937M146.072 44.9727L141.968 66.2425M118.271 77.4554L128.948 58.7937M118.271 77.4554L133.157 75.6026M128.948 58.7937L137.626 67.7907M159.121 115.803L146.235 89.9974M133.157 75.6026L132.781 82.3003L136.065 87.6355L140.643 90.2546M133.157 75.6026L137.626 67.7907M147.487 67.6718L141.968 66.2425M147.487 67.6718L152.065 70.2909L155.422 73.9397M141.968 66.2425L137.626 67.7907M155.422 73.9397L157.156 78.964M157.156 78.964L152.686 86.7758M152.686 86.7758L146.235 89.9974M146.235 89.9974L140.643 90.2546M140.643 90.2546L126.242 115.426M120.817 131.908L126.242 115.426" stroke="#230000"/>
<path d="M129.784 165.283L127.881 173.244L112.232 163.159L79.9534 142.357L87.7306 135.692L92.6405 129.562L96.3612 124.417L102.007 114.175L120.997 130.866L139.987 147.556L134.241 156.027L129.784 165.283Z" fill="#251414"/>
<path d="M79.9534 142.357L87.7306 135.692M79.9534 142.357L112.232 163.159M79.9534 142.357L100.475 136.611M127.881 173.244L129.784 165.283M127.881 173.244L112.232 163.159M127.881 173.244L120.997 130.866M129.784 165.283L134.241 156.027M129.784 165.283L120.997 130.866M134.241 156.027L139.987 147.556L120.997 130.866M134.241 156.027L120.997 130.866M87.7306 135.692L92.6405 129.562M87.7306 135.692L100.475 136.611M96.3612 124.417L102.007 114.175L120.997 130.866M96.3612 124.417L92.6405 129.562M96.3612 124.417L100.475 136.611M92.6405 129.562L100.475 136.611M120.997 130.866L112.232 163.159M120.997 130.866L100.475 136.611" stroke="#230000"/>
<g filter="url(#filter0_d_169_546)">
<path d="M122.244 70.5116L122.989 69.2096L132.295 63.0127L137.63 59.7285L143.026 59.3592L150.404 63.5802L156.54 69.9712L162.674 80.3933L167.01 90.9385L169.113 101.358L167.127 104.83L165.272 93.9764L161.556 84.3618L155.918 73.0717L150.03 66.2468L143.086 62.2741L138.621 62.0237L133.1 64.6255L122.244 70.5116Z" fill="#100F0F"/>
<path d="M119.513 75.2855L122.989 69.2096L132.295 63.0127M119.513 75.2855L122.244 70.5116L133.1 64.6255M119.513 75.2855L118.023 77.8895L115.601 85.1442M150.03 66.2468L150.404 63.5802M150.03 66.2468L143.086 62.2741M150.03 66.2468L155.918 73.0717L161.556 84.3618M150.404 63.5802L143.026 59.3592M150.404 63.5802L156.54 69.9712L162.674 80.3933M162.674 80.3933L161.556 84.3618M162.674 80.3933L167.01 90.9385M161.556 84.3618L165.272 93.9764M143.086 62.2741L143.026 59.3592M143.086 62.2741L138.621 62.0237M167.01 90.9385L169.113 101.358L167.127 104.83L165.272 93.9764M167.01 90.9385L165.272 93.9764M143.026 59.3592L137.63 59.7285M132.295 63.0127L137.63 59.7285M132.295 63.0127L133.1 64.6255M133.1 64.6255L138.621 62.0237M137.63 59.7285L138.621 62.0237" stroke="#252323"/>
</g>
<g filter="url(#filter1_d_169_546)">
<path d="M113.677 87.4998L117.838 77.2071L121.625 69.5809" stroke="#252323"/>
</g>
<path d="M114.733 84.6476L112.997 83.6544L117.779 70.2611L120.383 71.7509L114.733 84.6476Z" fill="#251414" stroke="#252323"/>
<g style="mix-blend-mode:darken" filter="url(#filter2_di_169_546)">
<path d="M173.049 64.6555L167.516 52.0206L176.019 28.5109L199.738 34.9626L197.158 49.4485L196.358 56.0712L190.556 60.3531L186.934 65.9555L185.364 71.7679L183.743 73.3085L177.161 70.9278L173.049 64.6555Z" fill="#251414"/>
<path d="M173.049 64.6555L167.516 52.0206L176.019 28.5109L199.738 34.9626L197.158 49.4485L196.358 56.0712L190.556 60.3531L186.934 65.9555L185.364 71.7679L183.743 73.3085L177.161 70.9278L173.049 64.6555Z" stroke="#230000"/>
</g>
<g filter="url(#filter3_dd_169_546)">
<path d="M192.2 49.3246C190.285 50.2164 188.483 45.3958 188.483 45.3958L186.452 40.8271L190.615 42.8063L193.844 46.6235C193.844 46.6235 193.319 48.8031 192.2 49.3246Z" fill="#B20000" shape-rendering="crispEdges"/>
<path d="M192.2 49.3246C190.285 50.2164 188.483 45.3958 188.483 45.3958L186.452 40.8271L190.615 42.8063L193.844 46.6235C193.844 46.6235 193.319 48.8031 192.2 49.3246Z" stroke="url(#paint0_linear_169_546)" shape-rendering="crispEdges"/>
</g>
<path d="M202.049 37.3935L169.327 61.7144L179.012 79.041L176.631 85.6237L158.913 66.9869L143.676 50.3108L147.247 40.4367L151.429 37.6955L161.642 15.3361L176.448 5.27157L189.143 9.86294L204.46 23.3778L202.049 37.3935Z" fill="#261515"/>
<path d="M169.327 61.7144L202.049 37.3935M169.327 61.7144L179.012 79.041L176.631 85.6237L158.913 66.9869M169.327 61.7144L143.676 50.3108M169.327 61.7144L147.247 40.4367M169.327 61.7144L151.429 37.6955M169.327 61.7144L158.913 66.9869M202.049 37.3935L161.642 15.3361M202.049 37.3935L176.448 5.27157M202.049 37.3935L189.143 9.86294M202.049 37.3935L204.46 23.3778L189.143 9.86294M189.143 9.86294L176.448 5.27157M176.448 5.27157L161.642 15.3361M161.642 15.3361L151.429 37.6955M151.429 37.6955L147.247 40.4367M147.247 40.4367L143.676 50.3108M143.676 50.3108L158.913 66.9869" stroke="#230000"/>
<g filter="url(#filter4_d_169_546)">
<path d="M126.218 70.802L123.366 69.7463L122.746 68.8157L122.809 67.6994L124.547 64.6614L129.388 58.2141L131.063 56.2925L133.173 54.6191L136.895 52.1403L142.912 48.6705L146.138 47.0597L149.116 45.8829L153.393 49.4821L156.925 54.3833L165.355 63.8143L176.382 86.8285L178.116 91.8528L176.438 97.8056L172.155 106.3L164.458 119.754L156.635 135.44L146.146 150.753L140.25 160.052L137.456 165.942L135.968 164.515L138.266 159.493L143.914 150.628L154.403 135.315L162.97 118.326L170.915 104.439L173.895 99.2307L167.08 84.9631L159.523 67.9665L152.704 61.7612L146.752 60.0836L133.294 60.4488L126.218 70.802Z" fill="#3C3C3C"/>
<path d="M123.366 69.7463L126.218 70.802L133.294 60.4488M123.366 69.7463L122.746 68.8157L122.809 67.6994M123.366 69.7463L133.294 60.4488M122.809 67.6994L124.547 64.6614M122.809 67.6994L133.294 60.4488M124.547 64.6614L129.388 58.2141M124.547 64.6614L133.294 60.4488M129.388 58.2141L131.063 56.2925M129.388 58.2141L133.294 60.4488M131.063 56.2925L133.173 54.6191M131.063 56.2925L146.752 60.0836M133.173 54.6191L136.895 52.1403M133.173 54.6191L146.752 60.0836M149.116 45.8829L152.704 61.7612M149.116 45.8829L146.138 47.0597L142.912 48.6705M149.116 45.8829L153.393 49.4821L156.925 54.3833M165.355 63.8143L176.382 86.8285M165.355 63.8143L156.925 54.3833M165.355 63.8143L159.523 67.9665M176.382 86.8285L178.116 91.8528M176.382 86.8285L167.08 84.9631M178.116 91.8528L176.438 97.8056M178.116 91.8528L167.08 84.9631M176.438 97.8056L172.155 106.3M176.438 97.8056L173.895 99.2307M172.155 106.3L164.458 119.754M172.155 106.3L170.915 104.439M162.97 118.326L170.915 104.439M162.97 118.326L154.403 135.315M162.97 118.326L164.458 119.754M170.915 104.439L173.895 99.2307M173.895 99.2307L167.08 84.9631M159.523 67.9665L152.704 61.7612M159.523 67.9665L167.08 84.9631M152.704 61.7612L146.752 60.0836M152.704 61.7612L142.912 48.6705M152.704 61.7612L156.925 54.3833M146.752 60.0836L133.294 60.4488M146.752 60.0836L136.895 52.1403M136.895 52.1403L142.912 48.6705M138.266 159.493L135.968 164.515L137.456 165.942L140.25 160.052M138.266 159.493L143.914 150.628M138.266 159.493L140.25 160.052M140.25 160.052L146.146 150.753M143.914 150.628L154.403 135.315M143.914 150.628L146.146 150.753M154.403 135.315L156.635 135.44M146.146 150.753L156.635 135.44M156.635 135.44L164.458 119.754" stroke="#251414"/>
</g>
<g filter="url(#filter5_d_169_546)">
<g filter="url(#filter6_d_169_546)">
<path d="M74.7045 148.449C75.113 147.761 76.6863 146.136 77.6068 145.52L79.9597 142.847L91.7805 151.03L104.073 157.749L114.565 164.561L125.743 171.199L125.064 176.03L123.532 178.61L115.801 172.273L107.203 167.167L93.4457 158.997L79.6138 151.364L76.1301 149.295L74.7045 148.449Z" fill="#3C3C3C"/>
<path d="M79.9597 142.847L77.6068 145.52C76.6863 146.136 75.113 147.761 74.7045 148.449L76.1301 149.295M79.9597 142.847L91.7805 151.03M79.9597 142.847L79.6138 151.364M79.9597 142.847L76.1301 149.295M79.6138 151.364L76.1301 149.295M79.6138 151.364L93.4457 158.997M107.203 167.167L93.4457 158.997M107.203 167.167L115.801 172.273M107.203 167.167L104.073 157.749M104.073 157.749L91.7805 151.03M104.073 157.749L114.565 164.561M93.4457 158.997L91.7805 151.03M114.565 164.561L125.743 171.199L125.064 176.03L123.532 178.61L115.801 172.273M114.565 164.561L115.801 172.273" stroke="#251414"/>
</g>
<path d="M143.419 164H142.619V156L143.419 157V164Z" fill="#1F1F1F"/>
<path d="M142.619 164H143.419V157M142.619 164V156L143.419 157M142.619 164C142.619 163.619 143.086 160.175 143.419 157" stroke="#251414"/>
</g>
<path d="M147.783 78.2229L151.562 85.3621L169.864 100.887L164.863 109.102L161.387 118.611L154.639 114.198L142.611 105.963L129.555 98.1666L123.073 92.6684L122.021 88.4978L125.173 79.3703L134.253 73.3034L140.653 73.4872L147.783 78.2229Z" fill="#251414"/>
<path d="M151.562 85.3621L147.783 78.2229M151.562 85.3621L169.864 100.887L164.863 109.102M151.562 85.3621L145.382 96.5119M145.382 96.5119L153.274 101.894L158.497 105.013L164.863 109.102M145.382 96.5119L147.783 78.2229M145.382 96.5119C144.854 96.0635 140.906 92.715 136.612 89.0731M145.382 96.5119L129.555 98.1666M147.783 78.2229L140.653 73.4872M140.653 73.4872L134.253 73.3034M140.653 73.4872L136.612 89.0731M125.173 79.3703L134.253 73.3034M125.173 79.3703L122.021 88.4978M125.173 79.3703C127.481 81.328 133.474 86.4109 136.612 89.0731M134.253 73.3034L136.612 89.0731M164.863 109.102L161.387 118.611L154.639 114.198L142.611 105.963L129.555 98.1666M122.021 88.4978L123.073 92.6684M122.021 88.4978L136.612 89.0731M123.073 92.6684L129.555 98.1666M123.073 92.6684L136.612 89.0731" stroke="#230000"/>
<path d="M176.151 130.474L181.052 133.971L193.932 138.726L197.285 130.997L200.637 123.268L188.956 114.82L185.143 113.406L175.702 105.804L172.609 103.964L170.468 100.911L166.945 102.578L162.173 107.03L155.968 114.526L160.281 117.093L161.824 119.352L162.135 119.807L172.54 127.743L174.259 128.766L176.151 130.474Z" fill="#251414"/>
<path d="M188.956 114.82L185.143 113.406M188.956 114.82L200.637 123.268L197.285 130.997M188.956 114.82L188.303 123.74M181.052 133.971L176.151 130.474L174.259 128.766M181.052 133.971L193.932 138.726L197.285 130.997M181.052 133.971L188.303 123.74M185.143 113.406L175.702 105.804L172.609 103.964M185.143 113.406L178.42 117.86M172.54 127.743L162.135 119.807L161.824 119.352M172.54 127.743L174.259 128.766M172.54 127.743C172.744 127.399 176.46 121.155 178.42 117.86M172.609 103.964L170.468 100.911L166.945 102.578L162.173 107.03M172.609 103.964L162.173 107.03M172.609 103.964C169.21 108.763 162.295 118.559 161.824 119.352M160.281 117.093L155.968 114.526L162.173 107.03M160.281 117.093C160.737 116.326 161.732 110.065 162.173 107.03M160.281 117.093L161.824 119.352M162.173 107.03L178.42 117.86M178.42 117.86L188.303 123.74M178.42 117.86L174.259 128.766M188.303 123.74L197.285 130.997" stroke="#230000"/>
<path d="M240.371 110.384L237.112 105.793L229.277 118.944L221.13 107.466L234.328 97.5383L241.173 95.0331L248.287 99.7722L240.371 110.384Z" fill="#403535"/>
<path d="M237.112 105.793L240.371 110.384L248.287 99.7722L241.173 95.0331L234.328 97.5383L221.13 107.466M237.112 105.793L229.277 118.944L221.13 107.466M237.112 105.793C236.776 106.012 227.032 107.43 221.13 107.466" stroke="black"/>
<path d="M241.196 95.0837L247.862 100.143L246.166 102.085L240.371 110.385L238.416 107.63L237.112 105.793L240.017 101.22L240.615 105.529" stroke="black"/>
<path d="M194.43 142.438L196.261 137.22L192.215 129.786L200.956 124.771L220.46 108.057L228.606 119.535L210.189 134.703L201.937 146.95L199.173 142.571L194.43 142.438Z" fill="#403535"/>
<path d="M228.606 119.535L204.621 134.267M228.606 119.535L210.189 134.703M228.606 119.535L220.46 108.057M204.621 134.267C204.621 134.267 198.592 135.999 196.261 137.22M204.621 134.267L201.719 139.71M204.621 134.267L199.153 138.695M204.621 134.267L220.46 108.057M194.43 142.438L196.261 137.22M194.43 142.438L199.153 138.695M194.43 142.438L199.173 142.571M196.261 137.22L192.215 129.786L200.956 124.771L220.46 108.057M196.261 137.22L199.153 138.695M199.153 138.695L201.719 139.71M201.719 139.71L199.173 142.571M201.719 139.71L210.189 134.703M199.173 142.571L201.937 146.95L210.189 134.703" stroke="black"/>
<defs>
<filter id="filter0_d_169_546" x="111.126" y="58.8501" width="62.5142" height="55.4384" filterUnits="userSpaceOnUse" color-interpolation-filters="sRGB">
<feFlood flood-opacity="0" result="BackgroundImageFix"/>
<feColorMatrix in="SourceAlpha" type="matrix" values="0 0 0 0 0 0 0 0 0 0 0 0 0 0 0 0 0 0 127 0" result="hardAlpha"/>
<feOffset dy="4"/>
<feGaussianBlur stdDeviation="2"/>
<feComposite in2="hardAlpha" operator="out"/>
<feColorMatrix type="matrix" values="0 0 0 0 0 0 0 0 0 0 0 0 0 0 0 0 0 0 0.25 0"/>
<feBlend mode="normal" in2="BackgroundImageFix" result="effect1_dropShadow_169_546"/>
<feBlend mode="normal" in="SourceGraphic" in2="effect1_dropShadow_169_546" result="shape"/>
</filter>
<filter id="filter1_d_169_546" x="109.213" y="69.3585" width="16.8589" height="26.3287" filterUnits="userSpaceOnUse" color-interpolation-filters="sRGB">
<feFlood flood-opacity="0" result="BackgroundImageFix"/>
<feColorMatrix in="SourceAlpha" type="matrix" values="0 0 0 0 0 0 0 0 0 0 0 0 0 0 0 0 0 0 127 0" result="hardAlpha"/>
<feOffset dy="4"/>
<feGaussianBlur stdDeviation="2"/>
<feComposite in2="hardAlpha" operator="out"/>
<feColorMatrix type="matrix" values="0 0 0 0 0 0 0 0 0 0 0 0 0 0 0 0 0 0 0.25 0"/>
<feBlend mode="normal" in2="BackgroundImageFix" result="effect1_dropShadow_169_546"/>
<feBlend mode="normal" in="SourceGraphic" in2="effect1_dropShadow_169_546" result="shape"/>
</filter>
<filter id="filter2_di_169_546" x="162.978" y="24.9075" width="41.333" height="54.2763" filterUnits="userSpaceOnUse" color-interpolation-filters="sRGB">
<feFlood flood-opacity="0" result="BackgroundImageFix"/>
<feColorMatrix in="SourceAlpha" type="matrix" values="0 0 0 0 0 0 0 0 0 0 0 0 0 0 0 0 0 0 127 0" result="hardAlpha"/>
<feOffset dy="1"/>
<feGaussianBlur stdDeviation="2"/>
<feComposite in2="hardAlpha" operator="out"/>
<feColorMatrix type="matrix" values="0 0 0 0 1 0 0 0 0 1 0 0 0 0 1 0 0 0 1 0"/>
<feBlend mode="normal" in2="BackgroundImageFix" result="effect1_dropShadow_169_546"/>
<feBlend mode="normal" in="SourceGraphic" in2="effect1_dropShadow_169_546" result="shape"/>
<feColorMatrix in="SourceAlpha" type="matrix" values="0 0 0 0 0 0 0 0 0 0 0 0 0 0 0 0 0 0 127 0" result="hardAlpha"/>
<feOffset dx="3" dy="10"/>
<feGaussianBlur stdDeviation="2.65"/>
<feComposite in2="hardAlpha" operator="arithmetic" k2="-1" k3="1"/>
<feColorMatrix type="matrix" values="0 0 0 0 0 0 0 0 0 0 0 0 0 0 0 0 0 0 0.25 0"/>
<feBlend mode="normal" in2="shape" result="effect2_innerShadow_169_546"/>
</filter>
<filter id="filter3_dd_169_546" x="181.446" y="39.7953" width="16.9443" height="18.1401" filterUnits="userSpaceOnUse" color-interpolation-filters="sRGB">
<feFlood flood-opacity="0" result="BackgroundImageFix"/>
<feColorMatrix in="SourceAlpha" type="matrix" values="0 0 0 0 0 0 0 0 0 0 0 0 0 0 0 0 0 0 127 0" result="hardAlpha"/>
<feOffset dy="4"/>
<feGaussianBlur stdDeviation="2"/>
<feComposite in2="hardAlpha" operator="out"/>
<feColorMatrix type="matrix" values="0 0 0 0 0 0 0 0 0 0 0 0 0 0 0 0 0 0 0.25 0"/>
<feBlend mode="normal" in2="BackgroundImageFix" result="effect1_dropShadow_169_546"/>
<feColorMatrix in="SourceAlpha" type="matrix" values="0 0 0 0 0 0 0 0 0 0 0 0 0 0 0 0 0 0 127 0" result="hardAlpha"/>
<feOffset dy="4"/>
<feGaussianBlur stdDeviation="2"/>
<feComposite in2="hardAlpha" operator="out"/>
<feColorMatrix type="matrix" values="0 0 0 0 0 0 0 0 0 0 0 0 0 0 0 0 0 0 0.25 0"/>
<feBlend mode="normal" in2="effect1_dropShadow_169_546" result="effect2_dropShadow_169_546"/>
<feBlend mode="normal" in="SourceGraphic" in2="effect2_dropShadow_169_546" result="shape"/>
</filter>
<filter id="filter4_d_169_546" x="118.238" y="45.3082" width="64.4019" height="129.475" filterUnits="userSpaceOnUse" color-interpolation-filters="sRGB">
<feFlood flood-opacity="0" result="BackgroundImageFix"/>
<feColorMatrix in="SourceAlpha" type="matrix" values="0 0 0 0 0 0 0 0 0 0 0 0 0 0 0 0 0 0 127 0" result="hardAlpha"/>
<feOffset dy="4"/>
<feGaussianBlur stdDeviation="2"/>
<feComposite in2="hardAlpha" operator="out"/>
<feColorMatrix type="matrix" values="0 0 0 0 0 0 0 0 0 0 0 0 0 0 0 0 0 0 0.25 0"/>
<feBlend mode="normal" in2="BackgroundImageFix" result="effect1_dropShadow_169_546"/>
<feBlend mode="normal" in="SourceGraphic" in2="effect1_dropShadow_169_546" result="shape"/>
</filter>
<filter id="filter5_d_169_546" x="70.0193" y="142.182" width="77.9001" height="45.1827" filterUnits="userSpaceOnUse" color-interpolation-filters="sRGB">
<feFlood flood-opacity="0" result="BackgroundImageFix"/>
<feColorMatrix in="SourceAlpha" type="matrix" values="0 0 0 0 0 0 0 0 0 0 0 0 0 0 0 0 0 0 127 0" result="hardAlpha"/>
<feOffset dy="4"/>
<feGaussianBlur stdDeviation="2"/>
<feComposite in2="hardAlpha" operator="out"/>
<feColorMatrix type="matrix" values="0 0 0 0 0 0 0 0 0 0 0 0 0 0 0 0 0 0 0.25 0"/>
<feBlend mode="normal" in2="BackgroundImageFix" result="effect1_dropShadow_169_546"/>
<feBlend mode="normal" in="SourceGraphic" in2="effect1_dropShadow_169_546" result="shape"/>
</filter>
<filter id="filter6_d_169_546" x="70.0193" y="142.182" width="60.2649" height="45.1827" filterUnits="userSpaceOnUse" color-interpolation-filters="sRGB">
<feFlood flood-opacity="0" result="BackgroundImageFix"/>
<feColorMatrix in="SourceAlpha" type="matrix" values="0 0 0 0 0 0 0 0 0 0 0 0 0 0 0 0 0 0 127 0" result="hardAlpha"/>
<feOffset dy="4"/>
<feGaussianBlur stdDeviation="2"/>
<feComposite in2="hardAlpha" operator="out"/>
<feColorMatrix type="matrix" values="0 0 0 0 0 0 0 0 0 0 0 0 0 0 0 0 0 0 0.25 0"/>
<feBlend mode="normal" in2="BackgroundImageFix" result="effect1_dropShadow_169_546"/>
<feBlend mode="normal" in="SourceGraphic" in2="effect1_dropShadow_169_546" result="shape"/>
</filter>
<linearGradient id="paint0_linear_169_546" x1="197.67" y1="43.3959" x2="195.917" y2="51.0504" gradientUnits="userSpaceOnUse">
<stop stop-opacity="0.1"/>
<stop offset="1" stop-color="#FF0000" stop-opacity="0"/>
<stop offset="1" stop-color="#FF0000" stop-opacity="0"/>
</linearGradient>
</defs>
</svg>
