<svg width="279" height="347" viewBox="0 0 279 347" fill="none" xmlns="http://www.w3.org/2000/svg">
<path d="M170.216 97.3438L162.196 96.3811L139.009 102.575L124.985 116.5L120.985 106.5L118.985 97.3438L119.985 91.5001L121.985 88.3678C124.151 87.415 128.643 85.5094 129.275 85.5094L136.746 82.4786L150.368 77.2871L164.214 71.0004L172.426 68.8066L176.453 70.3186L182.157 78.1104L181.969 89.0289L178.17 94.1839L170.216 97.3438Z" fill="#251414"/>
<path d="M162.196 96.3811L170.216 97.3438M162.196 96.3811L139.009 102.575M162.196 96.3811L156.555 84.9498M156.555 84.9498L147.635 88.3678L142.096 90.8824L135.108 93.7842M156.555 84.9498L170.216 97.3438M156.555 84.9498C157.225 84.7709 162.226 83.4349 167.665 81.9817M156.555 84.9498L164.214 71.0004M170.216 97.3438L178.17 94.1839M178.17 94.1839L181.969 89.0289M178.17 94.1839L167.665 81.9817M182.157 78.1104L181.969 89.0289M182.157 78.1104L176.453 70.3186M182.157 78.1104C179.233 78.8915 171.641 80.9196 167.665 81.9817M181.969 89.0289L167.665 81.9817M135.108 93.7842L139.009 102.575M135.108 93.7842L129.275 85.5094M139.009 102.575L124.985 116.5L120.985 106.5M176.453 70.3186L172.426 68.8066M176.453 70.3186L167.665 81.9817M172.426 68.8066L164.214 71.0004M172.426 68.8066L167.665 81.9817M164.214 71.0004L150.368 77.2871L136.746 82.4786L129.275 85.5094M129.275 85.5094C128.643 85.5094 124.151 87.415 121.985 88.3678L119.985 91.5001M129.275 85.5094C126.845 91.8396 121.785 104.9 120.985 106.5M129.275 85.5094L118.985 97.3438M129.275 85.5094L119.985 91.5001M119.985 91.5001L118.985 97.3438M118.985 97.3438L120.985 106.5" stroke="#230000"/>
<path d="M154.308 123.443L157.607 128.48L161.843 141.54L153.986 144.581L146.129 147.622L138.155 135.611L136.894 131.745L129.677 122.008L127.962 118.843L124.997 116.582L126.804 113.129L131.443 108.539L139.181 102.638L141.573 107.05L143.768 108.682L144.211 109.011L151.724 119.725L152.678 121.484L154.308 123.443Z" fill="#251414"/>
<path d="M138.155 135.611L136.894 131.745M138.155 135.611L146.129 147.622L153.986 144.581M138.155 135.611L147.094 135.316M157.607 128.48L154.308 123.443L152.678 121.484M157.607 128.48L161.843 141.54L153.986 144.581M157.607 128.48L147.094 135.316M136.894 131.745L129.677 122.008L127.962 118.843M136.894 131.745L141.614 125.206M151.724 119.725L144.211 109.011L143.768 108.682M151.724 119.725L152.678 121.484M151.724 119.725C151.373 119.916 144.984 123.379 141.614 125.206M127.962 118.843L124.997 116.582L126.804 113.129L131.443 108.539M127.962 118.843L131.443 108.539M127.962 118.843C132.893 115.639 142.958 109.122 143.768 108.682M141.573 107.05L139.181 102.638L131.443 108.539M141.573 107.05C140.788 107.475 134.492 108.22 131.443 108.539M141.573 107.05L143.768 108.682M131.443 108.539L141.614 125.206M141.614 125.206L147.094 135.316M141.614 125.206L152.678 121.484M147.094 135.316L153.986 144.581" stroke="#230000"/>
<path d="M176.819 188.132L181.359 185.872L169.489 176.133L180.839 170.483L189.32 184.713L191.228 191.622L186.293 197.496L176.819 188.132Z" fill="#403535"/>
<path d="M181.359 185.872L176.819 188.132L186.293 197.496L191.228 191.622L189.32 184.713L180.839 170.483M181.359 185.872L169.489 176.133L180.839 170.483M181.359 185.872C181.175 185.515 180.484 176.063 180.839 170.483" stroke="black"/>
<path d="M191.179 191.635L185.972 197.028L184.254 195.081L176.819 188.132L183.106 185.388L184.952 187.671L181.41 189.825" stroke="black"/>
<path d="M182.451 185.68L185.547 188.958" stroke="black"/>
<path d="M152.27 143.552L155.187 143.012L162.458 140.514L166.605 149.661L181.062 171.052L169.71 176.701L156.638 156.611L145.646 146.64L149.954 144.81L152.27 143.552Z" fill="#403535"/>
<path d="M169.71 176.701L157.417 151.431M169.71 176.701L156.638 156.611M169.71 176.701L181.062 171.052M157.417 151.431C157.417 151.431 156.184 145.43 155.187 143.012M157.417 151.431L152.481 147.722M157.417 151.431L181.062 171.052M155.187 143.012L152.27 143.552L149.954 144.81M155.187 143.012L162.458 140.514L166.605 149.661L181.062 171.052M152.481 147.722L149.954 144.81M152.481 147.722L156.638 156.611M149.954 144.81L145.646 146.64L156.638 156.611" stroke="black"/>
<path d="M136.485 251.69L134.846 244.847L135.465 230.196L133.388 210.915L135.599 204.234L132.443 185.977L138.89 170.235L86.1911 162L91.5843 172.738L96.8928 185.473L98.0306 191.919L98.5254 225.811L103.148 230.522L102.313 250.244L99.3301 252.376L136.485 251.69Z" fill="#251414"/>
<path d="M134.846 244.847L136.485 251.69L99.3301 252.376L102.313 250.244M134.846 244.847L135.465 230.196M134.846 244.847L102.313 250.244M135.465 230.196L133.388 210.915M135.465 230.196L103.148 230.522M133.388 210.915L135.599 204.234M133.388 210.915L98.5254 225.811M135.599 204.234L132.443 185.977M135.599 204.234L98.0306 191.919M132.443 185.977L138.89 170.235M132.443 185.977L96.8928 185.473M138.89 170.235L86.1911 162L91.5843 172.738L96.8928 185.473M138.89 170.235L96.8928 185.473M96.8928 185.473L98.0306 191.919M98.0306 191.919L98.5254 225.811M98.5254 225.811L103.148 230.522M103.148 230.522L102.313 250.244" stroke="#230000"/>
<path d="M108.707 270.619L115.077 274.114L125.512 276.014L131.584 274.244L133.964 264.327L133.651 246.302L126.885 240.04L124.537 242.29L120.288 243.613L90.5816 236.483L66.0656 230.686L61.6777 230.901L58.0704 239.313L78.2271 252.412L108.707 270.619Z" fill="#251414"/>
<path d="M58.0704 239.313L61.6777 230.901L66.0656 230.686M58.0704 239.313L66.0656 230.686M58.0704 239.313L78.2271 252.412M108.707 270.619L115.077 274.114M108.707 270.619L78.2271 252.412M108.707 270.619L120.288 243.613M115.077 274.114L124.537 242.29M115.077 274.114L125.512 276.014M124.537 242.29L120.288 243.613M124.537 242.29L126.885 240.04L133.651 246.302M124.537 242.29C124.83 254.364 125.512 276.014 125.512 276.014M124.537 242.29C126.994 252.612 131.584 274.244 131.584 274.244M124.537 242.29L133.964 264.327M124.537 242.29L133.651 246.302M120.288 243.613L90.5816 236.483M90.5816 236.483L66.0656 230.686M90.5816 236.483L78.2271 252.412M66.0656 230.686L78.2271 252.412M125.512 276.014L131.584 274.244M131.584 274.244L133.964 264.327M133.964 264.327L133.651 246.302" stroke="#230000"/>
<path d="M47.1407 217.861L45.6814 222.532L27.9527 262.604L32.548 264.575L54.251 236.802L65.3151 245.255L72.95 229.988L59.4672 228.444L56.407 222.894L54.4932 221.014L47.1407 217.861Z" fill="#252020"/>
<path d="M45.6814 222.532L47.1407 217.861L54.4932 221.014M45.6814 222.532L27.9527 262.604M45.6814 222.532C46.2025 222.332 51.7478 221.072 54.4932 221.014M45.6814 222.532L56.407 222.894M45.6814 222.532C46.0929 222.588 54.8902 226.431 59.4672 228.444M27.9527 262.604L32.548 264.575L54.251 236.802M27.9527 262.604L59.4672 228.444M54.251 236.802L65.3151 245.255M54.251 236.802L56.8591 232.623M65.3151 245.255L72.95 229.988M65.3151 245.255L56.8591 232.623M72.95 229.988L59.4672 228.444M72.95 229.988L56.8591 232.623M59.4672 228.444L56.407 222.894M59.4672 228.444L56.8591 232.623M54.4932 221.014L56.407 222.894" stroke="black"/>
<path d="M166.115 246.643L162.63 240.513L159.251 226.243L151.945 208.267L152.311 201.225L144.217 184.533L151.235 166.429L91.9527 174.299L100.21 183.134L108.929 193.915L111.81 199.802L121.532 232.276L127.385 235.527L131.933 254.736L129.564 257.615L166.115 246.643Z" fill="#251414"/>
<path d="M162.63 240.513L166.115 246.643L129.564 257.615L131.933 254.736M162.63 240.513L159.251 226.243M162.63 240.513L131.933 254.736M159.251 226.243L151.945 208.267M159.251 226.243L127.385 235.527M151.945 208.267L152.311 201.225M151.945 208.267L121.532 232.276M152.311 201.225L144.217 184.533M152.311 201.225L111.81 199.802M144.217 184.533L151.235 166.429M144.217 184.533L108.929 193.915M151.235 166.429L91.9527 174.299L100.21 183.134L108.929 193.915M151.235 166.429L108.929 193.915M108.929 193.915L111.81 199.802M111.81 199.802L121.532 232.276M121.532 232.276L127.385 235.527M127.385 235.527L131.933 254.736" stroke="#230000"/>
<path d="M163.562 252.222L167.077 245.594L130.527 256.566L134.195 259.175L146.285 287.257L156.335 310.379L159.17 313.765L168.317 311.6L166.952 287.58L163.562 252.222Z" fill="#251414"/>
<path d="M168.317 311.6L159.17 313.765L156.335 310.379M168.317 311.6L156.335 310.379M168.317 311.6L166.952 287.58M163.562 252.222L167.077 245.594L130.527 256.566M163.562 252.222L166.952 287.58M163.562 252.222L134.195 259.175M132.896 253.686L130.527 256.566M130.527 256.566L134.195 259.175M134.195 259.175L146.285 287.257M146.285 287.257L156.335 310.379M146.285 287.257L166.952 287.58M156.335 310.379L166.952 287.58" stroke="#230000"/>
<path d="M161.42 339.988L166.17 338.35L210.075 328.469L208.923 323.604L172.791 322.909L173.087 308.966L155.827 312.025L162.715 323.753L159.974 329.541L159.577 332.204L161.42 339.988Z" fill="#252020"/>
<path d="M166.17 338.35L161.42 339.988L159.577 332.204M166.17 338.35L210.075 328.469M166.17 338.35C165.689 338.053 161.288 334.368 159.577 332.204M166.17 338.35L159.974 329.541M166.17 338.35C165.967 337.987 163.82 328.63 162.715 323.753M210.075 328.469L208.923 323.604L172.791 322.909M210.075 328.469L162.715 323.753M172.791 322.909L173.087 308.966M172.791 322.909L167.753 323.331M173.087 308.966L155.827 312.025M173.087 308.966L167.753 323.331M155.827 312.025L162.715 323.753M155.827 312.025L167.753 323.331M162.715 323.753L159.974 329.541M162.715 323.753L167.753 323.331M159.577 332.204L159.974 329.541" stroke="black"/>
<path d="M87.9252 163.518L89.7036 160.503L102.793 147.326L135.009 167.504L150.693 177.327L136.875 198.782L119.447 207.658L108.35 202.852L93.1782 192.16L87.8248 175.65L87.9252 163.518Z" fill="#251414"/>
<path d="M87.9252 163.518L89.7036 160.503M87.9252 163.518L87.8248 175.65M87.9252 163.518L123.283 181.475M89.7036 160.503L102.793 147.326M89.7036 160.503L123.283 181.475M102.793 147.326L135.009 167.504M102.793 147.326L123.283 181.475M136.875 198.782L150.693 177.327M136.875 198.782L119.447 207.658L108.35 202.852M136.875 198.782L123.283 181.475M136.875 198.782C127.211 199.418 109.09 203.172 108.35 202.852M136.875 198.782L93.1782 192.16M150.693 177.327L135.009 167.504M150.693 177.327L123.283 181.475M108.35 202.852L93.1782 192.16M87.8248 175.65L93.1782 192.16M87.8248 175.65L123.283 181.475M135.009 167.504L123.283 181.475" stroke="#230000"/>
<path d="M181.534 66.0631L198.904 85.7264L196.837 96.7076L185.912 115.803L177.593 132.358L166.856 148.104L147.608 131.908L128.36 115.711L138.54 97.9178L145.062 77.4554L155.739 58.7937L172.863 44.9727L181.534 66.0631Z" fill="#251414"/>
<path d="M181.534 66.0631L198.904 85.7264M181.534 66.0631L172.863 44.9727M181.534 66.0631L174.277 67.6718M181.534 66.0631L182.212 73.9397M198.904 85.7264L196.837 96.7076M198.904 85.7264L183.946 78.964M196.837 96.7076L185.912 115.803M196.837 96.7076L179.477 86.7758M177.593 132.358L166.856 148.104M177.593 132.358L185.912 115.803M177.593 132.358L173.026 89.9974M166.856 148.104L173.026 89.9974M166.856 148.104L147.608 131.908M166.856 148.104L153.033 115.426M128.36 115.711L138.54 97.9178L145.062 77.4554M128.36 115.711L147.608 131.908M128.36 115.711L153.033 115.426M172.863 44.9727L155.739 58.7937M172.863 44.9727L168.759 66.2425M145.062 77.4554L155.739 58.7937M145.062 77.4554L159.947 75.6026M155.739 58.7937L164.417 67.7907M185.912 115.803L173.026 89.9974M159.947 75.6026L159.572 82.3003L162.856 87.6355L167.434 90.2546M159.947 75.6026L164.417 67.7907M174.277 67.6718L168.759 66.2425M174.277 67.6718L178.855 70.2909L182.212 73.9397M168.759 66.2425L164.417 67.7907M182.212 73.9397L183.946 78.964M183.946 78.964L179.477 86.7758M179.477 86.7758L173.026 89.9974M173.026 89.9974L167.434 90.2546M167.434 90.2546L153.033 115.426M147.608 131.908L153.033 115.426" stroke="#230000"/>
<path d="M156.574 165.283L154.672 173.244L139.023 163.159L106.744 142.357L114.521 135.692L119.431 129.562L123.152 124.417L128.798 114.175L147.788 130.866L166.777 147.556L161.031 156.027L156.574 165.283Z" fill="#251414"/>
<path d="M106.744 142.357L114.521 135.692M106.744 142.357L139.023 163.159M106.744 142.357L127.266 136.611M154.672 173.244L156.574 165.283M154.672 173.244L139.023 163.159M154.672 173.244L147.788 130.866M156.574 165.283L161.031 156.027M156.574 165.283L147.788 130.866M161.031 156.027L166.777 147.556L147.788 130.866M161.031 156.027L147.788 130.866M114.521 135.692L119.431 129.562M114.521 135.692L127.266 136.611M123.152 124.417L128.798 114.175L147.788 130.866M123.152 124.417L119.431 129.562M123.152 124.417L127.266 136.611M119.431 129.562L127.266 136.611M147.788 130.866L139.023 163.159M147.788 130.866L127.266 136.611" stroke="#230000"/>
<g filter="url(#filter0_d_169_188)">
<path d="M149.035 70.5116L149.78 69.2096L159.086 63.0127L164.421 59.7285L169.817 59.3592L177.194 63.5802L183.331 69.9712L189.465 80.3933L193.801 90.9385L195.904 101.358L193.918 104.83L192.063 93.9764L188.347 84.3618L182.709 73.0717L176.821 66.2468L169.877 62.2741L165.412 62.0237L159.891 64.6255L149.035 70.5116Z" fill="#100F0F"/>
<path d="M146.304 75.2855L149.78 69.2096L159.086 63.0127M146.304 75.2855L149.035 70.5116L159.891 64.6255M146.304 75.2855L144.814 77.8895L142.391 85.1442M176.821 66.2468L177.194 63.5802M176.821 66.2468L169.877 62.2741M176.821 66.2468L182.709 73.0717L188.347 84.3618M177.194 63.5802L169.817 59.3592M177.194 63.5802L183.331 69.9712L189.465 80.3933M189.465 80.3933L188.347 84.3618M189.465 80.3933L193.801 90.9385M188.347 84.3618L192.063 93.9764M169.877 62.2741L169.817 59.3592M169.877 62.2741L165.412 62.0237M193.801 90.9385L195.904 101.358L193.918 104.83L192.063 93.9764M193.801 90.9385L192.063 93.9764M169.817 59.3592L164.421 59.7285M159.086 63.0127L164.421 59.7285M159.086 63.0127L159.891 64.6255M159.891 64.6255L165.412 62.0237M164.421 59.7285L165.412 62.0237" stroke="#252323"/>
</g>
<g filter="url(#filter1_d_169_188)">
<path d="M140.468 87.4998L144.628 77.2071L148.415 69.5809" stroke="#252323"/>
</g>
<path d="M141.524 84.6476L139.788 83.6544L144.57 70.2611L147.174 71.7509L141.524 84.6476Z" fill="#251414" stroke="#252323"/>
<g style="mix-blend-mode:darken" filter="url(#filter2_di_169_188)">
<path d="M199.839 64.6555L194.307 52.0206L202.809 28.5109L226.529 34.9626L223.948 49.4485L223.148 56.0712L217.346 60.3531L213.725 65.9555L212.154 71.7679L210.534 73.3085L203.951 70.9278L199.839 64.6555Z" fill="#251414"/>
<path d="M199.839 64.6555L194.307 52.0206L202.809 28.5109L226.529 34.9626L223.948 49.4485L223.148 56.0712L217.346 60.3531L213.725 65.9555L212.154 71.7679L210.534 73.3085L203.951 70.9278L199.839 64.6555Z" stroke="#230000"/>
</g>
<g filter="url(#filter3_dd_169_188)">
<path d="M218.991 49.3246C217.076 50.2164 215.274 45.3958 215.274 45.3958L213.242 40.8271L217.405 42.8063L220.635 46.6235C220.635 46.6235 220.11 48.8031 218.991 49.3246Z" fill="#B20000" shape-rendering="crispEdges"/>
<path d="M218.991 49.3246C217.076 50.2164 215.274 45.3958 215.274 45.3958L213.242 40.8271L217.405 42.8063L220.635 46.6235C220.635 46.6235 220.11 48.8031 218.991 49.3246Z" stroke="url(#paint0_linear_169_188)" shape-rendering="crispEdges"/>
</g>
<path d="M228.84 37.3935L196.118 61.7144L205.802 79.041L203.421 85.6237L185.704 66.9869L170.467 50.3108L174.038 40.4367L178.22 37.6955L188.433 15.3361L203.238 5.27157L215.934 9.86294L231.25 23.3778L228.84 37.3935Z" fill="#261515"/>
<path d="M196.118 61.7144L228.84 37.3935M196.118 61.7144L205.802 79.041L203.421 85.6237L185.704 66.9869M196.118 61.7144L170.467 50.3108M196.118 61.7144L174.038 40.4367M196.118 61.7144L178.22 37.6955M196.118 61.7144L185.704 66.9869M228.84 37.3935L188.433 15.3361M228.84 37.3935L203.238 5.27157M228.84 37.3935L215.934 9.86294M228.84 37.3935L231.25 23.3778L215.934 9.86294M215.934 9.86294L203.238 5.27157M203.238 5.27157L188.433 15.3361M188.433 15.3361L178.22 37.6955M178.22 37.6955L174.038 40.4367M174.038 40.4367L170.467 50.3108M170.467 50.3108L185.704 66.9869" stroke="#230000"/>
<g filter="url(#filter4_d_169_188)">
<path d="M153.009 70.802L150.156 69.7463L149.537 68.8157L149.599 67.6994L151.337 64.6614L156.178 58.2141L157.853 56.2925L159.963 54.6191L163.685 52.1403L169.703 48.6705L172.928 47.0597L175.906 45.8829L180.183 49.4821L183.716 54.3833L192.145 63.8143L203.172 86.8285L204.906 91.8528L203.229 97.8056L198.945 106.3L191.248 119.754L183.426 135.44L172.937 150.753L167.04 160.052L164.246 165.942L162.759 164.515L165.056 159.493L170.704 150.628L181.193 135.315L189.76 118.326L197.706 104.439L200.685 99.2307L193.871 84.9631L186.313 67.9665L179.495 61.7612L173.542 60.0836L160.084 60.4488L153.009 70.802Z" fill="#3C3C3C"/>
<path d="M150.156 69.7463L153.009 70.802L160.084 60.4488M150.156 69.7463L149.537 68.8157L149.599 67.6994M150.156 69.7463L160.084 60.4488M149.599 67.6994L151.337 64.6614M149.599 67.6994L160.084 60.4488M151.337 64.6614L156.178 58.2141M151.337 64.6614L160.084 60.4488M156.178 58.2141L157.853 56.2925M156.178 58.2141L160.084 60.4488M157.853 56.2925L159.963 54.6191M157.853 56.2925L173.542 60.0836M159.963 54.6191L163.685 52.1403M159.963 54.6191L173.542 60.0836M175.906 45.8829L179.495 61.7612M175.906 45.8829L172.928 47.0597L169.703 48.6705M175.906 45.8829L180.183 49.4821L183.716 54.3833M192.145 63.8143L203.172 86.8285M192.145 63.8143L183.716 54.3833M192.145 63.8143L186.313 67.9665M203.172 86.8285L204.906 91.8528M203.172 86.8285L193.871 84.9631M204.906 91.8528L203.229 97.8056M204.906 91.8528L193.871 84.9631M203.229 97.8056L198.945 106.3M203.229 97.8056L200.685 99.2307M198.945 106.3L191.248 119.754M198.945 106.3L197.706 104.439M189.76 118.326L197.706 104.439M189.76 118.326L181.193 135.315M189.76 118.326L191.248 119.754M197.706 104.439L200.685 99.2307M200.685 99.2307L193.871 84.9631M186.313 67.9665L179.495 61.7612M186.313 67.9665L193.871 84.9631M179.495 61.7612L173.542 60.0836M179.495 61.7612L169.703 48.6705M179.495 61.7612L183.716 54.3833M173.542 60.0836L160.084 60.4488M173.542 60.0836L163.685 52.1403M163.685 52.1403L169.703 48.6705M165.056 159.493L162.759 164.515L164.246 165.942L167.04 160.052M165.056 159.493L170.704 150.628M165.056 159.493L167.04 160.052M167.04 160.052L172.937 150.753M170.704 150.628L181.193 135.315M170.704 150.628L172.937 150.753M181.193 135.315L183.426 135.44M172.937 150.753L183.426 135.44M183.426 135.44L191.248 119.754" stroke="#251414"/>
</g>
<g filter="url(#filter5_d_169_188)">
<g filter="url(#filter6_d_169_188)">
<path d="M101.495 148.449C101.904 147.761 103.477 146.136 104.397 145.52L106.75 142.847L118.571 151.03L130.864 157.749L141.356 164.561L152.533 171.199L151.855 176.03L150.323 178.61L142.591 172.273L133.993 167.167L120.236 158.997L106.404 151.364L102.921 149.295L101.495 148.449Z" fill="#3C3C3C"/>
<path d="M106.75 142.847L104.397 145.52C103.477 146.136 101.904 147.761 101.495 148.449L102.921 149.295M106.75 142.847L118.571 151.03M106.75 142.847L106.404 151.364M106.75 142.847L102.921 149.295M106.404 151.364L102.921 149.295M106.404 151.364L120.236 158.997M133.993 167.167L120.236 158.997M133.993 167.167L142.591 172.273M133.993 167.167L130.864 157.749M130.864 157.749L118.571 151.03M130.864 157.749L141.356 164.561M120.236 158.997L118.571 151.03M141.356 164.561L152.533 171.199L151.855 176.03L150.323 178.61L142.591 172.273M141.356 164.561L142.591 172.273" stroke="#251414"/>
</g>
<path d="M170.21 164H169.41V156L170.21 157V164Z" fill="#1F1F1F"/>
<path d="M169.41 164H170.21V157M169.41 164V156L170.21 157M169.41 164C169.41 163.619 169.877 160.175 170.21 157" stroke="#251414"/>
</g>
<path d="M174.573 78.2229L178.352 85.3621L196.655 100.887L191.654 109.102L188.178 118.611L181.43 114.198L169.402 105.963L156.346 98.1666L149.863 92.6684L148.811 88.4978L151.964 79.3703L161.044 73.3034L167.444 73.4872L174.573 78.2229Z" fill="#251414"/>
<path d="M178.352 85.3621L174.573 78.2229M178.352 85.3621L196.655 100.887L191.654 109.102M178.352 85.3621L172.173 96.5119M172.173 96.5119L180.065 101.894L185.287 105.013L191.654 109.102M172.173 96.5119L174.573 78.2229M172.173 96.5119C171.644 96.0635 167.697 92.715 163.403 89.0731M172.173 96.5119L156.346 98.1666M174.573 78.2229L167.444 73.4872M167.444 73.4872L161.044 73.3034M167.444 73.4872L163.403 89.0731M151.964 79.3703L161.044 73.3034M151.964 79.3703L148.811 88.4978M151.964 79.3703C154.272 81.328 160.264 86.4109 163.403 89.0731M161.044 73.3034L163.403 89.0731M191.654 109.102L188.178 118.611L181.43 114.198L169.402 105.963L156.346 98.1666M148.811 88.4978L149.863 92.6684M148.811 88.4978L163.403 89.0731M149.863 92.6684L156.346 98.1666M149.863 92.6684L163.403 89.0731" stroke="#230000"/>
<path d="M202.942 130.474L207.843 133.971L220.723 138.726L224.075 130.997L227.428 123.268L215.746 114.82L211.933 113.406L202.493 105.804L199.399 103.964L197.259 100.911L193.736 102.578L188.964 107.03L182.758 114.526L187.071 117.093L188.614 119.352L188.925 119.807L199.33 127.743L201.049 128.766L202.942 130.474Z" fill="#251414"/>
<path d="M215.746 114.82L211.933 113.406M215.746 114.82L227.428 123.268L224.075 130.997M215.746 114.82L215.094 123.74M207.843 133.971L202.942 130.474L201.049 128.766M207.843 133.971L220.723 138.726L224.075 130.997M207.843 133.971L215.094 123.74M211.933 113.406L202.493 105.804L199.399 103.964M211.933 113.406L205.21 117.86M199.33 127.743L188.925 119.807L188.614 119.352M199.33 127.743L201.049 128.766M199.33 127.743C199.535 127.399 203.25 121.155 205.21 117.86M199.399 103.964L197.259 100.911L193.736 102.578L188.964 107.03M199.399 103.964L188.964 107.03M199.399 103.964C196.001 108.763 189.086 118.559 188.614 119.352M187.071 117.093L182.758 114.526L188.964 107.03M187.071 117.093C187.528 116.326 188.523 110.065 188.964 107.03M187.071 117.093L188.614 119.352M188.964 107.03L205.21 117.86M205.21 117.86L215.094 123.74M205.21 117.86L201.049 128.766M215.094 123.74L224.075 130.997" stroke="#230000"/>
<path d="M267.162 110.384L263.903 105.793L256.067 118.944L247.921 107.466L261.119 97.5383L267.964 95.0331L275.078 99.7722L267.162 110.384Z" fill="#403535"/>
<path d="M263.903 105.793L267.162 110.384L275.078 99.7722L267.964 95.0331L261.119 97.5383L247.921 107.466M263.903 105.793L256.067 118.944L247.921 107.466M263.903 105.793C263.566 106.012 253.823 107.43 247.921 107.466" stroke="black"/>
<path d="M267.987 95.0837L274.653 100.143L272.957 102.085L267.162 110.385L265.206 107.63L263.903 105.793L266.807 101.22L267.405 105.529" stroke="black"/>
<path d="M221.22 142.438L223.052 137.22L219.005 129.786L227.747 124.771L247.25 108.057L255.397 119.535L236.98 134.703L228.728 146.95L225.964 142.571L221.22 142.438Z" fill="#403535"/>
<path d="M255.397 119.535L231.411 134.267M255.397 119.535L236.98 134.703M255.397 119.535L247.25 108.057M231.411 134.267C231.411 134.267 225.382 135.999 223.052 137.22M231.411 134.267L228.509 139.71M231.411 134.267L225.944 138.695M231.411 134.267L247.25 108.057M221.22 142.438L223.052 137.22M221.22 142.438L225.944 138.695M221.22 142.438L225.964 142.571M223.052 137.22L219.005 129.786L227.747 124.771L247.25 108.057M223.052 137.22L225.944 138.695M225.944 138.695L228.509 139.71M228.509 139.71L225.964 142.571M228.509 139.71L236.98 134.703M225.964 142.571L228.728 146.95L236.98 134.703" stroke="black"/>
<defs>
<filter id="filter0_d_169_188" x="137.917" y="58.8501" width="62.5142" height="55.4384" filterUnits="userSpaceOnUse" color-interpolation-filters="sRGB">
<feFlood flood-opacity="0" result="BackgroundImageFix"/>
<feColorMatrix in="SourceAlpha" type="matrix" values="0 0 0 0 0 0 0 0 0 0 0 0 0 0 0 0 0 0 127 0" result="hardAlpha"/>
<feOffset dy="4"/>
<feGaussianBlur stdDeviation="2"/>
<feComposite in2="hardAlpha" operator="out"/>
<feColorMatrix type="matrix" values="0 0 0 0 0 0 0 0 0 0 0 0 0 0 0 0 0 0 0.25 0"/>
<feBlend mode="normal" in2="BackgroundImageFix" result="effect1_dropShadow_169_188"/>
<feBlend mode="normal" in="SourceGraphic" in2="effect1_dropShadow_169_188" result="shape"/>
</filter>
<filter id="filter1_d_169_188" x="136.004" y="69.3585" width="16.8589" height="26.3287" filterUnits="userSpaceOnUse" color-interpolation-filters="sRGB">
<feFlood flood-opacity="0" result="BackgroundImageFix"/>
<feColorMatrix in="SourceAlpha" type="matrix" values="0 0 0 0 0 0 0 0 0 0 0 0 0 0 0 0 0 0 127 0" result="hardAlpha"/>
<feOffset dy="4"/>
<feGaussianBlur stdDeviation="2"/>
<feComposite in2="hardAlpha" operator="out"/>
<feColorMatrix type="matrix" values="0 0 0 0 0 0 0 0 0 0 0 0 0 0 0 0 0 0 0.25 0"/>
<feBlend mode="normal" in2="BackgroundImageFix" result="effect1_dropShadow_169_188"/>
<feBlend mode="normal" in="SourceGraphic" in2="effect1_dropShadow_169_188" result="shape"/>
</filter>
<filter id="filter2_di_169_188" x="189.768" y="24.9075" width="41.3328" height="54.2763" filterUnits="userSpaceOnUse" color-interpolation-filters="sRGB">
<feFlood flood-opacity="0" result="BackgroundImageFix"/>
<feColorMatrix in="SourceAlpha" type="matrix" values="0 0 0 0 0 0 0 0 0 0 0 0 0 0 0 0 0 0 127 0" result="hardAlpha"/>
<feOffset dy="1"/>
<feGaussianBlur stdDeviation="2"/>
<feComposite in2="hardAlpha" operator="out"/>
<feColorMatrix type="matrix" values="0 0 0 0 1 0 0 0 0 1 0 0 0 0 1 0 0 0 1 0"/>
<feBlend mode="normal" in2="BackgroundImageFix" result="effect1_dropShadow_169_188"/>
<feBlend mode="normal" in="SourceGraphic" in2="effect1_dropShadow_169_188" result="shape"/>
<feColorMatrix in="SourceAlpha" type="matrix" values="0 0 0 0 0 0 0 0 0 0 0 0 0 0 0 0 0 0 127 0" result="hardAlpha"/>
<feOffset dx="3" dy="10"/>
<feGaussianBlur stdDeviation="2.65"/>
<feComposite in2="hardAlpha" operator="arithmetic" k2="-1" k3="1"/>
<feColorMatrix type="matrix" values="0 0 0 0 0 0 0 0 0 0 0 0 0 0 0 0 0 0 0.25 0"/>
<feBlend mode="normal" in2="shape" result="effect2_innerShadow_169_188"/>
</filter>
<filter id="filter3_dd_169_188" x="208.236" y="39.7953" width="16.9442" height="18.1401" filterUnits="userSpaceOnUse" color-interpolation-filters="sRGB">
<feFlood flood-opacity="0" result="BackgroundImageFix"/>
<feColorMatrix in="SourceAlpha" type="matrix" values="0 0 0 0 0 0 0 0 0 0 0 0 0 0 0 0 0 0 127 0" result="hardAlpha"/>
<feOffset dy="4"/>
<feGaussianBlur stdDeviation="2"/>
<feComposite in2="hardAlpha" operator="out"/>
<feColorMatrix type="matrix" values="0 0 0 0 0 0 0 0 0 0 0 0 0 0 0 0 0 0 0.25 0"/>
<feBlend mode="normal" in2="BackgroundImageFix" result="effect1_dropShadow_169_188"/>
<feColorMatrix in="SourceAlpha" type="matrix" values="0 0 0 0 0 0 0 0 0 0 0 0 0 0 0 0 0 0 127 0" result="hardAlpha"/>
<feOffset dy="4"/>
<feGaussianBlur stdDeviation="2"/>
<feComposite in2="hardAlpha" operator="out"/>
<feColorMatrix type="matrix" values="0 0 0 0 0 0 0 0 0 0 0 0 0 0 0 0 0 0 0.25 0"/>
<feBlend mode="normal" in2="effect1_dropShadow_169_188" result="effect2_dropShadow_169_188"/>
<feBlend mode="normal" in="SourceGraphic" in2="effect2_dropShadow_169_188" result="shape"/>
</filter>
<filter id="filter4_d_169_188" x="145.028" y="45.3082" width="64.4019" height="129.475" filterUnits="userSpaceOnUse" color-interpolation-filters="sRGB">
<feFlood flood-opacity="0" result="BackgroundImageFix"/>
<feColorMatrix in="SourceAlpha" type="matrix" values="0 0 0 0 0 0 0 0 0 0 0 0 0 0 0 0 0 0 127 0" result="hardAlpha"/>
<feOffset dy="4"/>
<feGaussianBlur stdDeviation="2"/>
<feComposite in2="hardAlpha" operator="out"/>
<feColorMatrix type="matrix" values="0 0 0 0 0 0 0 0 0 0 0 0 0 0 0 0 0 0 0.25 0"/>
<feBlend mode="normal" in2="BackgroundImageFix" result="effect1_dropShadow_169_188"/>
<feBlend mode="normal" in="SourceGraphic" in2="effect1_dropShadow_169_188" result="shape"/>
</filter>
<filter id="filter5_d_169_188" x="96.8099" y="142.182" width="77.9001" height="45.1827" filterUnits="userSpaceOnUse" color-interpolation-filters="sRGB">
<feFlood flood-opacity="0" result="BackgroundImageFix"/>
<feColorMatrix in="SourceAlpha" type="matrix" values="0 0 0 0 0 0 0 0 0 0 0 0 0 0 0 0 0 0 127 0" result="hardAlpha"/>
<feOffset dy="4"/>
<feGaussianBlur stdDeviation="2"/>
<feComposite in2="hardAlpha" operator="out"/>
<feColorMatrix type="matrix" values="0 0 0 0 0 0 0 0 0 0 0 0 0 0 0 0 0 0 0.25 0"/>
<feBlend mode="normal" in2="BackgroundImageFix" result="effect1_dropShadow_169_188"/>
<feBlend mode="normal" in="SourceGraphic" in2="effect1_dropShadow_169_188" result="shape"/>
</filter>
<filter id="filter6_d_169_188" x="96.8099" y="142.182" width="60.2649" height="45.1827" filterUnits="userSpaceOnUse" color-interpolation-filters="sRGB">
<feFlood flood-opacity="0" result="BackgroundImageFix"/>
<feColorMatrix in="SourceAlpha" type="matrix" values="0 0 0 0 0 0 0 0 0 0 0 0 0 0 0 0 0 0 127 0" result="hardAlpha"/>
<feOffset dy="4"/>
<feGaussianBlur stdDeviation="2"/>
<feComposite in2="hardAlpha" operator="out"/>
<feColorMatrix type="matrix" values="0 0 0 0 0 0 0 0 0 0 0 0 0 0 0 0 0 0 0.25 0"/>
<feBlend mode="normal" in2="BackgroundImageFix" result="effect1_dropShadow_169_188"/>
<feBlend mode="normal" in="SourceGraphic" in2="effect1_dropShadow_169_188" result="shape"/>
</filter>
<linearGradient id="paint0_linear_169_188" x1="224.46" y1="43.3959" x2="222.707" y2="51.0504" gradientUnits="userSpaceOnUse">
<stop stop-opacity="0.1"/>
<stop offset="1" stop-color="#FF0000" stop-opacity="0"/>
<stop offset="1" stop-color="#FF0000" stop-opacity="0"/>
</linearGradient>
</defs>
</svg>
