<svg width="271" height="354" viewBox="0 0 271 354" fill="none" xmlns="http://www.w3.org/2000/svg">
<path d="M162.216 97.3438L154.196 96.3811L131.009 102.575L116.984 116.5L112.984 106.5L110.984 97.3438L111.984 91.5001L113.984 88.3678C116.151 87.415 120.642 85.5094 121.275 85.5094L128.745 82.4786L142.367 77.2871L156.214 71.0004L164.426 68.8066L168.452 70.3186L174.157 78.1104L173.968 89.0289L170.17 94.1839L162.216 97.3438Z" fill="#251414"/>
<path d="M154.196 96.3811L162.216 97.3438M154.196 96.3811L131.009 102.575M154.196 96.3811L148.554 84.9498M148.554 84.9498L139.634 88.3678L134.096 90.8824L127.108 93.7842M148.554 84.9498L162.216 97.3438M148.554 84.9498C149.224 84.7709 154.225 83.4349 159.665 81.9817M148.554 84.9498L156.214 71.0004M162.216 97.3438L170.17 94.1839M170.17 94.1839L173.968 89.0289M170.17 94.1839L159.665 81.9817M174.157 78.1104L173.968 89.0289M174.157 78.1104L168.452 70.3186M174.157 78.1104C171.233 78.8915 163.641 80.9196 159.665 81.9817M173.968 89.0289L159.665 81.9817M127.108 93.7842L131.009 102.575M127.108 93.7842L121.275 85.5094M131.009 102.575L116.984 116.5L112.984 106.5M168.452 70.3186L164.426 68.8066M168.452 70.3186L159.665 81.9817M164.426 68.8066L156.214 71.0004M164.426 68.8066L159.665 81.9817M156.214 71.0004L142.367 77.2871L128.745 82.4786L121.275 85.5094M121.275 85.5094C120.642 85.5094 116.151 87.415 113.984 88.3678L111.984 91.5001M121.275 85.5094C118.844 91.8396 113.784 104.9 112.984 106.5M121.275 85.5094L110.984 97.3438M121.275 85.5094L111.984 91.5001M111.984 91.5001L110.984 97.3438M110.984 97.3438L112.984 106.5" stroke="#230000"/>
<path d="M146.308 123.443L149.607 128.48L153.842 141.54L145.986 144.581L138.129 147.622L130.155 135.611L128.894 131.745L121.676 122.008L119.961 118.843L116.996 116.582L118.803 113.129L123.442 108.539L131.181 102.638L133.572 107.05L135.768 108.682L136.21 109.011L143.724 119.725L144.677 121.484L146.308 123.443Z" fill="#251414"/>
<path d="M130.155 135.611L128.894 131.745M130.155 135.611L138.129 147.622L145.986 144.581M130.155 135.611L139.094 135.316M149.607 128.48L146.308 123.443L144.677 121.484M149.607 128.48L153.842 141.54L145.986 144.581M149.607 128.48L139.094 135.316M128.894 131.745L121.676 122.008L119.961 118.843M128.894 131.745L133.614 125.206M143.724 119.725L136.21 109.011L135.768 108.682M143.724 119.725L144.677 121.484M143.724 119.725C143.372 119.916 136.984 123.379 133.614 125.206M119.961 118.843L116.996 116.582L118.803 113.129L123.442 108.539M119.961 118.843L123.442 108.539M119.961 118.843C124.892 115.639 134.957 109.122 135.768 108.682M133.572 107.05L131.181 102.638L123.442 108.539M133.572 107.05C132.788 107.475 126.492 108.22 123.442 108.539M133.572 107.05L135.768 108.682M123.442 108.539L133.614 125.206M133.614 125.206L139.094 135.316M133.614 125.206L144.677 121.484M139.094 135.316L145.986 144.581" stroke="#230000"/>
<path d="M168.818 188.132L173.359 185.872L161.488 176.133L172.839 170.483L181.32 184.713L183.228 191.622L178.293 197.496L168.818 188.132Z" fill="#403535"/>
<path d="M173.359 185.872L168.818 188.132L178.293 197.496L183.228 191.622L181.32 184.713L172.839 170.483M173.359 185.872L161.488 176.133L172.839 170.483M173.359 185.872C173.175 185.515 172.484 176.063 172.839 170.483" stroke="black"/>
<path d="M183.178 191.635L177.972 197.028L176.254 195.081L168.818 188.132L175.106 185.388L176.952 187.671L173.409 189.825" stroke="black"/>
<path d="M174.45 185.68L177.547 188.958" stroke="black"/>
<path d="M144.27 143.552L147.187 143.012L154.457 140.514L158.604 149.661L173.061 171.052L161.71 176.701L148.637 156.611L137.646 146.64L141.954 144.81L144.27 143.552Z" fill="#403535"/>
<path d="M161.71 176.701L149.417 151.431M161.71 176.701L148.637 156.611M161.71 176.701L173.061 171.052M149.417 151.431C149.417 151.431 148.184 145.43 147.187 143.012M149.417 151.431L144.48 147.722M149.417 151.431L173.061 171.052M147.187 143.012L144.27 143.552L141.954 144.81M147.187 143.012L154.457 140.514L158.604 149.661L173.061 171.052M144.48 147.722L141.954 144.81M144.48 147.722L148.637 156.611M141.954 144.81L137.646 146.64L148.637 156.611" stroke="black"/>
<path d="M164.477 240.729L160.243 235.108L154.966 221.427L145.368 204.576L144.73 197.568L134.551 182.086L134.182 165.079L82.574 178.555L91.8036 186.249L101.753 195.809L105.368 201.265L119.344 232.144L125.462 234.621L132.566 253.038L130.681 256.183L164.477 240.729Z" fill="#251414"/>
<path d="M160.243 235.108L164.477 240.729L130.681 256.183L132.566 253.038M160.243 235.108L154.966 221.427M160.243 235.108L132.566 253.038M154.966 221.427L145.368 204.576M154.966 221.427L125.462 234.621M145.368 204.576L144.73 197.568M145.368 204.576L119.344 232.144M144.73 197.568L134.551 182.086M144.73 197.568L105.368 201.265M134.551 182.086L134.182 165.079M134.551 182.086L101.753 195.809M134.182 165.079L82.574 178.555L91.8036 186.249L101.753 195.809M134.182 165.079L101.753 195.809M101.753 195.809L105.368 201.265M105.368 201.265L119.344 232.144M119.344 232.144L125.462 234.621M125.462 234.621L132.566 253.038" stroke="#230000"/>
<path d="M151.474 260.727L157.039 256.055L162.589 247.016L163.138 240.715L154.757 234.905L137.842 228.669L129.555 232.707L130.802 235.711L130.496 240.151L113.091 265.258L98.8091 286.011L97.4203 290.178L103.955 296.587L123.465 282.543L151.474 260.727Z" fill="#251414"/>
<path d="M103.955 296.587L97.4203 290.178L98.8091 286.011M103.955 296.587L98.8091 286.011M103.955 296.587L123.465 282.543M151.474 260.727L157.039 256.055M151.474 260.727L123.465 282.543M151.474 260.727L130.496 240.151M157.039 256.055L130.802 235.711M157.039 256.055L162.589 247.016M130.802 235.711L130.496 240.151M130.802 235.711L129.555 232.707L137.842 228.669M130.802 235.711C142.162 239.81 162.589 247.016 162.589 247.016M130.802 235.711C141.313 237.159 163.138 240.715 163.138 240.715M130.802 235.711L154.757 234.905M130.802 235.711L137.842 228.669M130.496 240.151L113.091 265.258M113.091 265.258L98.8091 286.011M113.091 265.258L123.465 282.543M98.8091 286.011L123.465 282.543M162.589 247.016L163.138 240.715M163.138 240.715L154.757 234.905M154.757 234.905L137.842 228.669" stroke="#230000"/>
<path d="M80 299.006L83.8259 302.058L114.757 333.096L118.258 329.526L100.23 299.238L112.116 291.986L100.652 279.341L94.3293 291.349L88.0476 292.191L85.6019 293.294L80 299.006Z" fill="#252020"/>
<path d="M83.8259 302.058L80 299.006L85.6019 293.294M83.8259 302.058L114.757 333.096M83.8259 302.058C83.8279 301.5 84.6623 295.875 85.6019 293.294M83.8259 302.058L88.0476 292.191M83.8259 302.058C84.0265 301.694 90.7951 294.886 94.3293 291.349M114.757 333.096L118.258 329.526L100.23 299.238M114.757 333.096L94.3293 291.349M100.23 299.238L112.116 291.986M100.23 299.238L97.2798 295.294M112.116 291.986L100.652 279.341M112.116 291.986L97.2798 295.294M100.652 279.341L94.3293 291.349M100.652 279.341L97.2798 295.294M94.3293 291.349L88.0476 292.191M94.3293 291.349L97.2798 295.294M85.6019 293.294L88.0476 292.191" stroke="black"/>
<path d="M83.1136 258.001L85.2684 251.287L93.4878 239.143L101.778 221.599L107.211 217.103L114.022 199.847L132.1 192.763L86.1881 154.443L85.2716 166.502L83.234 180.216L80.8498 186.321L63.5206 215.455L65.0887 221.964L54.0241 238.312L50.3013 238.516L83.1136 258.001Z" fill="#251414"/>
<path d="M85.2684 251.287L83.1136 258.001L50.3013 238.516L54.0241 238.312M85.2684 251.287L93.4878 239.143M85.2684 251.287L54.0241 238.312M93.4878 239.143L101.778 221.599M93.4878 239.143L65.0887 221.964M101.778 221.599L107.211 217.103M101.778 221.599L63.5206 215.455M107.211 217.103L114.022 199.847M107.211 217.103L80.8498 186.321M114.022 199.847L132.1 192.763M114.022 199.847L83.234 180.216M132.1 192.763L86.1881 154.443L85.2716 166.502L83.234 180.216M132.1 192.763L83.234 180.216M83.234 180.216L80.8498 186.321M80.8498 186.321L63.5206 215.455M63.5206 215.455L65.0887 221.964M65.0887 221.964L54.0241 238.312" stroke="#230000"/>
<path d="M77.2788 259.897L84.5372 257.999L51.7249 238.515L52.2863 242.981L39.7928 270.886L29.5703 293.933L28.9963 298.312L36.7808 303.58L53.5409 286.321L77.2788 259.897Z" fill="#251414"/>
<path d="M36.7808 303.58L28.9963 298.312L29.5703 293.933M36.7808 303.58L29.5703 293.933M36.7808 303.58L53.5409 286.321M77.2788 259.897L84.5372 257.999L51.7249 238.515M77.2788 259.897L53.5409 286.321M77.2788 259.897L52.2863 242.981M55.4477 238.31L51.7249 238.515M51.7249 238.515L52.2863 242.981M52.2863 242.981L39.7928 270.886M39.7928 270.886L29.5703 293.933M39.7928 270.886L53.5409 286.321M29.5703 293.933L53.5409 286.321" stroke="#230000"/>
<path d="M11.2127 317.714L15.6338 320.103L52.6198 345.74L55.4224 341.6L31.4822 314.528L41.9477 305.31L28.0158 294.673L24.0416 307.681L17.9263 309.579L15.6969 311.089L11.2127 317.714Z" fill="#252020"/>
<path d="M15.6338 320.103L11.2127 317.714L15.6969 311.089M15.6338 320.103L52.6198 345.74M15.6338 320.103C15.5268 319.547 15.2618 313.813 15.6969 311.089M15.6338 320.103L17.9263 309.579M15.6338 320.103C15.7634 319.708 21.1996 311.795 24.0416 307.681M52.6198 345.74L55.4224 341.6L31.4822 314.528M52.6198 345.74L24.0416 307.681M31.4822 314.528L41.9477 305.31M31.4822 314.528L27.7619 311.104M41.9477 305.31L28.0158 294.673M41.9477 305.31L27.7619 311.104M28.0158 294.673L24.0416 307.681M28.0158 294.673L27.7619 311.104M24.0416 307.681L17.9263 309.579M24.0416 307.681L27.7619 311.104M15.6969 311.089L17.9263 309.579" stroke="black"/>
<path d="M79.925 163.518L81.7034 160.503L94.7924 147.326L127.009 167.503L142.693 177.327L128.875 198.781L111.447 207.657L100.35 202.852L85.1779 192.16L79.8246 175.65L79.925 163.518Z" fill="#251414"/>
<path d="M79.925 163.518L81.7034 160.503M79.925 163.518L79.8246 175.65M79.925 163.518L115.283 181.475M81.7034 160.503L94.7924 147.326M81.7034 160.503L115.283 181.475M94.7924 147.326L127.009 167.503M94.7924 147.326L115.283 181.475M128.875 198.781L142.693 177.327M128.875 198.781L111.447 207.657L100.35 202.852M128.875 198.781L115.283 181.475M128.875 198.781C119.211 199.418 101.089 203.172 100.35 202.852M128.875 198.781L85.1779 192.16M142.693 177.327L127.009 167.503M142.693 177.327L115.283 181.475M100.35 202.852L85.1779 192.16M79.8246 175.65L85.1779 192.16M79.8246 175.65L115.283 181.475M127.009 167.503L115.283 181.475" stroke="#230000"/>
<path d="M173.534 66.0631L190.904 85.7264L188.837 96.7076L177.912 115.803L169.593 132.358L158.856 148.104L139.608 131.908L120.36 115.711L130.54 97.9178L137.062 77.4554L147.739 58.7937L164.863 44.9727L173.534 66.0631Z" fill="#251414"/>
<path d="M173.534 66.0631L190.904 85.7264M173.534 66.0631L164.863 44.9727M173.534 66.0631L166.277 67.6718M173.534 66.0631L174.212 73.9397M190.904 85.7264L188.837 96.7076M190.904 85.7264L175.946 78.964M188.837 96.7076L177.912 115.803M188.837 96.7076L171.477 86.7758M169.593 132.358L158.856 148.104M169.593 132.358L177.912 115.803M169.593 132.358L165.025 89.9974M158.856 148.104L165.025 89.9974M158.856 148.104L139.608 131.908M158.856 148.104L145.033 115.426M120.36 115.711L130.54 97.9178L137.062 77.4554M120.36 115.711L139.608 131.908M120.36 115.711L145.033 115.426M164.863 44.9727L147.739 58.7937M164.863 44.9727L160.758 66.2425M137.062 77.4554L147.739 58.7937M137.062 77.4554L151.947 75.6026M147.739 58.7937L156.416 67.7907M177.912 115.803L165.025 89.9974M151.947 75.6026L151.572 82.3003L154.856 87.6355L159.434 90.2546M151.947 75.6026L156.416 67.7907M166.277 67.6718L160.758 66.2425M166.277 67.6718L170.855 70.2909L174.212 73.9397M160.758 66.2425L156.416 67.7907M174.212 73.9397L175.946 78.964M175.946 78.964L171.477 86.7758M171.477 86.7758L165.025 89.9974M165.025 89.9974L159.434 90.2546M159.434 90.2546L145.033 115.426M139.608 131.908L145.033 115.426" stroke="#230000"/>
<path d="M148.574 165.283L146.671 173.244L131.022 163.159L98.7437 142.357L106.521 135.692L111.431 129.562L115.151 124.417L120.798 114.175L139.787 130.866L158.777 147.556L153.031 156.027L148.574 165.283Z" fill="#251414"/>
<path d="M98.7437 142.357L106.521 135.692M98.7437 142.357L131.022 163.159M98.7437 142.357L119.265 136.611M146.671 173.244L148.574 165.283M146.671 173.244L131.022 163.159M146.671 173.244L139.787 130.866M148.574 165.283L153.031 156.027M148.574 165.283L139.787 130.866M153.031 156.027L158.777 147.556L139.787 130.866M153.031 156.027L139.787 130.866M106.521 135.692L111.431 129.562M106.521 135.692L119.265 136.611M115.151 124.417L120.798 114.175L139.787 130.866M115.151 124.417L111.431 129.562M115.151 124.417L119.265 136.611M111.431 129.562L119.265 136.611M139.787 130.866L131.022 163.159M139.787 130.866L119.265 136.611" stroke="#230000"/>
<g filter="url(#filter0_d_169_313)">
<path d="M141.035 70.5116L141.78 69.2096L151.085 63.0127L156.421 59.7285L161.816 59.3592L169.194 63.5802L175.331 69.9712L181.465 80.3933L185.801 90.9385L187.904 101.358L185.918 104.83L184.063 93.9764L180.347 84.3618L174.709 73.0717L168.821 66.2468L161.877 62.2741L157.412 62.0237L151.891 64.6255L141.035 70.5116Z" fill="#100F0F"/>
<path d="M138.304 75.2855L141.78 69.2096L151.085 63.0127M138.304 75.2855L141.035 70.5116L151.891 64.6255M138.304 75.2855L136.814 77.8895L134.391 85.1442M168.821 66.2468L169.194 63.5802M168.821 66.2468L161.877 62.2741M168.821 66.2468L174.709 73.0717L180.347 84.3618M169.194 63.5802L161.816 59.3592M169.194 63.5802L175.331 69.9712L181.465 80.3933M181.465 80.3933L180.347 84.3618M181.465 80.3933L185.801 90.9385M180.347 84.3618L184.063 93.9764M161.877 62.2741L161.816 59.3592M161.877 62.2741L157.412 62.0237M185.801 90.9385L187.904 101.358L185.918 104.83L184.063 93.9764M185.801 90.9385L184.063 93.9764M161.816 59.3592L156.421 59.7285M151.085 63.0127L156.421 59.7285M151.085 63.0127L151.891 64.6255M151.891 64.6255L157.412 62.0237M156.421 59.7285L157.412 62.0237" stroke="#252323"/>
</g>
<g filter="url(#filter1_d_169_313)">
<path d="M132.468 87.4998L136.628 77.2071L140.415 69.5809" stroke="#252323"/>
</g>
<path d="M133.523 84.6476L131.787 83.6544L136.57 70.2611L139.174 71.7509L133.523 84.6476Z" fill="#251414" stroke="#252323"/>
<g style="mix-blend-mode:darken" filter="url(#filter2_di_169_313)">
<path d="M191.839 64.6555L186.306 52.0206L194.809 28.5109L218.529 34.9626L215.948 49.4485L215.148 56.0712L209.346 60.3531L205.725 65.9555L204.154 71.7679L202.534 73.3085L195.951 70.9278L191.839 64.6555Z" fill="#251414"/>
<path d="M191.839 64.6555L186.306 52.0206L194.809 28.5109L218.529 34.9626L215.948 49.4485L215.148 56.0712L209.346 60.3531L205.725 65.9555L204.154 71.7679L202.534 73.3085L195.951 70.9278L191.839 64.6555Z" stroke="#230000"/>
</g>
<g filter="url(#filter3_dd_169_313)">
<path d="M210.99 49.3246C209.076 50.2164 207.273 45.3958 207.273 45.3958L205.242 40.8271L209.405 42.8063L212.635 46.6235C212.635 46.6235 212.11 48.8031 210.99 49.3246Z" fill="#B20000" shape-rendering="crispEdges"/>
<path d="M210.99 49.3246C209.076 50.2164 207.273 45.3958 207.273 45.3958L205.242 40.8271L209.405 42.8063L212.635 46.6235C212.635 46.6235 212.11 48.8031 210.99 49.3246Z" stroke="url(#paint0_linear_169_313)" shape-rendering="crispEdges"/>
</g>
<path d="M220.84 37.3935L188.117 61.7144L197.802 79.041L195.421 85.6237L177.703 66.9869L162.467 50.3108L166.038 40.4367L170.219 37.6955L180.433 15.3361L195.238 5.27157L207.933 9.86294L223.25 23.3778L220.84 37.3935Z" fill="#261515"/>
<path d="M188.117 61.7144L220.84 37.3935M188.117 61.7144L197.802 79.041L195.421 85.6237L177.703 66.9869M188.117 61.7144L162.467 50.3108M188.117 61.7144L166.038 40.4367M188.117 61.7144L170.219 37.6955M188.117 61.7144L177.703 66.9869M220.84 37.3935L180.433 15.3361M220.84 37.3935L195.238 5.27157M220.84 37.3935L207.933 9.86294M220.84 37.3935L223.25 23.3778L207.933 9.86294M207.933 9.86294L195.238 5.27157M195.238 5.27157L180.433 15.3361M180.433 15.3361L170.219 37.6955M170.219 37.6955L166.038 40.4367M166.038 40.4367L162.467 50.3108M162.467 50.3108L177.703 66.9869" stroke="#230000"/>
<g filter="url(#filter4_d_169_313)">
<path d="M145.008 70.802L142.156 69.7463L141.536 68.8157L141.599 67.6994L143.337 64.6614L148.178 58.2141L149.853 56.2925L151.963 54.6191L155.685 52.1403L161.702 48.6705L164.928 47.0597L167.906 45.8829L172.183 49.4821L175.715 54.3833L184.145 63.8143L195.172 86.8285L196.906 91.8528L195.228 97.8056L190.945 106.3L183.248 119.754L175.425 135.44L164.936 150.753L159.04 160.052L156.246 165.942L154.759 164.515L157.056 159.493L162.704 150.628L173.193 135.315L181.76 118.326L189.705 104.439L192.685 99.2307L185.87 84.9631L178.313 67.9665L171.494 61.7612L165.542 60.0836L152.084 60.4488L145.008 70.802Z" fill="#3C3C3C"/>
<path d="M142.156 69.7463L145.008 70.802L152.084 60.4488M142.156 69.7463L141.536 68.8157L141.599 67.6994M142.156 69.7463L152.084 60.4488M141.599 67.6994L143.337 64.6614M141.599 67.6994L152.084 60.4488M143.337 64.6614L148.178 58.2141M143.337 64.6614L152.084 60.4488M148.178 58.2141L149.853 56.2925M148.178 58.2141L152.084 60.4488M149.853 56.2925L151.963 54.6191M149.853 56.2925L165.542 60.0836M151.963 54.6191L155.685 52.1403M151.963 54.6191L165.542 60.0836M167.906 45.8829L171.494 61.7612M167.906 45.8829L164.928 47.0597L161.702 48.6705M167.906 45.8829L172.183 49.4821L175.715 54.3833M184.145 63.8143L195.172 86.8285M184.145 63.8143L175.715 54.3833M184.145 63.8143L178.313 67.9665M195.172 86.8285L196.906 91.8528M195.172 86.8285L185.87 84.9631M196.906 91.8528L195.228 97.8056M196.906 91.8528L185.87 84.9631M195.228 97.8056L190.945 106.3M195.228 97.8056L192.685 99.2307M190.945 106.3L183.248 119.754M190.945 106.3L189.705 104.439M181.76 118.326L189.705 104.439M181.76 118.326L173.193 135.315M181.76 118.326L183.248 119.754M189.705 104.439L192.685 99.2307M192.685 99.2307L185.87 84.9631M178.313 67.9665L171.494 61.7612M178.313 67.9665L185.87 84.9631M171.494 61.7612L165.542 60.0836M171.494 61.7612L161.702 48.6705M171.494 61.7612L175.715 54.3833M165.542 60.0836L152.084 60.4488M165.542 60.0836L155.685 52.1403M155.685 52.1403L161.702 48.6705M157.056 159.493L154.759 164.515L156.246 165.942L159.04 160.052M157.056 159.493L162.704 150.628M157.056 159.493L159.04 160.052M159.04 160.052L164.936 150.753M162.704 150.628L173.193 135.315M162.704 150.628L164.936 150.753M173.193 135.315L175.425 135.44M164.936 150.753L175.425 135.44M175.425 135.44L183.248 119.754" stroke="#251414"/>
</g>
<g filter="url(#filter5_d_169_313)">
<g filter="url(#filter6_d_169_313)">
<path d="M93.4949 148.449C93.9034 147.761 95.4767 146.136 96.3972 145.52L98.7501 142.847L110.571 151.03L122.863 157.749L133.356 164.561L144.533 171.199L143.855 176.03L142.323 178.61L134.591 172.273L125.993 167.167L112.236 158.997L98.4042 151.364L94.9205 149.295L93.4949 148.449Z" fill="#3C3C3C"/>
<path d="M98.7501 142.847L96.3972 145.52C95.4767 146.136 93.9034 147.761 93.4949 148.449L94.9205 149.295M98.7501 142.847L110.571 151.03M98.7501 142.847L98.4042 151.364M98.7501 142.847L94.9205 149.295M98.4042 151.364L94.9205 149.295M98.4042 151.364L112.236 158.997M125.993 167.167L112.236 158.997M125.993 167.167L134.591 172.273M125.993 167.167L122.863 157.749M122.863 157.749L110.571 151.03M122.863 157.749L133.356 164.561M112.236 158.997L110.571 151.03M133.356 164.561L144.533 171.199L143.855 176.03L142.323 178.61L134.591 172.273M133.356 164.561L134.591 172.273" stroke="#251414"/>
</g>
<path d="M162.21 164H161.41V156L162.21 157V164Z" fill="#1F1F1F"/>
<path d="M161.41 164H162.21V157M161.41 164V156L162.21 157M161.41 164C161.41 163.619 161.876 160.175 162.21 157" stroke="#251414"/>
</g>
<path d="M166.573 78.2229L170.352 85.3621L188.655 100.887L183.653 109.102L180.177 118.611L173.43 114.198L161.402 105.963L148.345 98.1666L141.863 92.6684L140.811 88.4978L143.963 79.3703L153.043 73.3034L159.444 73.4872L166.573 78.2229Z" fill="#251414"/>
<path d="M170.352 85.3621L166.573 78.2229M170.352 85.3621L188.655 100.887L183.653 109.102M170.352 85.3621L164.173 96.5119M164.173 96.5119L172.064 101.894L177.287 105.013L183.653 109.102M164.173 96.5119L166.573 78.2229M164.173 96.5119C163.644 96.0635 159.696 92.715 155.403 89.0731M164.173 96.5119L148.345 98.1666M166.573 78.2229L159.444 73.4872M159.444 73.4872L153.043 73.3034M159.444 73.4872L155.403 89.0731M143.963 79.3703L153.043 73.3034M143.963 79.3703L140.811 88.4978M143.963 79.3703C146.271 81.328 152.264 86.4109 155.403 89.0731M153.043 73.3034L155.403 89.0731M183.653 109.102L180.177 118.611L173.43 114.198L161.402 105.963L148.345 98.1666M140.811 88.4978L141.863 92.6684M140.811 88.4978L155.403 89.0731M141.863 92.6684L148.345 98.1666M141.863 92.6684L155.403 89.0731" stroke="#230000"/>
<path d="M194.942 130.474L199.842 133.971L212.723 138.726L216.075 130.997L219.428 123.268L207.746 114.82L203.933 113.406L194.492 105.804L191.399 103.964L189.258 100.911L185.735 102.578L180.963 107.03L174.758 114.526L179.071 117.093L180.614 119.352L180.925 119.807L191.33 127.743L193.049 128.766L194.942 130.474Z" fill="#251414"/>
<path d="M207.746 114.82L203.933 113.406M207.746 114.82L219.428 123.268L216.075 130.997M207.746 114.82L207.093 123.74M199.842 133.971L194.942 130.474L193.049 128.766M199.842 133.971L212.723 138.726L216.075 130.997M199.842 133.971L207.093 123.74M203.933 113.406L194.492 105.804L191.399 103.964M203.933 113.406L197.21 117.86M191.33 127.743L180.925 119.807L180.614 119.352M191.33 127.743L193.049 128.766M191.33 127.743C191.535 127.399 195.25 121.155 197.21 117.86M191.399 103.964L189.258 100.911L185.735 102.578L180.963 107.03M191.399 103.964L180.963 107.03M191.399 103.964C188.001 108.763 181.085 118.559 180.614 119.352M179.071 117.093L174.758 114.526L180.963 107.03M179.071 117.093C179.527 116.326 180.523 110.065 180.963 107.03M179.071 117.093L180.614 119.352M180.963 107.03L197.21 117.86M197.21 117.86L207.093 123.74M197.21 117.86L193.049 128.766M207.093 123.74L216.075 130.997" stroke="#230000"/>
<path d="M259.161 110.384L255.903 105.793L248.067 118.944L239.92 107.466L253.118 97.5383L259.963 95.0331L267.077 99.7722L259.161 110.384Z" fill="#403535"/>
<path d="M255.903 105.793L259.161 110.384L267.077 99.7722L259.963 95.0331L253.118 97.5383L239.92 107.466M255.903 105.793L248.067 118.944L239.92 107.466M255.903 105.793C255.566 106.012 245.823 107.43 239.92 107.466" stroke="black"/>
<path d="M259.987 95.0837L266.653 100.143L264.956 102.085L259.161 110.385L257.206 107.63L255.903 105.793L258.807 101.22L259.405 105.529" stroke="black"/>
<path d="M213.22 142.438L215.052 137.22L211.005 129.786L219.746 124.771L239.25 108.057L247.397 119.535L228.979 134.703L220.727 146.95L217.964 142.571L213.22 142.438Z" fill="#403535"/>
<path d="M247.397 119.535L223.411 134.267M247.397 119.535L228.979 134.703M247.397 119.535L239.25 108.057M223.411 134.267C223.411 134.267 217.382 135.999 215.052 137.22M223.411 134.267L220.509 139.71M223.411 134.267L217.943 138.695M223.411 134.267L239.25 108.057M213.22 142.438L215.052 137.22M213.22 142.438L217.943 138.695M213.22 142.438L217.964 142.571M215.052 137.22L211.005 129.786L219.746 124.771L239.25 108.057M215.052 137.22L217.943 138.695M217.943 138.695L220.509 139.71M220.509 139.71L217.964 142.571M220.509 139.71L228.979 134.703M217.964 142.571L220.727 146.95L228.979 134.703" stroke="black"/>
<defs>
<filter id="filter0_d_169_313" x="129.917" y="58.8501" width="62.5142" height="55.4384" filterUnits="userSpaceOnUse" color-interpolation-filters="sRGB">
<feFlood flood-opacity="0" result="BackgroundImageFix"/>
<feColorMatrix in="SourceAlpha" type="matrix" values="0 0 0 0 0 0 0 0 0 0 0 0 0 0 0 0 0 0 127 0" result="hardAlpha"/>
<feOffset dy="4"/>
<feGaussianBlur stdDeviation="2"/>
<feComposite in2="hardAlpha" operator="out"/>
<feColorMatrix type="matrix" values="0 0 0 0 0 0 0 0 0 0 0 0 0 0 0 0 0 0 0.25 0"/>
<feBlend mode="normal" in2="BackgroundImageFix" result="effect1_dropShadow_169_313"/>
<feBlend mode="normal" in="SourceGraphic" in2="effect1_dropShadow_169_313" result="shape"/>
</filter>
<filter id="filter1_d_169_313" x="128.004" y="69.3585" width="16.8589" height="26.3287" filterUnits="userSpaceOnUse" color-interpolation-filters="sRGB">
<feFlood flood-opacity="0" result="BackgroundImageFix"/>
<feColorMatrix in="SourceAlpha" type="matrix" values="0 0 0 0 0 0 0 0 0 0 0 0 0 0 0 0 0 0 127 0" result="hardAlpha"/>
<feOffset dy="4"/>
<feGaussianBlur stdDeviation="2"/>
<feComposite in2="hardAlpha" operator="out"/>
<feColorMatrix type="matrix" values="0 0 0 0 0 0 0 0 0 0 0 0 0 0 0 0 0 0 0.25 0"/>
<feBlend mode="normal" in2="BackgroundImageFix" result="effect1_dropShadow_169_313"/>
<feBlend mode="normal" in="SourceGraphic" in2="effect1_dropShadow_169_313" result="shape"/>
</filter>
<filter id="filter2_di_169_313" x="181.768" y="24.9075" width="41.333" height="54.2763" filterUnits="userSpaceOnUse" color-interpolation-filters="sRGB">
<feFlood flood-opacity="0" result="BackgroundImageFix"/>
<feColorMatrix in="SourceAlpha" type="matrix" values="0 0 0 0 0 0 0 0 0 0 0 0 0 0 0 0 0 0 127 0" result="hardAlpha"/>
<feOffset dy="1"/>
<feGaussianBlur stdDeviation="2"/>
<feComposite in2="hardAlpha" operator="out"/>
<feColorMatrix type="matrix" values="0 0 0 0 1 0 0 0 0 1 0 0 0 0 1 0 0 0 1 0"/>
<feBlend mode="normal" in2="BackgroundImageFix" result="effect1_dropShadow_169_313"/>
<feBlend mode="normal" in="SourceGraphic" in2="effect1_dropShadow_169_313" result="shape"/>
<feColorMatrix in="SourceAlpha" type="matrix" values="0 0 0 0 0 0 0 0 0 0 0 0 0 0 0 0 0 0 127 0" result="hardAlpha"/>
<feOffset dx="3" dy="10"/>
<feGaussianBlur stdDeviation="2.65"/>
<feComposite in2="hardAlpha" operator="arithmetic" k2="-1" k3="1"/>
<feColorMatrix type="matrix" values="0 0 0 0 0 0 0 0 0 0 0 0 0 0 0 0 0 0 0.25 0"/>
<feBlend mode="normal" in2="shape" result="effect2_innerShadow_169_313"/>
</filter>
<filter id="filter3_dd_169_313" x="200.236" y="39.7953" width="16.9443" height="18.1401" filterUnits="userSpaceOnUse" color-interpolation-filters="sRGB">
<feFlood flood-opacity="0" result="BackgroundImageFix"/>
<feColorMatrix in="SourceAlpha" type="matrix" values="0 0 0 0 0 0 0 0 0 0 0 0 0 0 0 0 0 0 127 0" result="hardAlpha"/>
<feOffset dy="4"/>
<feGaussianBlur stdDeviation="2"/>
<feComposite in2="hardAlpha" operator="out"/>
<feColorMatrix type="matrix" values="0 0 0 0 0 0 0 0 0 0 0 0 0 0 0 0 0 0 0.25 0"/>
<feBlend mode="normal" in2="BackgroundImageFix" result="effect1_dropShadow_169_313"/>
<feColorMatrix in="SourceAlpha" type="matrix" values="0 0 0 0 0 0 0 0 0 0 0 0 0 0 0 0 0 0 127 0" result="hardAlpha"/>
<feOffset dy="4"/>
<feGaussianBlur stdDeviation="2"/>
<feComposite in2="hardAlpha" operator="out"/>
<feColorMatrix type="matrix" values="0 0 0 0 0 0 0 0 0 0 0 0 0 0 0 0 0 0 0.25 0"/>
<feBlend mode="normal" in2="effect1_dropShadow_169_313" result="effect2_dropShadow_169_313"/>
<feBlend mode="normal" in="SourceGraphic" in2="effect2_dropShadow_169_313" result="shape"/>
</filter>
<filter id="filter4_d_169_313" x="137.028" y="45.3082" width="64.4019" height="129.475" filterUnits="userSpaceOnUse" color-interpolation-filters="sRGB">
<feFlood flood-opacity="0" result="BackgroundImageFix"/>
<feColorMatrix in="SourceAlpha" type="matrix" values="0 0 0 0 0 0 0 0 0 0 0 0 0 0 0 0 0 0 127 0" result="hardAlpha"/>
<feOffset dy="4"/>
<feGaussianBlur stdDeviation="2"/>
<feComposite in2="hardAlpha" operator="out"/>
<feColorMatrix type="matrix" values="0 0 0 0 0 0 0 0 0 0 0 0 0 0 0 0 0 0 0.25 0"/>
<feBlend mode="normal" in2="BackgroundImageFix" result="effect1_dropShadow_169_313"/>
<feBlend mode="normal" in="SourceGraphic" in2="effect1_dropShadow_169_313" result="shape"/>
</filter>
<filter id="filter5_d_169_313" x="88.8097" y="142.182" width="77.9" height="45.1827" filterUnits="userSpaceOnUse" color-interpolation-filters="sRGB">
<feFlood flood-opacity="0" result="BackgroundImageFix"/>
<feColorMatrix in="SourceAlpha" type="matrix" values="0 0 0 0 0 0 0 0 0 0 0 0 0 0 0 0 0 0 127 0" result="hardAlpha"/>
<feOffset dy="4"/>
<feGaussianBlur stdDeviation="2"/>
<feComposite in2="hardAlpha" operator="out"/>
<feColorMatrix type="matrix" values="0 0 0 0 0 0 0 0 0 0 0 0 0 0 0 0 0 0 0.25 0"/>
<feBlend mode="normal" in2="BackgroundImageFix" result="effect1_dropShadow_169_313"/>
<feBlend mode="normal" in="SourceGraphic" in2="effect1_dropShadow_169_313" result="shape"/>
</filter>
<filter id="filter6_d_169_313" x="88.8097" y="142.182" width="60.265" height="45.1827" filterUnits="userSpaceOnUse" color-interpolation-filters="sRGB">
<feFlood flood-opacity="0" result="BackgroundImageFix"/>
<feColorMatrix in="SourceAlpha" type="matrix" values="0 0 0 0 0 0 0 0 0 0 0 0 0 0 0 0 0 0 127 0" result="hardAlpha"/>
<feOffset dy="4"/>
<feGaussianBlur stdDeviation="2"/>
<feComposite in2="hardAlpha" operator="out"/>
<feColorMatrix type="matrix" values="0 0 0 0 0 0 0 0 0 0 0 0 0 0 0 0 0 0 0.25 0"/>
<feBlend mode="normal" in2="BackgroundImageFix" result="effect1_dropShadow_169_313"/>
<feBlend mode="normal" in="SourceGraphic" in2="effect1_dropShadow_169_313" result="shape"/>
</filter>
<linearGradient id="paint0_linear_169_313" x1="216.46" y1="43.3959" x2="214.707" y2="51.0504" gradientUnits="userSpaceOnUse">
<stop stop-opacity="0.1"/>
<stop offset="1" stop-color="#FF0000" stop-opacity="0"/>
<stop offset="1" stop-color="#FF0000" stop-opacity="0"/>
</linearGradient>
</defs>
</svg>
