<svg width="299" height="360" viewBox="0 0 299 360" fill="none" xmlns="http://www.w3.org/2000/svg">
<path d="M131.802 259.266L132.114 252.236L136.75 238.324L140.07 219.218L144.038 213.406L146.039 194.986L156.577 181.633L110.415 164.5L110.415 170.993L112.006 184.699L111.322 191.209L102.452 223.922L105.595 229.726L99.3546 248.453L95.8994 249.68L131.802 259.266Z" fill="#251414"/>
<path d="M132.114 252.236L131.802 259.266L95.8994 249.68L99.3546 248.453M132.114 252.236L136.75 238.324M132.114 252.236L99.3546 248.453M136.75 238.324L140.07 219.218M136.75 238.324L105.595 229.726M140.07 219.218L144.038 213.406M140.07 219.218L102.452 223.922M144.038 213.406L146.039 194.986M144.038 213.406L111.322 191.209M146.039 194.986L156.577 181.633M146.039 194.986L112.006 184.699M156.577 181.633L110.415 164.5L110.415 170.993L112.006 184.699M156.577 181.633L112.006 184.699M112.006 184.699L111.322 191.209M111.322 191.209L102.452 223.922M102.452 223.922L105.595 229.726M105.595 229.726L99.3546 248.453" stroke="#230000"/>
<path d="M109.046 266.417L116.312 266.354L126.346 262.914L130.779 258.403L128.011 248.588L118.933 233.013L109.969 230.854L109.02 233.965L105.958 237.195L76.5549 245.486L52.3319 252.405L48.6083 254.736L49.5701 263.838L73.5572 265.421L109.046 266.417Z" fill="#251414"/>
<path d="M49.5701 263.838L48.6083 254.736L52.3319 252.405M49.5701 263.838L52.3319 252.405M49.5701 263.838L73.5572 265.421M109.046 266.417L116.312 266.354M109.046 266.417L73.5572 265.421M109.046 266.417L105.958 237.195M116.312 266.354L109.02 233.965M116.312 266.354L126.346 262.914M109.02 233.965L105.958 237.195M109.02 233.965L109.969 230.854L118.933 233.013M109.02 233.965C115.174 244.357 126.346 262.914 126.346 262.914M109.02 233.965C116.206 241.771 130.779 258.403 130.779 258.403M109.02 233.965L128.011 248.588M109.02 233.965L118.933 233.013M105.958 237.195L76.5549 245.486M76.5549 245.486L52.3319 252.405M76.5549 245.486L73.5572 265.421M52.3319 252.405L73.5572 265.421M126.346 262.914L130.779 258.403M130.779 258.403L128.011 248.588M128.011 248.588L118.933 233.013" stroke="#230000"/>
<path d="M29.5533 250.46L30.5621 255.249L34.6693 298.874L39.6416 298.349L45.0106 263.513L58.794 265.483L57.9978 248.433L45.4791 253.672L40.0975 250.324L37.509 249.619L29.5533 250.46Z" fill="#252020"/>
<path d="M30.5621 255.249L29.5533 250.46L37.509 249.619M30.5621 255.249L34.6693 298.874M30.5621 255.249C30.919 254.819 35.1422 251.011 37.509 249.619M30.5621 255.249L40.0975 250.324M30.5621 255.249C30.9482 255.096 40.5019 254.152 45.4791 253.672M34.6693 298.874L39.6416 298.349L45.0106 263.513M34.6693 298.874L45.4791 253.672M45.0106 263.513L58.794 265.483M45.0106 263.513L45.2448 258.593M58.794 265.483L57.9978 248.433M58.794 265.483L45.2448 258.593M57.9978 248.433L45.4791 253.672M57.9978 248.433L45.2448 258.593M45.4791 253.672L40.0975 250.324M45.4791 253.672L45.2448 258.593M37.509 249.619L40.0975 250.324" stroke="black"/>
<path d="M190.216 97.3438L182.196 96.3811L159.009 102.575L144.984 116.5L140.984 106.5L138.984 97.3438L139.984 91.5001L141.984 88.3678C144.15 87.415 148.642 85.5094 149.274 85.5094L156.745 82.4786L170.367 77.2871L184.213 71.0004L192.425 68.8066L196.452 70.3186L202.156 78.1104L201.968 89.0289L198.17 94.1839L190.216 97.3438Z" fill="#251414"/>
<path d="M182.196 96.3811L190.216 97.3438M182.196 96.3811L159.009 102.575M182.196 96.3811L176.554 84.9498M176.554 84.9498L167.634 88.3678L162.095 90.8824L155.108 93.7842M176.554 84.9498L190.216 97.3438M176.554 84.9498C177.224 84.7709 182.225 83.4349 187.664 81.9817M176.554 84.9498L184.213 71.0004M190.216 97.3438L198.17 94.1839M198.17 94.1839L201.968 89.0289M198.17 94.1839L187.664 81.9817M202.156 78.1104L201.968 89.0289M202.156 78.1104L196.452 70.3186M202.156 78.1104C199.232 78.8915 191.641 80.9196 187.664 81.9817M201.968 89.0289L187.664 81.9817M155.108 93.7842L159.009 102.575M155.108 93.7842L149.274 85.5094M159.009 102.575L144.984 116.5L140.984 106.5M196.452 70.3186L192.425 68.8066M196.452 70.3186L187.664 81.9817M192.425 68.8066L184.213 71.0004M192.425 68.8066L187.664 81.9817M184.213 71.0004L170.367 77.2871L156.745 82.4786L149.274 85.5094M149.274 85.5094C148.642 85.5094 144.15 87.415 141.984 88.3678L139.984 91.5001M149.274 85.5094C146.844 91.8396 141.784 104.9 140.984 106.5M149.274 85.5094L138.984 97.3438M149.274 85.5094L139.984 91.5001M139.984 91.5001L138.984 97.3438M138.984 97.3438L140.984 106.5" stroke="#230000"/>
<path d="M174.308 123.443L177.607 128.48L181.842 141.54L173.985 144.581L166.129 147.622L158.154 135.611L156.894 131.745L149.676 122.008L147.961 118.843L144.996 116.582L146.803 113.129L151.442 108.539L159.18 102.638L161.572 107.05L163.768 108.682L164.21 109.011L171.724 119.725L172.677 121.484L174.308 123.443Z" fill="#251414"/>
<path d="M158.154 135.611L156.894 131.745M158.154 135.611L166.129 147.622L173.985 144.581M158.154 135.611L167.094 135.316M177.607 128.48L174.308 123.443L172.677 121.484M177.607 128.48L181.842 141.54L173.985 144.581M177.607 128.48L167.094 135.316M156.894 131.745L149.676 122.008L147.961 118.843M156.894 131.745L161.614 125.206M171.724 119.725L164.21 109.011L163.768 108.682M171.724 119.725L172.677 121.484M171.724 119.725C171.372 119.916 164.984 123.379 161.614 125.206M147.961 118.843L144.996 116.582L146.803 113.129L151.442 108.539M147.961 118.843L151.442 108.539M147.961 118.843C152.892 115.639 162.957 109.122 163.768 108.682M161.572 107.05L159.18 102.638L151.442 108.539M161.572 107.05C160.788 107.475 154.492 108.22 151.442 108.539M161.572 107.05L163.768 108.682M151.442 108.539L161.614 125.206M161.614 125.206L167.094 135.316M161.614 125.206L172.677 121.484M167.094 135.316L173.985 144.581" stroke="#230000"/>
<path d="M196.818 188.132L201.359 185.872L189.488 176.133L200.839 170.483L209.32 184.713L211.227 191.622L206.293 197.496L196.818 188.132Z" fill="#403535"/>
<path d="M201.359 185.872L196.818 188.132L206.293 197.496L211.227 191.622L209.32 184.713L200.839 170.483M201.359 185.872L189.488 176.133L200.839 170.483M201.359 185.872C201.175 185.515 200.483 176.063 200.839 170.483" stroke="black"/>
<path d="M211.178 191.635L205.972 197.028L204.254 195.081L196.818 188.132L203.106 185.388L204.951 187.671L201.409 189.825" stroke="black"/>
<path d="M202.45 185.68L205.546 188.958" stroke="black"/>
<path d="M172.27 143.552L175.186 143.012L182.457 140.514L186.604 149.661L201.061 171.052L189.71 176.701L176.637 156.611L165.645 146.64L169.953 144.81L172.27 143.552Z" fill="#403535"/>
<path d="M189.71 176.701L177.416 151.431M189.71 176.701L176.637 156.611M189.71 176.701L201.061 171.052M177.416 151.431C177.416 151.431 176.183 145.43 175.186 143.012M177.416 151.431L172.48 147.722M177.416 151.431L201.061 171.052M175.186 143.012L172.27 143.552L169.953 144.81M175.186 143.012L182.457 140.514L186.604 149.661L201.061 171.052M172.48 147.722L169.953 144.81M172.48 147.722L176.637 156.611M169.953 144.81L165.645 146.64L176.637 156.611" stroke="black"/>
<path d="M192.476 240.729L188.243 235.108L182.966 221.427L173.368 204.576L172.73 197.568L162.551 182.086L162.182 165.079L110.574 178.555L119.803 186.249L129.752 195.809L133.368 201.265L147.344 232.144L153.462 234.621L160.566 253.038L158.681 256.183L192.476 240.729Z" fill="#251414"/>
<path d="M188.243 235.108L192.476 240.729L158.681 256.183L160.566 253.038M188.243 235.108L182.966 221.427M188.243 235.108L160.566 253.038M182.966 221.427L173.368 204.576M182.966 221.427L153.462 234.621M173.368 204.576L172.73 197.568M173.368 204.576L147.344 232.144M172.73 197.568L162.551 182.086M172.73 197.568L133.368 201.265M162.551 182.086L162.182 165.079M162.551 182.086L129.752 195.809M162.182 165.079L110.574 178.555L119.803 186.249L129.752 195.809M162.182 165.079L129.752 195.809M129.752 195.809L133.368 201.265M133.368 201.265L147.344 232.144M147.344 232.144L153.462 234.621M153.462 234.621L160.566 253.038" stroke="#230000"/>
<path d="M191.361 265.665L193.637 258.765L193.603 248.158L190.757 242.51L180.573 241.977L162.906 245.569L157.981 253.363L160.622 255.262L162.697 259.199L161.099 289.707L159.867 314.869L160.878 319.144L169.806 321.158L179.013 298.952L191.361 265.665Z" fill="#251414"/>
<path d="M169.806 321.158L160.878 319.144L159.867 314.869M169.806 321.158L159.867 314.869M169.806 321.158L179.013 298.952M191.361 265.665L193.637 258.765M191.361 265.665L179.013 298.952M191.361 265.665L162.697 259.199M193.637 258.765L160.622 255.262M193.637 258.765L193.603 248.158M160.622 255.262L162.697 259.199M160.622 255.262L157.981 253.363L162.906 245.569M160.622 255.262C172.44 252.773 193.603 248.158 193.603 248.158M160.622 255.262C170.323 250.965 190.757 242.51 190.757 242.51M160.622 255.262L180.573 241.977M160.622 255.262L162.906 245.569M162.697 259.199L161.099 289.707M161.099 289.707L159.867 314.869M161.099 289.707L179.013 298.952M159.867 314.869L179.013 298.952M193.603 248.158L190.757 242.51M190.757 242.51L180.573 241.977M180.573 241.977L162.906 245.569" stroke="#230000"/>
<path d="M150.704 335.814L155.563 336.398L198.195 346.528L199.295 341.651L168.032 325.372L174.328 312.952L157.926 308.227L158.864 321.766L153.965 325.786L152.465 328.01L150.704 335.814Z" fill="#252020"/>
<path d="M155.563 336.398L150.704 335.814L152.465 328.01M155.563 336.398L198.195 346.528M155.563 336.398C155.271 335.922 153.023 330.699 152.465 328.01M155.563 336.398L153.965 325.786M155.563 336.398C155.543 335.983 157.719 326.633 158.864 321.766M198.195 346.528L199.295 341.651L168.032 325.372M198.195 346.528L158.864 321.766M168.032 325.372L174.328 312.952M168.032 325.372L163.448 323.569M174.328 312.952L157.926 308.227M174.328 312.952L163.448 323.569M157.926 308.227L158.864 321.766M157.926 308.227L163.448 323.569M158.864 321.766L153.965 325.786M158.864 321.766L163.448 323.569M152.465 328.01L153.965 325.786" stroke="black"/>
<path d="M107.925 163.518L109.703 160.503L122.792 147.326L155.008 167.503L170.693 177.327L156.874 198.781L139.447 207.657L128.349 202.852L113.178 192.16L107.824 175.65L107.925 163.518Z" fill="#251414"/>
<path d="M107.925 163.518L109.703 160.503M107.925 163.518L107.824 175.65M107.925 163.518L143.283 181.475M109.703 160.503L122.792 147.326M109.703 160.503L143.283 181.475M122.792 147.326L155.008 167.503M122.792 147.326L143.283 181.475M156.874 198.781L170.693 177.327M156.874 198.781L139.447 207.657L128.349 202.852M156.874 198.781L143.283 181.475M156.874 198.781C147.211 199.418 129.089 203.172 128.349 202.852M156.874 198.781L113.178 192.16M170.693 177.327L155.008 167.503M170.693 177.327L143.283 181.475M128.349 202.852L113.178 192.16M107.824 175.65L113.178 192.16M107.824 175.65L143.283 181.475M155.008 167.503L143.283 181.475" stroke="#230000"/>
<path d="M201.534 66.0631L218.903 85.7264L216.836 96.7076L205.911 115.803L197.592 132.358L186.855 148.104L167.607 131.908L148.359 115.711L158.539 97.9178L165.062 77.4554L175.738 58.7937L192.862 44.9727L201.534 66.0631Z" fill="#251414"/>
<path d="M201.534 66.0631L218.903 85.7264M201.534 66.0631L192.862 44.9727M201.534 66.0631L194.277 67.6718M201.534 66.0631L202.212 73.9397M218.903 85.7264L216.836 96.7076M218.903 85.7264L203.946 78.964M216.836 96.7076L205.911 115.803M216.836 96.7076L199.476 86.7758M197.592 132.358L186.855 148.104M197.592 132.358L205.911 115.803M197.592 132.358L193.025 89.9974M186.855 148.104L193.025 89.9974M186.855 148.104L167.607 131.908M186.855 148.104L173.032 115.426M148.359 115.711L158.539 97.9178L165.062 77.4554M148.359 115.711L167.607 131.908M148.359 115.711L173.032 115.426M192.862 44.9727L175.738 58.7937M192.862 44.9727L188.758 66.2425M165.062 77.4554L175.738 58.7937M165.062 77.4554L179.947 75.6026M175.738 58.7937L184.416 67.7907M205.911 115.803L193.025 89.9974M179.947 75.6026L179.571 82.3003L182.855 87.6355L187.433 90.2546M179.947 75.6026L184.416 67.7907M194.277 67.6718L188.758 66.2425M194.277 67.6718L198.855 70.2909L202.212 73.9397M188.758 66.2425L184.416 67.7907M202.212 73.9397L203.946 78.964M203.946 78.964L199.476 86.7758M199.476 86.7758L193.025 89.9974M193.025 89.9974L187.433 90.2546M187.433 90.2546L173.032 115.426M167.607 131.908L173.032 115.426" stroke="#230000"/>
<path d="M176.574 165.283L174.671 173.244L159.022 163.159L126.743 142.357L134.521 135.692L139.43 129.562L143.151 124.417L148.797 114.175L167.787 130.866L186.777 147.556L181.031 156.027L176.574 165.283Z" fill="#251414"/>
<path d="M126.743 142.357L134.521 135.692M126.743 142.357L159.022 163.159M126.743 142.357L147.265 136.611M174.671 173.244L176.574 165.283M174.671 173.244L159.022 163.159M174.671 173.244L167.787 130.866M176.574 165.283L181.031 156.027M176.574 165.283L167.787 130.866M181.031 156.027L186.777 147.556L167.787 130.866M181.031 156.027L167.787 130.866M134.521 135.692L139.43 129.562M134.521 135.692L147.265 136.611M143.151 124.417L148.797 114.175L167.787 130.866M143.151 124.417L139.43 129.562M143.151 124.417L147.265 136.611M139.43 129.562L147.265 136.611M167.787 130.866L159.022 163.159M167.787 130.866L147.265 136.611" stroke="#230000"/>
<g filter="url(#filter0_d_169_357)">
<path d="M169.034 70.5116L169.779 69.2096L179.085 63.0127L184.42 59.7285L189.816 59.3592L197.194 63.5802L203.33 69.9712L209.465 80.3933L213.8 90.9385L215.903 101.358L213.917 104.83L212.062 93.9764L208.346 84.3618L202.708 73.0717L196.82 66.2468L189.876 62.2741L185.411 62.0237L179.89 64.6255L169.034 70.5116Z" fill="#100F0F"/>
<path d="M166.303 75.2855L169.779 69.2096L179.085 63.0127M166.303 75.2855L169.034 70.5116L179.89 64.6255M166.303 75.2855L164.813 77.8895L162.391 85.1442M196.82 66.2468L197.194 63.5802M196.82 66.2468L189.876 62.2741M196.82 66.2468L202.708 73.0717L208.346 84.3618M197.194 63.5802L189.816 59.3592M197.194 63.5802L203.33 69.9712L209.465 80.3933M209.465 80.3933L208.346 84.3618M209.465 80.3933L213.8 90.9385M208.346 84.3618L212.062 93.9764M189.876 62.2741L189.816 59.3592M189.876 62.2741L185.411 62.0237M213.8 90.9385L215.903 101.358L213.917 104.83L212.062 93.9764M213.8 90.9385L212.062 93.9764M189.816 59.3592L184.42 59.7285M179.085 63.0127L184.42 59.7285M179.085 63.0127L179.89 64.6255M179.89 64.6255L185.411 62.0237M184.42 59.7285L185.411 62.0237" stroke="#252323"/>
</g>
<g filter="url(#filter1_d_169_357)">
<path d="M160.467 87.4998L164.628 77.2071L168.415 69.5809" stroke="#252323"/>
</g>
<path d="M161.523 84.6476L159.787 83.6544L164.569 70.2611L167.173 71.7509L161.523 84.6476Z" fill="#251414" stroke="#252323"/>
<g style="mix-blend-mode:darken" filter="url(#filter2_di_169_357)">
<path d="M219.839 64.6555L214.306 52.0206L222.809 28.5109L246.528 34.9626L243.948 49.4485L243.148 56.0712L237.346 60.3531L233.724 65.9555L232.154 71.7679L230.533 73.3085L223.951 70.9278L219.839 64.6555Z" fill="#251414"/>
<path d="M219.839 64.6555L214.306 52.0206L222.809 28.5109L246.528 34.9626L243.948 49.4485L243.148 56.0712L237.346 60.3531L233.724 65.9555L232.154 71.7679L230.533 73.3085L223.951 70.9278L219.839 64.6555Z" stroke="#230000"/>
</g>
<g filter="url(#filter3_dd_169_357)">
<path d="M238.99 49.3246C237.076 50.2164 235.273 45.3958 235.273 45.3958L233.242 40.8271L237.405 42.8063L240.634 46.6235C240.634 46.6235 240.11 48.8031 238.99 49.3246Z" fill="#B20000" shape-rendering="crispEdges"/>
<path d="M238.99 49.3246C237.076 50.2164 235.273 45.3958 235.273 45.3958L233.242 40.8271L237.405 42.8063L240.634 46.6235C240.634 46.6235 240.11 48.8031 238.99 49.3246Z" stroke="url(#paint0_linear_169_357)" shape-rendering="crispEdges"/>
</g>
<path d="M248.839 37.3935L216.117 61.7144L225.802 79.041L223.421 85.6237L205.703 66.9869L190.466 50.3108L194.038 40.4367L198.219 37.6955L208.432 15.3361L223.238 5.27157L235.933 9.86294L251.25 23.3778L248.839 37.3935Z" fill="#261515"/>
<path d="M216.117 61.7144L248.839 37.3935M216.117 61.7144L225.802 79.041L223.421 85.6237L205.703 66.9869M216.117 61.7144L190.466 50.3108M216.117 61.7144L194.038 40.4367M216.117 61.7144L198.219 37.6955M216.117 61.7144L205.703 66.9869M248.839 37.3935L208.432 15.3361M248.839 37.3935L223.238 5.27157M248.839 37.3935L235.933 9.86294M248.839 37.3935L251.25 23.3778L235.933 9.86294M235.933 9.86294L223.238 5.27157M223.238 5.27157L208.432 15.3361M208.432 15.3361L198.219 37.6955M198.219 37.6955L194.038 40.4367M194.038 40.4367L190.466 50.3108M190.466 50.3108L205.703 66.9869" stroke="#230000"/>
<g filter="url(#filter4_d_169_357)">
<path d="M173.008 70.802L170.156 69.7463L169.536 68.8157L169.599 67.6994L171.337 64.6614L176.178 58.2141L177.853 56.2925L179.963 54.6191L183.685 52.1403L189.702 48.6705L192.928 47.0597L195.906 45.8829L200.183 49.4821L203.715 54.3833L212.145 63.8143L223.172 86.8285L224.906 91.8528L223.228 97.8056L218.945 106.3L211.248 119.754L203.425 135.44L192.936 150.753L187.04 160.052L184.246 165.942L182.759 164.515L185.056 159.493L190.704 150.628L201.193 135.315L209.76 118.326L217.705 104.439L220.685 99.2307L213.87 84.9631L206.313 67.9665L199.494 61.7612L193.542 60.0836L180.084 60.4488L173.008 70.802Z" fill="#3C3C3C"/>
<path d="M170.156 69.7463L173.008 70.802L180.084 60.4488M170.156 69.7463L169.536 68.8157L169.599 67.6994M170.156 69.7463L180.084 60.4488M169.599 67.6994L171.337 64.6614M169.599 67.6994L180.084 60.4488M171.337 64.6614L176.178 58.2141M171.337 64.6614L180.084 60.4488M176.178 58.2141L177.853 56.2925M176.178 58.2141L180.084 60.4488M177.853 56.2925L179.963 54.6191M177.853 56.2925L193.542 60.0836M179.963 54.6191L183.685 52.1403M179.963 54.6191L193.542 60.0836M195.906 45.8829L199.494 61.7612M195.906 45.8829L192.928 47.0597L189.702 48.6705M195.906 45.8829L200.183 49.4821L203.715 54.3833M212.145 63.8143L223.172 86.8285M212.145 63.8143L203.715 54.3833M212.145 63.8143L206.313 67.9665M223.172 86.8285L224.906 91.8528M223.172 86.8285L213.87 84.9631M224.906 91.8528L223.228 97.8056M224.906 91.8528L213.87 84.9631M223.228 97.8056L218.945 106.3M223.228 97.8056L220.685 99.2307M218.945 106.3L211.248 119.754M218.945 106.3L217.705 104.439M209.76 118.326L217.705 104.439M209.76 118.326L201.193 135.315M209.76 118.326L211.248 119.754M217.705 104.439L220.685 99.2307M220.685 99.2307L213.87 84.9631M206.313 67.9665L199.494 61.7612M206.313 67.9665L213.87 84.9631M199.494 61.7612L193.542 60.0836M199.494 61.7612L189.702 48.6705M199.494 61.7612L203.715 54.3833M193.542 60.0836L180.084 60.4488M193.542 60.0836L183.685 52.1403M183.685 52.1403L189.702 48.6705M185.056 159.493L182.759 164.515L184.246 165.942L187.04 160.052M185.056 159.493L190.704 150.628M185.056 159.493L187.04 160.052M187.04 160.052L192.936 150.753M190.704 150.628L201.193 135.315M190.704 150.628L192.936 150.753M201.193 135.315L203.425 135.44M192.936 150.753L203.425 135.44M203.425 135.44L211.248 119.754" stroke="#251414"/>
</g>
<g filter="url(#filter5_d_169_357)">
<g filter="url(#filter6_d_169_357)">
<path d="M121.495 148.449C121.903 147.761 123.476 146.136 124.397 145.52L126.75 142.847L138.57 151.03L150.863 157.749L161.355 164.561L172.533 171.199L171.854 176.03L170.323 178.61L162.591 172.273L153.993 167.167L140.236 158.997L126.404 151.364L122.92 149.295L121.495 148.449Z" fill="#3C3C3C"/>
<path d="M126.75 142.847L124.397 145.52C123.476 146.136 121.903 147.761 121.495 148.449L122.92 149.295M126.75 142.847L138.57 151.03M126.75 142.847L126.404 151.364M126.75 142.847L122.92 149.295M126.404 151.364L122.92 149.295M126.404 151.364L140.236 158.997M153.993 167.167L140.236 158.997M153.993 167.167L162.591 172.273M153.993 167.167L150.863 157.749M150.863 157.749L138.57 151.03M150.863 157.749L161.355 164.561M140.236 158.997L138.57 151.03M161.355 164.561L172.533 171.199L171.854 176.03L170.323 178.61L162.591 172.273M161.355 164.561L162.591 172.273" stroke="#251414"/>
</g>
<path d="M190.209 164H189.409V156L190.209 157V164Z" fill="#1F1F1F"/>
<path d="M189.409 164H190.209V157M189.409 164V156L190.209 157M189.409 164C189.409 163.619 189.876 160.175 190.209 157" stroke="#251414"/>
</g>
<path d="M194.573 78.2229L198.352 85.3621L216.654 100.887L211.653 109.102L208.177 118.611L201.429 114.198L189.401 105.963L176.345 98.1666L169.863 92.6684L168.811 88.4978L171.963 79.3703L181.043 73.3034L187.444 73.4872L194.573 78.2229Z" fill="#251414"/>
<path d="M198.352 85.3621L194.573 78.2229M198.352 85.3621L216.654 100.887L211.653 109.102M198.352 85.3621L192.173 96.5119M192.173 96.5119L200.064 101.894L205.287 105.013L211.653 109.102M192.173 96.5119L194.573 78.2229M192.173 96.5119C191.644 96.0635 187.696 92.715 183.402 89.0731M192.173 96.5119L176.345 98.1666M194.573 78.2229L187.444 73.4872M187.444 73.4872L181.043 73.3034M187.444 73.4872L183.402 89.0731M171.963 79.3703L181.043 73.3034M171.963 79.3703L168.811 88.4978M171.963 79.3703C174.271 81.328 180.264 86.4109 183.402 89.0731M181.043 73.3034L183.402 89.0731M211.653 109.102L208.177 118.611L201.429 114.198L189.401 105.963L176.345 98.1666M168.811 88.4978L169.863 92.6684M168.811 88.4978L183.402 89.0731M169.863 92.6684L176.345 98.1666M169.863 92.6684L183.402 89.0731" stroke="#230000"/>
<path d="M222.941 130.474L227.842 133.971L240.722 138.726L244.075 130.997L247.427 123.268L235.746 114.82L231.933 113.406L222.492 105.804L219.399 103.964L217.258 100.911L213.735 102.578L208.963 107.03L202.758 114.526L207.071 117.093L208.614 119.352L208.925 119.807L219.33 127.743L221.049 128.766L222.941 130.474Z" fill="#251414"/>
<path d="M235.746 114.82L231.933 113.406M235.746 114.82L247.427 123.268L244.075 130.997M235.746 114.82L235.093 123.74M227.842 133.971L222.941 130.474L221.049 128.766M227.842 133.971L240.722 138.726L244.075 130.997M227.842 133.971L235.093 123.74M231.933 113.406L222.492 105.804L219.399 103.964M231.933 113.406L225.21 117.86M219.33 127.743L208.925 119.807L208.614 119.352M219.33 127.743L221.049 128.766M219.33 127.743C219.534 127.399 223.25 121.155 225.21 117.86M219.399 103.964L217.258 100.911L213.735 102.578L208.963 107.03M219.399 103.964L208.963 107.03M219.399 103.964C216 108.763 209.085 118.559 208.614 119.352M207.071 117.093L202.758 114.526L208.963 107.03M207.071 117.093C207.527 116.326 208.522 110.065 208.963 107.03M207.071 117.093L208.614 119.352M208.963 107.03L225.21 117.86M225.21 117.86L235.093 123.74M225.21 117.86L221.049 128.766M235.093 123.74L244.075 130.997" stroke="#230000"/>
<path d="M287.161 110.384L283.902 105.793L276.067 118.944L267.92 107.466L281.118 97.5383L287.963 95.0331L295.077 99.7722L287.161 110.384Z" fill="#403535"/>
<path d="M283.902 105.793L287.161 110.384L295.077 99.7722L287.963 95.0331L281.118 97.5383L267.92 107.466M283.902 105.793L276.067 118.944L267.92 107.466M283.902 105.793C283.566 106.012 273.822 107.43 267.92 107.466" stroke="black"/>
<path d="M287.987 95.0837L294.652 100.143L292.956 102.085L287.161 110.385L285.206 107.63L283.902 105.793L286.807 101.22L287.405 105.529" stroke="black"/>
<path d="M241.22 142.438L243.051 137.22L239.005 129.786L247.746 124.771L267.25 108.057L275.396 119.535L256.979 134.703L248.727 146.95L245.963 142.571L241.22 142.438Z" fill="#403535"/>
<path d="M275.396 119.535L251.411 134.267M275.396 119.535L256.979 134.703M275.396 119.535L267.25 108.057M251.411 134.267C251.411 134.267 245.382 135.999 243.051 137.22M251.411 134.267L248.509 139.71M251.411 134.267L245.943 138.695M251.411 134.267L267.25 108.057M241.22 142.438L243.051 137.22M241.22 142.438L245.943 138.695M241.22 142.438L245.963 142.571M243.051 137.22L239.005 129.786L247.746 124.771L267.25 108.057M243.051 137.22L245.943 138.695M245.943 138.695L248.509 139.71M248.509 139.71L245.963 142.571M248.509 139.71L256.979 134.703M245.963 142.571L248.727 146.95L256.979 134.703" stroke="black"/>
<defs>
<filter id="filter0_d_169_357" x="157.917" y="58.8501" width="62.5142" height="55.4384" filterUnits="userSpaceOnUse" color-interpolation-filters="sRGB">
<feFlood flood-opacity="0" result="BackgroundImageFix"/>
<feColorMatrix in="SourceAlpha" type="matrix" values="0 0 0 0 0 0 0 0 0 0 0 0 0 0 0 0 0 0 127 0" result="hardAlpha"/>
<feOffset dy="4"/>
<feGaussianBlur stdDeviation="2"/>
<feComposite in2="hardAlpha" operator="out"/>
<feColorMatrix type="matrix" values="0 0 0 0 0 0 0 0 0 0 0 0 0 0 0 0 0 0 0.25 0"/>
<feBlend mode="normal" in2="BackgroundImageFix" result="effect1_dropShadow_169_357"/>
<feBlend mode="normal" in="SourceGraphic" in2="effect1_dropShadow_169_357" result="shape"/>
</filter>
<filter id="filter1_d_169_357" x="156.003" y="69.3585" width="16.8589" height="26.3287" filterUnits="userSpaceOnUse" color-interpolation-filters="sRGB">
<feFlood flood-opacity="0" result="BackgroundImageFix"/>
<feColorMatrix in="SourceAlpha" type="matrix" values="0 0 0 0 0 0 0 0 0 0 0 0 0 0 0 0 0 0 127 0" result="hardAlpha"/>
<feOffset dy="4"/>
<feGaussianBlur stdDeviation="2"/>
<feComposite in2="hardAlpha" operator="out"/>
<feColorMatrix type="matrix" values="0 0 0 0 0 0 0 0 0 0 0 0 0 0 0 0 0 0 0.25 0"/>
<feBlend mode="normal" in2="BackgroundImageFix" result="effect1_dropShadow_169_357"/>
<feBlend mode="normal" in="SourceGraphic" in2="effect1_dropShadow_169_357" result="shape"/>
</filter>
<filter id="filter2_di_169_357" x="209.768" y="24.9075" width="41.333" height="54.2763" filterUnits="userSpaceOnUse" color-interpolation-filters="sRGB">
<feFlood flood-opacity="0" result="BackgroundImageFix"/>
<feColorMatrix in="SourceAlpha" type="matrix" values="0 0 0 0 0 0 0 0 0 0 0 0 0 0 0 0 0 0 127 0" result="hardAlpha"/>
<feOffset dy="1"/>
<feGaussianBlur stdDeviation="2"/>
<feComposite in2="hardAlpha" operator="out"/>
<feColorMatrix type="matrix" values="0 0 0 0 1 0 0 0 0 1 0 0 0 0 1 0 0 0 1 0"/>
<feBlend mode="normal" in2="BackgroundImageFix" result="effect1_dropShadow_169_357"/>
<feBlend mode="normal" in="SourceGraphic" in2="effect1_dropShadow_169_357" result="shape"/>
<feColorMatrix in="SourceAlpha" type="matrix" values="0 0 0 0 0 0 0 0 0 0 0 0 0 0 0 0 0 0 127 0" result="hardAlpha"/>
<feOffset dx="3" dy="10"/>
<feGaussianBlur stdDeviation="2.65"/>
<feComposite in2="hardAlpha" operator="arithmetic" k2="-1" k3="1"/>
<feColorMatrix type="matrix" values="0 0 0 0 0 0 0 0 0 0 0 0 0 0 0 0 0 0 0.25 0"/>
<feBlend mode="normal" in2="shape" result="effect2_innerShadow_169_357"/>
</filter>
<filter id="filter3_dd_169_357" x="228.236" y="39.7953" width="16.9443" height="18.1401" filterUnits="userSpaceOnUse" color-interpolation-filters="sRGB">
<feFlood flood-opacity="0" result="BackgroundImageFix"/>
<feColorMatrix in="SourceAlpha" type="matrix" values="0 0 0 0 0 0 0 0 0 0 0 0 0 0 0 0 0 0 127 0" result="hardAlpha"/>
<feOffset dy="4"/>
<feGaussianBlur stdDeviation="2"/>
<feComposite in2="hardAlpha" operator="out"/>
<feColorMatrix type="matrix" values="0 0 0 0 0 0 0 0 0 0 0 0 0 0 0 0 0 0 0.25 0"/>
<feBlend mode="normal" in2="BackgroundImageFix" result="effect1_dropShadow_169_357"/>
<feColorMatrix in="SourceAlpha" type="matrix" values="0 0 0 0 0 0 0 0 0 0 0 0 0 0 0 0 0 0 127 0" result="hardAlpha"/>
<feOffset dy="4"/>
<feGaussianBlur stdDeviation="2"/>
<feComposite in2="hardAlpha" operator="out"/>
<feColorMatrix type="matrix" values="0 0 0 0 0 0 0 0 0 0 0 0 0 0 0 0 0 0 0.25 0"/>
<feBlend mode="normal" in2="effect1_dropShadow_169_357" result="effect2_dropShadow_169_357"/>
<feBlend mode="normal" in="SourceGraphic" in2="effect2_dropShadow_169_357" result="shape"/>
</filter>
<filter id="filter4_d_169_357" x="165.028" y="45.3082" width="64.4019" height="129.475" filterUnits="userSpaceOnUse" color-interpolation-filters="sRGB">
<feFlood flood-opacity="0" result="BackgroundImageFix"/>
<feColorMatrix in="SourceAlpha" type="matrix" values="0 0 0 0 0 0 0 0 0 0 0 0 0 0 0 0 0 0 127 0" result="hardAlpha"/>
<feOffset dy="4"/>
<feGaussianBlur stdDeviation="2"/>
<feComposite in2="hardAlpha" operator="out"/>
<feColorMatrix type="matrix" values="0 0 0 0 0 0 0 0 0 0 0 0 0 0 0 0 0 0 0.25 0"/>
<feBlend mode="normal" in2="BackgroundImageFix" result="effect1_dropShadow_169_357"/>
<feBlend mode="normal" in="SourceGraphic" in2="effect1_dropShadow_169_357" result="shape"/>
</filter>
<filter id="filter5_d_169_357" x="116.809" y="142.182" width="77.9001" height="45.1827" filterUnits="userSpaceOnUse" color-interpolation-filters="sRGB">
<feFlood flood-opacity="0" result="BackgroundImageFix"/>
<feColorMatrix in="SourceAlpha" type="matrix" values="0 0 0 0 0 0 0 0 0 0 0 0 0 0 0 0 0 0 127 0" result="hardAlpha"/>
<feOffset dy="4"/>
<feGaussianBlur stdDeviation="2"/>
<feComposite in2="hardAlpha" operator="out"/>
<feColorMatrix type="matrix" values="0 0 0 0 0 0 0 0 0 0 0 0 0 0 0 0 0 0 0.25 0"/>
<feBlend mode="normal" in2="BackgroundImageFix" result="effect1_dropShadow_169_357"/>
<feBlend mode="normal" in="SourceGraphic" in2="effect1_dropShadow_169_357" result="shape"/>
</filter>
<filter id="filter6_d_169_357" x="116.809" y="142.182" width="60.2649" height="45.1827" filterUnits="userSpaceOnUse" color-interpolation-filters="sRGB">
<feFlood flood-opacity="0" result="BackgroundImageFix"/>
<feColorMatrix in="SourceAlpha" type="matrix" values="0 0 0 0 0 0 0 0 0 0 0 0 0 0 0 0 0 0 127 0" result="hardAlpha"/>
<feOffset dy="4"/>
<feGaussianBlur stdDeviation="2"/>
<feComposite in2="hardAlpha" operator="out"/>
<feColorMatrix type="matrix" values="0 0 0 0 0 0 0 0 0 0 0 0 0 0 0 0 0 0 0.25 0"/>
<feBlend mode="normal" in2="BackgroundImageFix" result="effect1_dropShadow_169_357"/>
<feBlend mode="normal" in="SourceGraphic" in2="effect1_dropShadow_169_357" result="shape"/>
</filter>
<linearGradient id="paint0_linear_169_357" x1="244.46" y1="43.3959" x2="242.707" y2="51.0504" gradientUnits="userSpaceOnUse">
<stop stop-opacity="0.1"/>
<stop offset="1" stop-color="#FF0000" stop-opacity="0"/>
<stop offset="1" stop-color="#FF0000" stop-opacity="0"/>
</linearGradient>
</defs>
</svg>
