<svg width="282" height="366" viewBox="0 0 282 366" fill="none" xmlns="http://www.w3.org/2000/svg">
<path d="M173.304 97.3438L165.283 96.3811L142.097 102.575L128.072 116.5L124.072 106.5L122.072 97.3438L123.072 91.5001L125.072 88.3678C127.238 87.415 131.73 85.5094 132.362 85.5094L139.833 82.4786L153.455 77.2871L167.301 71.0004L175.513 68.8066L179.54 70.3186L185.244 78.1104L185.056 89.0289L181.258 94.1839L173.304 97.3438Z" fill="#251414"/>
<path d="M165.283 96.3811L173.304 97.3438M165.283 96.3811L142.097 102.575M165.283 96.3811L159.642 84.9498M159.642 84.9498L150.722 88.3678L145.183 90.8824L138.195 93.7842M159.642 84.9498L173.304 97.3438M159.642 84.9498C160.312 84.7709 165.313 83.4349 170.752 81.9817M159.642 84.9498L167.301 71.0004M173.304 97.3438L181.258 94.1839M181.258 94.1839L185.056 89.0289M181.258 94.1839L170.752 81.9817M185.244 78.1104L185.056 89.0289M185.244 78.1104L179.54 70.3186M185.244 78.1104C182.32 78.8915 174.729 80.9196 170.752 81.9817M185.056 89.0289L170.752 81.9817M138.195 93.7842L142.097 102.575M138.195 93.7842L132.362 85.5094M142.097 102.575L128.072 116.5L124.072 106.5M179.54 70.3186L175.513 68.8066M179.54 70.3186L170.752 81.9817M175.513 68.8066L167.301 71.0004M175.513 68.8066L170.752 81.9817M167.301 71.0004L153.455 77.2871L139.833 82.4786L132.362 85.5094M132.362 85.5094C131.73 85.5094 127.238 87.415 125.072 88.3678L123.072 91.5001M132.362 85.5094C129.932 91.8396 124.872 104.9 124.072 106.5M132.362 85.5094L122.072 97.3438M132.362 85.5094L123.072 91.5001M123.072 91.5001L122.072 97.3438M122.072 97.3438L124.072 106.5" stroke="#230000"/>
<path d="M157.396 123.443L160.694 128.48L164.93 141.54L157.073 144.581L149.217 147.622L141.242 135.611L139.982 131.745L132.764 122.008L131.049 118.843L128.084 116.582L129.891 113.129L134.53 108.539L142.268 102.638L144.66 107.05L146.856 108.682L147.298 109.011L154.812 119.725L155.765 121.484L157.396 123.443Z" fill="#251414"/>
<path d="M141.242 135.611L139.982 131.745M141.242 135.611L149.217 147.622L157.073 144.581M141.242 135.611L150.182 135.316M160.694 128.48L157.396 123.443L155.765 121.484M160.694 128.48L164.93 141.54L157.073 144.581M160.694 128.48L150.182 135.316M139.982 131.745L132.764 122.008L131.049 118.843M139.982 131.745L144.701 125.206M154.812 119.725L147.298 109.011L146.856 108.682M154.812 119.725L155.765 121.484M154.812 119.725C154.46 119.916 148.071 123.379 144.701 125.206M131.049 118.843L128.084 116.582L129.891 113.129L134.53 108.539M131.049 118.843L134.53 108.539M131.049 118.843C135.98 115.639 146.045 109.122 146.856 108.682M144.66 107.05L142.268 102.638L134.53 108.539M144.66 107.05C143.876 107.475 137.58 108.22 134.53 108.539M144.66 107.05L146.856 108.682M134.53 108.539L144.701 125.206M144.701 125.206L150.182 135.316M144.701 125.206L155.765 121.484M150.182 135.316L157.073 144.581" stroke="#230000"/>
<path d="M179.906 188.132L184.447 185.872L172.576 176.133L183.927 170.483L192.408 184.713L194.315 191.622L189.381 197.496L179.906 188.132Z" fill="#403535"/>
<path d="M184.447 185.872L179.906 188.132L189.381 197.496L194.315 191.622L192.408 184.713L183.927 170.483M184.447 185.872L172.576 176.133L183.927 170.483M184.447 185.872C184.263 185.515 183.571 176.063 183.927 170.483" stroke="black"/>
<path d="M194.266 191.635L189.06 197.028L187.342 195.081L179.906 188.132L186.194 185.388L188.039 187.671L184.497 189.825" stroke="black"/>
<path d="M185.538 185.68L188.634 188.958" stroke="black"/>
<path d="M155.358 143.552L158.274 143.012L165.545 140.514L169.692 149.661L184.149 171.052L172.798 176.701L159.725 156.611L148.733 146.64L153.041 144.81L155.358 143.552Z" fill="#403535"/>
<path d="M172.798 176.701L160.504 151.431M172.798 176.701L159.725 156.611M172.798 176.701L184.149 171.052M160.504 151.431C160.504 151.431 159.271 145.43 158.274 143.012M160.504 151.431L155.568 147.722M160.504 151.431L184.149 171.052M158.274 143.012L155.358 143.552L153.041 144.81M158.274 143.012L165.545 140.514L169.692 149.661L184.149 171.052M155.568 147.722L153.041 144.81M155.568 147.722L159.725 156.611M153.041 144.81L148.733 146.64L159.725 156.611" stroke="black"/>
<path d="M92.1139 270.001L94.2686 263.287L102.488 251.143L110.778 233.599L116.211 229.103L123.022 211.847L141.1 204.763L95.1884 166.443L94.2719 178.502L92.2342 192.216L89.85 198.321L72.5209 227.455L74.089 233.964L63.0243 250.312L59.3015 250.516L92.1139 270.001Z" fill="#251414"/>
<path d="M94.2686 263.287L92.1139 270.001L59.3015 250.516L63.0243 250.312M94.2686 263.287L102.488 251.143M94.2686 263.287L63.0243 250.312M102.488 251.143L110.778 233.599M102.488 251.143L74.089 233.964M110.778 233.599L116.211 229.103M110.778 233.599L72.5209 227.455M116.211 229.103L123.022 211.847M116.211 229.103L89.85 198.321M123.022 211.847L141.1 204.763M123.022 211.847L92.2342 192.216M141.1 204.763L95.1884 166.443L94.2719 178.502L92.2342 192.216M141.1 204.763L92.2342 192.216M92.2342 192.216L89.85 198.321M89.85 198.321L72.5209 227.455M72.5209 227.455L74.089 233.964M74.089 233.964L63.0243 250.312" stroke="#230000"/>
<path d="M86.2791 271.897L93.5376 269.999L60.7252 250.515L61.2867 254.981L48.7931 282.886L38.5707 305.933L37.9966 310.312L45.7812 315.58L62.5413 298.321L86.2791 271.897Z" fill="#251414"/>
<path d="M45.7812 315.58L37.9966 310.312L38.5707 305.933M45.7812 315.58L38.5707 305.933M45.7812 315.58L62.5413 298.321M86.2791 271.897L93.5376 269.999L60.7252 250.515M86.2791 271.897L62.5413 298.321M86.2791 271.897L61.2867 254.981M64.448 250.31L60.7252 250.515M60.7252 250.515L61.2867 254.981M61.2867 254.981L48.7931 282.886M48.7931 282.886L38.5707 305.933M48.7931 282.886L62.5413 298.321M38.5707 305.933L62.5413 298.321" stroke="#230000"/>
<path d="M20.2129 329.714L24.6339 332.103L61.6199 357.74L64.4225 353.6L40.4823 326.528L50.9479 317.31L37.0159 306.673L33.0417 319.681L26.9264 321.579L24.697 323.089L20.2129 329.714Z" fill="#252020"/>
<path d="M24.6339 332.103L20.2129 329.714L24.697 323.089M24.6339 332.103L61.6199 357.74M24.6339 332.103C24.5269 331.547 24.2619 325.813 24.697 323.089M24.6339 332.103L26.9264 321.579M24.6339 332.103C24.7635 331.708 30.1997 323.795 33.0417 319.681M61.6199 357.74L64.4225 353.6L40.4823 326.528M61.6199 357.74L33.0417 319.681M40.4823 326.528L50.9479 317.31M40.4823 326.528L36.762 323.104M50.9479 317.31L37.0159 306.673M50.9479 317.31L36.762 323.104M37.0159 306.673L33.0417 319.681M37.0159 306.673L36.762 323.104M33.0417 319.681L26.9264 321.579M33.0417 319.681L36.762 323.104M24.697 323.089L26.9264 321.579" stroke="black"/>
<path d="M173.477 252.729L169.243 247.108L163.966 233.427L154.368 216.576L153.731 209.568L143.551 194.086L143.183 177.079L91.5743 190.555L100.804 198.249L110.753 207.809L114.368 213.265L128.344 244.144L134.462 246.621L141.566 265.038L139.682 268.183L173.477 252.729Z" fill="#251414"/>
<path d="M169.243 247.108L173.477 252.729L139.682 268.183L141.566 265.038M169.243 247.108L163.966 233.427M169.243 247.108L141.566 265.038M163.966 233.427L154.368 216.576M163.966 233.427L134.462 246.621M154.368 216.576L153.731 209.568M154.368 216.576L128.344 244.144M153.731 209.568L143.551 194.086M153.731 209.568L114.368 213.265M143.551 194.086L143.183 177.079M143.551 194.086L110.753 207.809M143.183 177.079L91.5743 190.555L100.804 198.249L110.753 207.809M143.183 177.079L110.753 207.809M110.753 207.809L114.368 213.265M114.368 213.265L128.344 244.144M128.344 244.144L134.462 246.621M134.462 246.621L141.566 265.038" stroke="#230000"/>
<path d="M160.474 272.727L166.039 268.055L171.589 259.016L172.138 252.715L163.757 246.905L146.842 240.669L138.555 244.707L139.802 247.711L139.496 252.151L122.091 277.258L107.809 298.011L106.42 302.178L112.955 308.587L132.465 294.543L160.474 272.727Z" fill="#251414"/>
<path d="M112.955 308.587L106.42 302.178L107.809 298.011M112.955 308.587L107.809 298.011M112.955 308.587L132.465 294.543M160.474 272.727L166.039 268.055M160.474 272.727L132.465 294.543M160.474 272.727L139.496 252.151M166.039 268.055L139.802 247.711M166.039 268.055L171.589 259.016M139.802 247.711L139.496 252.151M139.802 247.711L138.555 244.707L146.842 240.669M139.802 247.711C151.162 251.81 171.589 259.016 171.589 259.016M139.802 247.711C150.313 249.159 172.138 252.715 172.138 252.715M139.802 247.711L163.757 246.905M139.802 247.711L146.842 240.669M139.496 252.151L122.091 277.258M122.091 277.258L107.809 298.011M122.091 277.258L132.465 294.543M107.809 298.011L132.465 294.543M171.589 259.016L172.138 252.715M172.138 252.715L163.757 246.905M163.757 246.905L146.842 240.669" stroke="#230000"/>
<path d="M89 311.006L92.8259 314.058L123.757 345.096L127.258 341.526L109.23 311.238L121.116 303.986L109.652 291.341L103.329 303.349L97.0476 304.191L94.6019 305.294L89 311.006Z" fill="#252020"/>
<path d="M92.8259 314.058L89 311.006L94.6019 305.294M92.8259 314.058L123.757 345.096M92.8259 314.058C92.8279 313.5 93.6623 307.875 94.6019 305.294M92.8259 314.058L97.0476 304.191M92.8259 314.058C93.0265 313.694 99.7951 306.886 103.329 303.349M123.757 345.096L127.258 341.526L109.23 311.238M123.757 345.096L103.329 303.349M109.23 311.238L121.116 303.986M109.23 311.238L106.28 307.294M121.116 303.986L109.652 291.341M121.116 303.986L106.28 307.294M109.652 291.341L103.329 303.349M109.652 291.341L106.28 307.294M103.329 303.349L97.0476 304.191M103.329 303.349L106.28 307.294M94.6019 305.294L97.0476 304.191" stroke="black"/>
<path d="M91.0125 163.518L92.7909 160.503L105.88 147.326L138.096 167.503L153.78 177.327L139.962 198.781L122.535 207.657L111.437 202.852L96.2655 192.16L90.9121 175.65L91.0125 163.518Z" fill="#251414"/>
<path d="M91.0125 163.518L92.7909 160.503M91.0125 163.518L90.9121 175.65M91.0125 163.518L126.371 181.475M92.7909 160.503L105.88 147.326M92.7909 160.503L126.371 181.475M105.88 147.326L138.096 167.503M105.88 147.326L126.371 181.475M139.962 198.781L153.78 177.327M139.962 198.781L122.535 207.657L111.437 202.852M139.962 198.781L126.371 181.475M139.962 198.781C130.298 199.418 112.177 203.172 111.437 202.852M139.962 198.781L96.2655 192.16M153.78 177.327L138.096 167.503M153.78 177.327L126.371 181.475M111.437 202.852L96.2655 192.16M90.9121 175.65L96.2655 192.16M90.9121 175.65L126.371 181.475M138.096 167.503L126.371 181.475" stroke="#230000"/>
<path d="M184.622 66.0631L201.991 85.7264L199.924 96.7076L188.999 115.803L180.68 132.358L169.943 148.104L150.695 131.908L131.447 115.711L141.627 97.9178L148.149 77.4554L158.826 58.7937L175.95 44.9727L184.622 66.0631Z" fill="#251414"/>
<path d="M184.622 66.0631L201.991 85.7264M184.622 66.0631L175.95 44.9727M184.622 66.0631L177.365 67.6718M184.622 66.0631L185.3 73.9397M201.991 85.7264L199.924 96.7076M201.991 85.7264L187.034 78.964M199.924 96.7076L188.999 115.803M199.924 96.7076L182.564 86.7758M180.68 132.358L169.943 148.104M180.68 132.358L188.999 115.803M180.68 132.358L176.113 89.9974M169.943 148.104L176.113 89.9974M169.943 148.104L150.695 131.908M169.943 148.104L156.12 115.426M131.447 115.711L141.627 97.9178L148.149 77.4554M131.447 115.711L150.695 131.908M131.447 115.711L156.12 115.426M175.95 44.9727L158.826 58.7937M175.95 44.9727L171.846 66.2425M148.149 77.4554L158.826 58.7937M148.149 77.4554L163.035 75.6026M158.826 58.7937L167.504 67.7907M188.999 115.803L176.113 89.9974M163.035 75.6026L162.659 82.3003L165.943 87.6355L170.521 90.2546M163.035 75.6026L167.504 67.7907M177.365 67.6718L171.846 66.2425M177.365 67.6718L181.943 70.2909L185.3 73.9397M171.846 66.2425L167.504 67.7907M185.3 73.9397L187.034 78.964M187.034 78.964L182.564 86.7758M182.564 86.7758L176.113 89.9974M176.113 89.9974L170.521 90.2546M170.521 90.2546L156.12 115.426M150.695 131.908L156.12 115.426" stroke="#230000"/>
<path d="M159.661 165.283L157.759 173.244L142.11 163.159L109.831 142.357L117.609 135.692L122.518 129.562L126.239 124.417L131.885 114.175L150.875 130.866L169.864 147.556L164.118 156.027L159.661 165.283Z" fill="#251414"/>
<path d="M109.831 142.357L117.609 135.692M109.831 142.357L142.11 163.159M109.831 142.357L130.353 136.611M157.759 173.244L159.661 165.283M157.759 173.244L142.11 163.159M157.759 173.244L150.875 130.866M159.661 165.283L164.118 156.027M159.661 165.283L150.875 130.866M164.118 156.027L169.864 147.556L150.875 130.866M164.118 156.027L150.875 130.866M117.609 135.692L122.518 129.562M117.609 135.692L130.353 136.611M126.239 124.417L131.885 114.175L150.875 130.866M126.239 124.417L122.518 129.562M126.239 124.417L130.353 136.611M122.518 129.562L130.353 136.611M150.875 130.866L142.11 163.159M150.875 130.866L130.353 136.611" stroke="#230000"/>
<g filter="url(#filter0_d_169_453)">
<path d="M152.122 70.5116L152.867 69.2096L162.173 63.0127L167.508 59.7285L172.904 59.3592L180.282 63.5802L186.418 69.9712L192.552 80.3933L196.888 90.9385L198.991 101.358L197.005 104.83L195.15 93.9764L191.434 84.3618L185.796 73.0717L179.908 66.2468L172.964 62.2741L168.499 62.0237L162.978 64.6255L152.122 70.5116Z" fill="#100F0F"/>
<path d="M149.391 75.2855L152.867 69.2096L162.173 63.0127M149.391 75.2855L152.122 70.5116L162.978 64.6255M149.391 75.2855L147.901 77.8895L145.479 85.1442M179.908 66.2468L180.282 63.5802M179.908 66.2468L172.964 62.2741M179.908 66.2468L185.796 73.0717L191.434 84.3618M180.282 63.5802L172.904 59.3592M180.282 63.5802L186.418 69.9712L192.552 80.3933M192.552 80.3933L191.434 84.3618M192.552 80.3933L196.888 90.9385M191.434 84.3618L195.15 93.9764M172.964 62.2741L172.904 59.3592M172.964 62.2741L168.499 62.0237M196.888 90.9385L198.991 101.358L197.005 104.83L195.15 93.9764M196.888 90.9385L195.15 93.9764M172.904 59.3592L167.508 59.7285M162.173 63.0127L167.508 59.7285M162.173 63.0127L162.978 64.6255M162.978 64.6255L168.499 62.0237M167.508 59.7285L168.499 62.0237" stroke="#252323"/>
</g>
<g filter="url(#filter1_d_169_453)">
<path d="M143.555 87.4998L147.715 77.2071L151.502 69.5809" stroke="#252323"/>
</g>
<path d="M144.611 84.6476L142.875 83.6544L147.657 70.2611L150.261 71.7509L144.611 84.6476Z" fill="#251414" stroke="#252323"/>
<g style="mix-blend-mode:darken" filter="url(#filter2_di_169_453)">
<path d="M202.926 64.6555L197.394 52.0206L205.896 28.5109L229.616 34.9626L227.035 49.4485L226.235 56.0712L220.433 60.3531L216.812 65.9555L215.242 71.7679L213.621 73.3085L207.038 70.9278L202.926 64.6555Z" fill="#251414"/>
<path d="M202.926 64.6555L197.394 52.0206L205.896 28.5109L229.616 34.9626L227.035 49.4485L226.235 56.0712L220.433 60.3531L216.812 65.9555L215.242 71.7679L213.621 73.3085L207.038 70.9278L202.926 64.6555Z" stroke="#230000"/>
</g>
<g filter="url(#filter3_dd_169_453)">
<path d="M222.078 49.3246C220.163 50.2164 218.361 45.3958 218.361 45.3958L216.329 40.8271L220.493 42.8063L223.722 46.6235C223.722 46.6235 223.197 48.8031 222.078 49.3246Z" fill="#B20000" shape-rendering="crispEdges"/>
<path d="M222.078 49.3246C220.163 50.2164 218.361 45.3958 218.361 45.3958L216.329 40.8271L220.493 42.8063L223.722 46.6235C223.722 46.6235 223.197 48.8031 222.078 49.3246Z" stroke="url(#paint0_linear_169_453)" shape-rendering="crispEdges"/>
</g>
<path d="M231.927 37.3935L199.205 61.7144L208.889 79.041L206.509 85.6237L188.791 66.9869L173.554 50.3108L177.125 40.4367L181.307 37.6955L191.52 15.3361L206.326 5.27157L219.021 9.86294L234.337 23.3778L231.927 37.3935Z" fill="#261515"/>
<path d="M199.205 61.7144L231.927 37.3935M199.205 61.7144L208.889 79.041L206.509 85.6237L188.791 66.9869M199.205 61.7144L173.554 50.3108M199.205 61.7144L177.125 40.4367M199.205 61.7144L181.307 37.6955M199.205 61.7144L188.791 66.9869M231.927 37.3935L191.52 15.3361M231.927 37.3935L206.326 5.27157M231.927 37.3935L219.021 9.86294M231.927 37.3935L234.337 23.3778L219.021 9.86294M219.021 9.86294L206.326 5.27157M206.326 5.27157L191.52 15.3361M191.52 15.3361L181.307 37.6955M181.307 37.6955L177.125 40.4367M177.125 40.4367L173.554 50.3108M173.554 50.3108L188.791 66.9869" stroke="#230000"/>
<g filter="url(#filter4_d_169_453)">
<path d="M156.096 70.802L153.244 69.7463L152.624 68.8157L152.687 67.6994L154.425 64.6614L159.265 58.2141L160.941 56.2925L163.05 54.6191L166.773 52.1403L172.79 48.6705L176.016 47.0597L178.993 45.8829L183.271 49.4821L186.803 54.3833L195.233 63.8143L206.26 86.8285L207.994 91.8528L206.316 97.8056L202.032 106.3L194.335 119.754L186.513 135.44L176.024 150.753L170.128 160.052L167.334 165.942L165.846 164.515L168.143 159.493L173.792 150.628L184.28 135.315L192.848 118.326L200.793 104.439L203.773 99.2307L196.958 84.9631L189.401 67.9665L182.582 61.7612L176.629 60.0836L163.171 60.4488L156.096 70.802Z" fill="#3C3C3C"/>
<path d="M153.244 69.7463L156.096 70.802L163.171 60.4488M153.244 69.7463L152.624 68.8157L152.687 67.6994M153.244 69.7463L163.171 60.4488M152.687 67.6994L154.425 64.6614M152.687 67.6994L163.171 60.4488M154.425 64.6614L159.265 58.2141M154.425 64.6614L163.171 60.4488M159.265 58.2141L160.941 56.2925M159.265 58.2141L163.171 60.4488M160.941 56.2925L163.05 54.6191M160.941 56.2925L176.629 60.0836M163.05 54.6191L166.773 52.1403M163.05 54.6191L176.629 60.0836M178.993 45.8829L182.582 61.7612M178.993 45.8829L176.016 47.0597L172.79 48.6705M178.993 45.8829L183.271 49.4821L186.803 54.3833M195.233 63.8143L206.26 86.8285M195.233 63.8143L186.803 54.3833M195.233 63.8143L189.401 67.9665M206.26 86.8285L207.994 91.8528M206.26 86.8285L196.958 84.9631M207.994 91.8528L206.316 97.8056M207.994 91.8528L196.958 84.9631M206.316 97.8056L202.032 106.3M206.316 97.8056L203.773 99.2307M202.032 106.3L194.335 119.754M202.032 106.3L200.793 104.439M192.848 118.326L200.793 104.439M192.848 118.326L184.28 135.315M192.848 118.326L194.335 119.754M200.793 104.439L203.773 99.2307M203.773 99.2307L196.958 84.9631M189.401 67.9665L182.582 61.7612M189.401 67.9665L196.958 84.9631M182.582 61.7612L176.629 60.0836M182.582 61.7612L172.79 48.6705M182.582 61.7612L186.803 54.3833M176.629 60.0836L163.171 60.4488M176.629 60.0836L166.773 52.1403M166.773 52.1403L172.79 48.6705M168.143 159.493L165.846 164.515L167.334 165.942L170.128 160.052M168.143 159.493L173.792 150.628M168.143 159.493L170.128 160.052M170.128 160.052L176.024 150.753M173.792 150.628L184.28 135.315M173.792 150.628L176.024 150.753M184.28 135.315L186.513 135.44M176.024 150.753L186.513 135.44M186.513 135.44L194.335 119.754" stroke="#251414"/>
</g>
<g filter="url(#filter5_d_169_453)">
<g filter="url(#filter6_d_169_453)">
<path d="M104.582 148.449C104.991 147.761 106.564 146.136 107.485 145.52L109.838 142.847L121.658 151.03L133.951 157.749L144.443 164.561L155.621 171.199L154.942 176.03L153.41 178.61L145.679 172.273L137.08 167.167L123.324 158.997L109.492 151.364L106.008 149.295L104.582 148.449Z" fill="#3C3C3C"/>
<path d="M109.838 142.847L107.485 145.52C106.564 146.136 104.991 147.761 104.582 148.449L106.008 149.295M109.838 142.847L121.658 151.03M109.838 142.847L109.492 151.364M109.838 142.847L106.008 149.295M109.492 151.364L106.008 149.295M109.492 151.364L123.324 158.997M137.08 167.167L123.324 158.997M137.08 167.167L145.679 172.273M137.08 167.167L133.951 157.749M133.951 157.749L121.658 151.03M133.951 157.749L144.443 164.561M123.324 158.997L121.658 151.03M144.443 164.561L155.621 171.199L154.942 176.03L153.41 178.61L145.679 172.273M144.443 164.561L145.679 172.273" stroke="#251414"/>
</g>
<path d="M173.297 164H172.497V156L173.297 157V164Z" fill="#1F1F1F"/>
<path d="M172.497 164H173.297V157M172.497 164V156L173.297 157M172.497 164C172.497 163.619 172.964 160.175 173.297 157" stroke="#251414"/>
</g>
<path d="M177.66 78.2229L181.439 85.3621L199.742 100.887L194.741 109.102L191.265 118.611L184.517 114.198L172.489 105.963L159.433 98.1666L152.95 92.6684L151.898 88.4978L155.051 79.3703L164.131 73.3034L170.531 73.4872L177.66 78.2229Z" fill="#251414"/>
<path d="M181.439 85.3621L177.66 78.2229M181.439 85.3621L199.742 100.887L194.741 109.102M181.439 85.3621L175.26 96.5119M175.26 96.5119L183.152 101.894L188.374 105.013L194.741 109.102M175.26 96.5119L177.66 78.2229M175.26 96.5119C174.731 96.0635 170.784 92.715 166.49 89.0731M175.26 96.5119L159.433 98.1666M177.66 78.2229L170.531 73.4872M170.531 73.4872L164.131 73.3034M170.531 73.4872L166.49 89.0731M155.051 79.3703L164.131 73.3034M155.051 79.3703L151.898 88.4978M155.051 79.3703C157.359 81.328 163.351 86.4109 166.49 89.0731M164.131 73.3034L166.49 89.0731M194.741 109.102L191.265 118.611L184.517 114.198L172.489 105.963L159.433 98.1666M151.898 88.4978L152.95 92.6684M151.898 88.4978L166.49 89.0731M152.95 92.6684L159.433 98.1666M152.95 92.6684L166.49 89.0731" stroke="#230000"/>
<path d="M206.029 130.474L210.93 133.971L223.81 138.726L227.163 130.997L230.515 123.268L218.834 114.82L215.021 113.406L205.58 105.804L202.487 103.964L200.346 100.911L196.823 102.578L192.051 107.03L185.845 114.526L190.158 117.093L191.701 119.352L192.012 119.807L202.418 127.743L204.136 128.766L206.029 130.474Z" fill="#251414"/>
<path d="M218.834 114.82L215.021 113.406M218.834 114.82L230.515 123.268L227.163 130.997M218.834 114.82L218.181 123.74M210.93 133.971L206.029 130.474L204.136 128.766M210.93 133.971L223.81 138.726L227.163 130.997M210.93 133.971L218.181 123.74M215.021 113.406L205.58 105.804L202.487 103.964M215.021 113.406L208.298 117.86M202.418 127.743L192.012 119.807L191.701 119.352M202.418 127.743L204.136 128.766M202.418 127.743C202.622 127.399 206.338 121.155 208.298 117.86M202.487 103.964L200.346 100.911L196.823 102.578L192.051 107.03M202.487 103.964L192.051 107.03M202.487 103.964C199.088 108.763 192.173 118.559 191.701 119.352M190.158 117.093L185.845 114.526L192.051 107.03M190.158 117.093C190.615 116.326 191.61 110.065 192.051 107.03M190.158 117.093L191.701 119.352M192.051 107.03L208.298 117.86M208.298 117.86L218.181 123.74M208.298 117.86L204.136 128.766M218.181 123.74L227.163 130.997" stroke="#230000"/>
<path d="M270.249 110.384L266.99 105.793L259.154 118.944L251.008 107.466L264.206 97.5383L271.051 95.0331L278.165 99.7722L270.249 110.384Z" fill="#403535"/>
<path d="M266.99 105.793L270.249 110.384L278.165 99.7722L271.051 95.0331L264.206 97.5383L251.008 107.466M266.99 105.793L259.154 118.944L251.008 107.466M266.99 105.793C266.653 106.012 256.91 107.43 251.008 107.466" stroke="black"/>
<path d="M271.074 95.0837L277.74 100.143L276.044 102.085L270.249 110.385L268.294 107.63L266.99 105.793L269.894 101.22L270.492 105.529" stroke="black"/>
<path d="M224.307 142.438L226.139 137.22L222.092 129.786L230.833 124.771L250.337 108.057L258.484 119.535L240.067 134.703L231.815 146.95L229.051 142.571L224.307 142.438Z" fill="#403535"/>
<path d="M258.484 119.535L234.498 134.267M258.484 119.535L240.067 134.703M258.484 119.535L250.337 108.057M234.498 134.267C234.498 134.267 228.469 135.999 226.139 137.22M234.498 134.267L231.596 139.71M234.498 134.267L229.031 138.695M234.498 134.267L250.337 108.057M224.307 142.438L226.139 137.22M224.307 142.438L229.031 138.695M224.307 142.438L229.051 142.571M226.139 137.22L222.092 129.786L230.833 124.771L250.337 108.057M226.139 137.22L229.031 138.695M229.031 138.695L231.596 139.71M231.596 139.71L229.051 142.571M231.596 139.71L240.067 134.703M229.051 142.571L231.815 146.95L240.067 134.703" stroke="black"/>
<defs>
<filter id="filter0_d_169_453" x="141.004" y="58.8501" width="62.5142" height="55.4384" filterUnits="userSpaceOnUse" color-interpolation-filters="sRGB">
<feFlood flood-opacity="0" result="BackgroundImageFix"/>
<feColorMatrix in="SourceAlpha" type="matrix" values="0 0 0 0 0 0 0 0 0 0 0 0 0 0 0 0 0 0 127 0" result="hardAlpha"/>
<feOffset dy="4"/>
<feGaussianBlur stdDeviation="2"/>
<feComposite in2="hardAlpha" operator="out"/>
<feColorMatrix type="matrix" values="0 0 0 0 0 0 0 0 0 0 0 0 0 0 0 0 0 0 0.25 0"/>
<feBlend mode="normal" in2="BackgroundImageFix" result="effect1_dropShadow_169_453"/>
<feBlend mode="normal" in="SourceGraphic" in2="effect1_dropShadow_169_453" result="shape"/>
</filter>
<filter id="filter1_d_169_453" x="139.091" y="69.3585" width="16.8589" height="26.3287" filterUnits="userSpaceOnUse" color-interpolation-filters="sRGB">
<feFlood flood-opacity="0" result="BackgroundImageFix"/>
<feColorMatrix in="SourceAlpha" type="matrix" values="0 0 0 0 0 0 0 0 0 0 0 0 0 0 0 0 0 0 127 0" result="hardAlpha"/>
<feOffset dy="4"/>
<feGaussianBlur stdDeviation="2"/>
<feComposite in2="hardAlpha" operator="out"/>
<feColorMatrix type="matrix" values="0 0 0 0 0 0 0 0 0 0 0 0 0 0 0 0 0 0 0.25 0"/>
<feBlend mode="normal" in2="BackgroundImageFix" result="effect1_dropShadow_169_453"/>
<feBlend mode="normal" in="SourceGraphic" in2="effect1_dropShadow_169_453" result="shape"/>
</filter>
<filter id="filter2_di_169_453" x="192.855" y="24.9075" width="41.333" height="54.2763" filterUnits="userSpaceOnUse" color-interpolation-filters="sRGB">
<feFlood flood-opacity="0" result="BackgroundImageFix"/>
<feColorMatrix in="SourceAlpha" type="matrix" values="0 0 0 0 0 0 0 0 0 0 0 0 0 0 0 0 0 0 127 0" result="hardAlpha"/>
<feOffset dy="1"/>
<feGaussianBlur stdDeviation="2"/>
<feComposite in2="hardAlpha" operator="out"/>
<feColorMatrix type="matrix" values="0 0 0 0 1 0 0 0 0 1 0 0 0 0 1 0 0 0 1 0"/>
<feBlend mode="normal" in2="BackgroundImageFix" result="effect1_dropShadow_169_453"/>
<feBlend mode="normal" in="SourceGraphic" in2="effect1_dropShadow_169_453" result="shape"/>
<feColorMatrix in="SourceAlpha" type="matrix" values="0 0 0 0 0 0 0 0 0 0 0 0 0 0 0 0 0 0 127 0" result="hardAlpha"/>
<feOffset dx="3" dy="10"/>
<feGaussianBlur stdDeviation="2.65"/>
<feComposite in2="hardAlpha" operator="arithmetic" k2="-1" k3="1"/>
<feColorMatrix type="matrix" values="0 0 0 0 0 0 0 0 0 0 0 0 0 0 0 0 0 0 0.25 0"/>
<feBlend mode="normal" in2="shape" result="effect2_innerShadow_169_453"/>
</filter>
<filter id="filter3_dd_169_453" x="211.323" y="39.7953" width="16.9443" height="18.1401" filterUnits="userSpaceOnUse" color-interpolation-filters="sRGB">
<feFlood flood-opacity="0" result="BackgroundImageFix"/>
<feColorMatrix in="SourceAlpha" type="matrix" values="0 0 0 0 0 0 0 0 0 0 0 0 0 0 0 0 0 0 127 0" result="hardAlpha"/>
<feOffset dy="4"/>
<feGaussianBlur stdDeviation="2"/>
<feComposite in2="hardAlpha" operator="out"/>
<feColorMatrix type="matrix" values="0 0 0 0 0 0 0 0 0 0 0 0 0 0 0 0 0 0 0.25 0"/>
<feBlend mode="normal" in2="BackgroundImageFix" result="effect1_dropShadow_169_453"/>
<feColorMatrix in="SourceAlpha" type="matrix" values="0 0 0 0 0 0 0 0 0 0 0 0 0 0 0 0 0 0 127 0" result="hardAlpha"/>
<feOffset dy="4"/>
<feGaussianBlur stdDeviation="2"/>
<feComposite in2="hardAlpha" operator="out"/>
<feColorMatrix type="matrix" values="0 0 0 0 0 0 0 0 0 0 0 0 0 0 0 0 0 0 0.25 0"/>
<feBlend mode="normal" in2="effect1_dropShadow_169_453" result="effect2_dropShadow_169_453"/>
<feBlend mode="normal" in="SourceGraphic" in2="effect2_dropShadow_169_453" result="shape"/>
</filter>
<filter id="filter4_d_169_453" x="148.115" y="45.3082" width="64.4019" height="129.475" filterUnits="userSpaceOnUse" color-interpolation-filters="sRGB">
<feFlood flood-opacity="0" result="BackgroundImageFix"/>
<feColorMatrix in="SourceAlpha" type="matrix" values="0 0 0 0 0 0 0 0 0 0 0 0 0 0 0 0 0 0 127 0" result="hardAlpha"/>
<feOffset dy="4"/>
<feGaussianBlur stdDeviation="2"/>
<feComposite in2="hardAlpha" operator="out"/>
<feColorMatrix type="matrix" values="0 0 0 0 0 0 0 0 0 0 0 0 0 0 0 0 0 0 0.25 0"/>
<feBlend mode="normal" in2="BackgroundImageFix" result="effect1_dropShadow_169_453"/>
<feBlend mode="normal" in="SourceGraphic" in2="effect1_dropShadow_169_453" result="shape"/>
</filter>
<filter id="filter5_d_169_453" x="99.8972" y="142.182" width="77.9001" height="45.1827" filterUnits="userSpaceOnUse" color-interpolation-filters="sRGB">
<feFlood flood-opacity="0" result="BackgroundImageFix"/>
<feColorMatrix in="SourceAlpha" type="matrix" values="0 0 0 0 0 0 0 0 0 0 0 0 0 0 0 0 0 0 127 0" result="hardAlpha"/>
<feOffset dy="4"/>
<feGaussianBlur stdDeviation="2"/>
<feComposite in2="hardAlpha" operator="out"/>
<feColorMatrix type="matrix" values="0 0 0 0 0 0 0 0 0 0 0 0 0 0 0 0 0 0 0.25 0"/>
<feBlend mode="normal" in2="BackgroundImageFix" result="effect1_dropShadow_169_453"/>
<feBlend mode="normal" in="SourceGraphic" in2="effect1_dropShadow_169_453" result="shape"/>
</filter>
<filter id="filter6_d_169_453" x="99.8972" y="142.182" width="60.2649" height="45.1827" filterUnits="userSpaceOnUse" color-interpolation-filters="sRGB">
<feFlood flood-opacity="0" result="BackgroundImageFix"/>
<feColorMatrix in="SourceAlpha" type="matrix" values="0 0 0 0 0 0 0 0 0 0 0 0 0 0 0 0 0 0 127 0" result="hardAlpha"/>
<feOffset dy="4"/>
<feGaussianBlur stdDeviation="2"/>
<feComposite in2="hardAlpha" operator="out"/>
<feColorMatrix type="matrix" values="0 0 0 0 0 0 0 0 0 0 0 0 0 0 0 0 0 0 0.25 0"/>
<feBlend mode="normal" in2="BackgroundImageFix" result="effect1_dropShadow_169_453"/>
<feBlend mode="normal" in="SourceGraphic" in2="effect1_dropShadow_169_453" result="shape"/>
</filter>
<linearGradient id="paint0_linear_169_453" x1="227.547" y1="43.3959" x2="225.795" y2="51.0504" gradientUnits="userSpaceOnUse">
<stop stop-opacity="0.1"/>
<stop offset="1" stop-color="#FF0000" stop-opacity="0"/>
<stop offset="1" stop-color="#FF0000" stop-opacity="0"/>
</linearGradient>
</defs>
</svg>
