<svg width="283" height="362" viewBox="0 0 283 362" fill="none" xmlns="http://www.w3.org/2000/svg">
<path d="M164.937 97.0807L157.257 94.5792L133.309 96.1537L116.847 107.091L114.865 96.5043L114.681 87.1339L116.796 81.5956L119.366 78.9112C121.677 78.3972 126.452 77.3999 127.073 77.5227L134.99 76L149.36 73.552L164.164 70.0733L172.646 69.5156L176.302 71.7806L180.385 80.5316L178.08 91.2058L173.354 95.5252L164.937 97.0807Z" fill="#251414"/>
<path d="M157.257 94.5792L164.937 97.0807M157.257 94.5792L133.309 96.1537M157.257 94.5792L153.942 82.2701M153.942 82.2701L144.528 83.8912L138.607 85.2827L131.189 86.7726M153.942 82.2701L164.937 97.0807M153.942 82.2701C154.634 82.2247 159.799 81.8851 165.417 81.5157M153.942 82.2701L164.164 70.0733M164.937 97.0807L173.354 95.5252M173.354 95.5252L178.08 91.2058M173.354 95.5252L165.417 81.5157M180.385 80.5316L178.08 91.2058M180.385 80.5316L176.302 71.7806M180.385 80.5316C177.365 80.7302 169.524 81.2457 165.417 81.5157M178.08 91.2058L165.417 81.5157M131.189 86.7726L133.309 96.1537M131.189 86.7726L127.073 77.5227M133.309 96.1537L116.847 107.091L114.865 96.5043M176.302 71.7806L172.646 69.5156M176.302 71.7806L165.417 81.5157M172.646 69.5156L164.164 70.0733M172.646 69.5156L165.417 81.5157M164.164 70.0733L149.36 73.552L134.99 76L127.073 77.5227M127.073 77.5227C126.452 77.3999 121.677 78.3972 119.366 78.9112L116.796 81.5956M127.073 77.5227C123.46 83.2606 115.96 95.0901 114.865 96.5043M127.073 77.5227L114.681 87.1339M127.073 77.5227L116.796 81.5956M116.796 81.5956L114.681 87.1339M114.681 87.1339L114.865 96.5043" stroke="#230000"/>
<path d="M142.915 120.354L145.293 125.885L147.206 139.481L138.942 141.117L130.678 142.753L124.901 129.545L124.328 125.519L118.903 114.68L117.761 111.267L115.232 108.527L117.609 105.438L122.972 101.719L131.614 97.2455L133.206 102.005L135.087 103.992L135.466 104.393L141.013 116.245L141.648 118.141L142.915 120.354Z" fill="#251414"/>
<path d="M124.901 129.545L124.328 125.519M124.901 129.545L130.678 142.753L138.942 141.117M124.901 129.545L133.756 130.8M145.293 125.885L142.915 120.354L141.648 118.141M145.293 125.885L147.206 139.481L138.942 141.117M145.293 125.885L133.756 130.8M124.328 125.519L118.903 114.68L117.761 111.267M124.328 125.519L130.107 119.894M141.013 116.245L135.466 104.393L135.087 103.992M141.013 116.245L141.648 118.141M141.013 116.245C140.634 116.372 133.743 118.678 130.107 119.894M117.761 111.267L115.232 108.527L117.609 105.438L122.972 101.719M117.761 111.267L122.972 101.719M117.761 111.267C123.172 108.964 134.212 104.285 135.087 103.992M133.206 102.005L131.614 97.2455L122.972 101.719M133.206 102.005C132.36 102.288 126.031 101.932 122.972 101.719M133.206 102.005L135.087 103.992M122.972 101.719L130.107 119.894M130.107 119.894L133.756 130.8M130.107 119.894L141.648 118.141M133.756 130.8L138.942 141.117" stroke="#230000"/>
<path d="M165.829 164.484L170.011 161.614L156.901 153.621L167.355 146.447L177.733 159.358L180.584 165.934L176.515 172.438L165.829 164.484Z" fill="#403535"/>
<path d="M170.011 161.614L165.829 164.484L176.515 172.438L180.584 165.934L177.733 159.358L167.355 146.447M170.011 161.614L156.901 153.621L167.355 146.447M170.011 161.614C169.779 161.286 167.779 152.022 167.355 146.447" stroke="black"/>
<path d="M180.537 165.954L176.132 172.02L174.16 170.33L165.829 164.484L171.674 160.891L173.82 162.895L170.612 165.522" stroke="black"/>
<path d="M171.066 161.272L174.588 164.087" stroke="black"/>
<path d="M135.316 123.754L138.129 122.813L144.982 119.328L150.361 127.808L167.654 146.979L157.2 154.154L141.458 136.078L129.186 127.733L133.197 125.321L135.316 123.754Z" fill="#403535"/>
<path d="M157.2 154.154L141.509 130.84M157.2 154.154L141.458 136.078M157.2 154.154L167.654 146.979M141.509 130.84C141.509 130.84 139.453 125.069 138.129 122.813M141.509 130.84L136.105 127.854M141.509 130.84L167.654 146.979M138.129 122.813L135.316 123.754L133.197 125.321M138.129 122.813L144.982 119.328L150.361 127.808L167.654 146.979M136.105 127.854L133.197 125.321M136.105 127.854L141.458 136.078M133.197 125.321L129.186 127.733L141.458 136.078" stroke="black"/>
<path d="M143.449 254.31L142.187 247.387L143.609 232.792L142.59 213.426L145.164 206.877L143.012 188.473L150.312 173.109L98.1429 162L102.94 173.017L107.543 186.024L108.326 192.523L106.964 226.39L111.321 231.348L109.408 250.995L106.313 252.96L143.449 254.31Z" fill="#251414"/>
<path d="M142.187 247.387L143.449 254.31L106.313 252.96L109.408 250.995M142.187 247.387L143.609 232.792M142.187 247.387L109.408 250.995M143.609 232.792L142.59 213.426M143.609 232.792L111.321 231.348M142.59 213.426L145.164 206.877M142.59 213.426L106.964 226.39M145.164 206.877L143.012 188.473M145.164 206.877L108.326 192.523M143.012 188.473L150.312 173.109M143.012 188.473L107.543 186.024M150.312 173.109L98.1429 162L102.94 173.017L107.543 186.024M150.312 173.109L107.543 186.024M107.543 186.024L108.326 192.523M108.326 192.523L106.964 226.39M106.964 226.39L111.321 231.348M111.321 231.348L109.408 250.995" stroke="#230000"/>
<path d="M130.077 274.243L135.559 269.474L140.949 260.338L141.387 254.029L132.905 248.368L115.883 242.43L107.668 246.614L108.968 249.595L108.74 254.04L91.7798 279.45L77.8657 300.45L76.5504 304.642L83.1965 310.935L102.456 296.549L130.077 274.243Z" fill="#251414"/>
<path d="M83.1965 310.935L76.5504 304.642L77.8657 300.45M83.1965 310.935L77.8657 300.45M83.1965 310.935L102.456 296.549M130.077 274.243L135.559 269.474M130.077 274.243L102.456 296.549M130.077 274.243L108.74 254.04M135.559 269.474L108.968 249.595M135.559 269.474L140.949 260.338M108.968 249.595L108.74 254.04M108.968 249.595L107.668 246.614L115.883 242.43M108.968 249.595C120.398 253.494 140.949 260.338 140.949 260.338M108.968 249.595C119.502 250.858 141.387 254.029 141.387 254.029M108.968 249.595L132.905 248.368M108.968 249.595L115.883 242.43M108.74 254.04L91.7798 279.45M91.7798 279.45L77.8657 300.45M91.7798 279.45L102.456 296.549M77.8657 300.45L102.456 296.549M140.949 260.338L141.387 254.029M141.387 254.029L132.905 248.368M132.905 248.368L115.883 242.43" stroke="#230000"/>
<path d="M59.2886 313.775L63.1676 316.759L94.6401 347.247L98.0778 343.617L79.5198 313.651L91.2763 306.191L79.5908 293.749L73.4808 305.867L67.2149 306.82L64.789 307.965L59.2886 313.775Z" fill="#252020"/>
<path d="M63.1676 316.759L59.2886 313.775L64.789 307.965M63.1676 316.759L94.6401 347.247M63.1676 316.759C63.1598 316.201 63.895 310.562 64.789 307.965M63.1676 316.759L67.2149 306.82M63.1676 316.759C63.3618 316.392 70.0094 309.466 73.4808 305.867M94.6401 347.247L98.0778 343.617L79.5198 313.651M94.6401 347.247L73.4808 305.867M79.5198 313.651L91.2763 306.191M79.5198 313.651L76.5003 309.759M91.2763 306.191L79.5908 293.749M91.2763 306.191L76.5003 309.759M79.5908 293.749L73.4808 305.867M79.5908 293.749L76.5003 309.759M73.4808 305.867L67.2149 306.82M73.4808 305.867L76.5003 309.759M64.789 307.965L67.2149 306.82" stroke="black"/>
<path d="M120.752 257.635L121.355 250.61L126.66 236.939L130.828 217.987L135.121 212.393L137.912 194.053L153.955 183.115L100.654 156L102.45 167.959L103.522 181.783L102.559 188.266L92.1642 220.53L95.1446 226.526L88.0044 244.93L84.421 245.959L120.752 257.635Z" fill="#251414"/>
<path d="M121.355 250.61L120.752 257.635L84.421 245.959L88.0044 244.93M121.355 250.61L126.66 236.939M121.355 250.61L88.0044 244.93M126.66 236.939L130.828 217.987M126.66 236.939L95.1446 226.526M130.828 217.987L135.121 212.393M130.828 217.987L92.1642 220.53M135.121 212.393L137.912 194.053M135.121 212.393L102.559 188.266M137.912 194.053L153.955 183.115M137.912 194.053L103.522 181.783M153.955 183.115L100.654 156L102.45 167.959L103.522 181.783M153.955 183.115L103.522 181.783M103.522 181.783L102.559 188.266M102.559 188.266L92.1642 220.53M92.1642 220.53L95.1446 226.526M95.1446 226.526L88.0044 244.93" stroke="#230000"/>
<path d="M115.488 260.785L122.14 257.316L85.8086 245.64L87.352 249.869L81.3965 279.857L76.5715 304.604L76.9884 309L85.752 312.4L98.2406 291.837L115.488 260.785Z" fill="#251414"/>
<path d="M85.752 312.4L76.9884 309L76.5715 304.604M85.752 312.4L76.5715 304.604M85.752 312.4L98.2406 291.837M115.488 260.785L122.14 257.316L85.8086 245.64M115.488 260.785L98.2406 291.837M115.488 260.785L87.352 249.869M89.3921 244.611L85.8086 245.64M85.8086 245.64L87.352 249.869M87.352 249.869L81.3965 279.857M81.3965 279.857L76.5715 304.604M81.3965 279.857L98.2406 291.837M76.5715 304.604L98.2406 291.837" stroke="#230000"/>
<path d="M63.9799 331.88L68.8224 333.222L110.595 349.965L112.403 345.304L83.0283 324.254L91.1744 312.934L75.221 305.671L74.248 319.238L68.7102 322.453L66.8736 324.422L63.9799 331.88Z" fill="#252020"/>
<path d="M68.8224 333.222L63.9799 331.88L66.8736 324.422M68.8224 333.222L110.595 349.965M68.8224 333.222C68.5941 332.705 67.057 327.174 66.8736 324.422M68.8224 333.222L68.7102 322.453M68.8224 333.222C68.8605 332.808 72.3951 323.882 74.248 319.238M110.595 349.965L112.403 345.304L83.0283 324.254M110.595 349.965L74.248 319.238M83.0283 324.254L91.1744 312.934M83.0283 324.254L78.6382 321.746M91.1744 312.934L75.221 305.671M91.1744 312.934L78.6382 321.746M75.221 305.671L74.248 319.238M75.221 305.671L78.6382 321.746M74.248 319.238L68.7102 322.453M74.248 319.238L78.6382 321.746M66.8736 324.422L68.7102 322.453" stroke="black"/>
<path d="M94.37 167.684L95.7226 164.456L106.901 149.623L141.559 165.238L158.432 172.84L147.655 195.973L131.595 207.133L119.947 203.88L103.464 195.347L95.9181 179.717L94.37 167.684Z" fill="#251414"/>
<path d="M94.37 167.684L95.7226 164.456M94.37 167.684L95.9181 179.717M94.37 167.684L131.839 180.672M95.7226 164.456L106.901 149.623M95.7226 164.456L131.839 180.672M106.901 149.623L141.559 165.238M106.901 149.623L131.839 180.672M147.655 195.973L158.432 172.84M147.655 195.973L131.595 207.133L119.947 203.88M147.655 195.973L131.839 180.672M147.655 195.973C138.167 197.916 120.724 204.097 119.947 203.88M147.655 195.973L103.464 195.347M158.432 172.84L141.559 165.238M158.432 172.84L131.839 180.672M119.947 203.88L103.464 195.347M95.9181 179.717L103.464 195.347M95.9181 179.717L131.839 180.672M141.559 165.238L131.839 180.672" stroke="#230000"/>
<path d="M173.103 59.8173L193.04 76.872L192.521 88.034L184.36 108.464L178.426 126.015L169.985 143.103L148.67 129.743L127.355 116.383L134.96 97.3452L138.571 76.1743L146.547 56.2084L161.581 40.1389L173.103 59.8173Z" fill="#251414"/>
<path d="M173.103 59.8173L193.04 76.872M173.103 59.8173L161.581 40.1389M173.103 59.8173L166.141 62.4202M173.103 59.8173L174.871 67.5228M193.04 76.872L192.521 88.034M193.04 76.872L177.287 72.2569M192.521 88.034L184.36 108.464M192.521 88.034L173.948 80.6148M178.426 126.015L169.985 143.103M178.426 126.015L184.36 108.464M178.426 126.015L168.008 84.7028M169.985 143.103L168.008 84.7028M169.985 143.103L148.67 129.743M169.985 143.103L151.749 112.666M127.355 116.383L134.96 97.3452L138.571 76.1743M127.355 116.383L148.67 129.743M127.355 116.383L151.749 112.666M161.581 40.1389L146.547 56.2084M161.581 40.1389L160.477 61.7729M138.571 76.1743L146.547 56.2084M138.571 76.1743L153.054 72.2681M146.547 56.2084L156.393 63.9102M184.36 108.464L168.008 84.7028M153.054 72.2681L153.614 78.9528L157.609 83.7791L162.507 85.7356M153.054 72.2681L156.393 63.9102M166.141 62.4202L160.477 61.7729M166.141 62.4202L171.039 64.3768L174.871 67.5228M160.477 61.7729L156.393 63.9102M174.871 67.5228L177.287 72.2569M177.287 72.2569L173.948 80.6148M173.948 80.6148L168.008 84.7028M168.008 84.7028L162.507 85.7356M162.507 85.7356L151.749 112.666M148.67 129.743L151.749 112.666" stroke="#230000"/>
<path d="M162.194 161.545L161.418 169.694L144.517 161.884L109.658 145.776L116.432 138.094L120.441 131.34L123.41 125.728L127.576 114.8L148.703 128.686L169.83 142.571L165.319 151.759L162.194 161.545Z" fill="#251414"/>
<path d="M109.658 145.776L116.432 138.094M109.658 145.776L144.517 161.884M109.658 145.776L129.18 137.231M161.418 169.694L162.194 161.545M161.418 169.694L144.517 161.884M161.418 169.694L148.703 128.686M162.194 161.545L165.319 151.759M162.194 161.545L148.703 128.686M165.319 151.759L169.83 142.571L148.703 128.686M165.319 151.759L148.703 128.686M116.432 138.094L120.441 131.34M116.432 138.094L129.18 137.231M123.41 125.728L127.576 114.8L148.703 128.686M123.41 125.728L120.441 131.34M123.41 125.728L129.18 137.231M120.441 131.34L129.18 137.231M148.703 128.686L144.517 161.884M148.703 128.686L129.18 137.231" stroke="#230000"/>
<g filter="url(#filter0_d_169_312)">
<path d="M141.539 68.7452L142.096 67.3522L150.448 59.9206L155.275 55.9259L160.566 54.8093L168.46 57.9625L175.426 63.4373L182.951 72.9043L188.712 82.7435L192.245 92.7694L190.761 96.484L187.414 85.9938L182.396 76.9899L175.242 66.5942L168.461 60.6551L161.032 57.6874L156.576 58.0608L151.47 61.4057L141.539 68.7452Z" fill="#100F0F"/>
<path d="M139.499 73.8527L142.096 67.3522L150.448 59.9206M139.499 73.8527L141.539 68.7452L151.47 61.4057M139.499 73.8527L138.386 76.6387L136.997 84.16M168.461 60.6551L168.46 57.9625M168.461 60.6551L161.032 57.6874M168.461 60.6551L175.242 66.5942L182.396 76.9899M168.46 57.9625L160.566 54.8093M168.46 57.9625L175.426 63.4373L182.951 72.9043M182.951 72.9043L182.396 76.9899M182.951 72.9043L188.712 82.7435M182.396 76.9899L187.414 85.9938M161.032 57.6874L160.566 54.8093M161.032 57.6874L156.576 58.0608M188.712 82.7435L192.245 92.7694L190.761 96.484L187.414 85.9938M188.712 82.7435L187.414 85.9938M160.566 54.8093L155.275 55.9259M150.448 59.9206L155.275 55.9259M150.448 59.9206L151.47 61.4057M151.47 61.4057L156.576 58.0608M155.275 55.9259L156.576 58.0608" stroke="#252323"/>
</g>
<g filter="url(#filter1_d_169_312)">
<path d="M155.621 98.1121L158.373 87.3569L161.11 79.2942" stroke="#252323"/>
</g>
<path d="M156.287 95.1446L154.434 94.3916L157.39 80.4806L160.169 81.6102L156.287 95.1446Z" fill="#251414" stroke="#252323"/>
<g style="mix-blend-mode:darken" filter="url(#filter2_di_169_312)">
<path d="M185.94 62.5385L178.743 50.7721L183.974 26.3255L208.35 29.4961L207.761 44.1982L207.867 50.8682L202.7 55.8984L199.874 61.9407L199.107 67.9125L197.711 69.659L190.866 68.1943L185.94 62.5385Z" fill="#251414"/>
<path d="M185.94 62.5385L178.743 50.7721L183.974 26.3255L208.35 29.4961L207.761 44.1982L207.867 50.8682L202.7 55.8984L199.874 61.9407L199.107 67.9125L197.711 69.659L190.866 68.1943L185.94 62.5385Z" stroke="#230000"/>
</g>
<g filter="url(#filter3_dd_169_312)">
<path d="M202.832 44.7489C201.056 45.8925 198.616 41.3613 198.616 41.3613L195.983 37.1108L200.376 38.5063L204.094 41.8495C204.094 41.8495 203.87 44.0802 202.832 44.7489Z" fill="#B20000" shape-rendering="crispEdges"/>
<path d="M202.832 44.7489C201.056 45.8925 198.616 41.3613 198.616 41.3613L195.983 37.1108L200.376 38.5063L204.094 41.8495C204.094 41.8495 203.87 44.0802 202.832 44.7489Z" stroke="url(#paint0_linear_169_312)" shape-rendering="crispEdges"/>
</g>
<path d="M210.97 31.5906L181.854 60.1302L193.801 75.981L192.337 82.826L172.252 66.7681L154.892 52.3158L157.089 42.0482L160.859 38.7644L167.941 15.2252L181.243 3.2432L194.444 6.06792L211.454 17.3774L210.97 31.5906Z" fill="#261515"/>
<path d="M181.854 60.1302L210.97 31.5906M181.854 60.1302L193.801 75.981L192.337 82.826L172.252 66.7681M181.854 60.1302L154.892 52.3158M181.854 60.1302L157.089 42.0482M181.854 60.1302L160.859 38.7644M181.854 60.1302L172.252 66.7681M210.97 31.5906L167.941 15.2252M210.97 31.5906L181.243 3.2432M210.97 31.5906L194.444 6.06792M210.97 31.5906L211.454 17.3774L194.444 6.06792M194.444 6.06792L181.243 3.2432M181.243 3.2432L167.941 15.2252M167.941 15.2252L160.859 38.7644M160.859 38.7644L157.089 42.0482M157.089 42.0482L154.892 52.3158M154.892 52.3158L172.252 66.7681" stroke="#230000"/>
<g filter="url(#filter4_d_169_312)">
<path d="M143.032 70.3147L140.06 69.6661L139.317 68.8308L139.224 67.7167L140.522 64.4664L144.418 57.4082L145.81 55.2721L147.666 53.3214L151.007 50.3488L156.483 46.0753L159.454 44.0313L162.238 42.4516L166.975 45.4205L171.155 49.7824L180.815 57.9486L194.938 79.2042L197.354 83.9384L196.521 90.0667L193.461 99.0743L187.711 113.468L182.148 130.091L173.892 146.714L169.347 156.744L167.4 162.965L165.729 161.759L167.305 156.466L171.664 146.901L179.92 130.277L186.039 112.262L191.975 97.4037L194.201 91.8319L185.467 78.6515L175.618 62.8719L168.002 57.6759L161.874 56.8431L148.597 59.0776L143.032 70.3147Z" fill="#3C3C3C"/>
<path d="M140.06 69.6661L143.032 70.3147L148.597 59.0776M140.06 69.6661L139.317 68.8308L139.224 67.7167M140.06 69.6661L148.597 59.0776M139.224 67.7167L140.522 64.4664M139.224 67.7167L148.597 59.0776M140.522 64.4664L144.418 57.4082M140.522 64.4664L148.597 59.0776M144.418 57.4082L145.81 55.2721M144.418 57.4082L148.597 59.0776M145.81 55.2721L147.666 53.3214M145.81 55.2721L161.874 56.8431M147.666 53.3214L151.007 50.3488M147.666 53.3214L161.874 56.8431M162.238 42.4516L168.002 57.6759M162.238 42.4516L159.454 44.0313L156.483 46.0753M162.238 42.4516L166.975 45.4205L171.155 49.7824M180.815 57.9486L194.938 79.2042M180.815 57.9486L171.155 49.7824M180.815 57.9486L175.618 62.8719M194.938 79.2042L197.354 83.9384M194.938 79.2042L185.467 78.6515M197.354 83.9384L196.521 90.0667M197.354 83.9384L185.467 78.6515M196.521 90.0667L193.461 99.0743M196.521 90.0667L194.201 91.8319M193.461 99.0743L187.711 113.468M193.461 99.0743L191.975 97.4037M186.039 112.262L191.975 97.4037M186.039 112.262L179.92 130.277M186.039 112.262L187.711 113.468M191.975 97.4037L194.201 91.8319M194.201 91.8319L185.467 78.6515M175.618 62.8719L168.002 57.6759M175.618 62.8719L185.467 78.6515M168.002 57.6759L161.874 56.8431M168.002 57.6759L156.483 46.0753M168.002 57.6759L171.155 49.7824M161.874 56.8431L148.597 59.0776M161.874 56.8431L151.007 50.3488M151.007 50.3488L156.483 46.0753M167.305 156.466L165.729 161.759L167.4 162.965L169.347 156.744M167.305 156.466L171.664 146.901M167.305 156.466L169.347 156.744M169.347 156.744L173.892 146.714M171.664 146.901L179.92 130.277M171.664 146.901L173.892 146.714M179.92 130.277L182.148 130.091M173.892 146.714L182.148 130.091M182.148 130.091L187.711 113.468" stroke="#251414"/>
</g>
<g filter="url(#filter5_d_169_312)">
<g filter="url(#filter6_d_169_312)">
<path d="M105.395 152.917C105.704 152.179 107.036 150.352 107.861 149.613L109.819 146.639L122.664 153.097L135.772 158.04L147.11 163.326L159.103 168.344L159.103 173.222L157.945 175.99L149.407 170.791L140.182 166.931L125.422 160.755L110.662 155.121L106.924 153.557L105.395 152.917Z" fill="#3C3C3C"/>
<path d="M109.819 146.639L107.861 149.613C107.036 150.352 105.704 152.179 105.395 152.917L106.924 153.557M109.819 146.639L122.664 153.097M109.819 146.639L110.662 155.121M109.819 146.639L106.924 153.557M110.662 155.121L106.924 153.557M110.662 155.121L125.422 160.755M140.182 166.931L125.422 160.755M140.182 166.931L149.407 170.791M140.182 166.931L135.772 158.04M135.772 158.04L122.664 153.097M135.772 158.04L147.11 163.326M125.422 160.755L122.664 153.097M147.11 163.326L159.103 168.344L159.103 173.222L157.945 175.99L149.407 170.791M147.11 163.326L149.407 170.791" stroke="#251414"/>
</g>
<path d="M175.605 158.755L174.813 158.866L173.7 150.944L174.631 151.823L175.605 158.755Z" fill="#1F1F1F"/>
<path d="M174.813 158.866L175.605 158.755L174.631 151.823M174.813 158.866L173.7 150.944L174.631 151.823M174.813 158.866C174.76 158.489 174.743 155.013 174.631 151.823" stroke="#251414"/>
</g>
<path d="M177.903 73.4468L178.309 81.5144L188.33 103.322L180.324 108.652L173.154 115.799L168.905 108.947L161.487 96.398L152.952 83.812L149.403 76.0885L150.213 71.8643L156.93 64.9261L167.723 63.2677L173.446 66.1408L177.903 73.4468Z" fill="#251414"/>
<path d="M178.309 81.5144L177.903 73.4468M178.309 81.5144L188.33 103.322L180.324 108.652M178.309 81.5144L167.995 89.0054M167.995 89.0054L172.87 97.22L176.284 102.254L180.324 108.652M167.995 89.0054L177.903 73.4468M167.995 89.0054C167.705 88.3755 165.544 83.6718 163.193 78.5559M167.995 89.0054L152.952 83.812M177.903 73.4468L173.446 66.1408M173.446 66.1408L167.723 63.2677M173.446 66.1408L163.193 78.5559M156.93 64.9261L167.723 63.2677M156.93 64.9261L150.213 71.8643M156.93 64.9261C158.193 67.6761 161.474 74.8162 163.193 78.5559M167.723 63.2677L163.193 78.5559M180.324 108.652L173.154 115.799L168.905 108.947L161.487 96.398L152.952 83.812M150.213 71.8643L149.403 76.0885M150.213 71.8643L163.193 78.5559M149.403 76.0885L152.952 83.812M149.403 76.0885L163.193 78.5559" stroke="#230000"/>
<path d="M196.972 129.35L202.302 132.15L215.708 135.111L217.98 126.999L220.252 118.886L207.532 112.103L203.562 111.219L193.176 104.971L189.862 103.567L187.326 100.834L184.062 102.964L179.939 108.022L174.809 116.292L179.431 118.249L181.266 120.277L181.636 120.686L193.023 127.136L194.864 127.915L196.972 129.35Z" fill="#251414"/>
<path d="M207.532 112.103L203.562 111.219M207.532 112.103L220.252 118.886L217.98 126.999M207.532 112.103L208.096 121.029M202.302 132.15L196.972 129.35L194.864 127.915M202.302 132.15L215.708 135.111L217.98 126.999M202.302 132.15L208.096 121.029M203.562 111.219L193.176 104.971L189.862 103.567M203.562 111.219L197.506 116.546M193.023 127.136L181.636 120.686L181.266 120.277M193.023 127.136L194.864 127.915M193.023 127.136C193.179 126.767 196.012 120.076 197.506 116.546M189.862 103.567L187.326 100.834L184.062 102.964L179.939 108.022M189.862 103.567L179.939 108.022M189.862 103.567C187.146 108.784 181.626 119.428 181.266 120.277M179.431 118.249L174.809 116.292L179.939 108.022M179.431 118.249C179.779 117.427 179.915 111.089 179.939 108.022M179.431 118.249L181.266 120.277M179.939 108.022L197.506 116.546M197.506 116.546L208.096 121.029M197.506 116.546L194.864 127.915M208.096 121.029L217.98 126.999" stroke="#230000"/>
<path d="M265.085 143.811L266.678 138.411L251.498 140.385L255.48 126.886L271.444 131.118L277.645 134.948L278.32 143.469L265.085 143.811Z" fill="#403535"/>
<path d="M266.678 138.411L265.085 143.811L278.32 143.469L277.645 134.948L271.444 131.118L255.48 126.886M266.678 138.411L251.498 140.385L255.48 126.886M266.678 138.411C266.298 138.282 259.159 131.501 255.48 126.886" stroke="black"/>
<path d="M277.62 134.997L277.767 143.364L275.191 143.232L265.085 143.811L266.041 140.571L266.678 138.411L272.068 137.865L269.052 140.999" stroke="black"/>
<path d="M211.485 127.53L216.718 125.742L220.058 117.965L229.405 121.733L254.601 126.724L250.619 140.224L227.309 135.131L212.582 136.22L214.315 131.34L211.485 127.53Z" fill="#403535"/>
<path d="M250.619 140.224L224.209 130.485M250.619 140.224L227.309 135.131M250.619 140.224L254.601 126.724M224.209 130.485C224.209 130.485 219.12 126.818 216.718 125.742M224.209 130.485L218.137 131.571M224.209 130.485L217.348 128.927M224.209 130.485L254.601 126.724M211.485 127.53L216.718 125.742M211.485 127.53L217.348 128.927M211.485 127.53L214.315 131.34M216.718 125.742L220.058 117.965L229.405 121.733L254.601 126.724M216.718 125.742L217.348 128.927M217.348 128.927L218.137 131.571M218.137 131.571L214.315 131.34M218.137 131.571L227.309 135.131M214.315 131.34L212.582 136.22L227.309 135.131" stroke="black"/>
<defs>
<filter id="filter0_d_169_312" x="132.505" y="54.2888" width="64.2739" height="51.6749" filterUnits="userSpaceOnUse" color-interpolation-filters="sRGB">
<feFlood flood-opacity="0" result="BackgroundImageFix"/>
<feColorMatrix in="SourceAlpha" type="matrix" values="0 0 0 0 0 0 0 0 0 0 0 0 0 0 0 0 0 0 127 0" result="hardAlpha"/>
<feOffset dy="4"/>
<feGaussianBlur stdDeviation="2"/>
<feComposite in2="hardAlpha" operator="out"/>
<feColorMatrix type="matrix" values="0 0 0 0 0 0 0 0 0 0 0 0 0 0 0 0 0 0 0.25 0"/>
<feBlend mode="normal" in2="BackgroundImageFix" result="effect1_dropShadow_169_312"/>
<feBlend mode="normal" in="SourceGraphic" in2="effect1_dropShadow_169_312" result="shape"/>
</filter>
<filter id="filter1_d_169_312" x="151.136" y="79.1334" width="14.4474" height="27.1027" filterUnits="userSpaceOnUse" color-interpolation-filters="sRGB">
<feFlood flood-opacity="0" result="BackgroundImageFix"/>
<feColorMatrix in="SourceAlpha" type="matrix" values="0 0 0 0 0 0 0 0 0 0 0 0 0 0 0 0 0 0 127 0" result="hardAlpha"/>
<feOffset dy="4"/>
<feGaussianBlur stdDeviation="2"/>
<feComposite in2="hardAlpha" operator="out"/>
<feColorMatrix type="matrix" values="0 0 0 0 0 0 0 0 0 0 0 0 0 0 0 0 0 0 0.25 0"/>
<feBlend mode="normal" in2="BackgroundImageFix" result="effect1_dropShadow_169_312"/>
<feBlend mode="normal" in="SourceGraphic" in2="effect1_dropShadow_169_312" result="shape"/>
</filter>
<filter id="filter2_di_169_312" x="174.212" y="22.7703" width="38.6558" height="52.7424" filterUnits="userSpaceOnUse" color-interpolation-filters="sRGB">
<feFlood flood-opacity="0" result="BackgroundImageFix"/>
<feColorMatrix in="SourceAlpha" type="matrix" values="0 0 0 0 0 0 0 0 0 0 0 0 0 0 0 0 0 0 127 0" result="hardAlpha"/>
<feOffset dy="1"/>
<feGaussianBlur stdDeviation="2"/>
<feComposite in2="hardAlpha" operator="out"/>
<feColorMatrix type="matrix" values="0 0 0 0 1 0 0 0 0 1 0 0 0 0 1 0 0 0 1 0"/>
<feBlend mode="normal" in2="BackgroundImageFix" result="effect1_dropShadow_169_312"/>
<feBlend mode="normal" in="SourceGraphic" in2="effect1_dropShadow_169_312" result="shape"/>
<feColorMatrix in="SourceAlpha" type="matrix" values="0 0 0 0 0 0 0 0 0 0 0 0 0 0 0 0 0 0 127 0" result="hardAlpha"/>
<feOffset dx="3" dy="10"/>
<feGaussianBlur stdDeviation="2.65"/>
<feComposite in2="hardAlpha" operator="arithmetic" k2="-1" k3="1"/>
<feColorMatrix type="matrix" values="0 0 0 0 0 0 0 0 0 0 0 0 0 0 0 0 0 0 0.25 0"/>
<feBlend mode="normal" in2="shape" result="effect2_innerShadow_169_312"/>
</filter>
<filter id="filter3_dd_169_312" x="190.846" y="36.2251" width="17.7711" height="17.2091" filterUnits="userSpaceOnUse" color-interpolation-filters="sRGB">
<feFlood flood-opacity="0" result="BackgroundImageFix"/>
<feColorMatrix in="SourceAlpha" type="matrix" values="0 0 0 0 0 0 0 0 0 0 0 0 0 0 0 0 0 0 127 0" result="hardAlpha"/>
<feOffset dy="4"/>
<feGaussianBlur stdDeviation="2"/>
<feComposite in2="hardAlpha" operator="out"/>
<feColorMatrix type="matrix" values="0 0 0 0 0 0 0 0 0 0 0 0 0 0 0 0 0 0 0.25 0"/>
<feBlend mode="normal" in2="BackgroundImageFix" result="effect1_dropShadow_169_312"/>
<feColorMatrix in="SourceAlpha" type="matrix" values="0 0 0 0 0 0 0 0 0 0 0 0 0 0 0 0 0 0 127 0" result="hardAlpha"/>
<feOffset dy="4"/>
<feGaussianBlur stdDeviation="2"/>
<feComposite in2="hardAlpha" operator="out"/>
<feColorMatrix type="matrix" values="0 0 0 0 0 0 0 0 0 0 0 0 0 0 0 0 0 0 0.25 0"/>
<feBlend mode="normal" in2="effect1_dropShadow_169_312" result="effect2_dropShadow_169_312"/>
<feBlend mode="normal" in="SourceGraphic" in2="effect2_dropShadow_169_312" result="shape"/>
</filter>
<filter id="filter4_d_169_312" x="134.716" y="41.8695" width="67.1547" height="129.907" filterUnits="userSpaceOnUse" color-interpolation-filters="sRGB">
<feFlood flood-opacity="0" result="BackgroundImageFix"/>
<feColorMatrix in="SourceAlpha" type="matrix" values="0 0 0 0 0 0 0 0 0 0 0 0 0 0 0 0 0 0 127 0" result="hardAlpha"/>
<feOffset dy="4"/>
<feGaussianBlur stdDeviation="2"/>
<feComposite in2="hardAlpha" operator="out"/>
<feColorMatrix type="matrix" values="0 0 0 0 0 0 0 0 0 0 0 0 0 0 0 0 0 0 0.25 0"/>
<feBlend mode="normal" in2="BackgroundImageFix" result="effect1_dropShadow_169_312"/>
<feBlend mode="normal" in="SourceGraphic" in2="effect1_dropShadow_169_312" result="shape"/>
</filter>
<filter id="filter5_d_169_312" x="100.741" y="145.992" width="79.4293" height="38.7274" filterUnits="userSpaceOnUse" color-interpolation-filters="sRGB">
<feFlood flood-opacity="0" result="BackgroundImageFix"/>
<feColorMatrix in="SourceAlpha" type="matrix" values="0 0 0 0 0 0 0 0 0 0 0 0 0 0 0 0 0 0 127 0" result="hardAlpha"/>
<feOffset dy="4"/>
<feGaussianBlur stdDeviation="2"/>
<feComposite in2="hardAlpha" operator="out"/>
<feColorMatrix type="matrix" values="0 0 0 0 0 0 0 0 0 0 0 0 0 0 0 0 0 0 0.25 0"/>
<feBlend mode="normal" in2="BackgroundImageFix" result="effect1_dropShadow_169_312"/>
<feBlend mode="normal" in="SourceGraphic" in2="effect1_dropShadow_169_312" result="shape"/>
</filter>
<filter id="filter6_d_169_312" x="100.741" y="145.992" width="62.8623" height="38.7274" filterUnits="userSpaceOnUse" color-interpolation-filters="sRGB">
<feFlood flood-opacity="0" result="BackgroundImageFix"/>
<feColorMatrix in="SourceAlpha" type="matrix" values="0 0 0 0 0 0 0 0 0 0 0 0 0 0 0 0 0 0 127 0" result="hardAlpha"/>
<feOffset dy="4"/>
<feGaussianBlur stdDeviation="2"/>
<feComposite in2="hardAlpha" operator="out"/>
<feColorMatrix type="matrix" values="0 0 0 0 0 0 0 0 0 0 0 0 0 0 0 0 0 0 0.25 0"/>
<feBlend mode="normal" in2="BackgroundImageFix" result="effect1_dropShadow_169_312"/>
<feBlend mode="normal" in="SourceGraphic" in2="effect1_dropShadow_169_312" result="shape"/>
</filter>
<linearGradient id="paint0_linear_169_312" x1="207.446" y1="38.1323" x2="206.749" y2="45.9539" gradientUnits="userSpaceOnUse">
<stop stop-opacity="0.1"/>
<stop offset="1" stop-color="#FF0000" stop-opacity="0"/>
<stop offset="1" stop-color="#FF0000" stop-opacity="0"/>
</linearGradient>
</defs>
</svg>
