<svg width="266" height="360" viewBox="0 0 266 360" fill="none" xmlns="http://www.w3.org/2000/svg">
<path d="M99.0124 259.266L99.324 252.236L103.96 238.324L107.28 219.218L111.248 213.406L113.248 194.986L123.787 181.633L77.6248 164.5L77.6249 170.993L79.2156 184.699L78.5318 191.209L69.6616 223.922L72.8053 229.726L66.5646 248.453L63.1093 249.68L99.0124 259.266Z" fill="#251414"/>
<path d="M99.324 252.236L99.0124 259.266L63.1093 249.68L66.5646 248.453M99.324 252.236L103.96 238.324M99.324 252.236L66.5646 248.453M103.96 238.324L107.28 219.218M103.96 238.324L72.8053 229.726M107.28 219.218L111.248 213.406M107.28 219.218L69.6616 223.922M111.248 213.406L113.248 194.986M111.248 213.406L78.5318 191.209M113.248 194.986L123.787 181.633M113.248 194.986L79.2156 184.699M123.787 181.633L77.6248 164.5L77.6249 170.993L79.2156 184.699M123.787 181.633L79.2156 184.699M79.2156 184.699L78.5318 191.209M78.5318 191.209L69.6616 223.922M69.6616 223.922L72.8053 229.726M72.8053 229.726L66.5646 248.453" stroke="#230000"/>
<path d="M76.2563 266.417L83.5224 266.354L93.5555 262.914L97.989 258.403L95.2212 248.588L86.1426 233.013L77.1794 230.854L76.23 233.965L73.1684 237.195L43.7649 245.486L19.5419 252.405L15.8182 254.736L16.78 263.838L40.7671 265.421L76.2563 266.417Z" fill="#251414"/>
<path d="M16.78 263.838L15.8182 254.736L19.5419 252.405M16.78 263.838L19.5419 252.405M16.78 263.838L40.7671 265.421M76.2563 266.417L83.5224 266.354M76.2563 266.417L40.7671 265.421M76.2563 266.417L73.1684 237.195M83.5224 266.354L76.23 233.965M83.5224 266.354L93.5555 262.914M76.23 233.965L73.1684 237.195M76.23 233.965L77.1794 230.854L86.1426 233.013M76.23 233.965C82.3842 244.357 93.5555 262.914 93.5555 262.914M76.23 233.965C83.4161 241.771 97.989 258.403 97.989 258.403M76.23 233.965L95.2212 248.588M76.23 233.965L86.1426 233.013M73.1684 237.195L43.7649 245.486M43.7649 245.486L19.5419 252.405M43.7649 245.486L40.7671 265.421M19.5419 252.405L40.7671 265.421M93.5555 262.914L97.989 258.403M97.989 258.403L95.2212 248.588M95.2212 248.588L86.1426 233.013" stroke="#230000"/>
<path d="M1.00007 249.995L2.00891 254.784L6.11605 298.41L11.0884 297.884L16.4574 263.048L30.2407 265.019L29.4446 247.968L16.9259 253.208L11.5443 249.86L8.95578 249.154L1.00007 249.995Z" fill="#252020"/>
<path d="M2.00891 254.784L1.00007 249.995L8.95578 249.154M2.00891 254.784L6.11605 298.41M2.00891 254.784C2.36577 254.355 6.58899 250.547 8.95578 249.154M2.00891 254.784L11.5443 249.86M2.00891 254.784C2.39501 254.631 11.9487 253.687 16.9259 253.208M6.11605 298.41L11.0884 297.884L16.4574 263.048M6.11605 298.41L16.9259 253.208M16.4574 263.048L30.2407 265.019M16.4574 263.048L16.6916 258.128M30.2407 265.019L29.4446 247.968M30.2407 265.019L16.6916 258.128M29.4446 247.968L16.9259 253.208M29.4446 247.968L16.6916 258.128M16.9259 253.208L11.5443 249.86M16.9259 253.208L16.6916 258.128M8.95578 249.154L11.5443 249.86" stroke="black"/>
<path d="M157.426 97.3438L149.405 96.3811L126.219 102.575L112.194 116.5L108.194 106.5L106.194 97.3438L107.194 91.5001L109.194 88.3678C111.36 87.415 115.852 85.5094 116.484 85.5094L123.955 82.4786L137.577 77.2871L151.423 71.0004L159.635 68.8066L163.662 70.3186L169.366 78.1104L169.178 89.0289L165.38 94.1839L157.426 97.3438Z" fill="#251414"/>
<path d="M149.405 96.3811L157.426 97.3438M149.405 96.3811L126.219 102.575M149.405 96.3811L143.764 84.9498M143.764 84.9498L134.844 88.3678L129.305 90.8824L122.318 93.7842M143.764 84.9498L157.426 97.3438M143.764 84.9498C144.434 84.7709 149.435 83.4349 154.874 81.9817M143.764 84.9498L151.423 71.0004M157.426 97.3438L165.38 94.1839M165.38 94.1839L169.178 89.0289M165.38 94.1839L154.874 81.9817M169.366 78.1104L169.178 89.0289M169.366 78.1104L163.662 70.3186M169.366 78.1104C166.442 78.8915 158.851 80.9196 154.874 81.9817M169.178 89.0289L154.874 81.9817M122.318 93.7842L126.219 102.575M122.318 93.7842L116.484 85.5094M126.219 102.575L112.194 116.5L108.194 106.5M163.662 70.3186L159.635 68.8066M163.662 70.3186L154.874 81.9817M159.635 68.8066L151.423 71.0004M159.635 68.8066L154.874 81.9817M151.423 71.0004L137.577 77.2871L123.955 82.4786L116.484 85.5094M116.484 85.5094C115.852 85.5094 111.36 87.415 109.194 88.3678L107.194 91.5001M116.484 85.5094C114.054 91.8396 108.994 104.9 108.194 106.5M116.484 85.5094L106.194 97.3438M116.484 85.5094L107.194 91.5001M107.194 91.5001L106.194 97.3438M106.194 97.3438L108.194 106.5" stroke="#230000"/>
<path d="M141.518 123.443L144.817 128.48L149.052 141.54L141.195 144.581L133.339 147.622L125.364 135.611L124.104 131.745L116.886 122.008L115.171 118.843L112.206 116.582L114.013 113.129L118.652 108.539L126.39 102.638L128.782 107.05L130.978 108.682L131.42 109.011L138.934 119.725L139.887 121.484L141.518 123.443Z" fill="#251414"/>
<path d="M125.364 135.611L124.104 131.745M125.364 135.611L133.339 147.622L141.195 144.581M125.364 135.611L134.304 135.316M144.817 128.48L141.518 123.443L139.887 121.484M144.817 128.48L149.052 141.54L141.195 144.581M144.817 128.48L134.304 135.316M124.104 131.745L116.886 122.008L115.171 118.843M124.104 131.745L128.823 125.206M138.934 119.725L131.42 109.011L130.978 108.682M138.934 119.725L139.887 121.484M138.934 119.725C138.582 119.916 132.194 123.379 128.823 125.206M115.171 118.843L112.206 116.582L114.013 113.129L118.652 108.539M115.171 118.843L118.652 108.539M115.171 118.843C120.102 115.639 130.167 109.122 130.978 108.682M128.782 107.05L126.39 102.638L118.652 108.539M128.782 107.05C127.998 107.475 121.702 108.22 118.652 108.539M128.782 107.05L130.978 108.682M118.652 108.539L128.823 125.206M128.823 125.206L134.304 135.316M128.823 125.206L139.887 121.484M134.304 135.316L141.195 144.581" stroke="#230000"/>
<path d="M164.028 188.132L168.569 185.872L156.698 176.133L168.049 170.483L176.53 184.713L178.437 191.622L173.503 197.496L164.028 188.132Z" fill="#403535"/>
<path d="M168.569 185.872L164.028 188.132L173.503 197.496L178.437 191.622L176.53 184.713L168.049 170.483M168.569 185.872L156.698 176.133L168.049 170.483M168.569 185.872C168.385 185.515 167.693 176.063 168.049 170.483" stroke="black"/>
<path d="M178.388 191.635L173.182 197.028L171.464 195.081L164.028 188.132L170.316 185.388L172.161 187.671L168.619 189.825" stroke="black"/>
<path d="M169.66 185.68L172.756 188.958" stroke="black"/>
<path d="M139.48 143.552L142.396 143.012L149.667 140.514L153.814 149.661L168.271 171.052L156.92 176.701L143.847 156.611L132.855 146.64L137.163 144.81L139.48 143.552Z" fill="#403535"/>
<path d="M156.92 176.701L144.626 151.431M156.92 176.701L143.847 156.611M156.92 176.701L168.271 171.052M144.626 151.431C144.626 151.431 143.393 145.43 142.396 143.012M144.626 151.431L139.69 147.722M144.626 151.431L168.271 171.052M142.396 143.012L139.48 143.552L137.163 144.81M142.396 143.012L149.667 140.514L153.814 149.661L168.271 171.052M139.69 147.722L137.163 144.81M139.69 147.722L143.847 156.611M137.163 144.81L132.855 146.64L143.847 156.611" stroke="black"/>
<path d="M159.686 240.729L155.453 235.108L150.176 221.427L140.578 204.576L139.94 197.568L129.761 182.086L129.392 165.079L77.7838 178.555L87.0133 186.249L96.9625 195.809L100.578 201.265L114.554 232.144L120.672 234.621L127.776 253.038L125.891 256.183L159.686 240.729Z" fill="#251414"/>
<path d="M155.453 235.108L159.686 240.729L125.891 256.183L127.776 253.038M155.453 235.108L150.176 221.427M155.453 235.108L127.776 253.038M150.176 221.427L140.578 204.576M150.176 221.427L120.672 234.621M140.578 204.576L139.94 197.568M140.578 204.576L114.554 232.144M139.94 197.568L129.761 182.086M139.94 197.568L100.578 201.265M129.761 182.086L129.392 165.079M129.761 182.086L96.9625 195.809M129.392 165.079L77.7838 178.555L87.0133 186.249L96.9625 195.809M129.392 165.079L96.9625 195.809M96.9625 195.809L100.578 201.265M100.578 201.265L114.554 232.144M114.554 232.144L120.672 234.621M120.672 234.621L127.776 253.038" stroke="#230000"/>
<path d="M158.571 265.665L160.847 258.765L160.813 248.158L157.967 242.51L147.782 241.977L130.116 245.569L125.191 253.363L127.832 255.262L129.907 259.199L128.309 289.707L127.077 314.869L128.088 319.144L137.016 321.158L146.223 298.952L158.571 265.665Z" fill="#251414"/>
<path d="M137.016 321.158L128.088 319.144L127.077 314.869M137.016 321.158L127.077 314.869M137.016 321.158L146.223 298.952M158.571 265.665L160.847 258.765M158.571 265.665L146.223 298.952M158.571 265.665L129.907 259.199M160.847 258.765L127.832 255.262M160.847 258.765L160.813 248.158M127.832 255.262L129.907 259.199M127.832 255.262L125.191 253.363L130.116 245.569M127.832 255.262C139.65 252.773 160.813 248.158 160.813 248.158M127.832 255.262C137.533 250.965 157.967 242.51 157.967 242.51M127.832 255.262L147.782 241.977M127.832 255.262L130.116 245.569M129.907 259.199L128.309 289.707M128.309 289.707L127.077 314.869M128.309 289.707L146.223 298.952M127.077 314.869L146.223 298.952M160.813 248.158L157.967 242.51M157.967 242.51L147.782 241.977M147.782 241.977L130.116 245.569" stroke="#230000"/>
<path d="M117.914 335.814L122.773 336.398L165.405 346.528L166.505 341.651L135.242 325.372L141.538 312.952L125.136 308.227L126.074 321.766L121.175 325.786L119.675 328.01L117.914 335.814Z" fill="#252020"/>
<path d="M122.773 336.398L117.914 335.814L119.675 328.01M122.773 336.398L165.405 346.528M122.773 336.398C122.481 335.922 120.233 330.699 119.675 328.01M122.773 336.398L121.175 325.786M122.773 336.398C122.753 335.983 124.929 326.633 126.074 321.766M165.405 346.528L166.505 341.651L135.242 325.372M165.405 346.528L126.074 321.766M135.242 325.372L141.538 312.952M135.242 325.372L130.658 323.569M141.538 312.952L125.136 308.227M141.538 312.952L130.658 323.569M125.136 308.227L126.074 321.766M125.136 308.227L130.658 323.569M126.074 321.766L121.175 325.786M126.074 321.766L130.658 323.569M119.675 328.01L121.175 325.786" stroke="black"/>
<path d="M75.1345 163.518L76.913 160.503L90.002 147.326L122.218 167.503L137.903 177.327L124.084 198.781L106.657 207.657L95.5592 202.852L80.3875 192.16L75.0341 175.65L75.1345 163.518Z" fill="#251414"/>
<path d="M75.1345 163.518L76.913 160.503M75.1345 163.518L75.0341 175.65M75.1345 163.518L110.493 181.475M76.913 160.503L90.002 147.326M76.913 160.503L110.493 181.475M90.002 147.326L122.218 167.503M90.002 147.326L110.493 181.475M124.084 198.781L137.903 177.327M124.084 198.781L106.657 207.657L95.5592 202.852M124.084 198.781L110.493 181.475M124.084 198.781C114.42 199.418 96.299 203.172 95.5592 202.852M124.084 198.781L80.3875 192.16M137.903 177.327L122.218 167.503M137.903 177.327L110.493 181.475M95.5592 202.852L80.3875 192.16M75.0341 175.65L80.3875 192.16M75.0341 175.65L110.493 181.475M122.218 167.503L110.493 181.475" stroke="#230000"/>
<path d="M168.744 66.0631L186.113 85.7264L184.046 96.7076L173.121 115.803L164.802 132.358L154.065 148.104L134.817 131.908L115.569 115.711L125.749 97.9178L132.271 77.4554L142.948 58.7937L160.072 44.9727L168.744 66.0631Z" fill="#251414"/>
<path d="M168.744 66.0631L186.113 85.7264M168.744 66.0631L160.072 44.9727M168.744 66.0631L161.487 67.6718M168.744 66.0631L169.422 73.9397M186.113 85.7264L184.046 96.7076M186.113 85.7264L171.156 78.964M184.046 96.7076L173.121 115.803M184.046 96.7076L166.686 86.7758M164.802 132.358L154.065 148.104M164.802 132.358L173.121 115.803M164.802 132.358L160.235 89.9974M154.065 148.104L160.235 89.9974M154.065 148.104L134.817 131.908M154.065 148.104L140.242 115.426M115.569 115.711L125.749 97.9178L132.271 77.4554M115.569 115.711L134.817 131.908M115.569 115.711L140.242 115.426M160.072 44.9727L142.948 58.7937M160.072 44.9727L155.968 66.2425M132.271 77.4554L142.948 58.7937M132.271 77.4554L147.157 75.6026M142.948 58.7937L151.626 67.7907M173.121 115.803L160.235 89.9974M147.157 75.6026L146.781 82.3003L150.065 87.6355L154.643 90.2546M147.157 75.6026L151.626 67.7907M161.487 67.6718L155.968 66.2425M161.487 67.6718L166.065 70.2909L169.422 73.9397M155.968 66.2425L151.626 67.7907M169.422 73.9397L171.156 78.964M171.156 78.964L166.686 86.7758M166.686 86.7758L160.235 89.9974M160.235 89.9974L154.643 90.2546M154.643 90.2546L140.242 115.426M134.817 131.908L140.242 115.426" stroke="#230000"/>
<path d="M143.784 165.283L141.881 173.244L126.232 163.159L93.9534 142.357L101.731 135.692L106.64 129.562L110.361 124.417L116.007 114.175L134.997 130.866L153.987 147.556L148.241 156.027L143.784 165.283Z" fill="#251414"/>
<path d="M93.9534 142.357L101.731 135.692M93.9534 142.357L126.232 163.159M93.9534 142.357L114.475 136.611M141.881 173.244L143.784 165.283M141.881 173.244L126.232 163.159M141.881 173.244L134.997 130.866M143.784 165.283L148.241 156.027M143.784 165.283L134.997 130.866M148.241 156.027L153.987 147.556L134.997 130.866M148.241 156.027L134.997 130.866M101.731 135.692L106.64 129.562M101.731 135.692L114.475 136.611M110.361 124.417L116.007 114.175L134.997 130.866M110.361 124.417L106.64 129.562M110.361 124.417L114.475 136.611M106.64 129.562L114.475 136.611M134.997 130.866L126.232 163.159M134.997 130.866L114.475 136.611" stroke="#230000"/>
<g filter="url(#filter0_d_169_544)">
<path d="M136.244 70.5116L136.989 69.2096L146.295 63.0127L151.63 59.7285L157.026 59.3592L164.404 63.5802L170.54 69.9712L176.674 80.3933L181.01 90.9385L183.113 101.358L181.127 104.83L179.272 93.9764L175.556 84.3618L169.918 73.0717L164.03 66.2468L157.086 62.2741L152.621 62.0237L147.1 64.6255L136.244 70.5116Z" fill="#100F0F"/>
<path d="M133.513 75.2855L136.989 69.2096L146.295 63.0127M133.513 75.2855L136.244 70.5116L147.1 64.6255M133.513 75.2855L132.023 77.8895L129.601 85.1442M164.03 66.2468L164.404 63.5802M164.03 66.2468L157.086 62.2741M164.03 66.2468L169.918 73.0717L175.556 84.3618M164.404 63.5802L157.026 59.3592M164.404 63.5802L170.54 69.9712L176.674 80.3933M176.674 80.3933L175.556 84.3618M176.674 80.3933L181.01 90.9385M175.556 84.3618L179.272 93.9764M157.086 62.2741L157.026 59.3592M157.086 62.2741L152.621 62.0237M181.01 90.9385L183.113 101.358L181.127 104.83L179.272 93.9764M181.01 90.9385L179.272 93.9764M157.026 59.3592L151.63 59.7285M146.295 63.0127L151.63 59.7285M146.295 63.0127L147.1 64.6255M147.1 64.6255L152.621 62.0237M151.63 59.7285L152.621 62.0237" stroke="#252323"/>
</g>
<g filter="url(#filter1_d_169_544)">
<path d="M127.677 87.4998L131.838 77.2071L135.625 69.5809" stroke="#252323"/>
</g>
<path d="M128.733 84.6476L126.997 83.6544L131.779 70.2611L134.383 71.7509L128.733 84.6476Z" fill="#251414" stroke="#252323"/>
<g style="mix-blend-mode:darken" filter="url(#filter2_di_169_544)">
<path d="M187.049 64.6555L181.516 52.0206L190.019 28.5109L213.738 34.9626L211.158 49.4485L210.358 56.0712L204.556 60.3531L200.934 65.9555L199.364 71.7679L197.743 73.3085L191.161 70.9278L187.049 64.6555Z" fill="#251414"/>
<path d="M187.049 64.6555L181.516 52.0206L190.019 28.5109L213.738 34.9626L211.158 49.4485L210.358 56.0712L204.556 60.3531L200.934 65.9555L199.364 71.7679L197.743 73.3085L191.161 70.9278L187.049 64.6555Z" stroke="#230000"/>
</g>
<g filter="url(#filter3_dd_169_544)">
<path d="M206.2 49.3246C204.285 50.2164 202.483 45.3958 202.483 45.3958L200.452 40.8271L204.615 42.8063L207.844 46.6235C207.844 46.6235 207.319 48.8031 206.2 49.3246Z" fill="#B20000" shape-rendering="crispEdges"/>
<path d="M206.2 49.3246C204.285 50.2164 202.483 45.3958 202.483 45.3958L200.452 40.8271L204.615 42.8063L207.844 46.6235C207.844 46.6235 207.319 48.8031 206.2 49.3246Z" stroke="url(#paint0_linear_169_544)" shape-rendering="crispEdges"/>
</g>
<path d="M216.049 37.3935L183.327 61.7144L193.012 79.041L190.631 85.6237L172.913 66.9869L157.676 50.3108L161.247 40.4367L165.429 37.6955L175.642 15.3361L190.448 5.27157L203.143 9.86294L218.46 23.3778L216.049 37.3935Z" fill="#261515"/>
<path d="M183.327 61.7144L216.049 37.3935M183.327 61.7144L193.012 79.041L190.631 85.6237L172.913 66.9869M183.327 61.7144L157.676 50.3108M183.327 61.7144L161.247 40.4367M183.327 61.7144L165.429 37.6955M183.327 61.7144L172.913 66.9869M216.049 37.3935L175.642 15.3361M216.049 37.3935L190.448 5.27157M216.049 37.3935L203.143 9.86294M216.049 37.3935L218.46 23.3778L203.143 9.86294M203.143 9.86294L190.448 5.27157M190.448 5.27157L175.642 15.3361M175.642 15.3361L165.429 37.6955M165.429 37.6955L161.247 40.4367M161.247 40.4367L157.676 50.3108M157.676 50.3108L172.913 66.9869" stroke="#230000"/>
<g filter="url(#filter4_d_169_544)">
<path d="M140.218 70.802L137.366 69.7463L136.746 68.8157L136.809 67.6994L138.547 64.6614L143.388 58.2141L145.063 56.2925L147.173 54.6191L150.895 52.1403L156.912 48.6705L160.138 47.0597L163.116 45.8829L167.393 49.4821L170.925 54.3833L179.355 63.8143L190.382 86.8285L192.116 91.8528L190.438 97.8056L186.155 106.3L178.458 119.754L170.635 135.44L160.146 150.753L154.25 160.052L151.456 165.942L149.968 164.515L152.266 159.493L157.914 150.628L168.403 135.315L176.97 118.326L184.915 104.439L187.895 99.2307L181.08 84.9631L173.523 67.9665L166.704 61.7612L160.752 60.0836L147.294 60.4488L140.218 70.802Z" fill="#3C3C3C"/>
<path d="M137.366 69.7463L140.218 70.802L147.294 60.4488M137.366 69.7463L136.746 68.8157L136.809 67.6994M137.366 69.7463L147.294 60.4488M136.809 67.6994L138.547 64.6614M136.809 67.6994L147.294 60.4488M138.547 64.6614L143.388 58.2141M138.547 64.6614L147.294 60.4488M143.388 58.2141L145.063 56.2925M143.388 58.2141L147.294 60.4488M145.063 56.2925L147.173 54.6191M145.063 56.2925L160.752 60.0836M147.173 54.6191L150.895 52.1403M147.173 54.6191L160.752 60.0836M163.116 45.8829L166.704 61.7612M163.116 45.8829L160.138 47.0597L156.912 48.6705M163.116 45.8829L167.393 49.4821L170.925 54.3833M179.355 63.8143L190.382 86.8285M179.355 63.8143L170.925 54.3833M179.355 63.8143L173.523 67.9665M190.382 86.8285L192.116 91.8528M190.382 86.8285L181.08 84.9631M192.116 91.8528L190.438 97.8056M192.116 91.8528L181.08 84.9631M190.438 97.8056L186.155 106.3M190.438 97.8056L187.895 99.2307M186.155 106.3L178.458 119.754M186.155 106.3L184.915 104.439M176.97 118.326L184.915 104.439M176.97 118.326L168.403 135.315M176.97 118.326L178.458 119.754M184.915 104.439L187.895 99.2307M187.895 99.2307L181.08 84.9631M173.523 67.9665L166.704 61.7612M173.523 67.9665L181.08 84.9631M166.704 61.7612L160.752 60.0836M166.704 61.7612L156.912 48.6705M166.704 61.7612L170.925 54.3833M160.752 60.0836L147.294 60.4488M160.752 60.0836L150.895 52.1403M150.895 52.1403L156.912 48.6705M152.266 159.493L149.968 164.515L151.456 165.942L154.25 160.052M152.266 159.493L157.914 150.628M152.266 159.493L154.25 160.052M154.25 160.052L160.146 150.753M157.914 150.628L168.403 135.315M157.914 150.628L160.146 150.753M168.403 135.315L170.635 135.44M160.146 150.753L170.635 135.44M170.635 135.44L178.458 119.754" stroke="#251414"/>
</g>
<g filter="url(#filter5_d_169_544)">
<g filter="url(#filter6_d_169_544)">
<path d="M88.7045 148.449C89.113 147.761 90.6863 146.136 91.6068 145.52L93.9597 142.847L105.78 151.03L118.073 157.749L128.565 164.561L139.743 171.199L139.064 176.03L137.532 178.61L129.801 172.273L121.203 167.167L107.446 158.997L93.6138 151.364L90.1301 149.295L88.7045 148.449Z" fill="#3C3C3C"/>
<path d="M93.9597 142.847L91.6068 145.52C90.6863 146.136 89.113 147.761 88.7045 148.449L90.1301 149.295M93.9597 142.847L105.78 151.03M93.9597 142.847L93.6138 151.364M93.9597 142.847L90.1301 149.295M93.6138 151.364L90.1301 149.295M93.6138 151.364L107.446 158.997M121.203 167.167L107.446 158.997M121.203 167.167L129.801 172.273M121.203 167.167L118.073 157.749M118.073 157.749L105.78 151.03M118.073 157.749L128.565 164.561M107.446 158.997L105.78 151.03M128.565 164.561L139.743 171.199L139.064 176.03L137.532 178.61L129.801 172.273M128.565 164.561L129.801 172.273" stroke="#251414"/>
</g>
<path d="M157.419 164H156.619V156L157.419 157V164Z" fill="#1F1F1F"/>
<path d="M156.619 164H157.419V157M156.619 164V156L157.419 157M156.619 164C156.619 163.619 157.086 160.175 157.419 157" stroke="#251414"/>
</g>
<path d="M161.783 78.2229L165.562 85.3621L183.864 100.887L178.863 109.102L175.387 118.611L168.639 114.198L156.611 105.963L143.555 98.1666L137.073 92.6684L136.021 88.4978L139.173 79.3703L148.253 73.3034L154.653 73.4872L161.783 78.2229Z" fill="#251414"/>
<path d="M165.562 85.3621L161.783 78.2229M165.562 85.3621L183.864 100.887L178.863 109.102M165.562 85.3621L159.382 96.5119M159.382 96.5119L167.274 101.894L172.497 105.013L178.863 109.102M159.382 96.5119L161.783 78.2229M159.382 96.5119C158.854 96.0635 154.906 92.715 150.612 89.0731M159.382 96.5119L143.555 98.1666M161.783 78.2229L154.653 73.4872M154.653 73.4872L148.253 73.3034M154.653 73.4872L150.612 89.0731M139.173 79.3703L148.253 73.3034M139.173 79.3703L136.021 88.4978M139.173 79.3703C141.481 81.328 147.474 86.4109 150.612 89.0731M148.253 73.3034L150.612 89.0731M178.863 109.102L175.387 118.611L168.639 114.198L156.611 105.963L143.555 98.1666M136.021 88.4978L137.073 92.6684M136.021 88.4978L150.612 89.0731M137.073 92.6684L143.555 98.1666M137.073 92.6684L150.612 89.0731" stroke="#230000"/>
<path d="M190.151 130.474L195.052 133.971L207.932 138.726L211.285 130.997L214.637 123.268L202.956 114.82L199.143 113.406L189.702 105.804L186.609 103.964L184.468 100.911L180.945 102.578L176.173 107.03L169.968 114.526L174.281 117.093L175.824 119.352L176.135 119.807L186.54 127.743L188.259 128.766L190.151 130.474Z" fill="#251414"/>
<path d="M202.956 114.82L199.143 113.406M202.956 114.82L214.637 123.268L211.285 130.997M202.956 114.82L202.303 123.74M195.052 133.971L190.151 130.474L188.259 128.766M195.052 133.971L207.932 138.726L211.285 130.997M195.052 133.971L202.303 123.74M199.143 113.406L189.702 105.804L186.609 103.964M199.143 113.406L192.42 117.86M186.54 127.743L176.135 119.807L175.824 119.352M186.54 127.743L188.259 128.766M186.54 127.743C186.744 127.399 190.46 121.155 192.42 117.86M186.609 103.964L184.468 100.911L180.945 102.578L176.173 107.03M186.609 103.964L176.173 107.03M186.609 103.964C183.21 108.763 176.295 118.559 175.824 119.352M174.281 117.093L169.968 114.526L176.173 107.03M174.281 117.093C174.737 116.326 175.732 110.065 176.173 107.03M174.281 117.093L175.824 119.352M176.173 107.03L192.42 117.86M192.42 117.86L202.303 123.74M192.42 117.86L188.259 128.766M202.303 123.74L211.285 130.997" stroke="#230000"/>
<path d="M254.371 110.384L251.112 105.793L243.277 118.944L235.13 107.466L248.328 97.5383L255.173 95.0331L262.287 99.7722L254.371 110.384Z" fill="#403535"/>
<path d="M251.112 105.793L254.371 110.384L262.287 99.7722L255.173 95.0331L248.328 97.5383L235.13 107.466M251.112 105.793L243.277 118.944L235.13 107.466M251.112 105.793C250.776 106.012 241.032 107.43 235.13 107.466" stroke="black"/>
<path d="M255.196 95.0837L261.862 100.143L260.166 102.085L254.371 110.385L252.416 107.63L251.112 105.793L254.017 101.22L254.615 105.529" stroke="black"/>
<path d="M208.43 142.438L210.261 137.22L206.215 129.786L214.956 124.771L234.46 108.057L242.606 119.535L224.189 134.703L215.937 146.95L213.173 142.571L208.43 142.438Z" fill="#403535"/>
<path d="M242.606 119.535L218.621 134.267M242.606 119.535L224.189 134.703M242.606 119.535L234.46 108.057M218.621 134.267C218.621 134.267 212.592 135.999 210.261 137.22M218.621 134.267L215.719 139.71M218.621 134.267L213.153 138.695M218.621 134.267L234.46 108.057M208.43 142.438L210.261 137.22M208.43 142.438L213.153 138.695M208.43 142.438L213.173 142.571M210.261 137.22L206.215 129.786L214.956 124.771L234.46 108.057M210.261 137.22L213.153 138.695M213.153 138.695L215.719 139.71M215.719 139.71L213.173 142.571M215.719 139.71L224.189 134.703M213.173 142.571L215.937 146.95L224.189 134.703" stroke="black"/>
<defs>
<filter id="filter0_d_169_544" x="125.126" y="58.8501" width="62.5142" height="55.4384" filterUnits="userSpaceOnUse" color-interpolation-filters="sRGB">
<feFlood flood-opacity="0" result="BackgroundImageFix"/>
<feColorMatrix in="SourceAlpha" type="matrix" values="0 0 0 0 0 0 0 0 0 0 0 0 0 0 0 0 0 0 127 0" result="hardAlpha"/>
<feOffset dy="4"/>
<feGaussianBlur stdDeviation="2"/>
<feComposite in2="hardAlpha" operator="out"/>
<feColorMatrix type="matrix" values="0 0 0 0 0 0 0 0 0 0 0 0 0 0 0 0 0 0 0.25 0"/>
<feBlend mode="normal" in2="BackgroundImageFix" result="effect1_dropShadow_169_544"/>
<feBlend mode="normal" in="SourceGraphic" in2="effect1_dropShadow_169_544" result="shape"/>
</filter>
<filter id="filter1_d_169_544" x="123.213" y="69.3585" width="16.8589" height="26.3287" filterUnits="userSpaceOnUse" color-interpolation-filters="sRGB">
<feFlood flood-opacity="0" result="BackgroundImageFix"/>
<feColorMatrix in="SourceAlpha" type="matrix" values="0 0 0 0 0 0 0 0 0 0 0 0 0 0 0 0 0 0 127 0" result="hardAlpha"/>
<feOffset dy="4"/>
<feGaussianBlur stdDeviation="2"/>
<feComposite in2="hardAlpha" operator="out"/>
<feColorMatrix type="matrix" values="0 0 0 0 0 0 0 0 0 0 0 0 0 0 0 0 0 0 0.25 0"/>
<feBlend mode="normal" in2="BackgroundImageFix" result="effect1_dropShadow_169_544"/>
<feBlend mode="normal" in="SourceGraphic" in2="effect1_dropShadow_169_544" result="shape"/>
</filter>
<filter id="filter2_di_169_544" x="176.978" y="24.9075" width="41.333" height="54.2763" filterUnits="userSpaceOnUse" color-interpolation-filters="sRGB">
<feFlood flood-opacity="0" result="BackgroundImageFix"/>
<feColorMatrix in="SourceAlpha" type="matrix" values="0 0 0 0 0 0 0 0 0 0 0 0 0 0 0 0 0 0 127 0" result="hardAlpha"/>
<feOffset dy="1"/>
<feGaussianBlur stdDeviation="2"/>
<feComposite in2="hardAlpha" operator="out"/>
<feColorMatrix type="matrix" values="0 0 0 0 1 0 0 0 0 1 0 0 0 0 1 0 0 0 1 0"/>
<feBlend mode="normal" in2="BackgroundImageFix" result="effect1_dropShadow_169_544"/>
<feBlend mode="normal" in="SourceGraphic" in2="effect1_dropShadow_169_544" result="shape"/>
<feColorMatrix in="SourceAlpha" type="matrix" values="0 0 0 0 0 0 0 0 0 0 0 0 0 0 0 0 0 0 127 0" result="hardAlpha"/>
<feOffset dx="3" dy="10"/>
<feGaussianBlur stdDeviation="2.65"/>
<feComposite in2="hardAlpha" operator="arithmetic" k2="-1" k3="1"/>
<feColorMatrix type="matrix" values="0 0 0 0 0 0 0 0 0 0 0 0 0 0 0 0 0 0 0.25 0"/>
<feBlend mode="normal" in2="shape" result="effect2_innerShadow_169_544"/>
</filter>
<filter id="filter3_dd_169_544" x="195.446" y="39.7953" width="16.9443" height="18.1401" filterUnits="userSpaceOnUse" color-interpolation-filters="sRGB">
<feFlood flood-opacity="0" result="BackgroundImageFix"/>
<feColorMatrix in="SourceAlpha" type="matrix" values="0 0 0 0 0 0 0 0 0 0 0 0 0 0 0 0 0 0 127 0" result="hardAlpha"/>
<feOffset dy="4"/>
<feGaussianBlur stdDeviation="2"/>
<feComposite in2="hardAlpha" operator="out"/>
<feColorMatrix type="matrix" values="0 0 0 0 0 0 0 0 0 0 0 0 0 0 0 0 0 0 0.25 0"/>
<feBlend mode="normal" in2="BackgroundImageFix" result="effect1_dropShadow_169_544"/>
<feColorMatrix in="SourceAlpha" type="matrix" values="0 0 0 0 0 0 0 0 0 0 0 0 0 0 0 0 0 0 127 0" result="hardAlpha"/>
<feOffset dy="4"/>
<feGaussianBlur stdDeviation="2"/>
<feComposite in2="hardAlpha" operator="out"/>
<feColorMatrix type="matrix" values="0 0 0 0 0 0 0 0 0 0 0 0 0 0 0 0 0 0 0.25 0"/>
<feBlend mode="normal" in2="effect1_dropShadow_169_544" result="effect2_dropShadow_169_544"/>
<feBlend mode="normal" in="SourceGraphic" in2="effect2_dropShadow_169_544" result="shape"/>
</filter>
<filter id="filter4_d_169_544" x="132.238" y="45.3082" width="64.4019" height="129.475" filterUnits="userSpaceOnUse" color-interpolation-filters="sRGB">
<feFlood flood-opacity="0" result="BackgroundImageFix"/>
<feColorMatrix in="SourceAlpha" type="matrix" values="0 0 0 0 0 0 0 0 0 0 0 0 0 0 0 0 0 0 127 0" result="hardAlpha"/>
<feOffset dy="4"/>
<feGaussianBlur stdDeviation="2"/>
<feComposite in2="hardAlpha" operator="out"/>
<feColorMatrix type="matrix" values="0 0 0 0 0 0 0 0 0 0 0 0 0 0 0 0 0 0 0.25 0"/>
<feBlend mode="normal" in2="BackgroundImageFix" result="effect1_dropShadow_169_544"/>
<feBlend mode="normal" in="SourceGraphic" in2="effect1_dropShadow_169_544" result="shape"/>
</filter>
<filter id="filter5_d_169_544" x="84.0193" y="142.182" width="77.9001" height="45.1827" filterUnits="userSpaceOnUse" color-interpolation-filters="sRGB">
<feFlood flood-opacity="0" result="BackgroundImageFix"/>
<feColorMatrix in="SourceAlpha" type="matrix" values="0 0 0 0 0 0 0 0 0 0 0 0 0 0 0 0 0 0 127 0" result="hardAlpha"/>
<feOffset dy="4"/>
<feGaussianBlur stdDeviation="2"/>
<feComposite in2="hardAlpha" operator="out"/>
<feColorMatrix type="matrix" values="0 0 0 0 0 0 0 0 0 0 0 0 0 0 0 0 0 0 0.25 0"/>
<feBlend mode="normal" in2="BackgroundImageFix" result="effect1_dropShadow_169_544"/>
<feBlend mode="normal" in="SourceGraphic" in2="effect1_dropShadow_169_544" result="shape"/>
</filter>
<filter id="filter6_d_169_544" x="84.0193" y="142.182" width="60.2649" height="45.1827" filterUnits="userSpaceOnUse" color-interpolation-filters="sRGB">
<feFlood flood-opacity="0" result="BackgroundImageFix"/>
<feColorMatrix in="SourceAlpha" type="matrix" values="0 0 0 0 0 0 0 0 0 0 0 0 0 0 0 0 0 0 127 0" result="hardAlpha"/>
<feOffset dy="4"/>
<feGaussianBlur stdDeviation="2"/>
<feComposite in2="hardAlpha" operator="out"/>
<feColorMatrix type="matrix" values="0 0 0 0 0 0 0 0 0 0 0 0 0 0 0 0 0 0 0.25 0"/>
<feBlend mode="normal" in2="BackgroundImageFix" result="effect1_dropShadow_169_544"/>
<feBlend mode="normal" in="SourceGraphic" in2="effect1_dropShadow_169_544" result="shape"/>
</filter>
<linearGradient id="paint0_linear_169_544" x1="211.67" y1="43.3959" x2="209.917" y2="51.0504" gradientUnits="userSpaceOnUse">
<stop stop-opacity="0.1"/>
<stop offset="1" stop-color="#FF0000" stop-opacity="0"/>
<stop offset="1" stop-color="#FF0000" stop-opacity="0"/>
</linearGradient>
</defs>
</svg>
