<svg width="232" height="361" viewBox="0 0 232 361" fill="none" xmlns="http://www.w3.org/2000/svg">
<path d="M146.7 90.3438L138.68 89.3811L115.493 95.5753L101.468 109.5L97.4681 99.5001L95.4681 90.3438L96.4681 84.5001L98.4681 81.3678C100.635 80.415 105.126 78.5094 105.759 78.5094L113.229 75.4786L126.851 70.2871L140.698 64.0004L148.91 61.8066L152.936 63.3186L158.641 71.1104L158.452 82.0289L154.654 87.1839L146.7 90.3438Z" fill="#251414"/>
<path d="M138.68 89.3811L146.7 90.3438M138.68 89.3811L115.493 95.5753M138.68 89.3811L133.038 77.9498M133.038 77.9498L124.118 81.3678L118.58 83.8824L111.592 86.7842M133.038 77.9498L146.7 90.3438M133.038 77.9498C133.708 77.7709 138.709 76.4349 144.149 74.9817M133.038 77.9498L140.698 64.0004M146.7 90.3438L154.654 87.1839M154.654 87.1839L158.452 82.0289M154.654 87.1839L144.149 74.9817M158.641 71.1104L158.452 82.0289M158.641 71.1104L152.936 63.3186M158.641 71.1104C155.717 71.8915 148.125 73.9196 144.149 74.9817M158.452 82.0289L144.149 74.9817M111.592 86.7842L115.493 95.5753M111.592 86.7842L105.759 78.5094M115.493 95.5753L101.468 109.5L97.4681 99.5001M152.936 63.3186L148.91 61.8066M152.936 63.3186L144.149 74.9817M148.91 61.8066L140.698 64.0004M148.91 61.8066L144.149 74.9817M140.698 64.0004L126.851 70.2871L113.229 75.4786L105.759 78.5094M105.759 78.5094C105.126 78.5094 100.635 80.415 98.4681 81.3678L96.4681 84.5001M105.759 78.5094C103.328 84.8396 98.2681 97.9001 97.4681 99.5001M105.759 78.5094L95.4681 90.3438M105.759 78.5094L96.4681 84.5001M96.4681 84.5001L95.4681 90.3438M95.4681 90.3438L97.4681 99.5001" stroke="#230000"/>
<path d="M130.792 116.443L134.091 121.48L138.326 134.54L130.47 137.581L122.613 140.622L114.638 128.611L113.378 124.745L106.16 115.008L104.445 111.843L101.48 109.582L103.287 106.129L107.926 101.539L115.665 95.6378L118.056 100.05L120.252 101.682L120.694 102.011L128.208 112.725L129.161 114.484L130.792 116.443Z" fill="#251414"/>
<path d="M114.638 128.611L113.378 124.745M114.638 128.611L122.613 140.622L130.47 137.581M114.638 128.611L123.578 128.316M134.091 121.48L130.792 116.443L129.161 114.484M134.091 121.48L138.326 134.54L130.47 137.581M134.091 121.48L123.578 128.316M113.378 124.745L106.16 115.008L104.445 111.843M113.378 124.745L118.098 118.206M128.208 112.725L120.694 102.011L120.252 101.682M128.208 112.725L129.161 114.484M128.208 112.725C127.856 112.916 121.468 116.379 118.098 118.206M104.445 111.843L101.48 109.582L103.287 106.129L107.926 101.539M104.445 111.843L107.926 101.539M104.445 111.843C109.376 108.639 119.441 102.122 120.252 101.682M118.056 100.05L115.665 95.6378L107.926 101.539M118.056 100.05C117.272 100.475 110.976 101.22 107.926 101.539M118.056 100.05L120.252 101.682M107.926 101.539L118.098 118.206M118.098 118.206L123.578 128.316M118.098 118.206L129.161 114.484M123.578 128.316L130.47 137.581" stroke="#230000"/>
<path d="M153.302 181.132L157.843 178.872L145.972 169.133L157.323 163.483L165.804 177.713L167.711 184.622L162.777 190.496L153.302 181.132Z" fill="#403535"/>
<path d="M157.843 178.872L153.302 181.132L162.777 190.496L167.711 184.622L165.804 177.713L157.323 163.483M157.843 178.872L145.972 169.133L157.323 163.483M157.843 178.872C157.659 178.515 156.968 169.063 157.323 163.483" stroke="black"/>
<path d="M167.662 184.635L162.456 190.028L160.738 188.081L153.302 181.132L159.59 178.388L161.436 180.671L157.893 182.825" stroke="black"/>
<path d="M158.934 178.68L162.031 181.958" stroke="black"/>
<path d="M128.754 136.552L131.671 136.012L138.941 133.514L143.088 142.661L157.545 164.052L146.194 169.701L133.121 149.611L122.13 139.64L126.438 137.81L128.754 136.552Z" fill="#403535"/>
<path d="M146.194 169.701L133.901 144.431M146.194 169.701L133.121 149.611M146.194 169.701L157.545 164.052M133.901 144.431C133.901 144.431 132.667 138.43 131.671 136.012M133.901 144.431L128.964 140.722M133.901 144.431L157.545 164.052M131.671 136.012L128.754 136.552L126.438 137.81M131.671 136.012L138.941 133.514L143.088 142.661L157.545 164.052M128.964 140.722L126.438 137.81M128.964 140.722L133.121 149.611M126.438 137.81L122.13 139.64L133.121 149.611" stroke="black"/>
<path d="M175.666 230.006L170.173 225.608L161.674 213.658L148.204 199.707L145.852 193.075L132.157 180.593L127.591 164.207L80.9234 190.036L91.77 195.206L103.776 202.007L108.629 206.399L129.812 232.858L136.353 233.743L147.794 249.83L146.747 253.343L175.666 230.006Z" fill="#251414"/>
<path d="M170.173 225.608L175.666 230.006L146.747 253.343L147.794 249.83M170.173 225.608L161.674 213.658M170.173 225.608L147.794 249.83M161.674 213.658L148.204 199.707M161.674 213.658L136.353 233.743M148.204 199.707L145.852 193.075M148.204 199.707L129.812 232.858M145.852 193.075L132.157 180.593M145.852 193.075L108.629 206.399M132.157 180.593L127.591 164.207M132.157 180.593L103.776 202.007M127.591 164.207L80.9234 190.036L91.77 195.206L103.776 202.007M127.591 164.207L103.776 202.007M103.776 202.007L108.629 206.399M108.629 206.399L129.812 232.858M129.812 232.858L136.353 233.743M136.353 233.743L147.794 249.83" stroke="#230000"/>
<path d="M170.139 253.754L172.435 246.861L172.434 236.254L169.604 230.598L159.422 230.034L141.745 233.572L136.796 241.351L139.431 243.258L141.494 247.201L139.804 277.705L138.496 302.862L139.494 307.141L148.416 309.182L157.69 287.004L170.139 253.754Z" fill="#251414"/>
<path d="M148.416 309.182L139.494 307.141L138.496 302.862M148.416 309.182L138.496 302.862M148.416 309.182L157.69 287.004M170.139 253.754L172.435 246.861M170.139 253.754L157.69 287.004M170.139 253.754L141.494 247.201M172.435 246.861L139.431 243.258M172.435 246.861L172.434 236.254M139.431 243.258L141.494 247.201M139.431 243.258L136.796 241.351L141.745 233.572M139.431 243.258C151.257 240.805 172.434 236.254 172.434 236.254M139.431 243.258C149.145 238.991 169.604 230.598 169.604 230.598M139.431 243.258L159.422 230.034M139.431 243.258L141.745 233.572M141.494 247.201L139.804 277.705M139.804 277.705L138.496 302.862M139.804 277.705L157.69 287.004M138.496 302.862L157.69 287.004M172.434 236.254L169.604 230.598M169.604 230.598L159.422 230.034M159.422 230.034L141.745 233.572" stroke="#230000"/>
<path d="M129.628 331.949L134.5 332.411L177.371 341.474L178.349 336.571L146.69 321.077L152.673 308.505L136.159 304.191L137.435 317.701L132.637 321.843L131.193 324.104L129.628 331.949Z" fill="#252020"/>
<path d="M134.5 332.411L129.628 331.949L131.193 324.104M134.5 332.411L177.371 341.474M134.5 332.411C134.196 331.943 131.818 326.778 131.193 324.104M134.5 332.411L132.637 321.843M134.5 332.411C134.469 331.997 136.411 322.596 137.435 317.701M177.371 341.474L178.349 336.571L146.69 321.077M177.371 341.474L137.435 317.701M146.69 321.077L152.673 308.505M146.69 321.077L142.062 319.389M152.673 308.505L136.159 304.191M152.673 308.505L142.062 319.389M136.159 304.191L137.435 317.701M136.159 304.191L142.062 319.389M137.435 317.701L132.637 321.843M137.435 317.701L142.062 319.389M131.193 324.104L132.637 321.843" stroke="black"/>
<path d="M84.8421 253.611L85.8423 246.631L91.9126 233.282L97.1484 214.598L101.752 209.256L105.577 191.103L122.214 181.092L70.535 151L71.6503 163.042L71.9377 176.904L70.6092 183.322L58.4024 214.946L61.0382 221.101L52.8667 239.07L54.1669 241.5L84.8421 253.611Z" fill="#251414"/>
<path d="M85.8423 246.631L84.8421 253.611L54.1669 241.5L52.8667 239.07M85.8423 246.631L91.9126 233.282M85.8423 246.631L52.8667 239.07M91.9126 233.282L97.1484 214.598M91.9126 233.282L61.0382 221.101M97.1484 214.598L101.752 209.256M97.1484 214.598L58.4024 214.946M101.752 209.256L105.577 191.103M101.752 209.256L70.6092 183.322M105.577 191.103L122.214 181.092M105.577 191.103L71.9377 176.904M122.214 181.092L70.535 151L71.6503 163.042L71.9377 176.904M122.214 181.092L71.9377 176.904M71.9377 176.904L70.6092 183.322M70.6092 183.322L58.4024 214.946M58.4024 214.946L61.0382 221.101M61.0382 221.101L52.8667 239.07" stroke="#230000"/>
<path d="M74.9611 259.219L81.7829 256.096L86.006 253.805C86.4405 253.247 87.3718 251.821 87.6207 250.581C87.8697 249.341 88.0161 247.005 88.0581 245.992L86.5554 242.009L53.8301 238.154L46.0991 242.57L47.4233 246.872L39.9354 276.515L33.8458 300.981L34.0364 305.393L42.6137 309.238L56.1421 289.344L74.9611 259.219Z" fill="#251414"/>
<path d="M42.6137 309.238L34.0364 305.393L33.8458 300.981M42.6137 309.238L33.8458 300.981M42.6137 309.238L56.1421 289.344M74.9611 259.219L81.7829 256.096M74.9611 259.219L56.1421 289.344M74.9611 259.219L47.4233 246.872M81.7829 256.096L46.0991 242.57M81.7829 256.096L86.006 253.805M49.7307 241.726L46.0991 242.57M46.0991 242.57L47.4233 246.872M46.0991 242.57L53.8301 238.154L86.5554 242.009L88.0581 245.992M46.0991 242.57L86.006 253.805M46.0991 242.57L87.6207 250.581M46.0991 242.57L88.0581 245.992M47.4233 246.872L39.9354 276.515M39.9354 276.515L33.8458 300.981M39.9354 276.515L56.1421 289.344M33.8458 300.981L56.1421 289.344M86.006 253.805C86.4405 253.247 87.3718 251.821 87.6207 250.581M87.6207 250.581C87.8697 249.341 88.0161 247.005 88.0581 245.992" stroke="#230000"/>
<path d="M21.6277 315.943L26.3863 317.558L67.1426 336.641L69.2124 332.09L41.0777 309.409L49.8521 298.568L34.3358 290.414L32.5956 303.904L26.8845 306.799L24.9394 308.661L21.6277 315.943Z" fill="#252020"/>
<path d="M26.3863 317.558L21.6277 315.943L24.9394 308.661M26.3863 317.558L67.1426 336.641M26.3863 317.558C26.1878 317.028 24.9665 311.42 24.9394 308.661M26.3863 317.558L26.8845 306.799M26.3863 317.558C26.4478 317.147 30.4825 308.435 32.5956 303.904M67.1426 336.641L69.2124 332.09L41.0777 309.409M67.1426 336.641L32.5956 303.904M41.0777 309.409L49.8521 298.568M41.0777 309.409L36.8366 306.656M49.8521 298.568L34.3358 290.414M49.8521 298.568L36.8366 306.656M34.3358 290.414L32.5956 303.904M34.3358 290.414L36.8366 306.656M32.5956 303.904L26.8845 306.799M32.5956 303.904L36.8366 306.656M24.9394 308.661L26.8845 306.799" stroke="black"/>
<path d="M64.4088 156.518L66.1873 153.503L79.2762 140.326L111.493 160.503L127.177 170.327L113.359 191.781L95.9311 200.657L84.8335 195.852L69.6618 185.16L64.3084 168.65L64.4088 156.518Z" fill="#251414"/>
<path d="M64.4088 156.518L66.1873 153.503M64.4088 156.518L64.3084 168.65M64.4088 156.518L99.7671 174.475M66.1873 153.503L79.2762 140.326M66.1873 153.503L99.7671 174.475M79.2762 140.326L111.493 160.503M79.2762 140.326L99.7671 174.475M113.359 191.781L127.177 170.327M113.359 191.781L95.9311 200.657L84.8335 195.852M113.359 191.781L99.7671 174.475M113.359 191.781C103.695 192.418 85.5733 196.172 84.8335 195.852M113.359 191.781L69.6618 185.16M127.177 170.327L111.493 160.503M127.177 170.327L99.7671 174.475M84.8335 195.852L69.6618 185.16M64.3084 168.65L69.6618 185.16M64.3084 168.65L99.7671 174.475M111.493 160.503L99.7671 174.475" stroke="#230000"/>
<path d="M158.018 59.0631L175.387 78.7264L173.32 89.7076L162.395 108.803L154.076 125.358L143.339 141.104L124.091 124.908L104.843 108.711L115.023 90.9178L121.546 70.4554L132.222 51.7937L149.346 37.9727L158.018 59.0631Z" fill="#251414"/>
<path d="M158.018 59.0631L175.387 78.7264M158.018 59.0631L149.346 37.9727M158.018 59.0631L150.761 60.6718M158.018 59.0631L158.696 66.9397M175.387 78.7264L173.32 89.7076M175.387 78.7264L160.43 71.964M173.32 89.7076L162.395 108.803M173.32 89.7076L155.961 79.7758M154.076 125.358L143.339 141.104M154.076 125.358L162.395 108.803M154.076 125.358L149.509 82.9974M143.339 141.104L149.509 82.9974M143.339 141.104L124.091 124.908M143.339 141.104L129.516 108.426M104.843 108.711L115.023 90.9178L121.546 70.4554M104.843 108.711L124.091 124.908M104.843 108.711L129.516 108.426M149.346 37.9727L132.222 51.7937M149.346 37.9727L145.242 59.2425M121.546 70.4554L132.222 51.7937M121.546 70.4554L136.431 68.6026M132.222 51.7937L140.9 60.7907M162.395 108.803L149.509 82.9974M136.431 68.6026L136.055 75.3003L139.339 80.6355L143.917 83.2546M136.431 68.6026L140.9 60.7907M150.761 60.6718L145.242 59.2425M150.761 60.6718L155.339 63.2909L158.696 66.9397M145.242 59.2425L140.9 60.7907M158.696 66.9397L160.43 71.964M160.43 71.964L155.961 79.7758M155.961 79.7758L149.509 82.9974M149.509 82.9974L143.917 83.2546M143.917 83.2546L129.516 108.426M124.091 124.908L129.516 108.426" stroke="#230000"/>
<path d="M133.058 158.283L131.155 166.244L115.506 156.159L83.2275 135.357L91.0047 128.692L95.9146 122.562L99.6354 117.417L105.282 107.175L124.271 123.866L143.261 140.556L137.515 149.027L133.058 158.283Z" fill="#251414"/>
<path d="M83.2275 135.357L91.0047 128.692M83.2275 135.357L115.506 156.159M83.2275 135.357L103.749 129.611M131.155 166.244L133.058 158.283M131.155 166.244L115.506 156.159M131.155 166.244L124.271 123.866M133.058 158.283L137.515 149.027M133.058 158.283L124.271 123.866M137.515 149.027L143.261 140.556L124.271 123.866M137.515 149.027L124.271 123.866M91.0047 128.692L95.9146 122.562M91.0047 128.692L103.749 129.611M99.6354 117.417L105.282 107.175L124.271 123.866M99.6354 117.417L95.9146 122.562M99.6354 117.417L103.749 129.611M95.9146 122.562L103.749 129.611M124.271 123.866L115.506 156.159M124.271 123.866L103.749 129.611" stroke="#230000"/>
<g filter="url(#filter0_d_168_95)">
<path d="M125.518 63.5116L126.263 62.2096L135.569 56.0127L140.904 52.7285L146.3 52.3592L153.678 56.5802L159.814 62.9712L165.949 73.3933L170.284 83.9385L172.388 94.3585L170.401 97.8304L168.546 86.9764L164.83 77.3618L159.193 66.0717L153.304 59.2468L146.361 55.2741L141.895 55.0237L136.375 57.6255L125.518 63.5116Z" fill="#100F0F"/>
<path d="M122.787 68.2855L126.263 62.2096L135.569 56.0127M122.787 68.2855L125.518 63.5116L136.375 57.6255M122.787 68.2855L121.297 70.8895L118.875 78.1442M153.304 59.2468L153.678 56.5802M153.304 59.2468L146.361 55.2741M153.304 59.2468L159.193 66.0717L164.83 77.3618M153.678 56.5802L146.3 52.3592M153.678 56.5802L159.814 62.9712L165.949 73.3933M165.949 73.3933L164.83 77.3618M165.949 73.3933L170.284 83.9385M164.83 77.3618L168.546 86.9764M146.361 55.2741L146.3 52.3592M146.361 55.2741L141.895 55.0237M170.284 83.9385L172.388 94.3585L170.401 97.8304L168.546 86.9764M170.284 83.9385L168.546 86.9764M146.3 52.3592L140.904 52.7285M135.569 56.0127L140.904 52.7285M135.569 56.0127L136.375 57.6255M136.375 57.6255L141.895 55.0237M140.904 52.7285L141.895 55.0237" stroke="#252323"/>
</g>
<g filter="url(#filter1_d_168_95)">
<path d="M116.951 80.4998L121.112 70.2071L124.899 62.5809" stroke="#252323"/>
</g>
<path d="M118.007 77.6476L116.271 76.6544L121.053 63.2611L123.657 64.7509L118.007 77.6476Z" fill="#251414" stroke="#252323"/>
<g style="mix-blend-mode:darken" filter="url(#filter2_di_168_95)">
<path d="M170.482 64.6555L164.95 52.0206L173.452 28.5109L197.172 34.9626L194.591 49.4485L193.791 56.0712L187.989 60.3531L184.368 65.9555L182.798 71.7679L181.177 73.3085L174.594 70.9278L170.482 64.6555Z" fill="#251414"/>
<path d="M170.482 64.6555L164.95 52.0206L173.452 28.5109L197.172 34.9626L194.591 49.4485L193.791 56.0712L187.989 60.3531L184.368 65.9555L182.798 71.7679L181.177 73.3085L174.594 70.9278L170.482 64.6555Z" stroke="#230000"/>
</g>
<g filter="url(#filter3_dd_168_95)">
<path d="M189.634 49.3246C187.719 50.2164 185.917 45.3958 185.917 45.3958L183.885 40.8271L188.049 42.8063L191.278 46.6235C191.278 46.6235 190.753 48.8031 189.634 49.3246Z" fill="#B20000" shape-rendering="crispEdges"/>
<path d="M189.634 49.3246C187.719 50.2164 185.917 45.3958 185.917 45.3958L183.885 40.8271L188.049 42.8063L191.278 46.6235C191.278 46.6235 190.753 48.8031 189.634 49.3246Z" stroke="url(#paint0_linear_168_95)" shape-rendering="crispEdges"/>
</g>
<path d="M199.483 37.3935L166.761 61.7144L176.445 79.041L174.065 85.6237L156.347 66.9869L141.11 50.3108L144.681 40.4367L148.863 37.6955L159.076 15.3361L173.882 5.27157L186.577 9.86294L201.893 23.3778L199.483 37.3935Z" fill="#261515"/>
<path d="M166.761 61.7144L199.483 37.3935M166.761 61.7144L176.445 79.041L174.065 85.6237L156.347 66.9869M166.761 61.7144L141.11 50.3108M166.761 61.7144L144.681 40.4367M166.761 61.7144L148.863 37.6955M166.761 61.7144L156.347 66.9869M199.483 37.3935L159.076 15.3361M199.483 37.3935L173.882 5.27157M199.483 37.3935L186.577 9.86294M199.483 37.3935L201.893 23.3778L186.577 9.86294M186.577 9.86294L173.882 5.27157M173.882 5.27157L159.076 15.3361M159.076 15.3361L148.863 37.6955M148.863 37.6955L144.681 40.4367M144.681 40.4367L141.11 50.3108M141.11 50.3108L156.347 66.9869" stroke="#230000"/>
<g filter="url(#filter4_d_168_95)">
<path d="M124.771 64.8782L121.919 63.8224L121.299 62.8918L121.362 61.7756L123.1 58.7376L127.94 52.2903L129.616 50.3686L131.725 48.6953L135.448 46.2165L141.465 42.7466L144.691 41.1358L147.668 39.9591L151.946 43.5583L155.478 48.4595L163.908 57.8905L174.935 80.9046L176.669 85.9289L174.991 91.8817L170.708 100.376L163.01 113.83L155.188 129.516L144.699 144.829L138.803 154.128L136.009 160.019L134.521 158.591L136.819 153.569L142.467 144.704L152.956 129.391L161.523 112.403L169.468 98.5147L172.448 93.3068L165.633 79.0393L158.076 62.0426L151.257 55.8374L145.304 54.1598L131.846 54.525L124.771 64.8782Z" fill="#3C3C3C"/>
<path d="M121.919 63.8224L124.771 64.8782L131.846 54.525M121.919 63.8224L121.299 62.8918L121.362 61.7756M121.919 63.8224L131.846 54.525M121.362 61.7756L123.1 58.7376M121.362 61.7756L131.846 54.525M123.1 58.7376L127.94 52.2903M123.1 58.7376L131.846 54.525M127.94 52.2903L129.616 50.3686M127.94 52.2903L131.846 54.525M129.616 50.3686L131.725 48.6953M129.616 50.3686L145.304 54.1598M131.725 48.6953L135.448 46.2165M131.725 48.6953L145.304 54.1598M147.668 39.9591L151.257 55.8374M147.668 39.9591L144.691 41.1358L141.465 42.7466M147.668 39.9591L151.946 43.5583L155.478 48.4595M163.908 57.8905L174.935 80.9046M163.908 57.8905L155.478 48.4595M163.908 57.8905L158.076 62.0426M174.935 80.9046L176.669 85.9289M174.935 80.9046L165.633 79.0393M176.669 85.9289L174.991 91.8817M176.669 85.9289L165.633 79.0393M174.991 91.8817L170.708 100.376M174.991 91.8817L172.448 93.3068M170.708 100.376L163.01 113.83M170.708 100.376L169.468 98.5147M161.523 112.403L169.468 98.5147M161.523 112.403L152.956 129.391M161.523 112.403L163.01 113.83M169.468 98.5147L172.448 93.3068M172.448 93.3068L165.633 79.0393M158.076 62.0426L151.257 55.8374M158.076 62.0426L165.633 79.0393M151.257 55.8374L145.304 54.1598M151.257 55.8374L141.465 42.7466M151.257 55.8374L155.478 48.4595M145.304 54.1598L131.846 54.525M145.304 54.1598L135.448 46.2165M135.448 46.2165L141.465 42.7466M136.819 153.569L134.521 158.591L136.009 160.019L138.803 154.128M136.819 153.569L142.467 144.704M136.819 153.569L138.803 154.128M138.803 154.128L144.699 144.829M142.467 144.704L152.956 129.391M142.467 144.704L144.699 144.829M152.956 129.391L155.188 129.516M144.699 144.829L155.188 129.516M155.188 129.516L163.01 113.83" stroke="#251414"/>
</g>
<g filter="url(#filter5_d_168_95)">
<g filter="url(#filter6_d_168_95)">
<path d="M77.9787 141.449C78.3872 140.761 79.9605 139.136 80.881 138.52L83.2339 135.847L95.0546 144.03L107.347 150.749L117.839 157.561L129.017 164.199L128.339 169.03L126.807 171.61L119.075 165.273L110.477 160.167L96.7198 151.997L82.888 144.364L79.4042 142.295L77.9787 141.449Z" fill="#3C3C3C"/>
<path d="M83.2339 135.847L80.881 138.52C79.9605 139.136 78.3872 140.761 77.9787 141.449L79.4042 142.295M83.2339 135.847L95.0546 144.03M83.2339 135.847L82.888 144.364M83.2339 135.847L79.4042 142.295M82.888 144.364L79.4042 142.295M82.888 144.364L96.7198 151.997M110.477 160.167L96.7198 151.997M110.477 160.167L119.075 165.273M110.477 160.167L107.347 150.749M107.347 150.749L95.0546 144.03M107.347 150.749L117.839 157.561M96.7198 151.997L95.0546 144.03M117.839 157.561L129.017 164.199L128.339 169.03L126.807 171.61L119.075 165.273M117.839 157.561L119.075 165.273" stroke="#251414"/>
</g>
<path d="M146.694 157H145.894V149L146.694 150V157Z" fill="#1F1F1F"/>
<path d="M145.894 157H146.694V150M145.894 157V149L146.694 150M145.894 157C145.894 156.619 146.36 153.175 146.694 150" stroke="#251414"/>
</g>
<path d="M162.31 76.6068L160.125 84.3834L162.679 108.247L153.392 110.75L144.319 115.241L142.473 107.393L139.439 93.1345L135.357 78.4857L134.452 70.034L136.565 66.2878L145.142 61.8499L155.901 63.7155L160.411 68.2614L162.31 76.6068Z" fill="#251414"/>
<path d="M160.125 84.3834L162.31 76.6068M160.125 84.3834L162.679 108.247L153.392 110.75M160.125 84.3834L147.962 88.1994M147.962 88.1994L149.967 97.5391L151.6 103.399L153.392 110.75M147.962 88.1994L162.31 76.6068M147.962 88.1994C147.888 87.5101 147.337 82.363 146.738 76.7648M147.962 88.1994L135.357 78.4857M162.31 76.6068L160.411 68.2614M160.411 68.2614L155.901 63.7155M160.411 68.2614L146.738 76.7648M145.142 61.8499L155.901 63.7155M145.142 61.8499L136.565 66.2878M145.142 61.8499C145.464 64.8592 146.3 72.6725 146.738 76.7648M155.901 63.7155L146.738 76.7648M153.392 110.75L144.319 115.241L142.473 107.393L139.439 93.1345L135.357 78.4857M136.565 66.2878L134.452 70.034M136.565 66.2878L146.738 76.7648M134.452 70.034L135.357 78.4857M134.452 70.034L146.738 76.7648" stroke="#230000"/>
<path d="M159.384 137.554L162.821 142.497L173.349 151.31L179.108 145.161L184.867 139.012L176.711 127.124L173.597 124.509L167.266 114.173L164.973 111.399L163.984 107.804L160.106 108.188L154.114 110.773L145.747 115.743L148.944 119.611L149.637 122.258L149.776 122.792L156.903 133.767L158.177 135.309L159.384 137.554Z" fill="#251414"/>
<path d="M176.711 127.124L173.597 124.509M176.711 127.124L184.867 139.012L179.108 145.161M176.711 127.124L173.093 135.304M162.821 142.497L159.384 137.554L158.177 135.309M162.821 142.497L173.349 151.31L179.108 145.161M162.821 142.497L173.093 135.304M173.597 124.509L167.266 114.173L164.973 111.399M173.597 124.509L165.766 126.44M156.903 133.767L149.776 122.792L149.637 122.258M156.903 133.767L158.177 135.309M156.903 133.767C157.211 133.512 162.812 128.883 165.766 126.44M164.973 111.399L163.984 107.804L160.106 108.188L154.114 110.773M164.973 111.399L154.114 110.773M164.973 111.399C160.157 114.774 150.347 121.671 149.637 122.258M148.944 119.611L145.747 115.743L154.114 110.773M148.944 119.611C149.632 119.043 152.677 113.482 154.114 110.773M148.944 119.611L149.637 122.258M154.114 110.773L165.766 126.44M165.766 126.44L173.093 135.304M165.766 126.44L158.177 135.309M173.093 135.304L179.108 145.161" stroke="#230000"/>
<path d="M213.536 180.486L217.266 176.27L202.68 171.627L212.005 161.086L224.673 171.683L228.668 177.779L225.669 185.784L213.536 180.486Z" fill="#403535"/>
<path d="M217.266 176.27L213.536 180.486L225.669 185.784L228.668 177.779L224.673 171.683L212.005 161.086M217.266 176.27L202.68 171.627L212.005 161.086M217.266 176.27C216.976 175.992 213.382 166.825 212.005 161.086" stroke="black"/>
<path d="M228.624 177.813L225.212 185.454L222.935 184.244L213.536 180.486L215.774 177.956L217.266 176.27L222.38 178.059L218.32 179.62" stroke="black"/>
<path d="M171.881 143.031L177.379 143.629L183.699 137.999L190.569 145.372L211.277 160.567L201.951 171.109L182.995 156.62L169.194 151.367L172.83 147.68L171.881 143.031Z" fill="#403535"/>
<path d="M201.951 171.109L182.154 151.098M201.951 171.109L182.995 156.62M201.951 171.109L211.277 160.567M182.154 151.098C182.154 151.098 179.098 145.62 177.379 143.629M182.154 151.098L176.194 149.509M182.154 151.098L176.6 146.78M182.154 151.098L211.277 160.567M171.881 143.031L177.379 143.629M171.881 143.031L176.6 146.78M171.881 143.031L172.83 147.68M177.379 143.629L183.699 137.999L190.569 145.372L211.277 160.567M177.379 143.629L176.6 146.78M176.6 146.78L176.194 149.509M176.194 149.509L172.83 147.68M176.194 149.509L182.995 156.62M172.83 147.68L169.194 151.367L182.995 156.62" stroke="black"/>
<defs>
<filter id="filter0_d_168_95" x="114.401" y="51.8501" width="62.5142" height="55.4384" filterUnits="userSpaceOnUse" color-interpolation-filters="sRGB">
<feFlood flood-opacity="0" result="BackgroundImageFix"/>
<feColorMatrix in="SourceAlpha" type="matrix" values="0 0 0 0 0 0 0 0 0 0 0 0 0 0 0 0 0 0 127 0" result="hardAlpha"/>
<feOffset dy="4"/>
<feGaussianBlur stdDeviation="2"/>
<feComposite in2="hardAlpha" operator="out"/>
<feColorMatrix type="matrix" values="0 0 0 0 0 0 0 0 0 0 0 0 0 0 0 0 0 0 0.25 0"/>
<feBlend mode="normal" in2="BackgroundImageFix" result="effect1_dropShadow_168_95"/>
<feBlend mode="normal" in="SourceGraphic" in2="effect1_dropShadow_168_95" result="shape"/>
</filter>
<filter id="filter1_d_168_95" x="112.488" y="62.3585" width="16.8589" height="26.3287" filterUnits="userSpaceOnUse" color-interpolation-filters="sRGB">
<feFlood flood-opacity="0" result="BackgroundImageFix"/>
<feColorMatrix in="SourceAlpha" type="matrix" values="0 0 0 0 0 0 0 0 0 0 0 0 0 0 0 0 0 0 127 0" result="hardAlpha"/>
<feOffset dy="4"/>
<feGaussianBlur stdDeviation="2"/>
<feComposite in2="hardAlpha" operator="out"/>
<feColorMatrix type="matrix" values="0 0 0 0 0 0 0 0 0 0 0 0 0 0 0 0 0 0 0.25 0"/>
<feBlend mode="normal" in2="BackgroundImageFix" result="effect1_dropShadow_168_95"/>
<feBlend mode="normal" in="SourceGraphic" in2="effect1_dropShadow_168_95" result="shape"/>
</filter>
<filter id="filter2_di_168_95" x="160.412" y="24.9075" width="41.3328" height="54.2763" filterUnits="userSpaceOnUse" color-interpolation-filters="sRGB">
<feFlood flood-opacity="0" result="BackgroundImageFix"/>
<feColorMatrix in="SourceAlpha" type="matrix" values="0 0 0 0 0 0 0 0 0 0 0 0 0 0 0 0 0 0 127 0" result="hardAlpha"/>
<feOffset dy="1"/>
<feGaussianBlur stdDeviation="2"/>
<feComposite in2="hardAlpha" operator="out"/>
<feColorMatrix type="matrix" values="0 0 0 0 1 0 0 0 0 1 0 0 0 0 1 0 0 0 1 0"/>
<feBlend mode="normal" in2="BackgroundImageFix" result="effect1_dropShadow_168_95"/>
<feBlend mode="normal" in="SourceGraphic" in2="effect1_dropShadow_168_95" result="shape"/>
<feColorMatrix in="SourceAlpha" type="matrix" values="0 0 0 0 0 0 0 0 0 0 0 0 0 0 0 0 0 0 127 0" result="hardAlpha"/>
<feOffset dx="3" dy="10"/>
<feGaussianBlur stdDeviation="2.65"/>
<feComposite in2="hardAlpha" operator="arithmetic" k2="-1" k3="1"/>
<feColorMatrix type="matrix" values="0 0 0 0 0 0 0 0 0 0 0 0 0 0 0 0 0 0 0.25 0"/>
<feBlend mode="normal" in2="shape" result="effect2_innerShadow_168_95"/>
</filter>
<filter id="filter3_dd_168_95" x="178.879" y="39.7953" width="16.9443" height="18.1401" filterUnits="userSpaceOnUse" color-interpolation-filters="sRGB">
<feFlood flood-opacity="0" result="BackgroundImageFix"/>
<feColorMatrix in="SourceAlpha" type="matrix" values="0 0 0 0 0 0 0 0 0 0 0 0 0 0 0 0 0 0 127 0" result="hardAlpha"/>
<feOffset dy="4"/>
<feGaussianBlur stdDeviation="2"/>
<feComposite in2="hardAlpha" operator="out"/>
<feColorMatrix type="matrix" values="0 0 0 0 0 0 0 0 0 0 0 0 0 0 0 0 0 0 0.25 0"/>
<feBlend mode="normal" in2="BackgroundImageFix" result="effect1_dropShadow_168_95"/>
<feColorMatrix in="SourceAlpha" type="matrix" values="0 0 0 0 0 0 0 0 0 0 0 0 0 0 0 0 0 0 127 0" result="hardAlpha"/>
<feOffset dy="4"/>
<feGaussianBlur stdDeviation="2"/>
<feComposite in2="hardAlpha" operator="out"/>
<feColorMatrix type="matrix" values="0 0 0 0 0 0 0 0 0 0 0 0 0 0 0 0 0 0 0.25 0"/>
<feBlend mode="normal" in2="effect1_dropShadow_168_95" result="effect2_dropShadow_168_95"/>
<feBlend mode="normal" in="SourceGraphic" in2="effect2_dropShadow_168_95" result="shape"/>
</filter>
<filter id="filter4_d_168_95" x="116.791" y="39.3844" width="64.4019" height="129.475" filterUnits="userSpaceOnUse" color-interpolation-filters="sRGB">
<feFlood flood-opacity="0" result="BackgroundImageFix"/>
<feColorMatrix in="SourceAlpha" type="matrix" values="0 0 0 0 0 0 0 0 0 0 0 0 0 0 0 0 0 0 127 0" result="hardAlpha"/>
<feOffset dy="4"/>
<feGaussianBlur stdDeviation="2"/>
<feComposite in2="hardAlpha" operator="out"/>
<feColorMatrix type="matrix" values="0 0 0 0 0 0 0 0 0 0 0 0 0 0 0 0 0 0 0.25 0"/>
<feBlend mode="normal" in2="BackgroundImageFix" result="effect1_dropShadow_168_95"/>
<feBlend mode="normal" in="SourceGraphic" in2="effect1_dropShadow_168_95" result="shape"/>
</filter>
<filter id="filter5_d_168_95" x="73.2935" y="135.182" width="77.9001" height="45.1827" filterUnits="userSpaceOnUse" color-interpolation-filters="sRGB">
<feFlood flood-opacity="0" result="BackgroundImageFix"/>
<feColorMatrix in="SourceAlpha" type="matrix" values="0 0 0 0 0 0 0 0 0 0 0 0 0 0 0 0 0 0 127 0" result="hardAlpha"/>
<feOffset dy="4"/>
<feGaussianBlur stdDeviation="2"/>
<feComposite in2="hardAlpha" operator="out"/>
<feColorMatrix type="matrix" values="0 0 0 0 0 0 0 0 0 0 0 0 0 0 0 0 0 0 0.25 0"/>
<feBlend mode="normal" in2="BackgroundImageFix" result="effect1_dropShadow_168_95"/>
<feBlend mode="normal" in="SourceGraphic" in2="effect1_dropShadow_168_95" result="shape"/>
</filter>
<filter id="filter6_d_168_95" x="73.2935" y="135.182" width="60.265" height="45.1827" filterUnits="userSpaceOnUse" color-interpolation-filters="sRGB">
<feFlood flood-opacity="0" result="BackgroundImageFix"/>
<feColorMatrix in="SourceAlpha" type="matrix" values="0 0 0 0 0 0 0 0 0 0 0 0 0 0 0 0 0 0 127 0" result="hardAlpha"/>
<feOffset dy="4"/>
<feGaussianBlur stdDeviation="2"/>
<feComposite in2="hardAlpha" operator="out"/>
<feColorMatrix type="matrix" values="0 0 0 0 0 0 0 0 0 0 0 0 0 0 0 0 0 0 0.25 0"/>
<feBlend mode="normal" in2="BackgroundImageFix" result="effect1_dropShadow_168_95"/>
<feBlend mode="normal" in="SourceGraphic" in2="effect1_dropShadow_168_95" result="shape"/>
</filter>
<linearGradient id="paint0_linear_168_95" x1="195.103" y1="43.3959" x2="193.351" y2="51.0504" gradientUnits="userSpaceOnUse">
<stop stop-opacity="0.1"/>
<stop offset="1" stop-color="#FF0000" stop-opacity="0"/>
<stop offset="1" stop-color="#FF0000" stop-opacity="0"/>
</linearGradient>
</defs>
</svg>
