<svg width="245" height="359" viewBox="0 0 245 359" fill="none" xmlns="http://www.w3.org/2000/svg">
<path d="M145.786 131.567L149.868 135.992L156.194 148.178L148.945 152.469L141.695 156.761L131.854 146.226L129.975 142.62L121.254 134.203L119.041 131.364L115.745 129.621L116.959 125.917L120.78 120.626L127.442 113.533L130.527 117.492L132.961 118.741L133.452 118.992L142.626 128.325L143.855 129.902L145.786 131.567Z" fill="#251414"/>
<path d="M131.854 146.226L129.975 142.62M131.854 146.226L141.695 156.761L148.945 152.469M131.854 146.226L140.623 144.464M149.868 135.992L145.786 131.567L143.855 129.902M149.868 135.992L156.194 148.178L148.945 152.469M149.868 135.992L140.623 144.464M129.975 142.62L121.254 134.203L119.041 131.364M129.975 142.62L133.554 135.393M142.626 128.325L133.452 118.992L132.961 118.741M142.626 128.325L143.855 129.902M142.626 128.325C142.31 128.571 136.578 133.037 133.554 135.393M119.041 131.364L115.745 129.621L116.959 125.917L120.78 120.626M119.041 131.364L120.78 120.626M119.041 131.364C123.378 127.392 132.234 119.307 132.961 118.741M130.527 117.492L127.442 113.533L120.78 120.626M130.527 117.492C129.823 118.04 123.736 119.81 120.78 120.626M130.527 117.492L132.961 118.741M120.78 120.626L133.554 135.393M133.554 135.393L140.623 144.464M133.554 135.393L143.855 129.902M140.623 144.464L148.945 152.469" stroke="#230000"/>
<path d="M152.829 180.519L157.109 177.797L144.285 169.352L154.983 162.547L164.905 175.811L167.524 182.483L163.231 188.841L152.829 180.519Z" fill="#403535"/>
<path d="M157.109 177.797L152.829 180.519L163.231 188.841L167.524 182.483L164.905 175.811L154.983 162.547M157.109 177.797L144.285 169.352L154.983 162.547M157.109 177.797C156.888 177.461 155.213 168.133 154.983 162.547" stroke="black"/>
<path d="M167.477 182.501L162.863 188.41L160.951 186.652L152.829 180.519L158.796 177.132L160.87 179.21L157.572 181.723" stroke="black"/>
<path d="M159.719 178.01L162.815 181.288" stroke="black"/>
<path d="M138.744 146.17L141.686 145.796L149.087 143.713L152.71 153.079L165.935 175.253L154.283 180.252L142.366 159.455L131.956 148.878L136.36 147.295L138.744 146.17Z" fill="#403535"/>
<path d="M154.283 180.252L143.437 154.327M154.283 180.252L142.366 159.455M154.283 180.252L165.935 175.253M143.437 154.327C143.437 154.327 142.545 148.266 141.686 145.796M143.437 154.327L138.718 150.345M143.437 154.327L165.935 175.253M141.686 145.796L138.744 146.17L136.36 147.295M141.686 145.796L149.087 143.713L152.71 153.079L165.935 175.253M138.718 150.345L136.36 147.295M138.718 150.345L142.366 159.455M136.36 147.295L131.956 148.878L142.366 159.455" stroke="black"/>
<path d="M191.238 238.006L185.745 233.608L177.246 221.658L163.776 207.707L161.424 201.075L147.73 188.593L143.163 172.207L96.4955 198.036L107.342 203.206L119.348 210.007L124.201 214.399L145.385 240.858L151.925 241.743L163.366 257.83L162.319 261.343L191.238 238.006Z" fill="#251414"/>
<path d="M185.745 233.608L191.238 238.006L162.319 261.343L163.366 257.83M185.745 233.608L177.246 221.658M185.745 233.608L163.366 257.83M177.246 221.658L163.776 207.707M177.246 221.658L151.925 241.743M163.776 207.707L161.424 201.075M163.776 207.707L145.385 240.858M161.424 201.075L147.73 188.593M161.424 201.075L124.201 214.399M147.73 188.593L143.163 172.207M147.73 188.593L119.348 210.007M143.163 172.207L96.4955 198.036L107.342 203.206L119.348 210.007M143.163 172.207L119.348 210.007M119.348 210.007L124.201 214.399M124.201 214.399L145.385 240.858M145.385 240.858L151.925 241.743M151.925 241.743L163.366 257.83" stroke="#230000"/>
<path d="M188.894 257.891L190.54 250.814L189.551 240.253L186.207 234.885L176.016 235.271L158.745 240.44L154.542 248.645L157.343 250.298L159.764 254.033L160.921 284.561L161.96 309.731L163.352 313.898L172.425 315.1L179.595 292.155L188.894 257.891Z" fill="#251414"/>
<path d="M172.425 315.1L163.352 313.898L161.96 309.731M172.425 315.1L161.96 309.731M172.425 315.1L179.595 292.155M188.894 257.891L190.54 250.814M188.894 257.891L179.595 292.155M188.894 257.891L159.764 254.033M190.54 250.814L157.343 250.298M190.54 250.814L189.551 240.253M157.343 250.298L159.764 254.033M157.343 250.298L154.542 248.645L158.745 240.44M157.343 250.298C168.889 246.756 189.551 240.253 189.551 240.253M157.343 250.298C166.618 245.146 186.207 234.885 186.207 234.885M157.343 250.298L176.016 235.271M157.343 250.298L158.745 240.44M159.764 254.033L160.921 284.561M160.921 284.561L161.96 309.731M160.921 284.561L179.595 292.155M161.96 309.731L179.595 292.155M189.551 240.253L186.207 234.885M186.207 234.885L176.016 235.271M176.016 235.271L158.745 240.44" stroke="#230000"/>
<path d="M154.721 331.417L159.613 331.56L202.984 337.809L203.641 332.853L171.039 319.456L176.19 306.52L159.429 303.291L161.583 316.69L157.065 321.135L155.772 323.486L154.721 331.417Z" fill="#252020"/>
<path d="M159.613 331.56L154.721 331.417L155.772 323.486M159.613 331.56L202.984 337.809M159.613 331.56C159.28 331.113 156.57 326.113 155.772 323.486M159.613 331.56L157.065 321.135M159.613 331.56C159.556 331.149 160.881 321.641 161.583 316.69M202.984 337.809L203.641 332.853L171.039 319.456M202.984 337.809L161.583 316.69M171.039 319.456L176.19 306.52M171.039 319.456L166.311 318.073M176.19 306.52L159.429 303.291M176.19 306.52L166.311 318.073M159.429 303.291L161.583 316.69M159.429 303.291L166.311 318.073M161.583 316.69L157.065 321.135M161.583 316.69L166.311 318.073M155.772 323.486L157.065 321.135" stroke="black"/>
<path d="M112.824 270.595L112.391 263.557L115.635 249.256L116.983 229.899L120.41 223.736L120.485 205.185L134.752 192.015L78.0536 173L81.5821 184.567L84.6679 198.085L84.6653 204.639L79.1085 238.078L82.9351 243.573L78.5679 262.824L75.1739 264.367L112.824 270.595Z" fill="#251414"/>
<path d="M112.391 263.557L112.824 270.595L75.1739 264.367L78.5679 262.824M112.391 263.557L115.635 249.256M112.391 263.557L78.5679 262.824M115.635 249.256L116.983 229.899M115.635 249.256L82.9351 243.573M116.983 229.899L120.41 223.736M116.983 229.899L79.1085 238.078M120.41 223.736L120.485 205.185M120.41 223.736L84.6653 204.639M120.485 205.185L134.752 192.015M120.485 205.185L84.6679 198.085M134.752 192.015L78.0536 173L81.5821 184.567L84.6679 198.085M134.752 192.015L84.6679 198.085M84.6679 198.085L84.6653 204.639M84.6653 204.639L79.1085 238.078M79.1085 238.078L82.9351 243.573M82.9351 243.573L78.5679 262.824" stroke="#230000"/>
<path d="M109.952 250.039L115.612 245.115L77.5588 242.236L80.0461 245.988L81.25 276.538L82.3306 301.727L83.7615 305.905L93.0764 307.167L100.424 284.258L109.952 250.039Z" fill="#251414"/>
<path d="M93.0764 307.167L83.7615 305.905L82.3306 301.727M93.0764 307.167L82.3306 301.727M93.0764 307.167L100.424 284.258M109.952 250.039L115.612 245.115L77.5588 242.236M109.952 250.039L100.424 284.258M109.952 250.039L80.0461 245.988M80.8033 240.399L77.5588 242.236M77.5588 242.236L80.0461 245.988M80.0461 245.988L81.25 276.538M81.25 276.538L82.3306 301.727M81.25 276.538L100.424 284.258M82.3306 301.727L100.424 284.258" stroke="#230000"/>
<path d="M76.4489 331.188L81.4709 331.364L125.996 337.901L126.668 332.946L93.1929 319.328L98.4737 306.421L81.2664 303.08L83.4848 316.499L78.8496 320.917L77.523 323.26L76.4489 331.188Z" fill="#252020"/>
<path d="M81.4709 331.364L76.4489 331.188L77.523 323.26M81.4709 331.364L125.996 337.901M81.4709 331.364C81.1282 330.914 78.3435 325.894 77.523 323.26M81.4709 331.364L78.8496 320.917M81.4709 331.364C81.4114 330.952 82.7663 321.448 83.4848 316.499M125.996 337.901L126.668 332.946L93.1929 319.328M125.996 337.901L83.4848 316.499M93.1929 319.328L98.4737 306.421M93.1929 319.328L88.3388 317.914M98.4737 306.421L81.2664 303.08M98.4737 306.421L88.3388 317.914M81.2664 303.08L83.4848 316.499M81.2664 303.08L88.3388 317.914M83.4848 316.499L78.8496 320.917M83.4848 316.499L88.3388 317.914M77.523 323.26L78.8496 320.917" stroke="black"/>
<path d="M82.3611 182.768L82.1721 179.273L85.771 161.052L123.77 160.007L142.27 159.498L142.648 185.015L133.055 202.058L121.153 204.204L102.599 203.705L88.9973 192.924L82.3611 182.768Z" fill="#251414"/>
<path d="M82.3611 182.768L82.1721 179.273M82.3611 182.768L88.9973 192.924M82.3611 182.768L121.746 178.134M82.1721 179.273L85.771 161.052M82.1721 179.273L121.746 178.134M85.771 161.052L123.77 160.007M85.771 161.052L121.746 178.134M142.648 185.015L142.27 159.498M142.648 185.015L133.055 202.058L121.153 204.204M142.648 185.015L121.746 178.134M142.648 185.015C134.955 190.897 121.947 204.061 121.153 204.204M142.648 185.015L102.599 203.705M142.27 159.498L123.77 160.007M142.27 159.498L121.746 178.134M121.153 204.204L102.599 203.705M88.9973 192.924L102.599 203.705M88.9973 192.924L121.746 178.134M123.77 160.007L121.746 178.134" stroke="#230000"/>
<path d="M139.548 64.8949L160.906 80.1335L161.369 91.2979L155.033 112.366L150.662 130.37L143.754 148.133L121.348 136.695L98.9431 125.258L104.847 105.627L106.586 84.2204L112.778 63.6314L126.343 46.304L139.548 64.8949Z" fill="#251414"/>
<path d="M139.548 64.8949L160.906 80.1335M139.548 64.8949L126.343 46.304M139.548 64.8949L132.841 68.099M139.548 64.8949L141.986 72.4155M160.906 80.1335L161.369 91.2979M160.906 80.1335L144.808 76.9192M161.369 91.2979L155.033 112.366M161.369 91.2979L142.216 85.5379M150.662 130.37L143.754 148.133M150.662 130.37L155.033 112.366M150.662 130.37L136.658 90.1316M143.754 148.133L136.658 90.1316M143.754 148.133L121.348 136.695M143.754 148.133L122.916 119.415M98.9431 125.258L104.847 105.627L106.586 84.2204M98.9431 125.258L121.348 136.695M98.9431 125.258L122.916 119.415M126.343 46.304L112.778 63.6314M126.343 46.304L127.142 67.9515M106.586 84.2204L112.778 63.6314M106.586 84.2204L120.669 79.0578M112.778 63.6314L123.261 70.4391M155.033 112.366L136.658 90.1316M120.669 79.0578L121.814 85.6676L126.217 90.1245L131.268 91.6435M120.669 79.0578L123.261 70.4391M132.841 68.099L127.142 67.9515M132.841 68.099L137.892 69.618L141.986 72.4155M127.142 67.9515L123.261 70.4391M141.986 72.4155L144.808 76.9192M144.808 76.9192L142.216 85.5379M142.216 85.5379L136.658 90.1316M136.658 90.1316L131.268 91.6435M131.268 91.6435L122.916 119.415M121.348 136.695L122.916 119.415" stroke="#230000"/>
<path d="M137.376 167.645L137.318 175.83L119.797 169.535L83.6583 156.55L89.7317 148.302L93.1323 141.223L95.5968 135.372L98.7872 124.12L121.052 136.097L143.317 148.074L139.63 157.623L137.376 167.645Z" fill="#251414"/>
<path d="M83.6583 156.55L89.7317 148.302M83.6583 156.55L119.797 169.535M83.6583 156.55L102.355 146.323M137.318 175.83L137.376 167.645M137.318 175.83L119.797 169.535M137.318 175.83L121.052 136.097M137.376 167.645L139.63 157.623M137.376 167.645L121.052 136.097M139.63 157.623L143.317 148.074L121.052 136.097M139.63 157.623L121.052 136.097M89.7317 148.302L93.1323 141.223M89.7317 148.302L102.355 146.323M95.5968 135.372L98.7872 124.12L121.052 136.097M95.5968 135.372L93.1323 141.223M95.5968 135.372L102.355 146.323M93.1323 141.223L102.355 146.323M121.052 136.097L119.797 169.535M121.052 136.097L102.355 146.323" stroke="#230000"/>
<g filter="url(#filter0_d_168_53)">
<path d="M108.89 76.5594L109.322 75.123L116.99 66.9867L121.447 62.5838L126.62 61.0069L134.76 63.4549L142.18 68.297L150.507 77.0668L157.11 86.3623L161.509 96.0393L160.357 99.8698L156.102 89.714L150.313 81.1854L142.274 71.4579L134.998 66.137L127.337 63.833L122.93 64.5962L118.139 68.3764L108.89 76.5594Z" fill="#100F0F"/>
<path d="M107.306 81.8264L109.322 75.123L116.99 66.9867M107.306 81.8264L108.89 76.5594L118.139 68.3764M107.306 81.8264L106.442 84.6993L105.718 92.3135M134.998 66.137L134.76 63.4549M134.998 66.137L127.337 63.833M134.998 66.137L142.274 71.4579L150.313 81.1854M134.76 63.4549L126.62 61.0069M134.76 63.4549L142.18 68.297L150.507 77.0668M150.507 77.0668L150.313 81.1854M150.507 77.0668L157.11 86.3623M150.313 81.1854L156.102 89.714M127.337 63.833L126.62 61.0069M127.337 63.833L122.93 64.5962M157.11 86.3623L161.509 96.0393L160.357 99.8698L156.102 89.714M157.11 86.3623L156.102 89.714M126.62 61.0069L121.447 62.5838M116.99 66.9867L121.447 62.5838M116.99 66.9867L118.139 68.3764M118.139 68.3764L122.93 64.5962M121.447 62.5838L122.93 64.5962" stroke="#252323"/>
</g>
<g filter="url(#filter1_d_168_53)">
<path d="M114.835 90.3874L117.704 79.6627L120.529 71.6301" stroke="#252323"/>
</g>
<path d="M115.534 87.4274L113.689 86.6542L116.796 72.7761L119.562 73.9358L115.534 87.4274Z" fill="#251414" stroke="#252323"/>
<g style="mix-blend-mode:darken" filter="url(#filter2_di_168_53)">
<path d="M153.072 58.6542L143.779 48.4616L144.291 23.4669L168.827 21.9694L171.03 36.5176L172.396 43.047L168.274 48.9637L166.641 55.4316L167.018 61.4406L165.977 63.4197L158.979 63.2762L153.072 58.6542Z" fill="#251414"/>
<path d="M153.072 58.6542L143.779 48.4616L144.291 23.4669L168.827 21.9694L171.03 36.5176L172.396 43.047L168.274 48.9637L166.641 55.4316L167.018 61.4406L165.977 63.4197L158.979 63.2762L153.072 58.6542Z" stroke="#230000"/>
</g>
<g filter="url(#filter3_dd_168_53)">
<path d="M166.294 37.9904C164.767 39.4492 161.513 35.4614 161.513 35.4614L158.124 31.7858L162.702 32.325L166.985 34.9046C166.985 34.9046 167.187 37.1374 166.294 37.9904Z" fill="#B20000" shape-rendering="crispEdges"/>
<path d="M166.294 37.9904C164.767 39.4492 161.513 35.4614 161.513 35.4614L158.124 31.7858L162.702 32.325L166.985 34.9046C166.985 34.9046 167.187 37.1374 166.294 37.9904Z" stroke="url(#paint0_linear_168_53)" shape-rendering="crispEdges"/>
</g>
<path d="M171.796 23.5305L148.604 57.0622L163.334 70.3669L163.191 77.3654L140.431 65.3965L120.651 54.4888L120.866 43.991L123.947 40.0533L126.449 15.5994L137.244 1.31767L150.741 1.59436L169.583 9.48219L171.796 23.5305Z" fill="#261515"/>
<path d="M148.604 57.0622L171.796 23.5305M148.604 57.0622L163.334 70.3669L163.191 77.3654L140.431 65.3965M148.604 57.0622L120.651 54.4888M148.604 57.0622L120.866 43.991M148.604 57.0622L123.947 40.0533M148.604 57.0622L140.431 65.3965M171.796 23.5305L126.449 15.5994M171.796 23.5305L137.244 1.31767M171.796 23.5305L150.741 1.59436M171.796 23.5305L169.583 9.48219L150.741 1.59436M150.741 1.59436L137.244 1.31767M137.244 1.31767L126.449 15.5994M126.449 15.5994L123.947 40.0533M123.947 40.0533L120.866 43.991M120.866 43.991L120.651 54.4888M120.651 54.4888L140.431 65.3965" stroke="#230000"/>
<g filter="url(#filter4_d_168_53)">
<path d="M109.985 84.197L106.956 84.4765L105.996 83.9047L105.57 82.8709L105.826 79.3802L107.408 71.4747L108.089 69.0179L109.269 66.5977L111.556 62.7545L115.485 57.0263L117.699 54.1805L119.876 51.8334L125.289 53.2326L130.591 56.1279L142.267 60.9941L162.151 76.99L165.885 80.773L166.942 86.8665L166.746 96.3777L165.614 111.836L165.332 129.363L162.484 147.703L161.182 158.637L161.205 165.157L159.247 164.512L159.15 158.99L160.416 148.555L163.264 130.214L163.656 111.191L164.825 95.2342L165.263 89.2502L152.956 79.3243L138.8 67.2575L129.97 64.6051L123.876 65.6627L111.896 71.8035L109.985 84.197Z" fill="#3C3C3C"/>
<path d="M106.956 84.4765L109.985 84.197L111.896 71.8035M106.956 84.4765L105.996 83.9047L105.57 82.8709M106.956 84.4765L111.896 71.8035M105.57 82.8709L105.826 79.3802M105.57 82.8709L111.896 71.8035M105.826 79.3802L107.408 71.4747M105.826 79.3802L111.896 71.8035M107.408 71.4747L108.089 69.0179M107.408 71.4747L111.896 71.8035M108.089 69.0179L109.269 66.5977M108.089 69.0179L123.876 65.6627M109.269 66.5977L111.556 62.7545M109.269 66.5977L123.876 65.6627M119.876 51.8334L129.97 64.6051M119.876 51.8334L117.699 54.1805L115.485 57.0263M119.876 51.8334L125.289 53.2326L130.591 56.1279M142.267 60.9941L162.151 76.99M142.267 60.9941L130.591 56.1279M142.267 60.9941L138.8 67.2575M162.151 76.99L165.885 80.773M162.151 76.99L152.956 79.3243M165.885 80.773L166.942 86.8665M165.885 80.773L152.956 79.3243M166.942 86.8665L166.746 96.3777M166.942 86.8665L165.263 89.2502M166.746 96.3777L165.614 111.836M166.746 96.3777L164.825 95.2342M163.656 111.191L164.825 95.2342M163.656 111.191L163.264 130.214M163.656 111.191L165.614 111.836M164.825 95.2342L165.263 89.2502M165.263 89.2502L152.956 79.3243M138.8 67.2575L129.97 64.6051M138.8 67.2575L152.956 79.3243M129.97 64.6051L123.876 65.6627M129.97 64.6051L115.485 57.0263M129.97 64.6051L130.591 56.1279M123.876 65.6627L111.896 71.8035M123.876 65.6627L111.556 62.7545M111.556 62.7545L115.485 57.0263M159.15 158.99L159.247 164.512L161.205 165.157L161.182 158.637M159.15 158.99L160.416 148.555M159.15 158.99L161.182 158.637M161.182 158.637L162.484 147.703M160.416 148.555L163.264 130.214M160.416 148.555L162.484 147.703M163.264 130.214L165.332 129.363M162.484 147.703L165.332 129.363M165.332 129.363L165.614 111.836" stroke="#251414"/>
</g>
<g filter="url(#filter5_d_168_53)">
<g filter="url(#filter6_d_168_53)">
<path d="M84.5477 161.031C84.8261 160.281 86.0822 158.401 86.8771 157.629L88.7118 154.577L101.81 160.505L115.109 164.908L126.654 169.726L138.841 174.249L139.041 179.124L137.997 181.936L129.253 177.091L119.878 173.611L104.878 168.044L89.9006 163.018L86.1021 161.608L84.5477 161.031Z" fill="#3C3C3C"/>
<path d="M88.7118 154.577L86.8771 157.629C86.0822 158.401 84.8261 160.281 84.5477 161.031L86.1021 161.608M88.7118 154.577L101.81 160.505M88.7118 154.577L89.9006 163.018M88.7118 154.577L86.1021 161.608M89.9006 163.018L86.1021 161.608M89.9006 163.018L104.878 168.044M119.878 173.611L104.878 168.044M119.878 173.611L129.253 177.091M119.878 173.611L115.109 164.908M115.109 164.908L101.81 160.505M115.109 164.908L126.654 169.726M104.878 168.044L101.81 160.505M126.654 169.726L138.841 174.249L139.041 179.124L137.997 181.936L129.253 177.091M126.654 169.726L129.253 177.091" stroke="#251414"/>
</g>
<path d="M154.527 159.726L153.74 159.87L152.303 152L153.27 152.84L154.527 159.726Z" fill="#1F1F1F"/>
<path d="M153.74 159.87L154.527 159.726L153.27 152.84M153.74 159.87L152.303 152L153.27 152.84M153.74 159.87C153.671 159.495 153.512 156.023 153.27 152.84" stroke="#251414"/>
</g>
<path d="M149.393 96.4988L146.482 104.034L146.765 128.032L137.283 129.644L127.825 133.256L126.731 125.268L125.06 110.787L122.383 95.8176L122.283 87.3182L124.741 83.789L133.699 80.183L144.234 83.0588L148.293 88.0112L149.393 96.4988Z" fill="#251414"/>
<path d="M146.482 104.034L149.393 96.4988M146.482 104.034L146.765 128.032L137.283 129.644M146.482 104.034L134.012 106.681M134.012 106.681L135.124 116.169L136.195 122.156L137.283 129.644M134.012 106.681L149.393 96.4988M134.012 106.681C134.004 105.988 133.943 100.812 133.876 95.1819M134.012 106.681L122.383 95.8176M149.393 96.4988L148.293 88.0112M148.293 88.0112L144.234 83.0588M148.293 88.0112L133.876 95.1819M133.699 80.183L144.234 83.0588M133.699 80.183L124.741 83.789M133.699 80.183C133.735 83.2092 133.828 91.0666 133.876 95.1819M144.234 83.0588L133.876 95.1819M137.283 129.644L127.825 133.256L126.731 125.268L125.06 110.787L122.383 95.8176M124.741 83.789L122.283 87.3182M124.741 83.789L133.876 95.1819M122.283 87.3182L122.383 95.8176M122.283 87.3182L133.876 95.1819" stroke="#230000"/>
<path d="M138.19 154.07L141.404 159.161L151.529 168.434L157.556 162.548L163.582 156.661L155.965 144.422L152.97 141.671L147.106 131.063L144.938 128.189L144.111 124.554L140.219 124.764L134.118 127.08L125.538 131.672L128.56 135.679L129.134 138.354L129.25 138.893L135.88 150.176L137.084 151.772L138.19 154.07Z" fill="#251414"/>
<path d="M155.965 144.422L152.97 141.671M155.965 144.422L163.582 156.661L157.556 162.548M155.965 144.422L151.986 152.433M141.404 159.161L138.19 154.07L137.084 151.772M141.404 159.161L151.529 168.434L157.556 162.548M141.404 159.161L151.986 152.433M152.97 141.671L147.106 131.063L144.938 128.189M152.97 141.671L145.061 143.251M135.88 150.176L129.25 138.893L129.134 138.354M135.88 150.176L137.084 151.772M135.88 150.176C136.199 149.935 142.001 145.559 145.061 143.251M144.938 128.189L144.111 124.554L140.219 124.764L134.118 127.08M144.938 128.189L134.118 127.08M144.938 128.189C139.977 131.346 129.87 137.799 129.134 138.354M128.56 135.679L125.538 131.672L134.118 127.08M128.56 135.679C129.273 135.142 132.562 129.723 134.118 127.08M128.56 135.679L129.134 138.354M134.118 127.08L145.061 143.251M145.061 143.251L151.986 152.433M145.061 143.251L137.084 151.772M151.986 152.433L157.556 162.548" stroke="#230000"/>
<path d="M185.67 197.989L190.319 194.813L177.311 186.743L188.932 178.803L198.622 192.177L201.005 199.065L196.139 206.094L185.67 197.989Z" fill="#403535"/>
<path d="M190.319 194.813L185.67 197.989L196.139 206.094L201.005 199.065L198.622 192.177L188.932 178.803M190.319 194.813L177.311 186.743L188.932 178.803M190.319 194.813C190.106 194.472 188.863 184.705 188.932 178.803" stroke="black"/>
<path d="M200.954 199.088L195.777 205.662L193.865 203.931L185.67 197.989L188.459 196.083L190.319 194.813L194.84 197.798L190.521 198.319" stroke="black"/>
<path d="M149.922 158.926L155.399 159.693L161.889 154.26L168.529 161.841L188.76 177.667L179.113 187.917L160.612 172.851L146.979 167.175L150.727 163.603L149.922 158.926Z" fill="#403535"/>
<path d="M179.113 187.917L159.942 167.306M179.113 187.917L160.612 172.851M179.113 187.917L188.76 177.667M159.942 167.306C159.942 167.306 157.056 161.737 155.399 159.693M159.942 167.306L154.034 165.534M159.942 167.306L154.523 162.818M159.942 167.306L188.76 177.667M149.922 158.926L155.399 159.693M149.922 158.926L154.523 162.818M149.922 158.926L150.727 163.603M155.399 159.693L161.889 154.26L168.529 161.841L188.76 177.667M155.399 159.693L154.523 162.818M154.523 162.818L154.034 165.534M154.034 165.534L150.727 163.603M154.034 165.534L160.612 172.851M150.727 163.603L146.979 167.175L160.612 172.851" stroke="black"/>
<defs>
<filter id="filter0_d_168_53" x="101.221" y="60.4845" width="64.8215" height="48.864" filterUnits="userSpaceOnUse" color-interpolation-filters="sRGB">
<feFlood flood-opacity="0" result="BackgroundImageFix"/>
<feColorMatrix in="SourceAlpha" type="matrix" values="0 0 0 0 0 0 0 0 0 0 0 0 0 0 0 0 0 0 127 0" result="hardAlpha"/>
<feOffset dy="4"/>
<feGaussianBlur stdDeviation="2"/>
<feComposite in2="hardAlpha" operator="out"/>
<feColorMatrix type="matrix" values="0 0 0 0 0 0 0 0 0 0 0 0 0 0 0 0 0 0 0.25 0"/>
<feBlend mode="normal" in2="BackgroundImageFix" result="effect1_dropShadow_168_53"/>
<feBlend mode="normal" in="SourceGraphic" in2="effect1_dropShadow_168_53" result="shape"/>
</filter>
<filter id="filter1_d_168_53" x="110.352" y="71.4642" width="14.6479" height="27.0524" filterUnits="userSpaceOnUse" color-interpolation-filters="sRGB">
<feFlood flood-opacity="0" result="BackgroundImageFix"/>
<feColorMatrix in="SourceAlpha" type="matrix" values="0 0 0 0 0 0 0 0 0 0 0 0 0 0 0 0 0 0 127 0" result="hardAlpha"/>
<feOffset dy="4"/>
<feGaussianBlur stdDeviation="2"/>
<feComposite in2="hardAlpha" operator="out"/>
<feColorMatrix type="matrix" values="0 0 0 0 0 0 0 0 0 0 0 0 0 0 0 0 0 0 0.25 0"/>
<feBlend mode="normal" in2="BackgroundImageFix" result="effect1_dropShadow_168_53"/>
<feBlend mode="normal" in="SourceGraphic" in2="effect1_dropShadow_168_53" result="shape"/>
</filter>
<filter id="filter2_di_168_53" x="139.275" y="18.4425" width="37.6546" height="50.7834" filterUnits="userSpaceOnUse" color-interpolation-filters="sRGB">
<feFlood flood-opacity="0" result="BackgroundImageFix"/>
<feColorMatrix in="SourceAlpha" type="matrix" values="0 0 0 0 0 0 0 0 0 0 0 0 0 0 0 0 0 0 127 0" result="hardAlpha"/>
<feOffset dy="1"/>
<feGaussianBlur stdDeviation="2"/>
<feComposite in2="hardAlpha" operator="out"/>
<feColorMatrix type="matrix" values="0 0 0 0 1 0 0 0 0 1 0 0 0 0 1 0 0 0 1 0"/>
<feBlend mode="normal" in2="BackgroundImageFix" result="effect1_dropShadow_168_53"/>
<feBlend mode="normal" in="SourceGraphic" in2="effect1_dropShadow_168_53" result="shape"/>
<feColorMatrix in="SourceAlpha" type="matrix" values="0 0 0 0 0 0 0 0 0 0 0 0 0 0 0 0 0 0 127 0" result="hardAlpha"/>
<feOffset dx="3" dy="10"/>
<feGaussianBlur stdDeviation="2.65"/>
<feComposite in2="hardAlpha" operator="arithmetic" k2="-1" k3="1"/>
<feColorMatrix type="matrix" values="0 0 0 0 0 0 0 0 0 0 0 0 0 0 0 0 0 0 0.25 0"/>
<feBlend mode="normal" in2="shape" result="effect2_innerShadow_168_53"/>
</filter>
<filter id="filter3_dd_168_53" x="152.84" y="31.1311" width="18.6648" height="15.6797" filterUnits="userSpaceOnUse" color-interpolation-filters="sRGB">
<feFlood flood-opacity="0" result="BackgroundImageFix"/>
<feColorMatrix in="SourceAlpha" type="matrix" values="0 0 0 0 0 0 0 0 0 0 0 0 0 0 0 0 0 0 127 0" result="hardAlpha"/>
<feOffset dy="4"/>
<feGaussianBlur stdDeviation="2"/>
<feComposite in2="hardAlpha" operator="out"/>
<feColorMatrix type="matrix" values="0 0 0 0 0 0 0 0 0 0 0 0 0 0 0 0 0 0 0.25 0"/>
<feBlend mode="normal" in2="BackgroundImageFix" result="effect1_dropShadow_168_53"/>
<feColorMatrix in="SourceAlpha" type="matrix" values="0 0 0 0 0 0 0 0 0 0 0 0 0 0 0 0 0 0 127 0" result="hardAlpha"/>
<feOffset dy="4"/>
<feGaussianBlur stdDeviation="2"/>
<feComposite in2="hardAlpha" operator="out"/>
<feColorMatrix type="matrix" values="0 0 0 0 0 0 0 0 0 0 0 0 0 0 0 0 0 0 0.25 0"/>
<feBlend mode="normal" in2="effect1_dropShadow_168_53" result="effect2_dropShadow_168_53"/>
<feBlend mode="normal" in="SourceGraphic" in2="effect2_dropShadow_168_53" result="shape"/>
</filter>
<filter id="filter4_d_168_53" x="101.063" y="51.2747" width="70.3803" height="122.574" filterUnits="userSpaceOnUse" color-interpolation-filters="sRGB">
<feFlood flood-opacity="0" result="BackgroundImageFix"/>
<feColorMatrix in="SourceAlpha" type="matrix" values="0 0 0 0 0 0 0 0 0 0 0 0 0 0 0 0 0 0 127 0" result="hardAlpha"/>
<feOffset dy="4"/>
<feGaussianBlur stdDeviation="2"/>
<feComposite in2="hardAlpha" operator="out"/>
<feColorMatrix type="matrix" values="0 0 0 0 0 0 0 0 0 0 0 0 0 0 0 0 0 0 0.25 0"/>
<feBlend mode="normal" in2="BackgroundImageFix" result="effect1_dropShadow_168_53"/>
<feBlend mode="normal" in="SourceGraphic" in2="effect1_dropShadow_168_53" result="shape"/>
</filter>
<filter id="filter5_d_168_53" x="79.905" y="150.687" width="79.2032" height="39.9683" filterUnits="userSpaceOnUse" color-interpolation-filters="sRGB">
<feFlood flood-opacity="0" result="BackgroundImageFix"/>
<feColorMatrix in="SourceAlpha" type="matrix" values="0 0 0 0 0 0 0 0 0 0 0 0 0 0 0 0 0 0 127 0" result="hardAlpha"/>
<feOffset dy="4"/>
<feGaussianBlur stdDeviation="2"/>
<feComposite in2="hardAlpha" operator="out"/>
<feColorMatrix type="matrix" values="0 0 0 0 0 0 0 0 0 0 0 0 0 0 0 0 0 0 0.25 0"/>
<feBlend mode="normal" in2="BackgroundImageFix" result="effect1_dropShadow_168_53"/>
<feBlend mode="normal" in="SourceGraphic" in2="effect1_dropShadow_168_53" result="shape"/>
</filter>
<filter id="filter6_d_168_53" x="79.905" y="153.938" width="63.6398" height="36.7174" filterUnits="userSpaceOnUse" color-interpolation-filters="sRGB">
<feFlood flood-opacity="0" result="BackgroundImageFix"/>
<feColorMatrix in="SourceAlpha" type="matrix" values="0 0 0 0 0 0 0 0 0 0 0 0 0 0 0 0 0 0 127 0" result="hardAlpha"/>
<feOffset dy="4"/>
<feGaussianBlur stdDeviation="2"/>
<feComposite in2="hardAlpha" operator="out"/>
<feColorMatrix type="matrix" values="0 0 0 0 0 0 0 0 0 0 0 0 0 0 0 0 0 0 0.25 0"/>
<feBlend mode="normal" in2="BackgroundImageFix" result="effect1_dropShadow_168_53"/>
<feBlend mode="normal" in="SourceGraphic" in2="effect1_dropShadow_168_53" result="shape"/>
</filter>
<linearGradient id="paint0_linear_168_53" x1="169.573" y1="30.6205" x2="170.368" y2="38.4328" gradientUnits="userSpaceOnUse">
<stop stop-opacity="0.1"/>
<stop offset="1" stop-color="#FF0000" stop-opacity="0"/>
<stop offset="1" stop-color="#FF0000" stop-opacity="0"/>
</linearGradient>
</defs>
</svg>
