<svg width="283" height="363" viewBox="0 0 283 363" fill="none" xmlns="http://www.w3.org/2000/svg">
<path d="M174.304 97.3438L166.283 96.3811L143.097 102.575L129.072 116.5L125.072 106.5L123.072 97.3438L124.072 91.5001L126.072 88.3678C128.238 87.415 132.73 85.5094 133.362 85.5094L140.833 82.4786L154.455 77.2871L168.301 71.0004L176.513 68.8066L180.54 70.3186L186.244 78.1104L186.056 89.0289L182.258 94.1839L174.304 97.3438Z" fill="#251414"/>
<path d="M166.283 96.3811L174.304 97.3438M166.283 96.3811L143.097 102.575M166.283 96.3811L160.642 84.9498M160.642 84.9498L151.722 88.3678L146.183 90.8824L139.195 93.7842M160.642 84.9498L174.304 97.3438M160.642 84.9498C161.312 84.7709 166.313 83.4349 171.752 81.9817M160.642 84.9498L168.301 71.0004M174.304 97.3438L182.258 94.1839M182.258 94.1839L186.056 89.0289M182.258 94.1839L171.752 81.9817M186.244 78.1104L186.056 89.0289M186.244 78.1104L180.54 70.3186M186.244 78.1104C183.32 78.8915 175.729 80.9196 171.752 81.9817M186.056 89.0289L171.752 81.9817M139.195 93.7842L143.097 102.575M139.195 93.7842L133.362 85.5094M143.097 102.575L129.072 116.5L125.072 106.5M180.54 70.3186L176.513 68.8066M180.54 70.3186L171.752 81.9817M176.513 68.8066L168.301 71.0004M176.513 68.8066L171.752 81.9817M168.301 71.0004L154.455 77.2871L140.833 82.4786L133.362 85.5094M133.362 85.5094C132.73 85.5094 128.238 87.415 126.072 88.3678L124.072 91.5001M133.362 85.5094C130.932 91.8396 125.872 104.9 125.072 106.5M133.362 85.5094L123.072 97.3438M133.362 85.5094L124.072 91.5001M124.072 91.5001L123.072 97.3438M123.072 97.3438L125.072 106.5" stroke="#230000"/>
<path d="M158.396 123.443L161.694 128.48L165.93 141.54L158.073 144.581L150.217 147.622L142.242 135.611L140.982 131.745L133.764 122.008L132.049 118.843L129.084 116.582L130.891 113.129L135.53 108.539L143.268 102.638L145.66 107.05L147.856 108.682L148.298 109.011L155.812 119.725L156.765 121.484L158.396 123.443Z" fill="#251414"/>
<path d="M142.242 135.611L140.982 131.745M142.242 135.611L150.217 147.622L158.073 144.581M142.242 135.611L151.182 135.316M161.694 128.48L158.396 123.443L156.765 121.484M161.694 128.48L165.93 141.54L158.073 144.581M161.694 128.48L151.182 135.316M140.982 131.745L133.764 122.008L132.049 118.843M140.982 131.745L145.701 125.206M155.812 119.725L148.298 109.011L147.856 108.682M155.812 119.725L156.765 121.484M155.812 119.725C155.46 119.916 149.071 123.379 145.701 125.206M132.049 118.843L129.084 116.582L130.891 113.129L135.53 108.539M132.049 118.843L135.53 108.539M132.049 118.843C136.98 115.639 147.045 109.122 147.856 108.682M145.66 107.05L143.268 102.638L135.53 108.539M145.66 107.05C144.876 107.475 138.58 108.22 135.53 108.539M145.66 107.05L147.856 108.682M135.53 108.539L145.701 125.206M145.701 125.206L151.182 135.316M145.701 125.206L156.765 121.484M151.182 135.316L158.073 144.581" stroke="#230000"/>
<path d="M180.906 188.132L185.447 185.872L173.576 176.133L184.927 170.483L193.408 184.713L195.315 191.622L190.381 197.496L180.906 188.132Z" fill="#403535"/>
<path d="M185.447 185.872L180.906 188.132L190.381 197.496L195.315 191.622L193.408 184.713L184.927 170.483M185.447 185.872L173.576 176.133L184.927 170.483M185.447 185.872C185.263 185.515 184.571 176.063 184.927 170.483" stroke="black"/>
<path d="M195.266 191.635L190.06 197.028L188.342 195.081L180.906 188.132L187.194 185.388L189.039 187.671L185.497 189.825" stroke="black"/>
<path d="M186.538 185.68L189.634 188.958" stroke="black"/>
<path d="M156.358 143.552L159.274 143.012L166.545 140.514L170.692 149.661L185.149 171.052L173.798 176.701L160.725 156.611L149.733 146.64L154.041 144.81L156.358 143.552Z" fill="#403535"/>
<path d="M173.798 176.701L161.504 151.431M173.798 176.701L160.725 156.611M173.798 176.701L185.149 171.052M161.504 151.431C161.504 151.431 160.271 145.43 159.274 143.012M161.504 151.431L156.568 147.722M161.504 151.431L185.149 171.052M159.274 143.012L156.358 143.552L154.041 144.81M159.274 143.012L166.545 140.514L170.692 149.661L185.149 171.052M156.568 147.722L154.041 144.81M156.568 147.722L160.725 156.611M154.041 144.81L149.733 146.64L160.725 156.611" stroke="black"/>
<path d="M142.107 254.414L140.578 247.546L141.434 232.907L139.667 213.595L141.985 206.951L139.122 188.644L145.822 173.009L93.2619 163.928L98.4818 174.75L103.585 187.57L104.619 194.033L104.569 227.928L109.115 232.713L107.963 252.42L104.947 254.503L142.107 254.414Z" fill="#251414"/>
<path d="M140.578 247.546L142.107 254.414L104.947 254.503L107.963 252.42M140.578 247.546L141.434 232.907M140.578 247.546L107.963 252.42M141.434 232.907L139.667 213.595M141.434 232.907L109.115 232.713M139.667 213.595L141.985 206.951M139.667 213.595L104.569 227.928M141.985 206.951L139.122 188.644M141.985 206.951L104.619 194.033M139.122 188.644L145.822 173.009M139.122 188.644L103.585 187.57M145.822 173.009L93.2619 163.928L98.4818 174.75L103.585 187.57M145.822 173.009L103.585 187.57M103.585 187.57L104.619 194.033M104.619 194.033L104.569 227.928M104.569 227.928L109.115 232.713M109.115 232.713L107.963 252.42" stroke="#230000"/>
<path d="M140.737 263.464L141.285 256.219L138.699 245.932L134.577 241.136L124.564 243.07L108.282 250.809L105.378 259.559L108.398 260.766L111.359 264.088L117.153 294.084L122.014 318.802L124.024 322.709L133.175 322.514L136.766 298.745L140.737 263.464Z" fill="#251414"/>
<path d="M133.175 322.514L124.024 322.709L122.014 318.802M133.175 322.514L122.014 318.802M133.175 322.514L136.766 298.745M140.737 263.464L141.285 256.219M140.737 263.464L136.766 298.745M140.737 263.464L111.359 264.088M141.285 256.219L108.398 260.766M141.285 256.219L138.699 245.932M108.398 260.766L111.359 264.088M108.398 260.766L105.378 259.559L108.282 250.809M108.398 260.766C119.269 255.506 138.699 245.932 138.699 245.932M108.398 260.766C116.779 254.261 134.577 241.136 134.577 241.136M108.398 260.766L124.564 243.07M108.398 260.766L108.282 250.809M111.359 264.088L117.153 294.084M117.153 294.084L122.014 318.802M117.153 294.084L136.766 298.745M122.014 318.802L136.766 298.745M138.699 245.932L134.577 241.136M134.577 241.136L124.564 243.07M124.564 243.07L108.282 250.809" stroke="#230000"/>
<path d="M118.163 341.337L123.02 340.734L166.836 340.304L166.73 335.305L132.468 327.03L135.588 313.461L118.532 312.823L122.701 325.737L118.914 330.819L117.993 333.339L118.163 341.337Z" fill="#252020"/>
<path d="M123.02 340.734L118.163 341.337L117.993 333.339M123.02 340.734L166.836 340.304M123.02 340.734C122.622 340.342 119.182 335.814 117.993 333.339M123.02 340.734L118.914 330.819M123.02 340.734C122.9 340.337 122.761 330.737 122.701 325.737M166.836 340.304L166.73 335.305L132.468 327.03M166.836 340.304L122.701 325.737M132.468 327.03L135.588 313.461M132.468 327.03L127.585 326.384M135.588 313.461L118.532 312.823M135.588 313.461L127.585 326.384M118.532 312.823L122.701 325.737M118.532 312.823L127.585 326.384M122.701 325.737L118.914 330.819M122.701 325.737L127.585 326.384M117.993 333.339L118.914 330.819" stroke="black"/>
<path d="M92.0125 163.518L93.7909 160.503L106.88 147.326L139.096 167.503L154.78 177.327L140.962 198.781L123.535 207.657L112.437 202.852L97.2655 192.16L91.9121 175.65L92.0125 163.518Z" fill="#251414"/>
<path d="M92.0125 163.518L93.7909 160.503M92.0125 163.518L91.9121 175.65M92.0125 163.518L127.371 181.475M93.7909 160.503L106.88 147.326M93.7909 160.503L127.371 181.475M106.88 147.326L139.096 167.503M106.88 147.326L127.371 181.475M140.962 198.781L154.78 177.327M140.962 198.781L123.535 207.657L112.437 202.852M140.962 198.781L127.371 181.475M140.962 198.781C131.298 199.418 113.177 203.172 112.437 202.852M140.962 198.781L97.2655 192.16M154.78 177.327L139.096 167.503M154.78 177.327L127.371 181.475M112.437 202.852L97.2655 192.16M91.9121 175.65L97.2655 192.16M91.9121 175.65L127.371 181.475M139.096 167.503L127.371 181.475" stroke="#230000"/>
<path d="M101.528 260.821L103.363 254.027L110.916 241.458L118.316 223.533L123.453 218.724L129.416 201.181L142.608 190.442L100.27 158L99.8693 170.009L98.4383 183.733L96.3538 189.937L80.575 219.936L82.3799 226.284L72.2122 243.204L68.5728 243.649L101.528 260.821Z" fill="#251414"/>
<path d="M103.363 254.027L101.528 260.821L68.5728 243.649L72.2122 243.204M103.363 254.027L110.916 241.458M103.363 254.027L72.2122 243.204M110.916 241.458L118.316 223.533M110.916 241.458L82.3799 226.284M118.316 223.533L123.453 218.724M118.316 223.533L80.575 219.936M123.453 218.724L129.416 201.181M123.453 218.724L96.3538 189.937M129.416 201.181L142.608 190.442M129.416 201.181L98.4383 183.733M142.608 190.442L100.27 158L99.8693 170.009L98.4383 183.733M142.608 190.442L98.4383 183.733M98.4383 183.733L96.3538 189.937M96.3538 189.937L80.575 219.936M80.575 219.936L82.3799 226.284M82.3799 226.284L72.2122 243.204" stroke="#230000"/>
<path d="M68.0797 264.154L72.0017 270.271L80.2566 276.931L86.4353 278.282L93.2692 270.713L101.618 254.734L98.6721 245.998L95.5336 246.851L91.1695 245.98L68.4938 225.507L49.7381 208.689L45.7822 206.778L38.5902 212.439L50.0241 233.585L68.0797 264.154Z" fill="#251414"/>
<path d="M38.5902 212.439L45.7822 206.778L49.7381 208.689M38.5902 212.439L49.7381 208.689M38.5902 212.439L50.0241 233.585M68.0797 264.154L72.0017 270.271M68.0797 264.154L50.0241 233.585M68.0797 264.154L91.1695 245.98M72.0017 270.271L95.5336 246.851M72.0017 270.271L80.2566 276.931M95.5336 246.851L91.1695 245.98M95.5336 246.851L98.6721 245.998L101.618 254.734M95.5336 246.851C90.015 257.594 80.2566 276.931 80.2566 276.931M95.5336 246.851C92.7532 257.09 86.4353 278.282 86.4353 278.282M95.5336 246.851L93.2692 270.713M95.5336 246.851L101.618 254.734M91.1695 245.98L68.4938 225.507M68.4938 225.507L49.7381 208.689M68.4938 225.507L50.0241 233.585M49.7381 208.689L50.0241 233.585M80.2566 276.931L86.4353 278.282M86.4353 278.282L93.2692 270.713M93.2692 270.713L101.618 254.734" stroke="#230000"/>
<path d="M39.2549 188.372L35.7386 191.777L1.00008 218.484L4.09264 222.413L36.4375 208.407L42.1096 221.123L56.1173 211.369L45.0163 203.563L44.9842 197.225L44.203 194.659L39.2549 188.372Z" fill="#252020"/>
<path d="M35.7386 191.777L39.2549 188.372L44.203 194.659M35.7386 191.777L1.00008 218.484M35.7386 191.777C36.292 191.85 41.7641 193.397 44.203 194.659M35.7386 191.777L44.9842 197.225M35.7386 191.777C36.0734 192.022 41.9602 199.606 45.0163 203.563M1.00008 218.484L4.09264 222.413L36.4375 208.407M1.00008 218.484L45.0163 203.563M36.4375 208.407L42.1096 221.123M36.4375 208.407L40.7269 205.985M42.1096 221.123L56.1173 211.369M42.1096 221.123L40.7269 205.985M56.1173 211.369L45.0163 203.563M56.1173 211.369L40.7269 205.985M45.0163 203.563L44.9842 197.225M45.0163 203.563L40.7269 205.985M44.203 194.659L44.9842 197.225" stroke="black"/>
<path d="M185.622 66.0631L202.991 85.7264L200.924 96.7076L189.999 115.803L181.68 132.358L170.943 148.104L151.695 131.908L132.447 115.711L142.627 97.9178L149.149 77.4554L159.826 58.7937L176.95 44.9727L185.622 66.0631Z" fill="#251414"/>
<path d="M185.622 66.0631L202.991 85.7264M185.622 66.0631L176.95 44.9727M185.622 66.0631L178.365 67.6718M185.622 66.0631L186.3 73.9397M202.991 85.7264L200.924 96.7076M202.991 85.7264L188.034 78.964M200.924 96.7076L189.999 115.803M200.924 96.7076L183.564 86.7758M181.68 132.358L170.943 148.104M181.68 132.358L189.999 115.803M181.68 132.358L177.113 89.9974M170.943 148.104L177.113 89.9974M170.943 148.104L151.695 131.908M170.943 148.104L157.12 115.426M132.447 115.711L142.627 97.9178L149.149 77.4554M132.447 115.711L151.695 131.908M132.447 115.711L157.12 115.426M176.95 44.9727L159.826 58.7937M176.95 44.9727L172.846 66.2425M149.149 77.4554L159.826 58.7937M149.149 77.4554L164.035 75.6026M159.826 58.7937L168.504 67.7907M189.999 115.803L177.113 89.9974M164.035 75.6026L163.659 82.3003L166.943 87.6355L171.521 90.2546M164.035 75.6026L168.504 67.7907M178.365 67.6718L172.846 66.2425M178.365 67.6718L182.943 70.2909L186.3 73.9397M172.846 66.2425L168.504 67.7907M186.3 73.9397L188.034 78.964M188.034 78.964L183.564 86.7758M183.564 86.7758L177.113 89.9974M177.113 89.9974L171.521 90.2546M171.521 90.2546L157.12 115.426M151.695 131.908L157.12 115.426" stroke="#230000"/>
<path d="M160.661 165.283L158.759 173.244L143.11 163.159L110.831 142.357L118.609 135.692L123.518 129.562L127.239 124.417L132.885 114.175L151.875 130.866L170.864 147.556L165.118 156.027L160.661 165.283Z" fill="#251414"/>
<path d="M110.831 142.357L118.609 135.692M110.831 142.357L143.11 163.159M110.831 142.357L131.353 136.611M158.759 173.244L160.661 165.283M158.759 173.244L143.11 163.159M158.759 173.244L151.875 130.866M160.661 165.283L165.118 156.027M160.661 165.283L151.875 130.866M165.118 156.027L170.864 147.556L151.875 130.866M165.118 156.027L151.875 130.866M118.609 135.692L123.518 129.562M118.609 135.692L131.353 136.611M127.239 124.417L132.885 114.175L151.875 130.866M127.239 124.417L123.518 129.562M127.239 124.417L131.353 136.611M123.518 129.562L131.353 136.611M151.875 130.866L143.11 163.159M151.875 130.866L131.353 136.611" stroke="#230000"/>
<g filter="url(#filter0_d_169_405)">
<path d="M153.122 70.5116L153.867 69.2096L163.173 63.0127L168.508 59.7285L173.904 59.3592L181.282 63.5802L187.418 69.9712L193.552 80.3933L197.888 90.9385L199.991 101.358L198.005 104.83L196.15 93.9764L192.434 84.3618L186.796 73.0717L180.908 66.2468L173.964 62.2741L169.499 62.0237L163.978 64.6255L153.122 70.5116Z" fill="#100F0F"/>
<path d="M150.391 75.2855L153.867 69.2096L163.173 63.0127M150.391 75.2855L153.122 70.5116L163.978 64.6255M150.391 75.2855L148.901 77.8895L146.479 85.1442M180.908 66.2468L181.282 63.5802M180.908 66.2468L173.964 62.2741M180.908 66.2468L186.796 73.0717L192.434 84.3618M181.282 63.5802L173.904 59.3592M181.282 63.5802L187.418 69.9712L193.552 80.3933M193.552 80.3933L192.434 84.3618M193.552 80.3933L197.888 90.9385M192.434 84.3618L196.15 93.9764M173.964 62.2741L173.904 59.3592M173.964 62.2741L169.499 62.0237M197.888 90.9385L199.991 101.358L198.005 104.83L196.15 93.9764M197.888 90.9385L196.15 93.9764M173.904 59.3592L168.508 59.7285M163.173 63.0127L168.508 59.7285M163.173 63.0127L163.978 64.6255M163.978 64.6255L169.499 62.0237M168.508 59.7285L169.499 62.0237" stroke="#252323"/>
</g>
<g filter="url(#filter1_d_169_405)">
<path d="M144.555 87.4998L148.715 77.2071L152.502 69.5809" stroke="#252323"/>
</g>
<path d="M145.611 84.6476L143.875 83.6544L148.657 70.2611L151.261 71.7509L145.611 84.6476Z" fill="#251414" stroke="#252323"/>
<g style="mix-blend-mode:darken" filter="url(#filter2_di_169_405)">
<path d="M203.926 64.6555L198.394 52.0206L206.896 28.5109L230.616 34.9626L228.035 49.4485L227.235 56.0712L221.433 60.3531L217.812 65.9555L216.242 71.7679L214.621 73.3085L208.038 70.9278L203.926 64.6555Z" fill="#251414"/>
<path d="M203.926 64.6555L198.394 52.0206L206.896 28.5109L230.616 34.9626L228.035 49.4485L227.235 56.0712L221.433 60.3531L217.812 65.9555L216.242 71.7679L214.621 73.3085L208.038 70.9278L203.926 64.6555Z" stroke="#230000"/>
</g>
<g filter="url(#filter3_dd_169_405)">
<path d="M223.078 49.3246C221.163 50.2164 219.361 45.3958 219.361 45.3958L217.329 40.8271L221.493 42.8063L224.722 46.6235C224.722 46.6235 224.197 48.8031 223.078 49.3246Z" fill="#B20000" shape-rendering="crispEdges"/>
<path d="M223.078 49.3246C221.163 50.2164 219.361 45.3958 219.361 45.3958L217.329 40.8271L221.493 42.8063L224.722 46.6235C224.722 46.6235 224.197 48.8031 223.078 49.3246Z" stroke="url(#paint0_linear_169_405)" shape-rendering="crispEdges"/>
</g>
<path d="M232.927 37.3935L200.205 61.7144L209.889 79.041L207.509 85.6237L189.791 66.9869L174.554 50.3108L178.125 40.4367L182.307 37.6955L192.52 15.3361L207.326 5.27157L220.021 9.86294L235.337 23.3778L232.927 37.3935Z" fill="#261515"/>
<path d="M200.205 61.7144L232.927 37.3935M200.205 61.7144L209.889 79.041L207.509 85.6237L189.791 66.9869M200.205 61.7144L174.554 50.3108M200.205 61.7144L178.125 40.4367M200.205 61.7144L182.307 37.6955M200.205 61.7144L189.791 66.9869M232.927 37.3935L192.52 15.3361M232.927 37.3935L207.326 5.27157M232.927 37.3935L220.021 9.86294M232.927 37.3935L235.337 23.3778L220.021 9.86294M220.021 9.86294L207.326 5.27157M207.326 5.27157L192.52 15.3361M192.52 15.3361L182.307 37.6955M182.307 37.6955L178.125 40.4367M178.125 40.4367L174.554 50.3108M174.554 50.3108L189.791 66.9869" stroke="#230000"/>
<g filter="url(#filter4_d_169_405)">
<path d="M157.096 70.802L154.244 69.7463L153.624 68.8157L153.687 67.6994L155.425 64.6614L160.265 58.2141L161.941 56.2925L164.05 54.6191L167.773 52.1403L173.79 48.6705L177.016 47.0597L179.993 45.8829L184.271 49.4821L187.803 54.3833L196.233 63.8143L207.26 86.8285L208.994 91.8528L207.316 97.8056L203.032 106.3L195.335 119.754L187.513 135.44L177.024 150.753L171.128 160.052L168.334 165.942L166.846 164.515L169.143 159.493L174.792 150.628L185.28 135.315L193.848 118.326L201.793 104.439L204.773 99.2307L197.958 84.9631L190.401 67.9665L183.582 61.7612L177.629 60.0836L164.171 60.4488L157.096 70.802Z" fill="#3C3C3C"/>
<path d="M154.244 69.7463L157.096 70.802L164.171 60.4488M154.244 69.7463L153.624 68.8157L153.687 67.6994M154.244 69.7463L164.171 60.4488M153.687 67.6994L155.425 64.6614M153.687 67.6994L164.171 60.4488M155.425 64.6614L160.265 58.2141M155.425 64.6614L164.171 60.4488M160.265 58.2141L161.941 56.2925M160.265 58.2141L164.171 60.4488M161.941 56.2925L164.05 54.6191M161.941 56.2925L177.629 60.0836M164.05 54.6191L167.773 52.1403M164.05 54.6191L177.629 60.0836M179.993 45.8829L183.582 61.7612M179.993 45.8829L177.016 47.0597L173.79 48.6705M179.993 45.8829L184.271 49.4821L187.803 54.3833M196.233 63.8143L207.26 86.8285M196.233 63.8143L187.803 54.3833M196.233 63.8143L190.401 67.9665M207.26 86.8285L208.994 91.8528M207.26 86.8285L197.958 84.9631M208.994 91.8528L207.316 97.8056M208.994 91.8528L197.958 84.9631M207.316 97.8056L203.032 106.3M207.316 97.8056L204.773 99.2307M203.032 106.3L195.335 119.754M203.032 106.3L201.793 104.439M193.848 118.326L201.793 104.439M193.848 118.326L185.28 135.315M193.848 118.326L195.335 119.754M201.793 104.439L204.773 99.2307M204.773 99.2307L197.958 84.9631M190.401 67.9665L183.582 61.7612M190.401 67.9665L197.958 84.9631M183.582 61.7612L177.629 60.0836M183.582 61.7612L173.79 48.6705M183.582 61.7612L187.803 54.3833M177.629 60.0836L164.171 60.4488M177.629 60.0836L167.773 52.1403M167.773 52.1403L173.79 48.6705M169.143 159.493L166.846 164.515L168.334 165.942L171.128 160.052M169.143 159.493L174.792 150.628M169.143 159.493L171.128 160.052M171.128 160.052L177.024 150.753M174.792 150.628L185.28 135.315M174.792 150.628L177.024 150.753M185.28 135.315L187.513 135.44M177.024 150.753L187.513 135.44M187.513 135.44L195.335 119.754" stroke="#251414"/>
</g>
<g filter="url(#filter5_d_169_405)">
<g filter="url(#filter6_d_169_405)">
<path d="M105.582 148.449C105.991 147.761 107.564 146.136 108.485 145.52L110.838 142.847L122.658 151.03L134.951 157.749L145.443 164.561L156.621 171.199L155.942 176.03L154.41 178.61L146.679 172.273L138.08 167.167L124.324 158.997L110.492 151.364L107.008 149.295L105.582 148.449Z" fill="#3C3C3C"/>
<path d="M110.838 142.847L108.485 145.52C107.564 146.136 105.991 147.761 105.582 148.449L107.008 149.295M110.838 142.847L122.658 151.03M110.838 142.847L110.492 151.364M110.838 142.847L107.008 149.295M110.492 151.364L107.008 149.295M110.492 151.364L124.324 158.997M138.08 167.167L124.324 158.997M138.08 167.167L146.679 172.273M138.08 167.167L134.951 157.749M134.951 157.749L122.658 151.03M134.951 157.749L145.443 164.561M124.324 158.997L122.658 151.03M145.443 164.561L156.621 171.199L155.942 176.03L154.41 178.61L146.679 172.273M145.443 164.561L146.679 172.273" stroke="#251414"/>
</g>
<path d="M174.297 164H173.497V156L174.297 157V164Z" fill="#1F1F1F"/>
<path d="M173.497 164H174.297V157M173.497 164V156L174.297 157M173.497 164C173.497 163.619 173.964 160.175 174.297 157" stroke="#251414"/>
</g>
<path d="M178.66 78.2229L182.439 85.3621L200.742 100.887L195.741 109.102L192.265 118.611L185.517 114.198L173.489 105.963L160.433 98.1666L153.95 92.6684L152.898 88.4978L156.051 79.3703L165.131 73.3034L171.531 73.4872L178.66 78.2229Z" fill="#251414"/>
<path d="M182.439 85.3621L178.66 78.2229M182.439 85.3621L200.742 100.887L195.741 109.102M182.439 85.3621L176.26 96.5119M176.26 96.5119L184.152 101.894L189.374 105.013L195.741 109.102M176.26 96.5119L178.66 78.2229M176.26 96.5119C175.731 96.0635 171.784 92.715 167.49 89.0731M176.26 96.5119L160.433 98.1666M178.66 78.2229L171.531 73.4872M171.531 73.4872L165.131 73.3034M171.531 73.4872L167.49 89.0731M156.051 79.3703L165.131 73.3034M156.051 79.3703L152.898 88.4978M156.051 79.3703C158.359 81.328 164.351 86.4109 167.49 89.0731M165.131 73.3034L167.49 89.0731M195.741 109.102L192.265 118.611L185.517 114.198L173.489 105.963L160.433 98.1666M152.898 88.4978L153.95 92.6684M152.898 88.4978L167.49 89.0731M153.95 92.6684L160.433 98.1666M153.95 92.6684L167.49 89.0731" stroke="#230000"/>
<path d="M207.029 130.474L211.93 133.971L224.81 138.726L228.163 130.997L231.515 123.268L219.834 114.82L216.021 113.406L206.58 105.804L203.487 103.964L201.346 100.911L197.823 102.578L193.051 107.03L186.845 114.526L191.158 117.093L192.701 119.352L193.012 119.807L203.418 127.743L205.136 128.766L207.029 130.474Z" fill="#251414"/>
<path d="M219.834 114.82L216.021 113.406M219.834 114.82L231.515 123.268L228.163 130.997M219.834 114.82L219.181 123.74M211.93 133.971L207.029 130.474L205.136 128.766M211.93 133.971L224.81 138.726L228.163 130.997M211.93 133.971L219.181 123.74M216.021 113.406L206.58 105.804L203.487 103.964M216.021 113.406L209.298 117.86M203.418 127.743L193.012 119.807L192.701 119.352M203.418 127.743L205.136 128.766M203.418 127.743C203.622 127.399 207.338 121.155 209.298 117.86M203.487 103.964L201.346 100.911L197.823 102.578L193.051 107.03M203.487 103.964L193.051 107.03M203.487 103.964C200.088 108.763 193.173 118.559 192.701 119.352M191.158 117.093L186.845 114.526L193.051 107.03M191.158 117.093C191.615 116.326 192.61 110.065 193.051 107.03M191.158 117.093L192.701 119.352M193.051 107.03L209.298 117.86M209.298 117.86L219.181 123.74M209.298 117.86L205.136 128.766M219.181 123.74L228.163 130.997" stroke="#230000"/>
<path d="M271.249 110.384L267.99 105.793L260.154 118.944L252.008 107.466L265.206 97.5383L272.051 95.0331L279.165 99.7722L271.249 110.384Z" fill="#403535"/>
<path d="M267.99 105.793L271.249 110.384L279.165 99.7722L272.051 95.0331L265.206 97.5383L252.008 107.466M267.99 105.793L260.154 118.944L252.008 107.466M267.99 105.793C267.653 106.012 257.91 107.43 252.008 107.466" stroke="black"/>
<path d="M272.074 95.0837L278.74 100.143L277.044 102.085L271.249 110.385L269.294 107.63L267.99 105.793L270.894 101.22L271.492 105.529" stroke="black"/>
<path d="M225.307 142.438L227.139 137.22L223.092 129.786L231.833 124.771L251.337 108.057L259.484 119.535L241.067 134.703L232.815 146.95L230.051 142.571L225.307 142.438Z" fill="#403535"/>
<path d="M259.484 119.535L235.498 134.267M259.484 119.535L241.067 134.703M259.484 119.535L251.337 108.057M235.498 134.267C235.498 134.267 229.469 135.999 227.139 137.22M235.498 134.267L232.596 139.71M235.498 134.267L230.031 138.695M235.498 134.267L251.337 108.057M225.307 142.438L227.139 137.22M225.307 142.438L230.031 138.695M225.307 142.438L230.051 142.571M227.139 137.22L223.092 129.786L231.833 124.771L251.337 108.057M227.139 137.22L230.031 138.695M230.031 138.695L232.596 139.71M232.596 139.71L230.051 142.571M232.596 139.71L241.067 134.703M230.051 142.571L232.815 146.95L241.067 134.703" stroke="black"/>
<defs>
<filter id="filter0_d_169_405" x="142.004" y="58.8501" width="62.5142" height="55.4384" filterUnits="userSpaceOnUse" color-interpolation-filters="sRGB">
<feFlood flood-opacity="0" result="BackgroundImageFix"/>
<feColorMatrix in="SourceAlpha" type="matrix" values="0 0 0 0 0 0 0 0 0 0 0 0 0 0 0 0 0 0 127 0" result="hardAlpha"/>
<feOffset dy="4"/>
<feGaussianBlur stdDeviation="2"/>
<feComposite in2="hardAlpha" operator="out"/>
<feColorMatrix type="matrix" values="0 0 0 0 0 0 0 0 0 0 0 0 0 0 0 0 0 0 0.25 0"/>
<feBlend mode="normal" in2="BackgroundImageFix" result="effect1_dropShadow_169_405"/>
<feBlend mode="normal" in="SourceGraphic" in2="effect1_dropShadow_169_405" result="shape"/>
</filter>
<filter id="filter1_d_169_405" x="140.091" y="69.3585" width="16.8589" height="26.3287" filterUnits="userSpaceOnUse" color-interpolation-filters="sRGB">
<feFlood flood-opacity="0" result="BackgroundImageFix"/>
<feColorMatrix in="SourceAlpha" type="matrix" values="0 0 0 0 0 0 0 0 0 0 0 0 0 0 0 0 0 0 127 0" result="hardAlpha"/>
<feOffset dy="4"/>
<feGaussianBlur stdDeviation="2"/>
<feComposite in2="hardAlpha" operator="out"/>
<feColorMatrix type="matrix" values="0 0 0 0 0 0 0 0 0 0 0 0 0 0 0 0 0 0 0.25 0"/>
<feBlend mode="normal" in2="BackgroundImageFix" result="effect1_dropShadow_169_405"/>
<feBlend mode="normal" in="SourceGraphic" in2="effect1_dropShadow_169_405" result="shape"/>
</filter>
<filter id="filter2_di_169_405" x="193.855" y="24.9075" width="41.333" height="54.2763" filterUnits="userSpaceOnUse" color-interpolation-filters="sRGB">
<feFlood flood-opacity="0" result="BackgroundImageFix"/>
<feColorMatrix in="SourceAlpha" type="matrix" values="0 0 0 0 0 0 0 0 0 0 0 0 0 0 0 0 0 0 127 0" result="hardAlpha"/>
<feOffset dy="1"/>
<feGaussianBlur stdDeviation="2"/>
<feComposite in2="hardAlpha" operator="out"/>
<feColorMatrix type="matrix" values="0 0 0 0 1 0 0 0 0 1 0 0 0 0 1 0 0 0 1 0"/>
<feBlend mode="normal" in2="BackgroundImageFix" result="effect1_dropShadow_169_405"/>
<feBlend mode="normal" in="SourceGraphic" in2="effect1_dropShadow_169_405" result="shape"/>
<feColorMatrix in="SourceAlpha" type="matrix" values="0 0 0 0 0 0 0 0 0 0 0 0 0 0 0 0 0 0 127 0" result="hardAlpha"/>
<feOffset dx="3" dy="10"/>
<feGaussianBlur stdDeviation="2.65"/>
<feComposite in2="hardAlpha" operator="arithmetic" k2="-1" k3="1"/>
<feColorMatrix type="matrix" values="0 0 0 0 0 0 0 0 0 0 0 0 0 0 0 0 0 0 0.25 0"/>
<feBlend mode="normal" in2="shape" result="effect2_innerShadow_169_405"/>
</filter>
<filter id="filter3_dd_169_405" x="212.323" y="39.7953" width="16.9443" height="18.1401" filterUnits="userSpaceOnUse" color-interpolation-filters="sRGB">
<feFlood flood-opacity="0" result="BackgroundImageFix"/>
<feColorMatrix in="SourceAlpha" type="matrix" values="0 0 0 0 0 0 0 0 0 0 0 0 0 0 0 0 0 0 127 0" result="hardAlpha"/>
<feOffset dy="4"/>
<feGaussianBlur stdDeviation="2"/>
<feComposite in2="hardAlpha" operator="out"/>
<feColorMatrix type="matrix" values="0 0 0 0 0 0 0 0 0 0 0 0 0 0 0 0 0 0 0.25 0"/>
<feBlend mode="normal" in2="BackgroundImageFix" result="effect1_dropShadow_169_405"/>
<feColorMatrix in="SourceAlpha" type="matrix" values="0 0 0 0 0 0 0 0 0 0 0 0 0 0 0 0 0 0 127 0" result="hardAlpha"/>
<feOffset dy="4"/>
<feGaussianBlur stdDeviation="2"/>
<feComposite in2="hardAlpha" operator="out"/>
<feColorMatrix type="matrix" values="0 0 0 0 0 0 0 0 0 0 0 0 0 0 0 0 0 0 0.25 0"/>
<feBlend mode="normal" in2="effect1_dropShadow_169_405" result="effect2_dropShadow_169_405"/>
<feBlend mode="normal" in="SourceGraphic" in2="effect2_dropShadow_169_405" result="shape"/>
</filter>
<filter id="filter4_d_169_405" x="149.115" y="45.3082" width="64.4019" height="129.475" filterUnits="userSpaceOnUse" color-interpolation-filters="sRGB">
<feFlood flood-opacity="0" result="BackgroundImageFix"/>
<feColorMatrix in="SourceAlpha" type="matrix" values="0 0 0 0 0 0 0 0 0 0 0 0 0 0 0 0 0 0 127 0" result="hardAlpha"/>
<feOffset dy="4"/>
<feGaussianBlur stdDeviation="2"/>
<feComposite in2="hardAlpha" operator="out"/>
<feColorMatrix type="matrix" values="0 0 0 0 0 0 0 0 0 0 0 0 0 0 0 0 0 0 0.25 0"/>
<feBlend mode="normal" in2="BackgroundImageFix" result="effect1_dropShadow_169_405"/>
<feBlend mode="normal" in="SourceGraphic" in2="effect1_dropShadow_169_405" result="shape"/>
</filter>
<filter id="filter5_d_169_405" x="100.897" y="142.182" width="77.9001" height="45.1827" filterUnits="userSpaceOnUse" color-interpolation-filters="sRGB">
<feFlood flood-opacity="0" result="BackgroundImageFix"/>
<feColorMatrix in="SourceAlpha" type="matrix" values="0 0 0 0 0 0 0 0 0 0 0 0 0 0 0 0 0 0 127 0" result="hardAlpha"/>
<feOffset dy="4"/>
<feGaussianBlur stdDeviation="2"/>
<feComposite in2="hardAlpha" operator="out"/>
<feColorMatrix type="matrix" values="0 0 0 0 0 0 0 0 0 0 0 0 0 0 0 0 0 0 0.25 0"/>
<feBlend mode="normal" in2="BackgroundImageFix" result="effect1_dropShadow_169_405"/>
<feBlend mode="normal" in="SourceGraphic" in2="effect1_dropShadow_169_405" result="shape"/>
</filter>
<filter id="filter6_d_169_405" x="100.897" y="142.182" width="60.2649" height="45.1827" filterUnits="userSpaceOnUse" color-interpolation-filters="sRGB">
<feFlood flood-opacity="0" result="BackgroundImageFix"/>
<feColorMatrix in="SourceAlpha" type="matrix" values="0 0 0 0 0 0 0 0 0 0 0 0 0 0 0 0 0 0 127 0" result="hardAlpha"/>
<feOffset dy="4"/>
<feGaussianBlur stdDeviation="2"/>
<feComposite in2="hardAlpha" operator="out"/>
<feColorMatrix type="matrix" values="0 0 0 0 0 0 0 0 0 0 0 0 0 0 0 0 0 0 0.25 0"/>
<feBlend mode="normal" in2="BackgroundImageFix" result="effect1_dropShadow_169_405"/>
<feBlend mode="normal" in="SourceGraphic" in2="effect1_dropShadow_169_405" result="shape"/>
</filter>
<linearGradient id="paint0_linear_169_405" x1="228.547" y1="43.3959" x2="226.795" y2="51.0504" gradientUnits="userSpaceOnUse">
<stop stop-opacity="0.1"/>
<stop offset="1" stop-color="#FF0000" stop-opacity="0"/>
<stop offset="1" stop-color="#FF0000" stop-opacity="0"/>
</linearGradient>
</defs>
</svg>
