<svg width="290" height="357" viewBox="0 0 290 357" fill="none" xmlns="http://www.w3.org/2000/svg">
<path d="M181.216 97.3438L173.196 96.3811L150.009 102.575L135.984 116.5L131.984 106.5L129.984 97.3438L130.984 91.5001L132.984 88.3678C135.151 87.415 139.643 85.5094 140.275 85.5094L147.746 82.4786L161.367 77.2871L175.214 71.0004L183.426 68.8066L187.453 70.3186L193.157 78.1104L192.968 89.0289L189.17 94.1839L181.216 97.3438Z" fill="#251414"/>
<path d="M173.196 96.3811L181.216 97.3438M173.196 96.3811L150.009 102.575M173.196 96.3811L167.555 84.9498M167.555 84.9498L158.635 88.3678L153.096 90.8824L146.108 93.7842M167.555 84.9498L181.216 97.3438M167.555 84.9498C168.224 84.7709 173.226 83.4349 178.665 81.9817M167.555 84.9498L175.214 71.0004M181.216 97.3438L189.17 94.1839M189.17 94.1839L192.968 89.0289M189.17 94.1839L178.665 81.9817M193.157 78.1104L192.968 89.0289M193.157 78.1104L187.453 70.3186M193.157 78.1104C190.233 78.8915 182.641 80.9196 178.665 81.9817M192.968 89.0289L178.665 81.9817M146.108 93.7842L150.009 102.575M146.108 93.7842L140.275 85.5094M150.009 102.575L135.984 116.5L131.984 106.5M187.453 70.3186L183.426 68.8066M187.453 70.3186L178.665 81.9817M183.426 68.8066L175.214 71.0004M183.426 68.8066L178.665 81.9817M175.214 71.0004L161.367 77.2871L147.746 82.4786L140.275 85.5094M140.275 85.5094C139.643 85.5094 135.151 87.415 132.984 88.3678L130.984 91.5001M140.275 85.5094C137.845 91.8396 132.784 104.9 131.984 106.5M140.275 85.5094L129.984 97.3438M140.275 85.5094L130.984 91.5001M130.984 91.5001L129.984 97.3438M129.984 97.3438L131.984 106.5" stroke="#230000"/>
<path d="M165.308 123.443L168.607 128.48L172.842 141.54L164.986 144.581L157.129 147.622L149.155 135.611L147.894 131.745L140.677 122.008L138.961 118.843L135.997 116.582L137.803 113.129L142.442 108.539L150.181 102.638L152.573 107.05L154.768 108.682L155.211 109.011L162.724 119.725L163.677 121.484L165.308 123.443Z" fill="#251414"/>
<path d="M149.155 135.611L147.894 131.745M149.155 135.611L157.129 147.622L164.986 144.581M149.155 135.611L158.094 135.316M168.607 128.48L165.308 123.443L163.677 121.484M168.607 128.48L172.842 141.54L164.986 144.581M168.607 128.48L158.094 135.316M147.894 131.745L140.677 122.008L138.961 118.843M147.894 131.745L152.614 125.206M162.724 119.725L155.211 109.011L154.768 108.682M162.724 119.725L163.677 121.484M162.724 119.725C162.373 119.916 155.984 123.379 152.614 125.206M138.961 118.843L135.997 116.582L137.803 113.129L142.442 108.539M138.961 118.843L142.442 108.539M138.961 118.843C143.893 115.639 153.958 109.122 154.768 108.682M152.573 107.05L150.181 102.638L142.442 108.539M152.573 107.05C151.788 107.475 145.492 108.22 142.442 108.539M152.573 107.05L154.768 108.682M142.442 108.539L152.614 125.206M152.614 125.206L158.094 135.316M152.614 125.206L163.677 121.484M158.094 135.316L164.986 144.581" stroke="#230000"/>
<path d="M187.819 188.132L192.359 185.872L180.488 176.133L191.839 170.483L200.32 184.713L202.228 191.622L197.293 197.496L187.819 188.132Z" fill="#403535"/>
<path d="M192.359 185.872L187.819 188.132L197.293 197.496L202.228 191.622L200.32 184.713L191.839 170.483M192.359 185.872L180.488 176.133L191.839 170.483M192.359 185.872C192.175 185.515 191.484 176.063 191.839 170.483" stroke="black"/>
<path d="M202.179 191.635L196.972 197.028L195.254 195.081L187.819 188.132L194.106 185.388L195.952 187.671L192.41 189.825" stroke="black"/>
<path d="M193.451 185.68L196.547 188.958" stroke="black"/>
<path d="M163.27 143.552L166.187 143.012L173.458 140.514L177.605 149.661L192.061 171.052L180.71 176.701L167.638 156.611L156.646 146.64L160.954 144.81L163.27 143.552Z" fill="#403535"/>
<path d="M180.71 176.701L168.417 151.431M180.71 176.701L167.638 156.611M180.71 176.701L192.061 171.052M168.417 151.431C168.417 151.431 167.184 145.43 166.187 143.012M168.417 151.431L163.481 147.722M168.417 151.431L192.061 171.052M166.187 143.012L163.27 143.552L160.954 144.81M166.187 143.012L173.458 140.514L177.605 149.661L192.061 171.052M163.481 147.722L160.954 144.81M163.481 147.722L167.638 156.611M160.954 144.81L156.646 146.64L167.638 156.611" stroke="black"/>
<path d="M106.273 257.904L108.108 251.111L115.661 238.542L123.061 220.616L128.198 215.808L134.161 198.265L147.353 187.526L105.015 155.083L104.614 167.093L103.183 180.816L101.099 187.021L85.32 217.019L87.1249 223.367L76.9572 240.287L73.3177 240.732L106.273 257.904Z" fill="#251414"/>
<path d="M108.108 251.111L106.273 257.904L73.3177 240.732L76.9572 240.287M108.108 251.111L115.661 238.542M108.108 251.111L76.9572 240.287M115.661 238.542L123.061 220.616M115.661 238.542L87.1249 223.367M123.061 220.616L128.198 215.808M123.061 220.616L85.32 217.019M128.198 215.808L134.161 198.265M128.198 215.808L101.099 187.021M134.161 198.265L147.353 187.526M134.161 198.265L103.183 180.816M147.353 187.526L105.015 155.083L104.614 167.093L103.183 180.816M147.353 187.526L103.183 180.816M103.183 180.816L101.099 187.021M101.099 187.021L85.32 217.019M85.32 217.019L87.1249 223.367M87.1249 223.367L76.9572 240.287" stroke="#230000"/>
<path d="M72.8244 261.238L76.7465 267.355L85.0014 274.015L91.1801 275.365L98.014 267.796L106.362 251.818L103.417 243.081L100.278 243.934L95.9142 243.063L73.2386 222.59L54.4829 205.772L50.5269 203.862L43.335 209.523L54.7689 230.669L72.8244 261.238Z" fill="#251414"/>
<path d="M43.335 209.523L50.5269 203.862L54.4829 205.772M43.335 209.523L54.4829 205.772M43.335 209.523L54.7689 230.669M72.8244 261.238L76.7465 267.355M72.8244 261.238L54.7689 230.669M72.8244 261.238L95.9142 243.063M76.7465 267.355L100.278 243.934M76.7465 267.355L85.0014 274.015M100.278 243.934L95.9142 243.063M100.278 243.934L103.417 243.081L106.362 251.818M100.278 243.934C94.7598 254.677 85.0014 274.015 85.0014 274.015M100.278 243.934C97.4979 254.174 91.1801 275.365 91.1801 275.365M100.278 243.934L98.014 267.796M100.278 243.934L106.362 251.818M95.9142 243.063L73.2386 222.59M73.2386 222.59L54.4829 205.772M73.2386 222.59L54.7689 230.669M54.4829 205.772L54.7689 230.669M85.0014 274.015L91.1801 275.365M91.1801 275.365L98.014 267.796M98.014 267.796L106.362 251.818" stroke="#230000"/>
<path d="M43.9999 185.456L40.4836 188.86L5.74507 215.567L8.83763 219.496L41.1825 205.49L46.8546 218.206L60.8623 208.453L49.7613 200.646L49.7292 194.309L48.948 191.742L43.9999 185.456Z" fill="#252020"/>
<path d="M40.4836 188.86L43.9999 185.456L48.948 191.742M40.4836 188.86L5.74507 215.567M40.4836 188.86C41.037 188.933 46.5091 190.48 48.948 191.742M40.4836 188.86L49.7292 194.309M40.4836 188.86C40.8184 189.105 46.7051 196.689 49.7613 200.646M5.74507 215.567L8.83763 219.496L41.1825 205.49M5.74507 215.567L49.7613 200.646M41.1825 205.49L46.8546 218.206M41.1825 205.49L45.4719 203.068M46.8546 218.206L60.8623 208.453M46.8546 218.206L45.4719 203.068M60.8623 208.453L49.7613 200.646M60.8623 208.453L45.4719 203.068M49.7613 200.646L49.7292 194.309M49.7613 200.646L45.4719 203.068M48.948 191.742L49.7292 194.309" stroke="black"/>
<path d="M150.52 254.052L148.611 247.264L148.763 232.601L145.992 213.395L148.041 206.648L144.197 188.499L155.361 172.614L95.926 166L101.817 176.561L107.688 189.123L109.069 195.529L110.699 229.388L115.6 233.951L115.396 253.689L112.404 255.915L150.52 254.052Z" fill="#251414"/>
<path d="M148.611 247.264L150.52 254.052L112.404 255.915L115.396 253.689M148.611 247.264L148.763 232.601M148.611 247.264L115.396 253.689M148.763 232.601L145.992 213.395M148.763 232.601L115.6 233.951M145.992 213.395L148.041 206.648M145.992 213.395L110.699 229.388M148.041 206.648L144.197 188.499M148.041 206.648L109.069 195.529M144.197 188.499L155.361 172.614M144.197 188.499L107.688 189.123M155.361 172.614L95.926 166L101.817 176.561L107.688 189.123M155.361 172.614L107.688 189.123M107.688 189.123L109.069 195.529M109.069 195.529L110.699 229.388M110.699 229.388L115.6 233.951M115.6 233.951L115.396 253.689" stroke="#230000"/>
<path d="M146.701 258.854L151.707 253.265L113.591 255.128L116.524 258.542L121.508 288.707L125.704 313.568L127.642 317.536L137.042 317.633L141.491 293.99L146.701 258.854Z" fill="#251414"/>
<path d="M137.042 317.633L127.642 317.536L125.704 313.568M137.042 317.633L125.704 313.568M137.042 317.633L141.491 293.99M146.701 258.854L151.707 253.265L113.591 255.128M146.701 258.854L141.491 293.99M146.701 258.854L116.524 258.542M116.582 252.902L113.591 255.128M113.591 255.128L116.524 258.542M116.524 258.542L121.508 288.707M121.508 288.707L125.704 313.568M121.508 288.707L141.491 293.99M125.704 313.568L141.491 293.99" stroke="#230000"/>
<path d="M123.522 343.531L128.527 343.083L173.519 344.047L173.571 339.047L138.666 329.687L142.305 316.223L124.816 315.043L128.682 328.083L124.63 333.042L123.605 335.531L123.522 343.531Z" fill="#252020"/>
<path d="M128.527 343.083L123.522 343.531L123.605 335.531M128.527 343.083L173.519 344.047M128.527 343.083C128.131 342.679 124.745 338.043 123.605 335.531M128.527 343.083L124.63 333.042M128.527 343.083C128.417 342.681 128.583 333.083 128.682 328.083M173.519 344.047L173.571 339.047L138.666 329.687M173.519 344.047L128.682 328.083M138.666 329.687L142.305 316.223M138.666 329.687L133.674 328.885M142.305 316.223L124.816 315.043M142.305 316.223L133.674 328.885M124.816 315.043L128.682 328.083M124.816 315.043L133.674 328.885M128.682 328.083L124.63 333.042M128.682 328.083L133.674 328.885M123.605 335.531L124.63 333.042" stroke="black"/>
<path d="M98.9252 163.518L100.704 160.503L113.793 147.326L146.009 167.503L161.693 177.327L147.875 198.781L130.447 207.657L119.35 202.852L104.178 192.16L98.8248 175.65L98.9252 163.518Z" fill="#251414"/>
<path d="M98.9252 163.518L100.704 160.503M98.9252 163.518L98.8248 175.65M98.9252 163.518L134.283 181.475M100.704 160.503L113.793 147.326M100.704 160.503L134.283 181.475M113.793 147.326L146.009 167.503M113.793 147.326L134.283 181.475M147.875 198.781L161.693 177.327M147.875 198.781L130.447 207.657L119.35 202.852M147.875 198.781L134.283 181.475M147.875 198.781C138.211 199.418 120.09 203.172 119.35 202.852M147.875 198.781L104.178 192.16M161.693 177.327L146.009 167.503M161.693 177.327L134.283 181.475M119.35 202.852L104.178 192.16M98.8248 175.65L104.178 192.16M98.8248 175.65L134.283 181.475M146.009 167.503L134.283 181.475" stroke="#230000"/>
<path d="M192.534 66.0631L209.904 85.7264L207.837 96.7076L196.912 115.803L188.593 132.358L177.856 148.104L158.608 131.908L139.36 115.711L149.54 97.9178L156.062 77.4554L166.739 58.7937L183.863 44.9727L192.534 66.0631Z" fill="#251414"/>
<path d="M192.534 66.0631L209.904 85.7264M192.534 66.0631L183.863 44.9727M192.534 66.0631L185.277 67.6718M192.534 66.0631L193.212 73.9397M209.904 85.7264L207.837 96.7076M209.904 85.7264L194.946 78.964M207.837 96.7076L196.912 115.803M207.837 96.7076L190.477 86.7758M188.593 132.358L177.856 148.104M188.593 132.358L196.912 115.803M188.593 132.358L184.026 89.9974M177.856 148.104L184.026 89.9974M177.856 148.104L158.608 131.908M177.856 148.104L164.033 115.426M139.36 115.711L149.54 97.9178L156.062 77.4554M139.36 115.711L158.608 131.908M139.36 115.711L164.033 115.426M183.863 44.9727L166.739 58.7937M183.863 44.9727L179.759 66.2425M156.062 77.4554L166.739 58.7937M156.062 77.4554L170.947 75.6026M166.739 58.7937L175.417 67.7907M196.912 115.803L184.026 89.9974M170.947 75.6026L170.572 82.3003L173.856 87.6355L178.434 90.2546M170.947 75.6026L175.417 67.7907M185.277 67.6718L179.759 66.2425M185.277 67.6718L189.855 70.2909L193.212 73.9397M179.759 66.2425L175.417 67.7907M193.212 73.9397L194.946 78.964M194.946 78.964L190.477 86.7758M190.477 86.7758L184.026 89.9974M184.026 89.9974L178.434 90.2546M178.434 90.2546L164.033 115.426M158.608 131.908L164.033 115.426" stroke="#230000"/>
<path d="M167.574 165.283L165.672 173.244L150.023 163.159L117.744 142.357L125.521 135.692L130.431 129.562L134.152 124.417L139.798 114.175L158.788 130.866L177.777 147.556L172.031 156.027L167.574 165.283Z" fill="#251414"/>
<path d="M117.744 142.357L125.521 135.692M117.744 142.357L150.023 163.159M117.744 142.357L138.266 136.611M165.672 173.244L167.574 165.283M165.672 173.244L150.023 163.159M165.672 173.244L158.788 130.866M167.574 165.283L172.031 156.027M167.574 165.283L158.788 130.866M172.031 156.027L177.777 147.556L158.788 130.866M172.031 156.027L158.788 130.866M125.521 135.692L130.431 129.562M125.521 135.692L138.266 136.611M134.152 124.417L139.798 114.175L158.788 130.866M134.152 124.417L130.431 129.562M134.152 124.417L138.266 136.611M130.431 129.562L138.266 136.611M158.788 130.866L150.023 163.159M158.788 130.866L138.266 136.611" stroke="#230000"/>
<g filter="url(#filter0_d_168_11)">
<path d="M160.035 70.5116L160.78 69.2096L170.086 63.0127L175.421 59.7285L180.817 59.3592L188.194 63.5802L194.331 69.9712L200.465 80.3933L204.801 90.9385L206.904 101.358L204.918 104.83L203.063 93.9764L199.347 84.3618L193.709 73.0717L187.821 66.2468L180.877 62.2741L176.412 62.0237L170.891 64.6255L160.035 70.5116Z" fill="#100F0F"/>
<path d="M157.304 75.2855L160.78 69.2096L170.086 63.0127M157.304 75.2855L160.035 70.5116L170.891 64.6255M157.304 75.2855L155.814 77.8895L153.391 85.1442M187.821 66.2468L188.194 63.5802M187.821 66.2468L180.877 62.2741M187.821 66.2468L193.709 73.0717L199.347 84.3618M188.194 63.5802L180.817 59.3592M188.194 63.5802L194.331 69.9712L200.465 80.3933M200.465 80.3933L199.347 84.3618M200.465 80.3933L204.801 90.9385M199.347 84.3618L203.063 93.9764M180.877 62.2741L180.817 59.3592M180.877 62.2741L176.412 62.0237M204.801 90.9385L206.904 101.358L204.918 104.83L203.063 93.9764M204.801 90.9385L203.063 93.9764M180.817 59.3592L175.421 59.7285M170.086 63.0127L175.421 59.7285M170.086 63.0127L170.891 64.6255M170.891 64.6255L176.412 62.0237M175.421 59.7285L176.412 62.0237" stroke="#252323"/>
</g>
<g filter="url(#filter1_d_168_11)">
<path d="M151.468 87.4998L155.628 77.2071L159.415 69.5809" stroke="#252323"/>
</g>
<path d="M152.524 84.6476L150.788 83.6544L155.57 70.2611L158.174 71.7509L152.524 84.6476Z" fill="#251414" stroke="#252323"/>
<g style="mix-blend-mode:darken" filter="url(#filter2_di_168_11)">
<path d="M210.839 64.6555L205.307 52.0206L213.809 28.5109L237.529 34.9626L234.948 49.4485L234.148 56.0712L228.346 60.3531L224.725 65.9555L223.154 71.7679L221.534 73.3085L214.951 70.9278L210.839 64.6555Z" fill="#251414"/>
<path d="M210.839 64.6555L205.307 52.0206L213.809 28.5109L237.529 34.9626L234.948 49.4485L234.148 56.0712L228.346 60.3531L224.725 65.9555L223.154 71.7679L221.534 73.3085L214.951 70.9278L210.839 64.6555Z" stroke="#230000"/>
</g>
<g filter="url(#filter3_dd_168_11)">
<path d="M229.991 49.3246C228.076 50.2164 226.274 45.3958 226.274 45.3958L224.242 40.8271L228.405 42.8063L231.635 46.6235C231.635 46.6235 231.11 48.8031 229.991 49.3246Z" fill="#B20000" shape-rendering="crispEdges"/>
<path d="M229.991 49.3246C228.076 50.2164 226.274 45.3958 226.274 45.3958L224.242 40.8271L228.405 42.8063L231.635 46.6235C231.635 46.6235 231.11 48.8031 229.991 49.3246Z" stroke="url(#paint0_linear_168_11)" shape-rendering="crispEdges"/>
</g>
<path d="M239.84 37.3935L207.118 61.7144L216.802 79.041L214.421 85.6237L196.704 66.9869L181.467 50.3108L185.038 40.4367L189.22 37.6955L199.433 15.3361L214.238 5.27157L226.934 9.86294L242.25 23.3778L239.84 37.3935Z" fill="#261515"/>
<path d="M207.118 61.7144L239.84 37.3935M207.118 61.7144L216.802 79.041L214.421 85.6237L196.704 66.9869M207.118 61.7144L181.467 50.3108M207.118 61.7144L185.038 40.4367M207.118 61.7144L189.22 37.6955M207.118 61.7144L196.704 66.9869M239.84 37.3935L199.433 15.3361M239.84 37.3935L214.238 5.27157M239.84 37.3935L226.934 9.86294M239.84 37.3935L242.25 23.3778L226.934 9.86294M226.934 9.86294L214.238 5.27157M214.238 5.27157L199.433 15.3361M199.433 15.3361L189.22 37.6955M189.22 37.6955L185.038 40.4367M185.038 40.4367L181.467 50.3108M181.467 50.3108L196.704 66.9869" stroke="#230000"/>
<g filter="url(#filter4_d_168_11)">
<path d="M164.009 70.802L161.156 69.7463L160.537 68.8157L160.599 67.6994L162.337 64.6614L167.178 58.2141L168.853 56.2925L170.963 54.6191L174.685 52.1403L180.703 48.6705L183.928 47.0597L186.906 45.8829L191.183 49.4821L194.716 54.3833L203.145 63.8143L214.172 86.8285L215.906 91.8528L214.229 97.8056L209.945 106.3L202.248 119.754L194.426 135.44L183.937 150.753L178.04 160.052L175.246 165.942L173.759 164.515L176.056 159.493L181.704 150.628L192.193 135.315L200.76 118.326L208.706 104.439L211.685 99.2307L204.871 84.9631L197.313 67.9665L190.495 61.7612L184.542 60.0836L171.084 60.4488L164.009 70.802Z" fill="#3C3C3C"/>
<path d="M161.156 69.7463L164.009 70.802L171.084 60.4488M161.156 69.7463L160.537 68.8157L160.599 67.6994M161.156 69.7463L171.084 60.4488M160.599 67.6994L162.337 64.6614M160.599 67.6994L171.084 60.4488M162.337 64.6614L167.178 58.2141M162.337 64.6614L171.084 60.4488M167.178 58.2141L168.853 56.2925M167.178 58.2141L171.084 60.4488M168.853 56.2925L170.963 54.6191M168.853 56.2925L184.542 60.0836M170.963 54.6191L174.685 52.1403M170.963 54.6191L184.542 60.0836M186.906 45.8829L190.495 61.7612M186.906 45.8829L183.928 47.0597L180.703 48.6705M186.906 45.8829L191.183 49.4821L194.716 54.3833M203.145 63.8143L214.172 86.8285M203.145 63.8143L194.716 54.3833M203.145 63.8143L197.313 67.9665M214.172 86.8285L215.906 91.8528M214.172 86.8285L204.871 84.9631M215.906 91.8528L214.229 97.8056M215.906 91.8528L204.871 84.9631M214.229 97.8056L209.945 106.3M214.229 97.8056L211.685 99.2307M209.945 106.3L202.248 119.754M209.945 106.3L208.706 104.439M200.76 118.326L208.706 104.439M200.76 118.326L192.193 135.315M200.76 118.326L202.248 119.754M208.706 104.439L211.685 99.2307M211.685 99.2307L204.871 84.9631M197.313 67.9665L190.495 61.7612M197.313 67.9665L204.871 84.9631M190.495 61.7612L184.542 60.0836M190.495 61.7612L180.703 48.6705M190.495 61.7612L194.716 54.3833M184.542 60.0836L171.084 60.4488M184.542 60.0836L174.685 52.1403M174.685 52.1403L180.703 48.6705M176.056 159.493L173.759 164.515L175.246 165.942L178.04 160.052M176.056 159.493L181.704 150.628M176.056 159.493L178.04 160.052M178.04 160.052L183.937 150.753M181.704 150.628L192.193 135.315M181.704 150.628L183.937 150.753M192.193 135.315L194.426 135.44M183.937 150.753L194.426 135.44M194.426 135.44L202.248 119.754" stroke="#251414"/>
</g>
<g filter="url(#filter5_d_168_11)">
<g filter="url(#filter6_d_168_11)">
<path d="M112.495 148.449C112.904 147.761 114.477 146.136 115.397 145.52L117.75 142.847L129.571 151.03L141.864 157.749L152.356 164.561L163.533 171.199L162.855 176.03L161.323 178.61L153.591 172.273L144.993 167.167L131.236 158.997L117.404 151.364L113.921 149.295L112.495 148.449Z" fill="#3C3C3C"/>
<path d="M117.75 142.847L115.397 145.52C114.477 146.136 112.904 147.761 112.495 148.449L113.921 149.295M117.75 142.847L129.571 151.03M117.75 142.847L117.404 151.364M117.75 142.847L113.921 149.295M117.404 151.364L113.921 149.295M117.404 151.364L131.236 158.997M144.993 167.167L131.236 158.997M144.993 167.167L153.591 172.273M144.993 167.167L141.864 157.749M141.864 157.749L129.571 151.03M141.864 157.749L152.356 164.561M131.236 158.997L129.571 151.03M152.356 164.561L163.533 171.199L162.855 176.03L161.323 178.61L153.591 172.273M152.356 164.561L153.591 172.273" stroke="#251414"/>
</g>
<path d="M181.21 164H180.41V156L181.21 157V164Z" fill="#1F1F1F"/>
<path d="M180.41 164H181.21V157M180.41 164V156L181.21 157M180.41 164C180.41 163.619 180.877 160.175 181.21 157" stroke="#251414"/>
</g>
<path d="M185.573 78.2229L189.352 85.3621L207.655 100.887L202.654 109.102L199.178 118.611L192.43 114.198L180.402 105.963L167.345 98.1666L160.863 92.6684L159.811 88.4978L162.964 79.3703L172.044 73.3034L178.444 73.4872L185.573 78.2229Z" fill="#251414"/>
<path d="M189.352 85.3621L185.573 78.2229M189.352 85.3621L207.655 100.887L202.654 109.102M189.352 85.3621L183.173 96.5119M183.173 96.5119L191.065 101.894L196.287 105.013L202.654 109.102M183.173 96.5119L185.573 78.2229M183.173 96.5119C182.644 96.0635 178.697 92.715 174.403 89.0731M183.173 96.5119L167.345 98.1666M185.573 78.2229L178.444 73.4872M178.444 73.4872L172.044 73.3034M178.444 73.4872L174.403 89.0731M162.964 79.3703L172.044 73.3034M162.964 79.3703L159.811 88.4978M162.964 79.3703C165.272 81.328 171.264 86.4109 174.403 89.0731M172.044 73.3034L174.403 89.0731M202.654 109.102L199.178 118.611L192.43 114.198L180.402 105.963L167.345 98.1666M159.811 88.4978L160.863 92.6684M159.811 88.4978L174.403 89.0731M160.863 92.6684L167.345 98.1666M160.863 92.6684L174.403 89.0731" stroke="#230000"/>
<path d="M213.942 130.474L218.843 133.971L231.723 138.726L235.075 130.997L238.428 123.268L226.746 114.82L222.933 113.406L213.493 105.804L210.399 103.964L208.259 100.911L204.736 102.578L199.964 107.03L193.758 114.526L198.071 117.093L199.614 119.352L199.925 119.807L210.33 127.743L212.049 128.766L213.942 130.474Z" fill="#251414"/>
<path d="M226.746 114.82L222.933 113.406M226.746 114.82L238.428 123.268L235.075 130.997M226.746 114.82L226.094 123.74M218.843 133.971L213.942 130.474L212.049 128.766M218.843 133.971L231.723 138.726L235.075 130.997M218.843 133.971L226.094 123.74M222.933 113.406L213.493 105.804L210.399 103.964M222.933 113.406L216.21 117.86M210.33 127.743L199.925 119.807L199.614 119.352M210.33 127.743L212.049 128.766M210.33 127.743C210.535 127.399 214.25 121.155 216.21 117.86M210.399 103.964L208.259 100.911L204.736 102.578L199.964 107.03M210.399 103.964L199.964 107.03M210.399 103.964C207.001 108.763 200.086 118.559 199.614 119.352M198.071 117.093L193.758 114.526L199.964 107.03M198.071 117.093C198.528 116.326 199.523 110.065 199.964 107.03M198.071 117.093L199.614 119.352M199.964 107.03L216.21 117.86M216.21 117.86L226.094 123.74M216.21 117.86L212.049 128.766M226.094 123.74L235.075 130.997" stroke="#230000"/>
<path d="M278.161 110.384L274.903 105.793L267.067 118.944L258.921 107.466L272.119 97.5383L278.964 95.0331L286.078 99.7722L278.161 110.384Z" fill="#403535"/>
<path d="M274.903 105.793L278.161 110.384L286.078 99.7722L278.964 95.0331L272.119 97.5383L258.921 107.466M274.903 105.793L267.067 118.944L258.921 107.466M274.903 105.793C274.566 106.012 264.823 107.43 258.921 107.466" stroke="black"/>
<path d="M278.987 95.0837L285.653 100.143L283.956 102.085L278.161 110.385L276.206 107.63L274.903 105.793L277.807 101.22L278.405 105.529" stroke="black"/>
<path d="M232.22 142.438L234.052 137.22L230.005 129.786L238.746 124.771L258.25 108.057L266.397 119.535L247.979 134.703L239.728 146.95L236.964 142.571L232.22 142.438Z" fill="#403535"/>
<path d="M266.397 119.535L242.411 134.267M266.397 119.535L247.979 134.703M266.397 119.535L258.25 108.057M242.411 134.267C242.411 134.267 236.382 135.999 234.052 137.22M242.411 134.267L239.509 139.71M242.411 134.267L236.943 138.695M242.411 134.267L258.25 108.057M232.22 142.438L234.052 137.22M232.22 142.438L236.943 138.695M232.22 142.438L236.964 142.571M234.052 137.22L230.005 129.786L238.746 124.771L258.25 108.057M234.052 137.22L236.943 138.695M236.943 138.695L239.509 139.71M239.509 139.71L236.964 142.571M239.509 139.71L247.979 134.703M236.964 142.571L239.728 146.95L247.979 134.703" stroke="black"/>
<defs>
<filter id="filter0_d_168_11" x="148.917" y="58.8501" width="62.5142" height="55.4384" filterUnits="userSpaceOnUse" color-interpolation-filters="sRGB">
<feFlood flood-opacity="0" result="BackgroundImageFix"/>
<feColorMatrix in="SourceAlpha" type="matrix" values="0 0 0 0 0 0 0 0 0 0 0 0 0 0 0 0 0 0 127 0" result="hardAlpha"/>
<feOffset dy="4"/>
<feGaussianBlur stdDeviation="2"/>
<feComposite in2="hardAlpha" operator="out"/>
<feColorMatrix type="matrix" values="0 0 0 0 0 0 0 0 0 0 0 0 0 0 0 0 0 0 0.25 0"/>
<feBlend mode="normal" in2="BackgroundImageFix" result="effect1_dropShadow_168_11"/>
<feBlend mode="normal" in="SourceGraphic" in2="effect1_dropShadow_168_11" result="shape"/>
</filter>
<filter id="filter1_d_168_11" x="147.004" y="69.3585" width="16.8589" height="26.3287" filterUnits="userSpaceOnUse" color-interpolation-filters="sRGB">
<feFlood flood-opacity="0" result="BackgroundImageFix"/>
<feColorMatrix in="SourceAlpha" type="matrix" values="0 0 0 0 0 0 0 0 0 0 0 0 0 0 0 0 0 0 127 0" result="hardAlpha"/>
<feOffset dy="4"/>
<feGaussianBlur stdDeviation="2"/>
<feComposite in2="hardAlpha" operator="out"/>
<feColorMatrix type="matrix" values="0 0 0 0 0 0 0 0 0 0 0 0 0 0 0 0 0 0 0.25 0"/>
<feBlend mode="normal" in2="BackgroundImageFix" result="effect1_dropShadow_168_11"/>
<feBlend mode="normal" in="SourceGraphic" in2="effect1_dropShadow_168_11" result="shape"/>
</filter>
<filter id="filter2_di_168_11" x="200.768" y="24.9075" width="41.3328" height="54.2763" filterUnits="userSpaceOnUse" color-interpolation-filters="sRGB">
<feFlood flood-opacity="0" result="BackgroundImageFix"/>
<feColorMatrix in="SourceAlpha" type="matrix" values="0 0 0 0 0 0 0 0 0 0 0 0 0 0 0 0 0 0 127 0" result="hardAlpha"/>
<feOffset dy="1"/>
<feGaussianBlur stdDeviation="2"/>
<feComposite in2="hardAlpha" operator="out"/>
<feColorMatrix type="matrix" values="0 0 0 0 1 0 0 0 0 1 0 0 0 0 1 0 0 0 1 0"/>
<feBlend mode="normal" in2="BackgroundImageFix" result="effect1_dropShadow_168_11"/>
<feBlend mode="normal" in="SourceGraphic" in2="effect1_dropShadow_168_11" result="shape"/>
<feColorMatrix in="SourceAlpha" type="matrix" values="0 0 0 0 0 0 0 0 0 0 0 0 0 0 0 0 0 0 127 0" result="hardAlpha"/>
<feOffset dx="3" dy="10"/>
<feGaussianBlur stdDeviation="2.65"/>
<feComposite in2="hardAlpha" operator="arithmetic" k2="-1" k3="1"/>
<feColorMatrix type="matrix" values="0 0 0 0 0 0 0 0 0 0 0 0 0 0 0 0 0 0 0.25 0"/>
<feBlend mode="normal" in2="shape" result="effect2_innerShadow_168_11"/>
</filter>
<filter id="filter3_dd_168_11" x="219.236" y="39.7953" width="16.9442" height="18.1401" filterUnits="userSpaceOnUse" color-interpolation-filters="sRGB">
<feFlood flood-opacity="0" result="BackgroundImageFix"/>
<feColorMatrix in="SourceAlpha" type="matrix" values="0 0 0 0 0 0 0 0 0 0 0 0 0 0 0 0 0 0 127 0" result="hardAlpha"/>
<feOffset dy="4"/>
<feGaussianBlur stdDeviation="2"/>
<feComposite in2="hardAlpha" operator="out"/>
<feColorMatrix type="matrix" values="0 0 0 0 0 0 0 0 0 0 0 0 0 0 0 0 0 0 0.25 0"/>
<feBlend mode="normal" in2="BackgroundImageFix" result="effect1_dropShadow_168_11"/>
<feColorMatrix in="SourceAlpha" type="matrix" values="0 0 0 0 0 0 0 0 0 0 0 0 0 0 0 0 0 0 127 0" result="hardAlpha"/>
<feOffset dy="4"/>
<feGaussianBlur stdDeviation="2"/>
<feComposite in2="hardAlpha" operator="out"/>
<feColorMatrix type="matrix" values="0 0 0 0 0 0 0 0 0 0 0 0 0 0 0 0 0 0 0.25 0"/>
<feBlend mode="normal" in2="effect1_dropShadow_168_11" result="effect2_dropShadow_168_11"/>
<feBlend mode="normal" in="SourceGraphic" in2="effect2_dropShadow_168_11" result="shape"/>
</filter>
<filter id="filter4_d_168_11" x="156.028" y="45.3082" width="64.4019" height="129.475" filterUnits="userSpaceOnUse" color-interpolation-filters="sRGB">
<feFlood flood-opacity="0" result="BackgroundImageFix"/>
<feColorMatrix in="SourceAlpha" type="matrix" values="0 0 0 0 0 0 0 0 0 0 0 0 0 0 0 0 0 0 127 0" result="hardAlpha"/>
<feOffset dy="4"/>
<feGaussianBlur stdDeviation="2"/>
<feComposite in2="hardAlpha" operator="out"/>
<feColorMatrix type="matrix" values="0 0 0 0 0 0 0 0 0 0 0 0 0 0 0 0 0 0 0.25 0"/>
<feBlend mode="normal" in2="BackgroundImageFix" result="effect1_dropShadow_168_11"/>
<feBlend mode="normal" in="SourceGraphic" in2="effect1_dropShadow_168_11" result="shape"/>
</filter>
<filter id="filter5_d_168_11" x="107.81" y="142.182" width="77.9001" height="45.1827" filterUnits="userSpaceOnUse" color-interpolation-filters="sRGB">
<feFlood flood-opacity="0" result="BackgroundImageFix"/>
<feColorMatrix in="SourceAlpha" type="matrix" values="0 0 0 0 0 0 0 0 0 0 0 0 0 0 0 0 0 0 127 0" result="hardAlpha"/>
<feOffset dy="4"/>
<feGaussianBlur stdDeviation="2"/>
<feComposite in2="hardAlpha" operator="out"/>
<feColorMatrix type="matrix" values="0 0 0 0 0 0 0 0 0 0 0 0 0 0 0 0 0 0 0.25 0"/>
<feBlend mode="normal" in2="BackgroundImageFix" result="effect1_dropShadow_168_11"/>
<feBlend mode="normal" in="SourceGraphic" in2="effect1_dropShadow_168_11" result="shape"/>
</filter>
<filter id="filter6_d_168_11" x="107.81" y="142.182" width="60.2649" height="45.1827" filterUnits="userSpaceOnUse" color-interpolation-filters="sRGB">
<feFlood flood-opacity="0" result="BackgroundImageFix"/>
<feColorMatrix in="SourceAlpha" type="matrix" values="0 0 0 0 0 0 0 0 0 0 0 0 0 0 0 0 0 0 127 0" result="hardAlpha"/>
<feOffset dy="4"/>
<feGaussianBlur stdDeviation="2"/>
<feComposite in2="hardAlpha" operator="out"/>
<feColorMatrix type="matrix" values="0 0 0 0 0 0 0 0 0 0 0 0 0 0 0 0 0 0 0.25 0"/>
<feBlend mode="normal" in2="BackgroundImageFix" result="effect1_dropShadow_168_11"/>
<feBlend mode="normal" in="SourceGraphic" in2="effect1_dropShadow_168_11" result="shape"/>
</filter>
<linearGradient id="paint0_linear_168_11" x1="235.46" y1="43.3959" x2="233.707" y2="51.0504" gradientUnits="userSpaceOnUse">
<stop stop-opacity="0.1"/>
<stop offset="1" stop-color="#FF0000" stop-opacity="0"/>
<stop offset="1" stop-color="#FF0000" stop-opacity="0"/>
</linearGradient>
</defs>
</svg>
